%TF.GenerationSoftware,KiCad,Pcbnew,(6.0.10)*%
%TF.CreationDate,2023-02-13T21:08:55-05:00*%
%TF.ProjectId,module_board,6d6f6475-6c65-45f6-926f-6172642e6b69,rev?*%
%TF.SameCoordinates,Original*%
%TF.FileFunction,Paste,Top*%
%TF.FilePolarity,Positive*%
%FSLAX46Y46*%
G04 Gerber Fmt 4.6, Leading zero omitted, Abs format (unit mm)*
G04 Created by KiCad (PCBNEW (6.0.10)) date 2023-02-13 21:08:55*
%MOMM*%
%LPD*%
G01*
G04 APERTURE LIST*
G04 Aperture macros list*
%AMRoundRect*
0 Rectangle with rounded corners*
0 $1 Rounding radius*
0 $2 $3 $4 $5 $6 $7 $8 $9 X,Y pos of 4 corners*
0 Add a 4 corners polygon primitive as box body*
4,1,4,$2,$3,$4,$5,$6,$7,$8,$9,$2,$3,0*
0 Add four circle primitives for the rounded corners*
1,1,$1+$1,$2,$3*
1,1,$1+$1,$4,$5*
1,1,$1+$1,$6,$7*
1,1,$1+$1,$8,$9*
0 Add four rect primitives between the rounded corners*
20,1,$1+$1,$2,$3,$4,$5,0*
20,1,$1+$1,$4,$5,$6,$7,0*
20,1,$1+$1,$6,$7,$8,$9,0*
20,1,$1+$1,$8,$9,$2,$3,0*%
G04 Aperture macros list end*
%ADD10RoundRect,0.140000X-0.170000X0.140000X-0.170000X-0.140000X0.170000X-0.140000X0.170000X0.140000X0*%
%ADD11RoundRect,0.140000X0.170000X-0.140000X0.170000X0.140000X-0.170000X0.140000X-0.170000X-0.140000X0*%
%ADD12RoundRect,0.140000X-0.140000X-0.170000X0.140000X-0.170000X0.140000X0.170000X-0.140000X0.170000X0*%
%ADD13RoundRect,0.135000X0.185000X-0.135000X0.185000X0.135000X-0.185000X0.135000X-0.185000X-0.135000X0*%
%ADD14RoundRect,0.140000X0.140000X0.170000X-0.140000X0.170000X-0.140000X-0.170000X0.140000X-0.170000X0*%
%ADD15R,5.600000X2.100000*%
%ADD16RoundRect,0.135000X-0.185000X0.135000X-0.185000X-0.135000X0.185000X-0.135000X0.185000X0.135000X0*%
%ADD17RoundRect,0.249999X-0.395001X-0.395001X0.395001X-0.395001X0.395001X0.395001X-0.395001X0.395001X0*%
%ADD18RoundRect,0.050000X-0.387500X-0.050000X0.387500X-0.050000X0.387500X0.050000X-0.387500X0.050000X0*%
%ADD19RoundRect,0.050000X-0.050000X-0.387500X0.050000X-0.387500X0.050000X0.387500X-0.050000X0.387500X0*%
%ADD20RoundRect,0.150000X-0.650000X-0.150000X0.650000X-0.150000X0.650000X0.150000X-0.650000X0.150000X0*%
G04 APERTURE END LIST*
D10*
%TO.C,C9*%
X155500000Y-96020000D03*
X155500000Y-96980000D03*
%TD*%
D11*
%TO.C,C4*%
X166000000Y-83880000D03*
X166000000Y-82920000D03*
%TD*%
%TO.C,C5*%
X163800000Y-83880000D03*
X163800000Y-82920000D03*
%TD*%
D10*
%TO.C,C8*%
X153300000Y-96020000D03*
X153300000Y-96980000D03*
%TD*%
D12*
%TO.C,C6*%
X163920000Y-81800000D03*
X164880000Y-81800000D03*
%TD*%
D13*
%TO.C,R3*%
X154400000Y-97010000D03*
X154400000Y-95990000D03*
%TD*%
D11*
%TO.C,C14*%
X163400000Y-78580000D03*
X163400000Y-77620000D03*
%TD*%
%TO.C,C13*%
X167100000Y-83880000D03*
X167100000Y-82920000D03*
%TD*%
D10*
%TO.C,C12*%
X156600000Y-96020000D03*
X156600000Y-96980000D03*
%TD*%
%TO.C,C3*%
X164900000Y-82920000D03*
X164900000Y-83880000D03*
%TD*%
D14*
%TO.C,C10*%
X156180000Y-88200000D03*
X155220000Y-88200000D03*
%TD*%
D12*
%TO.C,C11*%
X167400000Y-90606250D03*
X168360000Y-90606250D03*
%TD*%
D15*
%TO.C,Y1*%
X164400000Y-100550000D03*
X154900000Y-100550000D03*
%TD*%
D10*
%TO.C,C2*%
X157750000Y-96020000D03*
X157750000Y-96980000D03*
%TD*%
D13*
%TO.C,R1*%
X151200000Y-79110000D03*
X151200000Y-78090000D03*
%TD*%
D16*
%TO.C,R2*%
X162200000Y-77590000D03*
X162200000Y-78610000D03*
%TD*%
D17*
%TO.C,U1*%
X160200000Y-88812500D03*
X161800000Y-88812500D03*
X160200000Y-90412500D03*
X161800000Y-90412500D03*
D18*
X157562500Y-87012500D03*
X157562500Y-87412500D03*
X157562500Y-87812500D03*
X157562500Y-88212500D03*
X157562500Y-88612500D03*
X157562500Y-89012500D03*
X157562500Y-89412500D03*
X157562500Y-89812500D03*
X157562500Y-90212500D03*
X157562500Y-90612500D03*
X157562500Y-91012500D03*
X157562500Y-91412500D03*
X157562500Y-91812500D03*
X157562500Y-92212500D03*
D19*
X158400000Y-93050000D03*
X158800000Y-93050000D03*
X159200000Y-93050000D03*
X159600000Y-93050000D03*
X160000000Y-93050000D03*
X160400000Y-93050000D03*
X160800000Y-93050000D03*
X161200000Y-93050000D03*
X161600000Y-93050000D03*
X162000000Y-93050000D03*
X162400000Y-93050000D03*
X162800000Y-93050000D03*
X163200000Y-93050000D03*
X163600000Y-93050000D03*
D18*
X164437500Y-92212500D03*
X164437500Y-91812500D03*
X164437500Y-91412500D03*
X164437500Y-91012500D03*
X164437500Y-90612500D03*
X164437500Y-90212500D03*
X164437500Y-89812500D03*
X164437500Y-89412500D03*
X164437500Y-89012500D03*
X164437500Y-88612500D03*
X164437500Y-88212500D03*
X164437500Y-87812500D03*
X164437500Y-87412500D03*
X164437500Y-87012500D03*
D19*
X163600000Y-86175000D03*
X163200000Y-86175000D03*
X162800000Y-86175000D03*
X162400000Y-86175000D03*
X162000000Y-86175000D03*
X161600000Y-86175000D03*
X161200000Y-86175000D03*
X160800000Y-86175000D03*
X160400000Y-86175000D03*
X160000000Y-86175000D03*
X159600000Y-86175000D03*
X159200000Y-86175000D03*
X158800000Y-86175000D03*
X158400000Y-86175000D03*
%TD*%
D12*
%TO.C,C1*%
X160220000Y-84100000D03*
X161180000Y-84100000D03*
%TD*%
D20*
%TO.C,U2*%
X153200000Y-78595000D03*
X153200000Y-79865000D03*
X153200000Y-81135000D03*
X153200000Y-82405000D03*
X160400000Y-82405000D03*
X160400000Y-81135000D03*
X160400000Y-79865000D03*
X160400000Y-78595000D03*
%TD*%
D14*
%TO.C,C7*%
X156180000Y-87050000D03*
X155220000Y-87050000D03*
%TD*%
M02*
