%TF.GenerationSoftware,KiCad,Pcbnew,(6.0.10)*%
%TF.CreationDate,2023-02-13T20:41:26-05:00*%
%TF.ProjectId,master_board,6d617374-6572-45f6-926f-6172642e6b69,rev?*%
%TF.SameCoordinates,Original*%
%TF.FileFunction,Legend,Bot*%
%TF.FilePolarity,Positive*%
%FSLAX46Y46*%
G04 Gerber Fmt 4.6, Leading zero omitted, Abs format (unit mm)*
G04 Created by KiCad (PCBNEW (6.0.10)) date 2023-02-13 20:41:26*
%MOMM*%
%LPD*%
G01*
G04 APERTURE LIST*
%ADD10C,0.200000*%
G04 APERTURE END LIST*
D10*
X25200000Y-169000000D02*
G75*
G03*
X25200000Y-169000000I-3201562J0D01*
G01*
X25201562Y-23000000D02*
G75*
G03*
X25201562Y-23000000I-3201562J0D01*
G01*
X171203124Y-23000000D02*
G75*
G03*
X171203124Y-23000000I-3201562J0D01*
G01*
X171201562Y-169001562D02*
G75*
G03*
X171201562Y-169001562I-3201562J0D01*
G01*
X49971428Y-27551190D02*
X49971428Y-28027380D01*
X50304761Y-27027380D02*
X49971428Y-27551190D01*
X49638095Y-27027380D01*
X48876190Y-27360714D02*
X48876190Y-28027380D01*
X49304761Y-27360714D02*
X49304761Y-27884523D01*
X49257142Y-27979761D01*
X49161904Y-28027380D01*
X49019047Y-28027380D01*
X48923809Y-27979761D01*
X48876190Y-27932142D01*
X48400000Y-27646428D02*
X47638095Y-27646428D01*
X47257142Y-27360714D02*
X47019047Y-28027380D01*
X46780952Y-27360714D02*
X47019047Y-28027380D01*
X47114285Y-28265476D01*
X47161904Y-28313095D01*
X47257142Y-28360714D01*
X45971428Y-28027380D02*
X45971428Y-27503571D01*
X46019047Y-27408333D01*
X46114285Y-27360714D01*
X46304761Y-27360714D01*
X46400000Y-27408333D01*
X45971428Y-27979761D02*
X46066666Y-28027380D01*
X46304761Y-28027380D01*
X46400000Y-27979761D01*
X46447619Y-27884523D01*
X46447619Y-27789285D01*
X46400000Y-27694047D01*
X46304761Y-27646428D01*
X46066666Y-27646428D01*
X45971428Y-27598809D01*
X45495238Y-27360714D02*
X45495238Y-28027380D01*
X45495238Y-27455952D02*
X45447619Y-27408333D01*
X45352380Y-27360714D01*
X45209523Y-27360714D01*
X45114285Y-27408333D01*
X45066666Y-27503571D01*
X45066666Y-28027380D01*
X44161904Y-27360714D02*
X44161904Y-28170238D01*
X44209523Y-28265476D01*
X44257142Y-28313095D01*
X44352380Y-28360714D01*
X44495238Y-28360714D01*
X44590476Y-28313095D01*
X44161904Y-27979761D02*
X44257142Y-28027380D01*
X44447619Y-28027380D01*
X44542857Y-27979761D01*
X44590476Y-27932142D01*
X44638095Y-27836904D01*
X44638095Y-27551190D01*
X44590476Y-27455952D01*
X44542857Y-27408333D01*
X44447619Y-27360714D01*
X44257142Y-27360714D01*
X44161904Y-27408333D01*
X42923809Y-28027380D02*
X42923809Y-27027380D01*
X42923809Y-27503571D02*
X42352380Y-27503571D01*
X42352380Y-28027380D02*
X42352380Y-27027380D01*
X41923809Y-27979761D02*
X41828571Y-28027380D01*
X41638095Y-28027380D01*
X41542857Y-27979761D01*
X41495238Y-27884523D01*
X41495238Y-27836904D01*
X41542857Y-27741666D01*
X41638095Y-27694047D01*
X41780952Y-27694047D01*
X41876190Y-27646428D01*
X41923809Y-27551190D01*
X41923809Y-27503571D01*
X41876190Y-27408333D01*
X41780952Y-27360714D01*
X41638095Y-27360714D01*
X41542857Y-27408333D01*
X41066666Y-28027380D02*
X41066666Y-27360714D01*
X41066666Y-27027380D02*
X41114285Y-27075000D01*
X41066666Y-27122619D01*
X41019047Y-27075000D01*
X41066666Y-27027380D01*
X41066666Y-27122619D01*
X40209523Y-27979761D02*
X40304761Y-28027380D01*
X40495238Y-28027380D01*
X40590476Y-27979761D01*
X40638095Y-27884523D01*
X40638095Y-27503571D01*
X40590476Y-27408333D01*
X40495238Y-27360714D01*
X40304761Y-27360714D01*
X40209523Y-27408333D01*
X40161904Y-27503571D01*
X40161904Y-27598809D01*
X40638095Y-27694047D01*
X39733333Y-28027380D02*
X39733333Y-27027380D01*
X39304761Y-28027380D02*
X39304761Y-27503571D01*
X39352380Y-27408333D01*
X39447619Y-27360714D01*
X39590476Y-27360714D01*
X39685714Y-27408333D01*
X39733333Y-27455952D01*
X37780952Y-28408333D02*
X37828571Y-28360714D01*
X37923809Y-28217857D01*
X37971428Y-28122619D01*
X38019047Y-27979761D01*
X38066666Y-27741666D01*
X38066666Y-27551190D01*
X38019047Y-27313095D01*
X37971428Y-27170238D01*
X37923809Y-27075000D01*
X37828571Y-26932142D01*
X37780952Y-26884523D01*
X36923809Y-28027380D02*
X37400000Y-28027380D01*
X37400000Y-27027380D01*
X36209523Y-27979761D02*
X36304761Y-28027380D01*
X36495238Y-28027380D01*
X36590476Y-27979761D01*
X36638095Y-27884523D01*
X36638095Y-27503571D01*
X36590476Y-27408333D01*
X36495238Y-27360714D01*
X36304761Y-27360714D01*
X36209523Y-27408333D01*
X36161904Y-27503571D01*
X36161904Y-27598809D01*
X36638095Y-27694047D01*
X35590476Y-28027380D02*
X35685714Y-27979761D01*
X35733333Y-27932142D01*
X35780952Y-27836904D01*
X35780952Y-27551190D01*
X35733333Y-27455952D01*
X35685714Y-27408333D01*
X35590476Y-27360714D01*
X35447619Y-27360714D01*
X35352380Y-27408333D01*
X35304761Y-27455952D01*
X35257142Y-27551190D01*
X35257142Y-27836904D01*
X35304761Y-27932142D01*
X35352380Y-27979761D01*
X35447619Y-28027380D01*
X35590476Y-28027380D01*
X34923809Y-28408333D02*
X34876190Y-28360714D01*
X34780952Y-28217857D01*
X34733333Y-28122619D01*
X34685714Y-27979761D01*
X34638095Y-27741666D01*
X34638095Y-27551190D01*
X34685714Y-27313095D01*
X34733333Y-27170238D01*
X34780952Y-27075000D01*
X34876190Y-26932142D01*
X34923809Y-26884523D01*
X47185714Y-29542142D02*
X47233333Y-29589761D01*
X47376190Y-29637380D01*
X47471428Y-29637380D01*
X47614285Y-29589761D01*
X47709523Y-29494523D01*
X47757142Y-29399285D01*
X47804761Y-29208809D01*
X47804761Y-29065952D01*
X47757142Y-28875476D01*
X47709523Y-28780238D01*
X47614285Y-28685000D01*
X47471428Y-28637380D01*
X47376190Y-28637380D01*
X47233333Y-28685000D01*
X47185714Y-28732619D01*
X46328571Y-29637380D02*
X46328571Y-29113571D01*
X46376190Y-29018333D01*
X46471428Y-28970714D01*
X46661904Y-28970714D01*
X46757142Y-29018333D01*
X46328571Y-29589761D02*
X46423809Y-29637380D01*
X46661904Y-29637380D01*
X46757142Y-29589761D01*
X46804761Y-29494523D01*
X46804761Y-29399285D01*
X46757142Y-29304047D01*
X46661904Y-29256428D01*
X46423809Y-29256428D01*
X46328571Y-29208809D01*
X45709523Y-29637380D02*
X45804761Y-29589761D01*
X45852380Y-29494523D01*
X45852380Y-28637380D01*
X44947619Y-29589761D02*
X45042857Y-29637380D01*
X45233333Y-29637380D01*
X45328571Y-29589761D01*
X45376190Y-29494523D01*
X45376190Y-29113571D01*
X45328571Y-29018333D01*
X45233333Y-28970714D01*
X45042857Y-28970714D01*
X44947619Y-29018333D01*
X44900000Y-29113571D01*
X44900000Y-29208809D01*
X45376190Y-29304047D01*
X44471428Y-29637380D02*
X44471428Y-28637380D01*
X44471428Y-29018333D02*
X44376190Y-28970714D01*
X44185714Y-28970714D01*
X44090476Y-29018333D01*
X44042857Y-29065952D01*
X43995238Y-29161190D01*
X43995238Y-29446904D01*
X44042857Y-29542142D01*
X44090476Y-29589761D01*
X44185714Y-29637380D01*
X44376190Y-29637380D01*
X44471428Y-29589761D01*
X42614285Y-28637380D02*
X42423809Y-28637380D01*
X42328571Y-28685000D01*
X42233333Y-28780238D01*
X42185714Y-28970714D01*
X42185714Y-29304047D01*
X42233333Y-29494523D01*
X42328571Y-29589761D01*
X42423809Y-29637380D01*
X42614285Y-29637380D01*
X42709523Y-29589761D01*
X42804761Y-29494523D01*
X42852380Y-29304047D01*
X42852380Y-28970714D01*
X42804761Y-28780238D01*
X42709523Y-28685000D01*
X42614285Y-28637380D01*
X41709523Y-28637380D02*
X41804761Y-28827857D01*
X41280952Y-29637380D02*
X41280952Y-28637380D01*
X40947619Y-29351666D01*
X40614285Y-28637380D01*
X40614285Y-29637380D01*
X39709523Y-29637380D02*
X39709523Y-29113571D01*
X39757142Y-29018333D01*
X39852380Y-28970714D01*
X40042857Y-28970714D01*
X40138095Y-29018333D01*
X39709523Y-29589761D02*
X39804761Y-29637380D01*
X40042857Y-29637380D01*
X40138095Y-29589761D01*
X40185714Y-29494523D01*
X40185714Y-29399285D01*
X40138095Y-29304047D01*
X40042857Y-29256428D01*
X39804761Y-29256428D01*
X39709523Y-29208809D01*
X39090476Y-29637380D02*
X39185714Y-29589761D01*
X39233333Y-29494523D01*
X39233333Y-28637380D01*
X38566666Y-29637380D02*
X38661904Y-29589761D01*
X38709523Y-29494523D01*
X38709523Y-28637380D01*
X37804761Y-29589761D02*
X37900000Y-29637380D01*
X38090476Y-29637380D01*
X38185714Y-29589761D01*
X38233333Y-29494523D01*
X38233333Y-29113571D01*
X38185714Y-29018333D01*
X38090476Y-28970714D01*
X37900000Y-28970714D01*
X37804761Y-29018333D01*
X37757142Y-29113571D01*
X37757142Y-29208809D01*
X38233333Y-29304047D01*
X37423809Y-28970714D02*
X37185714Y-29637380D01*
X36947619Y-28970714D02*
X37185714Y-29637380D01*
X37280952Y-29875476D01*
X37328571Y-29923095D01*
X37423809Y-29970714D01*
X47780952Y-30723571D02*
X47638095Y-30771190D01*
X47590476Y-30818809D01*
X47542857Y-30914047D01*
X47542857Y-31056904D01*
X47590476Y-31152142D01*
X47638095Y-31199761D01*
X47733333Y-31247380D01*
X48114285Y-31247380D01*
X48114285Y-30247380D01*
X47780952Y-30247380D01*
X47685714Y-30295000D01*
X47638095Y-30342619D01*
X47590476Y-30437857D01*
X47590476Y-30533095D01*
X47638095Y-30628333D01*
X47685714Y-30675952D01*
X47780952Y-30723571D01*
X48114285Y-30723571D01*
X47114285Y-31247380D02*
X47114285Y-30580714D01*
X47114285Y-30771190D02*
X47066666Y-30675952D01*
X47019047Y-30628333D01*
X46923809Y-30580714D01*
X46828571Y-30580714D01*
X46495238Y-31247380D02*
X46495238Y-30580714D01*
X46495238Y-30247380D02*
X46542857Y-30295000D01*
X46495238Y-30342619D01*
X46447619Y-30295000D01*
X46495238Y-30247380D01*
X46495238Y-30342619D01*
X46161904Y-30580714D02*
X45780952Y-30580714D01*
X46019047Y-30247380D02*
X46019047Y-31104523D01*
X45971428Y-31199761D01*
X45876190Y-31247380D01*
X45780952Y-31247380D01*
X45590476Y-30580714D02*
X45209523Y-30580714D01*
X45447619Y-30247380D02*
X45447619Y-31104523D01*
X45400000Y-31199761D01*
X45304761Y-31247380D01*
X45209523Y-31247380D01*
X44733333Y-31247380D02*
X44828571Y-31199761D01*
X44876190Y-31152142D01*
X44923809Y-31056904D01*
X44923809Y-30771190D01*
X44876190Y-30675952D01*
X44828571Y-30628333D01*
X44733333Y-30580714D01*
X44590476Y-30580714D01*
X44495238Y-30628333D01*
X44447619Y-30675952D01*
X44400000Y-30771190D01*
X44400000Y-31056904D01*
X44447619Y-31152142D01*
X44495238Y-31199761D01*
X44590476Y-31247380D01*
X44733333Y-31247380D01*
X43971428Y-30580714D02*
X43971428Y-31247380D01*
X43971428Y-30675952D02*
X43923809Y-30628333D01*
X43828571Y-30580714D01*
X43685714Y-30580714D01*
X43590476Y-30628333D01*
X43542857Y-30723571D01*
X43542857Y-31247380D01*
X42304761Y-31247380D02*
X42304761Y-30247380D01*
X41971428Y-30961666D01*
X41638095Y-30247380D01*
X41638095Y-31247380D01*
X40733333Y-31199761D02*
X40828571Y-31247380D01*
X41019047Y-31247380D01*
X41114285Y-31199761D01*
X41161904Y-31152142D01*
X41209523Y-31056904D01*
X41209523Y-30771190D01*
X41161904Y-30675952D01*
X41114285Y-30628333D01*
X41019047Y-30580714D01*
X40828571Y-30580714D01*
X40733333Y-30628333D01*
X39828571Y-31247380D02*
X40304761Y-31247380D01*
X40304761Y-30247380D01*
X39114285Y-31199761D02*
X39209523Y-31247380D01*
X39400000Y-31247380D01*
X39495238Y-31199761D01*
X39542857Y-31104523D01*
X39542857Y-30723571D01*
X39495238Y-30628333D01*
X39400000Y-30580714D01*
X39209523Y-30580714D01*
X39114285Y-30628333D01*
X39066666Y-30723571D01*
X39066666Y-30818809D01*
X39542857Y-30914047D01*
X38209523Y-31247380D02*
X38209523Y-30723571D01*
X38257142Y-30628333D01*
X38352380Y-30580714D01*
X38542857Y-30580714D01*
X38638095Y-30628333D01*
X38209523Y-31199761D02*
X38304761Y-31247380D01*
X38542857Y-31247380D01*
X38638095Y-31199761D01*
X38685714Y-31104523D01*
X38685714Y-31009285D01*
X38638095Y-30914047D01*
X38542857Y-30866428D01*
X38304761Y-30866428D01*
X38209523Y-30818809D01*
X37828571Y-30580714D02*
X37590476Y-31247380D01*
X37352380Y-30580714D01*
X37066666Y-30580714D02*
X36828571Y-31247380D01*
X36590476Y-30580714D02*
X36828571Y-31247380D01*
X36923809Y-31485476D01*
X36971428Y-31533095D01*
X37066666Y-31580714D01*
X47685714Y-32857380D02*
X47685714Y-31857380D01*
X47352380Y-32571666D01*
X47019047Y-31857380D01*
X47019047Y-32857380D01*
X46161904Y-32809761D02*
X46257142Y-32857380D01*
X46447619Y-32857380D01*
X46542857Y-32809761D01*
X46590476Y-32714523D01*
X46590476Y-32333571D01*
X46542857Y-32238333D01*
X46447619Y-32190714D01*
X46257142Y-32190714D01*
X46161904Y-32238333D01*
X46114285Y-32333571D01*
X46114285Y-32428809D01*
X46590476Y-32524047D01*
X45685714Y-32857380D02*
X45685714Y-32190714D01*
X45685714Y-32381190D02*
X45638095Y-32285952D01*
X45590476Y-32238333D01*
X45495238Y-32190714D01*
X45400000Y-32190714D01*
X45066666Y-32857380D02*
X45066666Y-32190714D01*
X45066666Y-32381190D02*
X45019047Y-32285952D01*
X44971428Y-32238333D01*
X44876190Y-32190714D01*
X44780952Y-32190714D01*
X44447619Y-32857380D02*
X44447619Y-32190714D01*
X44447619Y-31857380D02*
X44495238Y-31905000D01*
X44447619Y-31952619D01*
X44400000Y-31905000D01*
X44447619Y-31857380D01*
X44447619Y-31952619D01*
X43542857Y-32809761D02*
X43638095Y-32857380D01*
X43828571Y-32857380D01*
X43923809Y-32809761D01*
X43971428Y-32762142D01*
X44019047Y-32666904D01*
X44019047Y-32381190D01*
X43971428Y-32285952D01*
X43923809Y-32238333D01*
X43828571Y-32190714D01*
X43638095Y-32190714D01*
X43542857Y-32238333D01*
X43114285Y-32857380D02*
X43114285Y-31857380D01*
X43019047Y-32476428D02*
X42733333Y-32857380D01*
X42733333Y-32190714D02*
X43114285Y-32571666D01*
X40971428Y-32857380D02*
X41304761Y-32381190D01*
X41542857Y-32857380D02*
X41542857Y-31857380D01*
X41161904Y-31857380D01*
X41066666Y-31905000D01*
X41019047Y-31952619D01*
X40971428Y-32047857D01*
X40971428Y-32190714D01*
X41019047Y-32285952D01*
X41066666Y-32333571D01*
X41161904Y-32381190D01*
X41542857Y-32381190D01*
X40638095Y-32190714D02*
X40400000Y-32857380D01*
X40161904Y-32190714D02*
X40400000Y-32857380D01*
X40495238Y-33095476D01*
X40542857Y-33143095D01*
X40638095Y-33190714D01*
X39780952Y-32857380D02*
X39780952Y-32190714D01*
X39780952Y-32285952D02*
X39733333Y-32238333D01*
X39638095Y-32190714D01*
X39495238Y-32190714D01*
X39400000Y-32238333D01*
X39352380Y-32333571D01*
X39352380Y-32857380D01*
X39352380Y-32333571D02*
X39304761Y-32238333D01*
X39209523Y-32190714D01*
X39066666Y-32190714D01*
X38971428Y-32238333D01*
X38923809Y-32333571D01*
X38923809Y-32857380D01*
X38019047Y-32857380D02*
X38019047Y-32333571D01*
X38066666Y-32238333D01*
X38161904Y-32190714D01*
X38352380Y-32190714D01*
X38447619Y-32238333D01*
X38019047Y-32809761D02*
X38114285Y-32857380D01*
X38352380Y-32857380D01*
X38447619Y-32809761D01*
X38495238Y-32714523D01*
X38495238Y-32619285D01*
X38447619Y-32524047D01*
X38352380Y-32476428D01*
X38114285Y-32476428D01*
X38019047Y-32428809D01*
X37542857Y-32190714D02*
X37542857Y-32857380D01*
X37542857Y-32285952D02*
X37495238Y-32238333D01*
X37400000Y-32190714D01*
X37257142Y-32190714D01*
X37161904Y-32238333D01*
X37114285Y-32333571D01*
X37114285Y-32857380D01*
X46566666Y-33943571D02*
X46233333Y-33943571D01*
X46090476Y-34467380D02*
X46566666Y-34467380D01*
X46566666Y-33467380D01*
X46090476Y-33467380D01*
X45757142Y-33800714D02*
X45519047Y-34467380D01*
X45280952Y-33800714D01*
X44471428Y-34467380D02*
X44471428Y-33943571D01*
X44519047Y-33848333D01*
X44614285Y-33800714D01*
X44804761Y-33800714D01*
X44900000Y-33848333D01*
X44471428Y-34419761D02*
X44566666Y-34467380D01*
X44804761Y-34467380D01*
X44900000Y-34419761D01*
X44947619Y-34324523D01*
X44947619Y-34229285D01*
X44900000Y-34134047D01*
X44804761Y-34086428D01*
X44566666Y-34086428D01*
X44471428Y-34038809D01*
X43995238Y-33800714D02*
X43995238Y-34467380D01*
X43995238Y-33895952D02*
X43947619Y-33848333D01*
X43852380Y-33800714D01*
X43709523Y-33800714D01*
X43614285Y-33848333D01*
X43566666Y-33943571D01*
X43566666Y-34467380D01*
X42423809Y-33467380D02*
X41757142Y-33467380D01*
X42423809Y-34467380D01*
X41757142Y-34467380D01*
X41376190Y-34467380D02*
X41376190Y-33467380D01*
X40947619Y-34467380D02*
X40947619Y-33943571D01*
X40995238Y-33848333D01*
X41090476Y-33800714D01*
X41233333Y-33800714D01*
X41328571Y-33848333D01*
X41376190Y-33895952D01*
X40042857Y-34467380D02*
X40042857Y-33943571D01*
X40090476Y-33848333D01*
X40185714Y-33800714D01*
X40376190Y-33800714D01*
X40471428Y-33848333D01*
X40042857Y-34419761D02*
X40138095Y-34467380D01*
X40376190Y-34467380D01*
X40471428Y-34419761D01*
X40519047Y-34324523D01*
X40519047Y-34229285D01*
X40471428Y-34134047D01*
X40376190Y-34086428D01*
X40138095Y-34086428D01*
X40042857Y-34038809D01*
X39566666Y-33800714D02*
X39566666Y-34467380D01*
X39566666Y-33895952D02*
X39519047Y-33848333D01*
X39423809Y-33800714D01*
X39280952Y-33800714D01*
X39185714Y-33848333D01*
X39138095Y-33943571D01*
X39138095Y-34467380D01*
X38233333Y-33800714D02*
X38233333Y-34610238D01*
X38280952Y-34705476D01*
X38328571Y-34753095D01*
X38423809Y-34800714D01*
X38566666Y-34800714D01*
X38661904Y-34753095D01*
X38233333Y-34419761D02*
X38328571Y-34467380D01*
X38519047Y-34467380D01*
X38614285Y-34419761D01*
X38661904Y-34372142D01*
X38709523Y-34276904D01*
X38709523Y-33991190D01*
X38661904Y-33895952D01*
X38614285Y-33848333D01*
X38519047Y-33800714D01*
X38328571Y-33800714D01*
X38233333Y-33848333D01*
X47423809Y-36077380D02*
X47423809Y-35077380D01*
X47090476Y-35791666D01*
X46757142Y-35077380D01*
X46757142Y-36077380D01*
X45852380Y-36077380D02*
X45852380Y-35553571D01*
X45900000Y-35458333D01*
X45995238Y-35410714D01*
X46185714Y-35410714D01*
X46280952Y-35458333D01*
X45852380Y-36029761D02*
X45947619Y-36077380D01*
X46185714Y-36077380D01*
X46280952Y-36029761D01*
X46328571Y-35934523D01*
X46328571Y-35839285D01*
X46280952Y-35744047D01*
X46185714Y-35696428D01*
X45947619Y-35696428D01*
X45852380Y-35648809D01*
X44947619Y-36077380D02*
X44947619Y-35077380D01*
X44947619Y-36029761D02*
X45042857Y-36077380D01*
X45233333Y-36077380D01*
X45328571Y-36029761D01*
X45376190Y-35982142D01*
X45423809Y-35886904D01*
X45423809Y-35601190D01*
X45376190Y-35505952D01*
X45328571Y-35458333D01*
X45233333Y-35410714D01*
X45042857Y-35410714D01*
X44947619Y-35458333D01*
X44090476Y-36029761D02*
X44185714Y-36077380D01*
X44376190Y-36077380D01*
X44471428Y-36029761D01*
X44519047Y-35934523D01*
X44519047Y-35553571D01*
X44471428Y-35458333D01*
X44376190Y-35410714D01*
X44185714Y-35410714D01*
X44090476Y-35458333D01*
X44042857Y-35553571D01*
X44042857Y-35648809D01*
X44519047Y-35744047D01*
X42947619Y-35410714D02*
X42757142Y-36077380D01*
X42566666Y-35601190D01*
X42376190Y-36077380D01*
X42185714Y-35410714D01*
X41804761Y-36077380D02*
X41804761Y-35410714D01*
X41804761Y-35077380D02*
X41852380Y-35125000D01*
X41804761Y-35172619D01*
X41757142Y-35125000D01*
X41804761Y-35077380D01*
X41804761Y-35172619D01*
X41471428Y-35410714D02*
X41090476Y-35410714D01*
X41328571Y-35077380D02*
X41328571Y-35934523D01*
X41280952Y-36029761D01*
X41185714Y-36077380D01*
X41090476Y-36077380D01*
X40757142Y-36077380D02*
X40757142Y-35077380D01*
X40328571Y-36077380D02*
X40328571Y-35553571D01*
X40376190Y-35458333D01*
X40471428Y-35410714D01*
X40614285Y-35410714D01*
X40709523Y-35458333D01*
X40757142Y-35505952D01*
X38328571Y-35410714D02*
X39090476Y-35696428D01*
X38328571Y-35982142D01*
X37947619Y-35077380D02*
X37328571Y-35077380D01*
X37661904Y-35458333D01*
X37519047Y-35458333D01*
X37423809Y-35505952D01*
X37376190Y-35553571D01*
X37328571Y-35648809D01*
X37328571Y-35886904D01*
X37376190Y-35982142D01*
X37423809Y-36029761D01*
X37519047Y-36077380D01*
X37804761Y-36077380D01*
X37900000Y-36029761D01*
X37947619Y-35982142D01*
X168909523Y-27852380D02*
X168909523Y-26852380D01*
X168576190Y-27566666D01*
X168242857Y-26852380D01*
X168242857Y-27852380D01*
X167861904Y-26852380D02*
X167242857Y-26852380D01*
X167576190Y-27233333D01*
X167433333Y-27233333D01*
X167338095Y-27280952D01*
X167290476Y-27328571D01*
X167242857Y-27423809D01*
X167242857Y-27661904D01*
X167290476Y-27757142D01*
X167338095Y-27804761D01*
X167433333Y-27852380D01*
X167719047Y-27852380D01*
X167814285Y-27804761D01*
X167861904Y-27757142D01*
M02*
