%TF.GenerationSoftware,KiCad,Pcbnew,(6.0.10)*%
%TF.CreationDate,2023-03-03T22:29:42-05:00*%
%TF.ProjectId,master_board,6d617374-6572-45f6-926f-6172642e6b69,rev?*%
%TF.SameCoordinates,Original*%
%TF.FileFunction,Copper,L1,Top*%
%TF.FilePolarity,Positive*%
%FSLAX46Y46*%
G04 Gerber Fmt 4.6, Leading zero omitted, Abs format (unit mm)*
G04 Created by KiCad (PCBNEW (6.0.10)) date 2023-03-03 22:29:42*
%MOMM*%
%LPD*%
G01*
G04 APERTURE LIST*
G04 Aperture macros list*
%AMRoundRect*
0 Rectangle with rounded corners*
0 $1 Rounding radius*
0 $2 $3 $4 $5 $6 $7 $8 $9 X,Y pos of 4 corners*
0 Add a 4 corners polygon primitive as box body*
4,1,4,$2,$3,$4,$5,$6,$7,$8,$9,$2,$3,0*
0 Add four circle primitives for the rounded corners*
1,1,$1+$1,$2,$3*
1,1,$1+$1,$4,$5*
1,1,$1+$1,$6,$7*
1,1,$1+$1,$8,$9*
0 Add four rect primitives between the rounded corners*
20,1,$1+$1,$2,$3,$4,$5,0*
20,1,$1+$1,$4,$5,$6,$7,0*
20,1,$1+$1,$6,$7,$8,$9,0*
20,1,$1+$1,$8,$9,$2,$3,0*%
G04 Aperture macros list end*
%TA.AperFunction,SMDPad,CuDef*%
%ADD10R,0.600000X1.150000*%
%TD*%
%TA.AperFunction,SMDPad,CuDef*%
%ADD11R,0.300000X1.150000*%
%TD*%
%TA.AperFunction,ComponentPad*%
%ADD12O,1.000000X1.800000*%
%TD*%
%TA.AperFunction,ComponentPad*%
%ADD13O,1.000000X2.100000*%
%TD*%
%TA.AperFunction,SMDPad,CuDef*%
%ADD14RoundRect,0.135000X0.185000X-0.135000X0.185000X0.135000X-0.185000X0.135000X-0.185000X-0.135000X0*%
%TD*%
%TA.AperFunction,SMDPad,CuDef*%
%ADD15R,2.500000X2.500000*%
%TD*%
%TA.AperFunction,SMDPad,CuDef*%
%ADD16RoundRect,0.140000X0.170000X-0.140000X0.170000X0.140000X-0.170000X0.140000X-0.170000X-0.140000X0*%
%TD*%
%TA.AperFunction,ComponentPad*%
%ADD17O,1.500000X2.500000*%
%TD*%
%TA.AperFunction,SMDPad,CuDef*%
%ADD18RoundRect,0.140000X-0.170000X0.140000X-0.170000X-0.140000X0.170000X-0.140000X0.170000X0.140000X0*%
%TD*%
%TA.AperFunction,SMDPad,CuDef*%
%ADD19RoundRect,0.140000X-0.140000X-0.170000X0.140000X-0.170000X0.140000X0.170000X-0.140000X0.170000X0*%
%TD*%
%TA.AperFunction,SMDPad,CuDef*%
%ADD20RoundRect,0.135000X0.135000X0.185000X-0.135000X0.185000X-0.135000X-0.185000X0.135000X-0.185000X0*%
%TD*%
%TA.AperFunction,SMDPad,CuDef*%
%ADD21RoundRect,0.050000X-0.387500X-0.050000X0.387500X-0.050000X0.387500X0.050000X-0.387500X0.050000X0*%
%TD*%
%TA.AperFunction,SMDPad,CuDef*%
%ADD22RoundRect,0.050000X-0.050000X-0.387500X0.050000X-0.387500X0.050000X0.387500X-0.050000X0.387500X0*%
%TD*%
%TA.AperFunction,SMDPad,CuDef*%
%ADD23R,3.200000X3.200000*%
%TD*%
%TA.AperFunction,SMDPad,CuDef*%
%ADD24RoundRect,0.250000X0.250000X0.475000X-0.250000X0.475000X-0.250000X-0.475000X0.250000X-0.475000X0*%
%TD*%
%TA.AperFunction,SMDPad,CuDef*%
%ADD25RoundRect,0.135000X-0.185000X0.135000X-0.185000X-0.135000X0.185000X-0.135000X0.185000X0.135000X0*%
%TD*%
%TA.AperFunction,ComponentPad*%
%ADD26C,2.000000*%
%TD*%
%TA.AperFunction,SMDPad,CuDef*%
%ADD27RoundRect,0.250000X-0.250000X-0.475000X0.250000X-0.475000X0.250000X0.475000X-0.250000X0.475000X0*%
%TD*%
%TA.AperFunction,SMDPad,CuDef*%
%ADD28RoundRect,0.135000X-0.135000X-0.185000X0.135000X-0.185000X0.135000X0.185000X-0.135000X0.185000X0*%
%TD*%
%TA.AperFunction,SMDPad,CuDef*%
%ADD29R,5.600000X2.100000*%
%TD*%
%TA.AperFunction,ComponentPad*%
%ADD30R,1.700000X1.700000*%
%TD*%
%TA.AperFunction,ComponentPad*%
%ADD31O,1.700000X1.700000*%
%TD*%
%TA.AperFunction,SMDPad,CuDef*%
%ADD32R,0.320000X0.320000*%
%TD*%
%TA.AperFunction,SMDPad,CuDef*%
%ADD33RoundRect,0.140000X0.140000X0.170000X-0.140000X0.170000X-0.140000X-0.170000X0.140000X-0.170000X0*%
%TD*%
%TA.AperFunction,SMDPad,CuDef*%
%ADD34RoundRect,0.150000X-0.150000X-0.625000X0.150000X-0.625000X0.150000X0.625000X-0.150000X0.625000X0*%
%TD*%
%TA.AperFunction,SMDPad,CuDef*%
%ADD35RoundRect,0.250000X-0.350000X-0.650000X0.350000X-0.650000X0.350000X0.650000X-0.350000X0.650000X0*%
%TD*%
%TA.AperFunction,SMDPad,CuDef*%
%ADD36R,2.000000X1.500000*%
%TD*%
%TA.AperFunction,SMDPad,CuDef*%
%ADD37R,2.000000X3.800000*%
%TD*%
%TA.AperFunction,SMDPad,CuDef*%
%ADD38RoundRect,0.100000X0.100000X-0.637500X0.100000X0.637500X-0.100000X0.637500X-0.100000X-0.637500X0*%
%TD*%
%TA.AperFunction,SMDPad,CuDef*%
%ADD39RoundRect,0.150000X-0.650000X-0.150000X0.650000X-0.150000X0.650000X0.150000X-0.650000X0.150000X0*%
%TD*%
%TA.AperFunction,ViaPad*%
%ADD40C,0.700000*%
%TD*%
%TA.AperFunction,ViaPad*%
%ADD41C,0.800000*%
%TD*%
%TA.AperFunction,Conductor*%
%ADD42C,0.600000*%
%TD*%
%TA.AperFunction,Conductor*%
%ADD43C,0.200000*%
%TD*%
%TA.AperFunction,Conductor*%
%ADD44C,0.400000*%
%TD*%
%TA.AperFunction,Conductor*%
%ADD45C,0.300000*%
%TD*%
%TA.AperFunction,Conductor*%
%ADD46C,0.150000*%
%TD*%
%TA.AperFunction,Conductor*%
%ADD47C,0.261100*%
%TD*%
G04 APERTURE END LIST*
D10*
%TO.P,J2,A1,GND*%
%TO.N,GND*%
X122900000Y-24180000D03*
%TO.P,J2,A4,VBUS*%
%TO.N,VBUS*%
X122100000Y-24180000D03*
D11*
%TO.P,J2,A5,CC1*%
%TO.N,/CC1_USB*%
X120950000Y-24180000D03*
%TO.P,J2,A6,D+*%
%TO.N,/USB_D+*%
X119950000Y-24180000D03*
%TO.P,J2,A7,D-*%
%TO.N,/USB_D-*%
X119450000Y-24180000D03*
%TO.P,J2,A8,SBU1*%
%TO.N,unconnected-(J2-PadA8)*%
X118450000Y-24180000D03*
D10*
%TO.P,J2,A9,VBUS*%
%TO.N,VBUS*%
X117300000Y-24180000D03*
%TO.P,J2,A12,GND*%
%TO.N,GND*%
X116500000Y-24180000D03*
%TO.P,J2,B1,GND*%
X116500000Y-24180000D03*
%TO.P,J2,B4,VBUS*%
%TO.N,VBUS*%
X117300000Y-24180000D03*
D11*
%TO.P,J2,B5,CC2*%
%TO.N,/CC2_USB*%
X117950000Y-24180000D03*
%TO.P,J2,B6,D+*%
%TO.N,/USB_D+*%
X118950000Y-24180000D03*
%TO.P,J2,B7,D-*%
%TO.N,/USB_D-*%
X120450000Y-24180000D03*
%TO.P,J2,B8,SBU2*%
%TO.N,unconnected-(J2-PadB8)*%
X121450000Y-24180000D03*
D10*
%TO.P,J2,B9,VBUS*%
%TO.N,VBUS*%
X122100000Y-24180000D03*
%TO.P,J2,B12,GND*%
%TO.N,GND*%
X122900000Y-24180000D03*
D12*
%TO.P,J2,S1,SHIELD*%
X115380000Y-19425000D03*
D13*
X124020000Y-23605000D03*
D12*
X124020000Y-19425000D03*
D13*
X115380000Y-23605000D03*
%TD*%
D14*
%TO.P,R15,1*%
%TO.N,/HAP_L*%
X38900000Y-26110000D03*
%TO.P,R15,2*%
%TO.N,/CONN_HAP_L*%
X38900000Y-25090000D03*
%TD*%
D15*
%TO.P,TP7,1,1*%
%TO.N,SPI0_SCLK*%
X100250000Y-167000000D03*
%TD*%
D14*
%TO.P,R13,1*%
%TO.N,/XTAL_OUT_PRE*%
X98600000Y-40010000D03*
%TO.P,R13,2*%
%TO.N,/XTAL_OUT*%
X98600000Y-38990000D03*
%TD*%
D16*
%TO.P,C7,1*%
%TO.N,+3V3*%
X99154913Y-24433027D03*
%TO.P,C7,2*%
%TO.N,GND*%
X99154913Y-23473027D03*
%TD*%
D17*
%TO.P,M6,1,Pin_1*%
%TO.N,+3V3*%
X58000000Y-116500000D03*
%TO.P,M6,2,Pin_2*%
%TO.N,GND*%
X60200000Y-116500000D03*
%TO.P,M6,3,Pin_3*%
%TO.N,SPI0_RX*%
X62400000Y-116500000D03*
%TO.P,M6,4,Pin_4*%
%TO.N,SPI0_SCLK*%
X64600000Y-116500000D03*
%TO.P,M6,5,Pin_5*%
%TO.N,/5-to-32/SPI_CSN6*%
X66800000Y-116500000D03*
%TO.P,M6,6,Pin_6*%
%TO.N,SPI0_TX*%
X69000000Y-116500000D03*
%TD*%
D18*
%TO.P,C12,1*%
%TO.N,GND*%
X90300000Y-39320000D03*
%TO.P,C12,2*%
%TO.N,/XTAL_IN*%
X90300000Y-40280000D03*
%TD*%
D19*
%TO.P,C9,1*%
%TO.N,+3V3*%
X100020000Y-27700000D03*
%TO.P,C9,2*%
%TO.N,GND*%
X100980000Y-27700000D03*
%TD*%
D15*
%TO.P,TP2,1,1*%
%TO.N,/RUN_N*%
X139400000Y-22500000D03*
%TD*%
D20*
%TO.P,R2,1*%
%TO.N,/LED_G*%
X85310000Y-29200000D03*
%TO.P,R2,2*%
%TO.N,/LG*%
X84290000Y-29200000D03*
%TD*%
D17*
%TO.P,M18,1,Pin_1*%
%TO.N,+3V3*%
X152500000Y-116500000D03*
%TO.P,M18,2,Pin_2*%
%TO.N,GND*%
X154700000Y-116500000D03*
%TO.P,M18,3,Pin_3*%
%TO.N,SPI0_RX*%
X156900000Y-116500000D03*
%TO.P,M18,4,Pin_4*%
%TO.N,SPI0_SCLK*%
X159100000Y-116500000D03*
%TO.P,M18,5,Pin_5*%
%TO.N,/5-to-32/SPI_CSN18*%
X161300000Y-116500000D03*
%TO.P,M18,6,Pin_6*%
%TO.N,SPI0_TX*%
X163500000Y-116500000D03*
%TD*%
D14*
%TO.P,R14,1*%
%TO.N,/QSPI_NSS*%
X63500000Y-22250000D03*
%TO.P,R14,2*%
%TO.N,+3V3*%
X63500000Y-21230000D03*
%TD*%
D21*
%TO.P,U2,1,IOVDD*%
%TO.N,+3V3*%
X91562500Y-27700000D03*
%TO.P,U2,2,GPIO0*%
%TO.N,unconnected-(U2-Pad2)*%
X91562500Y-28100000D03*
%TO.P,U2,3,GPIO1*%
%TO.N,unconnected-(U2-Pad3)*%
X91562500Y-28500000D03*
%TO.P,U2,4,GPIO2*%
%TO.N,/LED_R*%
X91562500Y-28900000D03*
%TO.P,U2,5,GPIO3*%
%TO.N,/LED_G*%
X91562500Y-29300000D03*
%TO.P,U2,6,GPIO4*%
%TO.N,/LED_B*%
X91562500Y-29700000D03*
%TO.P,U2,7,GPIO5*%
%TO.N,/HAP_R*%
X91562500Y-30100000D03*
%TO.P,U2,8,GPIO6*%
%TO.N,/HAP_L*%
X91562500Y-30500000D03*
%TO.P,U2,9,GPIO7*%
%TO.N,E0N_A*%
X91562500Y-30900000D03*
%TO.P,U2,10,IOVDD*%
%TO.N,+3V3*%
X91562500Y-31300000D03*
%TO.P,U2,11,GPIO8*%
%TO.N,E0N_B*%
X91562500Y-31700000D03*
%TO.P,U2,12,GPIO9*%
%TO.N,A3*%
X91562500Y-32100000D03*
%TO.P,U2,13,GPIO10*%
%TO.N,A2*%
X91562500Y-32500000D03*
%TO.P,U2,14,GPIO11*%
%TO.N,A1*%
X91562500Y-32900000D03*
D22*
%TO.P,U2,15,GPIO12*%
%TO.N,A0*%
X92400000Y-33737500D03*
%TO.P,U2,16,GPIO13*%
%TO.N,unconnected-(U2-Pad16)*%
X92800000Y-33737500D03*
%TO.P,U2,17,GPIO14*%
%TO.N,unconnected-(U2-Pad17)*%
X93200000Y-33737500D03*
%TO.P,U2,18,GPIO15*%
%TO.N,unconnected-(U2-Pad18)*%
X93600000Y-33737500D03*
%TO.P,U2,19,TESTEN*%
%TO.N,GND*%
X94000000Y-33737500D03*
%TO.P,U2,20,XIN*%
%TO.N,/XTAL_IN*%
X94400000Y-33737500D03*
%TO.P,U2,21,XOUT*%
%TO.N,/XTAL_OUT*%
X94800000Y-33737500D03*
%TO.P,U2,22,IOVDD*%
%TO.N,+3V3*%
X95200000Y-33737500D03*
%TO.P,U2,23,DVDD*%
%TO.N,+1V1*%
X95600000Y-33737500D03*
%TO.P,U2,24,SWCLK*%
%TO.N,/SWCLK*%
X96000000Y-33737500D03*
%TO.P,U2,25,SWD*%
%TO.N,/SWDIO*%
X96400000Y-33737500D03*
%TO.P,U2,26,RUN*%
%TO.N,/RUN_N*%
X96800000Y-33737500D03*
%TO.P,U2,27,GPIO16*%
%TO.N,SPI0_RX*%
X97200000Y-33737500D03*
%TO.P,U2,28,GPIO17*%
%TO.N,/RESCAN_N*%
X97600000Y-33737500D03*
D21*
%TO.P,U2,29,GPIO18*%
%TO.N,SPI0_SCLK*%
X98437500Y-32900000D03*
%TO.P,U2,30,GPIO19*%
%TO.N,SPI0_TX*%
X98437500Y-32500000D03*
%TO.P,U2,31,GPIO20*%
%TO.N,unconnected-(U2-Pad31)*%
X98437500Y-32100000D03*
%TO.P,U2,32,GPIO21*%
%TO.N,unconnected-(U2-Pad32)*%
X98437500Y-31700000D03*
%TO.P,U2,33,IOVDD*%
%TO.N,+3V3*%
X98437500Y-31300000D03*
%TO.P,U2,34,GPIO22*%
%TO.N,unconnected-(U2-Pad34)*%
X98437500Y-30900000D03*
%TO.P,U2,35,GPIO23*%
%TO.N,unconnected-(U2-Pad35)*%
X98437500Y-30500000D03*
%TO.P,U2,36,GPIO24*%
%TO.N,unconnected-(U2-Pad36)*%
X98437500Y-30100000D03*
%TO.P,U2,37,GPIO25*%
%TO.N,unconnected-(U2-Pad37)*%
X98437500Y-29700000D03*
%TO.P,U2,38,GPIO26_ADC0*%
%TO.N,unconnected-(U2-Pad38)*%
X98437500Y-29300000D03*
%TO.P,U2,39,GPIO27_ADC1*%
%TO.N,unconnected-(U2-Pad39)*%
X98437500Y-28900000D03*
%TO.P,U2,40,GPIO28_ADC2*%
%TO.N,unconnected-(U2-Pad40)*%
X98437500Y-28500000D03*
%TO.P,U2,41,GPIO29_ADC3*%
%TO.N,unconnected-(U2-Pad41)*%
X98437500Y-28100000D03*
%TO.P,U2,42,IOVDD*%
%TO.N,+3V3*%
X98437500Y-27700000D03*
D22*
%TO.P,U2,43,ADC_AVDD*%
X97600000Y-26862500D03*
%TO.P,U2,44,VREG_IN*%
X97200000Y-26862500D03*
%TO.P,U2,45,VREG_VOUT*%
%TO.N,+1V1*%
X96800000Y-26862500D03*
%TO.P,U2,46,USB_DM*%
%TO.N,/USB_D-I*%
X96400000Y-26862500D03*
%TO.P,U2,47,USB_DP*%
%TO.N,/USB_D+I*%
X96000000Y-26862500D03*
%TO.P,U2,48,USB_VDD*%
%TO.N,+3V3*%
X95600000Y-26862500D03*
%TO.P,U2,49,IOVDD*%
X95200000Y-26862500D03*
%TO.P,U2,50,DVDD*%
%TO.N,+1V1*%
X94800000Y-26862500D03*
%TO.P,U2,51,QSPI_SD3*%
%TO.N,/QSPI_SD3*%
X94400000Y-26862500D03*
%TO.P,U2,52,QSPI_SCLK*%
%TO.N,/QSPI_SCLK*%
X94000000Y-26862500D03*
%TO.P,U2,53,QSPI_SD0*%
%TO.N,/QSPI_SD0*%
X93600000Y-26862500D03*
%TO.P,U2,54,QSPI_SD2*%
%TO.N,/QSPI_SD2*%
X93200000Y-26862500D03*
%TO.P,U2,55,QSPI_SD1*%
%TO.N,/QSPI_SD1*%
X92800000Y-26862500D03*
%TO.P,U2,56,QSPI_SS*%
%TO.N,/QSPI_NSS*%
X92400000Y-26862500D03*
D23*
%TO.P,U2,57,GND*%
%TO.N,GND*%
X95000000Y-30300000D03*
%TD*%
D17*
%TO.P,M7,1,Pin_1*%
%TO.N,+3V3*%
X58000000Y-148000000D03*
%TO.P,M7,2,Pin_2*%
%TO.N,GND*%
X60200000Y-148000000D03*
%TO.P,M7,3,Pin_3*%
%TO.N,SPI0_RX*%
X62400000Y-148000000D03*
%TO.P,M7,4,Pin_4*%
%TO.N,SPI0_SCLK*%
X64600000Y-148000000D03*
%TO.P,M7,5,Pin_5*%
%TO.N,/5-to-32/SPI_CSN7*%
X66800000Y-148000000D03*
%TO.P,M7,6,Pin_6*%
%TO.N,SPI0_TX*%
X69000000Y-148000000D03*
%TD*%
D24*
%TO.P,C2,1*%
%TO.N,GND*%
X129275000Y-34250000D03*
%TO.P,C2,2*%
%TO.N,+3V3*%
X127375000Y-34250000D03*
%TD*%
D20*
%TO.P,R1,1*%
%TO.N,/LED_R*%
X85310000Y-28000000D03*
%TO.P,R1,2*%
%TO.N,/LR*%
X84290000Y-28000000D03*
%TD*%
D25*
%TO.P,R6,1*%
%TO.N,/CC1_USB*%
X121750000Y-27240000D03*
%TO.P,R6,2*%
%TO.N,GND*%
X121750000Y-28260000D03*
%TD*%
D18*
%TO.P,C13,1*%
%TO.N,GND*%
X99800000Y-39020000D03*
%TO.P,C13,2*%
%TO.N,/XTAL_OUT_PRE*%
X99800000Y-39980000D03*
%TD*%
D25*
%TO.P,R10,1*%
%TO.N,/USB_D-*%
X97000000Y-23240000D03*
%TO.P,R10,2*%
%TO.N,/USB_D-I*%
X97000000Y-24260000D03*
%TD*%
D17*
%TO.P,M9,1,Pin_1*%
%TO.N,+3V3*%
X89500000Y-85000000D03*
%TO.P,M9,2,Pin_2*%
%TO.N,GND*%
X91700000Y-85000000D03*
%TO.P,M9,3,Pin_3*%
%TO.N,SPI0_RX*%
X93900000Y-85000000D03*
%TO.P,M9,4,Pin_4*%
%TO.N,SPI0_SCLK*%
X96100000Y-85000000D03*
%TO.P,M9,5,Pin_5*%
%TO.N,/5-to-32/SPI_CSN9*%
X98300000Y-85000000D03*
%TO.P,M9,6,Pin_6*%
%TO.N,SPI0_TX*%
X100500000Y-85000000D03*
%TD*%
D26*
%TO.P,SW1,1,1*%
%TO.N,/RESCAN_N*%
X159350000Y-33000000D03*
%TO.P,SW1,2,2*%
%TO.N,GND*%
X164350000Y-33000000D03*
%TO.P,SW1,3*%
%TO.N,N/C*%
X159350000Y-38000000D03*
%TO.P,SW1,4*%
X164350000Y-38000000D03*
%TD*%
D16*
%TO.P,C6,1*%
%TO.N,+1V1*%
X98154913Y-24433027D03*
%TO.P,C6,2*%
%TO.N,GND*%
X98154913Y-23473027D03*
%TD*%
D25*
%TO.P,R4,1*%
%TO.N,/CONN_SWDIO*%
X152900000Y-27090000D03*
%TO.P,R4,2*%
%TO.N,/SWDIO*%
X152900000Y-28110000D03*
%TD*%
D17*
%TO.P,M5,1,Pin_1*%
%TO.N,+3V3*%
X58000000Y-85000000D03*
%TO.P,M5,2,Pin_2*%
%TO.N,GND*%
X60200000Y-85000000D03*
%TO.P,M5,3,Pin_3*%
%TO.N,SPI0_RX*%
X62400000Y-85000000D03*
%TO.P,M5,4,Pin_4*%
%TO.N,SPI0_SCLK*%
X64600000Y-85000000D03*
%TO.P,M5,5,Pin_5*%
%TO.N,/5-to-32/SPI_CSN5*%
X66800000Y-85000000D03*
%TO.P,M5,6,Pin_6*%
%TO.N,SPI0_TX*%
X69000000Y-85000000D03*
%TD*%
%TO.P,M0,1,Pin_1*%
%TO.N,+3V3*%
X26500000Y-53500000D03*
%TO.P,M0,2,Pin_2*%
%TO.N,GND*%
X28700000Y-53500000D03*
%TO.P,M0,3,Pin_3*%
%TO.N,SPI0_RX*%
X30900000Y-53500000D03*
%TO.P,M0,4,Pin_4*%
%TO.N,SPI0_SCLK*%
X33100000Y-53500000D03*
%TO.P,M0,5,Pin_5*%
%TO.N,/5-to-32/SPI_CSN0*%
X35300000Y-53500000D03*
%TO.P,M0,6,Pin_6*%
%TO.N,SPI0_TX*%
X37500000Y-53500000D03*
%TD*%
%TO.P,M4,1,Pin_1*%
%TO.N,+3V3*%
X58000000Y-53500000D03*
%TO.P,M4,2,Pin_2*%
%TO.N,GND*%
X60200000Y-53500000D03*
%TO.P,M4,3,Pin_3*%
%TO.N,SPI0_RX*%
X62400000Y-53500000D03*
%TO.P,M4,4,Pin_4*%
%TO.N,SPI0_SCLK*%
X64600000Y-53500000D03*
%TO.P,M4,5,Pin_5*%
%TO.N,/5-to-32/SPI_CSN4*%
X66800000Y-53500000D03*
%TO.P,M4,6,Pin_6*%
%TO.N,SPI0_TX*%
X69000000Y-53500000D03*
%TD*%
D20*
%TO.P,R3,1*%
%TO.N,/LED_B*%
X83510000Y-30500000D03*
%TO.P,R3,2*%
%TO.N,/LB*%
X82490000Y-30500000D03*
%TD*%
D16*
%TO.P,C8,1*%
%TO.N,+3V3*%
X100154913Y-24426769D03*
%TO.P,C8,2*%
%TO.N,GND*%
X100154913Y-23466769D03*
%TD*%
D15*
%TO.P,TP4,1,1*%
%TO.N,+3V3*%
X84500000Y-167000000D03*
%TD*%
D16*
%TO.P,C16,1*%
%TO.N,+3V3*%
X94712859Y-22521473D03*
%TO.P,C16,2*%
%TO.N,GND*%
X94712859Y-21561473D03*
%TD*%
D27*
%TO.P,C1,1*%
%TO.N,VBUS*%
X127375000Y-31875000D03*
%TO.P,C1,2*%
%TO.N,GND*%
X129275000Y-31875000D03*
%TD*%
D15*
%TO.P,TP1,1,1*%
%TO.N,/RESCAN_N*%
X159300000Y-22500000D03*
%TD*%
%TO.P,TP8,1,1*%
%TO.N,SPI0_TX*%
X105500000Y-167000000D03*
%TD*%
D16*
%TO.P,C15,1*%
%TO.N,+3V3*%
X93712859Y-22521473D03*
%TO.P,C15,2*%
%TO.N,GND*%
X93712859Y-21561473D03*
%TD*%
D17*
%TO.P,M2,1,Pin_1*%
%TO.N,+3V3*%
X26500000Y-116500000D03*
%TO.P,M2,2,Pin_2*%
%TO.N,GND*%
X28700000Y-116500000D03*
%TO.P,M2,3,Pin_3*%
%TO.N,SPI0_RX*%
X30900000Y-116500000D03*
%TO.P,M2,4,Pin_4*%
%TO.N,SPI0_SCLK*%
X33100000Y-116500000D03*
%TO.P,M2,5,Pin_5*%
%TO.N,/5-to-32/SPI_CSN2*%
X35300000Y-116500000D03*
%TO.P,M2,6,Pin_6*%
%TO.N,SPI0_TX*%
X37500000Y-116500000D03*
%TD*%
%TO.P,M17,1,Pin_1*%
%TO.N,+3V3*%
X152500000Y-85250000D03*
%TO.P,M17,2,Pin_2*%
%TO.N,GND*%
X154700000Y-85250000D03*
%TO.P,M17,3,Pin_3*%
%TO.N,SPI0_RX*%
X156900000Y-85250000D03*
%TO.P,M17,4,Pin_4*%
%TO.N,SPI0_SCLK*%
X159100000Y-85250000D03*
%TO.P,M17,5,Pin_5*%
%TO.N,/5-to-32/SPI_CSN17*%
X161300000Y-85250000D03*
%TO.P,M17,6,Pin_6*%
%TO.N,SPI0_TX*%
X163500000Y-85250000D03*
%TD*%
%TO.P,M3,1,Pin_1*%
%TO.N,+3V3*%
X26500000Y-148000000D03*
%TO.P,M3,2,Pin_2*%
%TO.N,GND*%
X28700000Y-148000000D03*
%TO.P,M3,3,Pin_3*%
%TO.N,SPI0_RX*%
X30900000Y-148000000D03*
%TO.P,M3,4,Pin_4*%
%TO.N,SPI0_SCLK*%
X33100000Y-148000000D03*
%TO.P,M3,5,Pin_5*%
%TO.N,/5-to-32/SPI_CSN3*%
X35300000Y-148000000D03*
%TO.P,M3,6,Pin_6*%
%TO.N,SPI0_TX*%
X37500000Y-148000000D03*
%TD*%
%TO.P,M16,1,Pin_1*%
%TO.N,+3V3*%
X152500000Y-53500000D03*
%TO.P,M16,2,Pin_2*%
%TO.N,GND*%
X154700000Y-53500000D03*
%TO.P,M16,3,Pin_3*%
%TO.N,SPI0_RX*%
X156900000Y-53500000D03*
%TO.P,M16,4,Pin_4*%
%TO.N,SPI0_SCLK*%
X159100000Y-53500000D03*
%TO.P,M16,5,Pin_5*%
%TO.N,/5-to-32/SPI_CSN16*%
X161300000Y-53500000D03*
%TO.P,M16,6,Pin_6*%
%TO.N,SPI0_TX*%
X163500000Y-53500000D03*
%TD*%
D25*
%TO.P,R12,1*%
%TO.N,/BOOTSEL_N*%
X62250000Y-21230000D03*
%TO.P,R12,2*%
%TO.N,/QSPI_NSS*%
X62250000Y-22250000D03*
%TD*%
D28*
%TO.P,R8,1*%
%TO.N,+3V3*%
X153790000Y-33000000D03*
%TO.P,R8,2*%
%TO.N,/RESCAN_N*%
X154810000Y-33000000D03*
%TD*%
D25*
%TO.P,R5,1*%
%TO.N,/CONN_SWCLK*%
X150900000Y-27090000D03*
%TO.P,R5,2*%
%TO.N,/SWCLK*%
X150900000Y-28110000D03*
%TD*%
D14*
%TO.P,R16,1*%
%TO.N,/HAP_R*%
X46520000Y-26110000D03*
%TO.P,R16,2*%
%TO.N,/CONN_HAP_R*%
X46520000Y-25090000D03*
%TD*%
D15*
%TO.P,TP9,1,1*%
%TO.N,/5-to-32/SPI_CSN3*%
X35300000Y-160000000D03*
%TD*%
%TO.P,TP12,1,1*%
%TO.N,/5-to-32/SPI_CSN15*%
X129800000Y-160000000D03*
%TD*%
D29*
%TO.P,Y1,1,1*%
%TO.N,/XTAL_OUT_PRE*%
X99750000Y-43500000D03*
%TO.P,Y1,2,2*%
%TO.N,/XTAL_IN*%
X90250000Y-43500000D03*
%TD*%
D18*
%TO.P,C4,1*%
%TO.N,+1V1*%
X95600000Y-36220000D03*
%TO.P,C4,2*%
%TO.N,GND*%
X95600000Y-37180000D03*
%TD*%
D30*
%TO.P,J3,1,Pin_1*%
%TO.N,/CONN_HAP_R*%
X46500000Y-22500000D03*
D31*
%TO.P,J3,2,Pin_2*%
%TO.N,GND*%
X43960000Y-22500000D03*
%TO.P,J3,3,Pin_3*%
X41420000Y-22500000D03*
%TO.P,J3,4,Pin_4*%
%TO.N,/CONN_HAP_L*%
X38880000Y-22500000D03*
%TD*%
D17*
%TO.P,M15,1,Pin_1*%
%TO.N,+3V3*%
X121000000Y-148000000D03*
%TO.P,M15,2,Pin_2*%
%TO.N,GND*%
X123200000Y-148000000D03*
%TO.P,M15,3,Pin_3*%
%TO.N,SPI0_RX*%
X125400000Y-148000000D03*
%TO.P,M15,4,Pin_4*%
%TO.N,SPI0_SCLK*%
X127600000Y-148000000D03*
%TO.P,M15,5,Pin_5*%
%TO.N,/5-to-32/SPI_CSN15*%
X129800000Y-148000000D03*
%TO.P,M15,6,Pin_6*%
%TO.N,SPI0_TX*%
X132000000Y-148000000D03*
%TD*%
D32*
%TO.P,D1,1,B*%
%TO.N,/LB*%
X82470000Y-28930000D03*
%TO.P,D1,2,G*%
%TO.N,/LG*%
X83130000Y-28930000D03*
%TO.P,D1,3,R*%
%TO.N,/LR*%
X83130000Y-28270000D03*
%TO.P,D1,4,A*%
%TO.N,+3V3*%
X82470000Y-28270000D03*
%TD*%
D17*
%TO.P,M12,1,Pin_1*%
%TO.N,+3V3*%
X121000000Y-53500000D03*
%TO.P,M12,2,Pin_2*%
%TO.N,GND*%
X123200000Y-53500000D03*
%TO.P,M12,3,Pin_3*%
%TO.N,SPI0_RX*%
X125400000Y-53500000D03*
%TO.P,M12,4,Pin_4*%
%TO.N,SPI0_SCLK*%
X127600000Y-53500000D03*
%TO.P,M12,5,Pin_5*%
%TO.N,/5-to-32/SPI_CSN12*%
X129800000Y-53500000D03*
%TO.P,M12,6,Pin_6*%
%TO.N,SPI0_TX*%
X132000000Y-53500000D03*
%TD*%
D25*
%TO.P,R7,1*%
%TO.N,/CC2_USB*%
X117750000Y-27240000D03*
%TO.P,R7,2*%
%TO.N,GND*%
X117750000Y-28260000D03*
%TD*%
D16*
%TO.P,C17,1*%
%TO.N,+3V3*%
X74350000Y-22180000D03*
%TO.P,C17,2*%
%TO.N,GND*%
X74350000Y-21220000D03*
%TD*%
D33*
%TO.P,C14,1*%
%TO.N,+3V3*%
X90180000Y-27700000D03*
%TO.P,C14,2*%
%TO.N,GND*%
X89220000Y-27700000D03*
%TD*%
D15*
%TO.P,TP3,1,1*%
%TO.N,/BOOTSEL_N*%
X29100000Y-22500000D03*
%TD*%
D17*
%TO.P,M10,1,Pin_1*%
%TO.N,+3V3*%
X89500000Y-116500000D03*
%TO.P,M10,2,Pin_2*%
%TO.N,GND*%
X91700000Y-116500000D03*
%TO.P,M10,3,Pin_3*%
%TO.N,SPI0_RX*%
X93900000Y-116500000D03*
%TO.P,M10,4,Pin_4*%
%TO.N,SPI0_SCLK*%
X96100000Y-116500000D03*
%TO.P,M10,5,Pin_5*%
%TO.N,/5-to-32/SPI_CSN10*%
X98300000Y-116500000D03*
%TO.P,M10,6,Pin_6*%
%TO.N,SPI0_TX*%
X100500000Y-116500000D03*
%TD*%
D25*
%TO.P,R9,1*%
%TO.N,/USB_D+*%
X96000000Y-23240000D03*
%TO.P,R9,2*%
%TO.N,/USB_D+I*%
X96000000Y-24260000D03*
%TD*%
D15*
%TO.P,TP13,1,1*%
%TO.N,/5-to-32/SPI_CSN19*%
X161300000Y-160000000D03*
%TD*%
D17*
%TO.P,M14,1,Pin_1*%
%TO.N,+3V3*%
X121000000Y-116500000D03*
%TO.P,M14,2,Pin_2*%
%TO.N,GND*%
X123200000Y-116500000D03*
%TO.P,M14,3,Pin_3*%
%TO.N,SPI0_RX*%
X125400000Y-116500000D03*
%TO.P,M14,4,Pin_4*%
%TO.N,SPI0_SCLK*%
X127600000Y-116500000D03*
%TO.P,M14,5,Pin_5*%
%TO.N,/5-to-32/SPI_CSN14*%
X129800000Y-116500000D03*
%TO.P,M14,6,Pin_6*%
%TO.N,SPI0_TX*%
X132000000Y-116500000D03*
%TD*%
D34*
%TO.P,J1,1,Pin_1*%
%TO.N,/CONN_SWCLK*%
X150900000Y-23825000D03*
%TO.P,J1,2,Pin_2*%
%TO.N,GND*%
X151900000Y-23825000D03*
%TO.P,J1,3,Pin_3*%
%TO.N,/CONN_SWDIO*%
X152900000Y-23825000D03*
D35*
%TO.P,J1,MP,MountPin*%
%TO.N,unconnected-(J1-PadMP)*%
X149600000Y-21300000D03*
X154200000Y-21300000D03*
%TD*%
D17*
%TO.P,M11,1,Pin_1*%
%TO.N,+3V3*%
X89500000Y-148000000D03*
%TO.P,M11,2,Pin_2*%
%TO.N,GND*%
X91700000Y-148000000D03*
%TO.P,M11,3,Pin_3*%
%TO.N,SPI0_RX*%
X93900000Y-148000000D03*
%TO.P,M11,4,Pin_4*%
%TO.N,SPI0_SCLK*%
X96100000Y-148000000D03*
%TO.P,M11,5,Pin_5*%
%TO.N,/5-to-32/SPI_CSN11*%
X98300000Y-148000000D03*
%TO.P,M11,6,Pin_6*%
%TO.N,SPI0_TX*%
X100500000Y-148000000D03*
%TD*%
D33*
%TO.P,C3,1*%
%TO.N,+3V3*%
X81080000Y-28350000D03*
%TO.P,C3,2*%
%TO.N,GND*%
X80120000Y-28350000D03*
%TD*%
D17*
%TO.P,M19,1,Pin_1*%
%TO.N,+3V3*%
X152500000Y-148000000D03*
%TO.P,M19,2,Pin_2*%
%TO.N,GND*%
X154700000Y-148000000D03*
%TO.P,M19,3,Pin_3*%
%TO.N,SPI0_RX*%
X156900000Y-148000000D03*
%TO.P,M19,4,Pin_4*%
%TO.N,SPI0_SCLK*%
X159100000Y-148000000D03*
%TO.P,M19,5,Pin_5*%
%TO.N,/5-to-32/SPI_CSN19*%
X161300000Y-148000000D03*
%TO.P,M19,6,Pin_6*%
%TO.N,SPI0_TX*%
X163500000Y-148000000D03*
%TD*%
%TO.P,M8,1,Pin_1*%
%TO.N,+3V3*%
X89500000Y-53500000D03*
%TO.P,M8,2,Pin_2*%
%TO.N,GND*%
X91700000Y-53500000D03*
%TO.P,M8,3,Pin_3*%
%TO.N,SPI0_RX*%
X93900000Y-53500000D03*
%TO.P,M8,4,Pin_4*%
%TO.N,SPI0_SCLK*%
X96100000Y-53500000D03*
%TO.P,M8,5,Pin_5*%
%TO.N,/5-to-32/SPI_CSN8*%
X98300000Y-53500000D03*
%TO.P,M8,6,Pin_6*%
%TO.N,SPI0_TX*%
X100500000Y-53500000D03*
%TD*%
D15*
%TO.P,TP5,1,1*%
%TO.N,GND*%
X89750000Y-167000000D03*
%TD*%
D17*
%TO.P,M13,1,Pin_1*%
%TO.N,+3V3*%
X121000000Y-85000000D03*
%TO.P,M13,2,Pin_2*%
%TO.N,GND*%
X123200000Y-85000000D03*
%TO.P,M13,3,Pin_3*%
%TO.N,SPI0_RX*%
X125400000Y-85000000D03*
%TO.P,M13,4,Pin_4*%
%TO.N,SPI0_SCLK*%
X127600000Y-85000000D03*
%TO.P,M13,5,Pin_5*%
%TO.N,/5-to-32/SPI_CSN13*%
X129800000Y-85000000D03*
%TO.P,M13,6,Pin_6*%
%TO.N,SPI0_TX*%
X132000000Y-85000000D03*
%TD*%
D36*
%TO.P,U1,1,GND*%
%TO.N,GND*%
X125200000Y-36500000D03*
%TO.P,U1,2,VO*%
%TO.N,+3V3*%
X125200000Y-34200000D03*
D37*
X118900000Y-34200000D03*
D36*
%TO.P,U1,3,VI*%
%TO.N,VBUS*%
X125200000Y-31900000D03*
%TD*%
D16*
%TO.P,C5,1*%
%TO.N,+1V1*%
X92712859Y-22521473D03*
%TO.P,C5,2*%
%TO.N,GND*%
X92712859Y-21561473D03*
%TD*%
D38*
%TO.P,U5,1,Y0N*%
%TO.N,/5-to-32/SPI_CSN16*%
X73775000Y-40862500D03*
%TO.P,U5,2,Y1N*%
%TO.N,/5-to-32/SPI_CSN17*%
X74425000Y-40862500D03*
%TO.P,U5,3,Y2N*%
%TO.N,/5-to-32/SPI_CSN18*%
X75075000Y-40862500D03*
%TO.P,U5,4,Y3N*%
%TO.N,/5-to-32/SPI_CSN19*%
X75725000Y-40862500D03*
%TO.P,U5,5,Y4N*%
%TO.N,unconnected-(U5-Pad5)*%
X76375000Y-40862500D03*
%TO.P,U5,6,Y5N*%
%TO.N,unconnected-(U5-Pad6)*%
X77025000Y-40862500D03*
%TO.P,U5,7,Y6N*%
%TO.N,unconnected-(U5-Pad7)*%
X77675000Y-40862500D03*
%TO.P,U5,8,Y7N*%
%TO.N,unconnected-(U5-Pad8)*%
X78325000Y-40862500D03*
%TO.P,U5,9,Y8N*%
%TO.N,unconnected-(U5-Pad9)*%
X78975000Y-40862500D03*
%TO.P,U5,10,Y9N*%
%TO.N,unconnected-(U5-Pad10)*%
X79625000Y-40862500D03*
%TO.P,U5,11,Y10N*%
%TO.N,unconnected-(U5-Pad11)*%
X80275000Y-40862500D03*
%TO.P,U5,12,GND*%
%TO.N,GND*%
X80925000Y-40862500D03*
%TO.P,U5,13,Y11N*%
%TO.N,unconnected-(U5-Pad13)*%
X80925000Y-35137500D03*
%TO.P,U5,14,Y12N*%
%TO.N,unconnected-(U5-Pad14)*%
X80275000Y-35137500D03*
%TO.P,U5,15,Y13N*%
%TO.N,unconnected-(U5-Pad15)*%
X79625000Y-35137500D03*
%TO.P,U5,16,Y14N*%
%TO.N,unconnected-(U5-Pad16)*%
X78975000Y-35137500D03*
%TO.P,U5,17,Y15N*%
%TO.N,unconnected-(U5-Pad17)*%
X78325000Y-35137500D03*
%TO.P,U5,18,E0N*%
%TO.N,E0N_B*%
X77675000Y-35137500D03*
%TO.P,U5,19,E1N*%
%TO.N,GND*%
X77025000Y-35137500D03*
%TO.P,U5,20,A3*%
%TO.N,A3*%
X76375000Y-35137500D03*
%TO.P,U5,21,A2*%
%TO.N,A2*%
X75725000Y-35137500D03*
%TO.P,U5,22,A1*%
%TO.N,A1*%
X75075000Y-35137500D03*
%TO.P,U5,23,A0*%
%TO.N,A0*%
X74425000Y-35137500D03*
%TO.P,U5,24,VCC*%
%TO.N,+3V3*%
X73775000Y-35137500D03*
%TD*%
D18*
%TO.P,C10,1*%
%TO.N,+3V3*%
X94500000Y-36220000D03*
%TO.P,C10,2*%
%TO.N,GND*%
X94500000Y-37180000D03*
%TD*%
D39*
%TO.P,U3,1,~{CS}*%
%TO.N,/QSPI_NSS*%
X65300000Y-22195000D03*
%TO.P,U3,2,DO(IO1)*%
%TO.N,/QSPI_SD1*%
X65300000Y-23465000D03*
%TO.P,U3,3,IO2*%
%TO.N,/QSPI_SD2*%
X65300000Y-24735000D03*
%TO.P,U3,4,GND*%
%TO.N,GND*%
X65300000Y-26005000D03*
%TO.P,U3,5,DI(IO0)*%
%TO.N,/QSPI_SD0*%
X72500000Y-26005000D03*
%TO.P,U3,6,CLK*%
%TO.N,/QSPI_SCLK*%
X72500000Y-24735000D03*
%TO.P,U3,7,IO3*%
%TO.N,/QSPI_SD3*%
X72500000Y-23465000D03*
%TO.P,U3,8,VCC*%
%TO.N,+3V3*%
X72500000Y-22195000D03*
%TD*%
D15*
%TO.P,TP11,1,1*%
%TO.N,/5-to-32/SPI_CSN11*%
X98300000Y-160000000D03*
%TD*%
D38*
%TO.P,U4,1,Y0N*%
%TO.N,/5-to-32/SPI_CSN0*%
X54475000Y-40862500D03*
%TO.P,U4,2,Y1N*%
%TO.N,/5-to-32/SPI_CSN1*%
X55125000Y-40862500D03*
%TO.P,U4,3,Y2N*%
%TO.N,/5-to-32/SPI_CSN2*%
X55775000Y-40862500D03*
%TO.P,U4,4,Y3N*%
%TO.N,/5-to-32/SPI_CSN3*%
X56425000Y-40862500D03*
%TO.P,U4,5,Y4N*%
%TO.N,/5-to-32/SPI_CSN4*%
X57075000Y-40862500D03*
%TO.P,U4,6,Y5N*%
%TO.N,/5-to-32/SPI_CSN5*%
X57725000Y-40862500D03*
%TO.P,U4,7,Y6N*%
%TO.N,/5-to-32/SPI_CSN6*%
X58375000Y-40862500D03*
%TO.P,U4,8,Y7N*%
%TO.N,/5-to-32/SPI_CSN7*%
X59025000Y-40862500D03*
%TO.P,U4,9,Y8N*%
%TO.N,/5-to-32/SPI_CSN8*%
X59675000Y-40862500D03*
%TO.P,U4,10,Y9N*%
%TO.N,/5-to-32/SPI_CSN9*%
X60325000Y-40862500D03*
%TO.P,U4,11,Y10N*%
%TO.N,/5-to-32/SPI_CSN10*%
X60975000Y-40862500D03*
%TO.P,U4,12,GND*%
%TO.N,GND*%
X61625000Y-40862500D03*
%TO.P,U4,13,Y11N*%
%TO.N,/5-to-32/SPI_CSN11*%
X61625000Y-35137500D03*
%TO.P,U4,14,Y12N*%
%TO.N,/5-to-32/SPI_CSN12*%
X60975000Y-35137500D03*
%TO.P,U4,15,Y13N*%
%TO.N,/5-to-32/SPI_CSN13*%
X60325000Y-35137500D03*
%TO.P,U4,16,Y14N*%
%TO.N,/5-to-32/SPI_CSN14*%
X59675000Y-35137500D03*
%TO.P,U4,17,Y15N*%
%TO.N,/5-to-32/SPI_CSN15*%
X59025000Y-35137500D03*
%TO.P,U4,18,E0N*%
%TO.N,E0N_A*%
X58375000Y-35137500D03*
%TO.P,U4,19,E1N*%
%TO.N,GND*%
X57725000Y-35137500D03*
%TO.P,U4,20,A3*%
%TO.N,A3*%
X57075000Y-35137500D03*
%TO.P,U4,21,A2*%
%TO.N,A2*%
X56425000Y-35137500D03*
%TO.P,U4,22,A1*%
%TO.N,A1*%
X55775000Y-35137500D03*
%TO.P,U4,23,A0*%
%TO.N,A0*%
X55125000Y-35137500D03*
%TO.P,U4,24,VCC*%
%TO.N,+3V3*%
X54475000Y-35137500D03*
%TD*%
D26*
%TO.P,SW2,1,1*%
%TO.N,/RUN_N*%
X139350000Y-33000000D03*
%TO.P,SW2,2,2*%
%TO.N,GND*%
X144350000Y-33000000D03*
%TO.P,SW2,3*%
%TO.N,N/C*%
X139350000Y-38000000D03*
%TO.P,SW2,4*%
X144350000Y-38000000D03*
%TD*%
D15*
%TO.P,TP6,1,1*%
%TO.N,SPI0_RX*%
X95000000Y-167000000D03*
%TD*%
D25*
%TO.P,R11,1*%
%TO.N,+3V3*%
X134250000Y-36490000D03*
%TO.P,R11,2*%
%TO.N,/RUN_N*%
X134250000Y-37510000D03*
%TD*%
D26*
%TO.P,SW3,1,1*%
%TO.N,/BOOTSEL_N*%
X25600000Y-33000000D03*
%TO.P,SW3,2,2*%
%TO.N,GND*%
X30600000Y-33000000D03*
%TO.P,SW3,3*%
%TO.N,N/C*%
X25600000Y-38000000D03*
%TO.P,SW3,4*%
X30600000Y-38000000D03*
%TD*%
D33*
%TO.P,C11,1*%
%TO.N,+3V3*%
X88330000Y-31875000D03*
%TO.P,C11,2*%
%TO.N,GND*%
X87370000Y-31875000D03*
%TD*%
D15*
%TO.P,TP10,1,1*%
%TO.N,/5-to-32/SPI_CSN7*%
X66800000Y-160000000D03*
%TD*%
D17*
%TO.P,M1,1,Pin_1*%
%TO.N,+3V3*%
X26500000Y-85000000D03*
%TO.P,M1,2,Pin_2*%
%TO.N,GND*%
X28700000Y-85000000D03*
%TO.P,M1,3,Pin_3*%
%TO.N,SPI0_RX*%
X30900000Y-85000000D03*
%TO.P,M1,4,Pin_4*%
%TO.N,SPI0_SCLK*%
X33100000Y-85000000D03*
%TO.P,M1,5,Pin_5*%
%TO.N,/5-to-32/SPI_CSN1*%
X35300000Y-85000000D03*
%TO.P,M1,6,Pin_6*%
%TO.N,SPI0_TX*%
X37500000Y-85000000D03*
%TD*%
D40*
%TO.N,GND*%
X80450000Y-29400000D03*
X154700000Y-150900000D03*
X67112500Y-25537500D03*
X89800000Y-38200000D03*
X148850000Y-33000000D03*
X87775000Y-27700000D03*
X43975000Y-24198436D03*
X127100000Y-36900000D03*
X60200000Y-119400000D03*
X60200000Y-150900000D03*
X91700000Y-87900000D03*
X57020000Y-33210000D03*
X91700000Y-150900000D03*
X123200000Y-119400000D03*
X60200000Y-87900000D03*
X76500000Y-33200000D03*
X151900000Y-22500000D03*
X154700000Y-56400000D03*
X91700000Y-119400000D03*
X123200000Y-87900000D03*
X28700000Y-150900000D03*
X118823500Y-28723500D03*
X129100000Y-35900000D03*
X124250000Y-25850000D03*
X123200000Y-56400000D03*
X33450000Y-30150000D03*
X127100000Y-35900000D03*
X128100000Y-35900000D03*
X62320000Y-43080000D03*
X115000000Y-25850000D03*
X86525000Y-32725000D03*
X95050000Y-38000000D03*
X41440000Y-24198436D03*
D41*
X93900000Y-32550000D03*
D40*
X123200000Y-150900000D03*
X102100000Y-39300000D03*
X169175000Y-33000000D03*
X28700000Y-56500000D03*
X28700000Y-87900000D03*
X60200000Y-56400000D03*
X129100000Y-36900000D03*
X79050000Y-39380000D03*
X128100000Y-36900000D03*
X92675000Y-29975000D03*
X75550000Y-21200000D03*
X93712859Y-20771473D03*
X91700000Y-56350000D03*
X154700000Y-119400000D03*
X154700000Y-88150000D03*
X122760000Y-28260000D03*
X99154913Y-22696769D03*
X28700000Y-119400000D03*
X102175000Y-27700000D03*
%TO.N,+3V3*%
X123000000Y-34150000D03*
X116350000Y-31500000D03*
X132500000Y-36500000D03*
X95175000Y-32525000D03*
X97300000Y-28750000D03*
X73770000Y-33180000D03*
X115790000Y-34200000D03*
X153800000Y-30800000D03*
X92675000Y-28425000D03*
X52870000Y-35140000D03*
X76850000Y-22525000D03*
X65650000Y-20425000D03*
X83400000Y-27100000D03*
X95625000Y-27825000D03*
X92700000Y-31975000D03*
%TO.N,+1V1*%
X94500000Y-27850000D03*
X96550500Y-27841017D03*
X99725000Y-28550000D03*
X99725000Y-31575000D03*
X96775000Y-32750500D03*
%TO.N,/USB_D+*%
X119950000Y-26050000D03*
X119950000Y-27900000D03*
%TO.N,/5-to-32/SPI_CSN0*%
X35300000Y-56225000D03*
X38750000Y-56200000D03*
%TO.N,SPI0_TX*%
X39025500Y-50024503D03*
X111850000Y-48525500D03*
X133450000Y-48175000D03*
X72824500Y-50024006D03*
X135875000Y-48175000D03*
X41324500Y-50024006D03*
X70525500Y-50024006D03*
X102025500Y-50023506D03*
%TO.N,SPI0_RX*%
X126425000Y-50175000D03*
X135875000Y-50175000D03*
X39025500Y-48225000D03*
X62400000Y-48225000D03*
X70525500Y-48225000D03*
X41324500Y-48225000D03*
X104324500Y-48175000D03*
X102025500Y-48224500D03*
X72824500Y-48225000D03*
X93900000Y-48225000D03*
%TO.N,SPI0_SCLK*%
X72824500Y-49124503D03*
X39025500Y-49125000D03*
X102025500Y-49124003D03*
X135875000Y-49175000D03*
X111225000Y-49175000D03*
X41324500Y-49124503D03*
X96099003Y-49124003D03*
X70525500Y-49124503D03*
X130100000Y-49175000D03*
X64575000Y-49125000D03*
%TO.N,/5-to-32/SPI_CSN1*%
X35300000Y-87725000D03*
X38750000Y-87700000D03*
%TO.N,/5-to-32/SPI_CSN2*%
X35300000Y-119225000D03*
X38750000Y-119200000D03*
%TO.N,/5-to-32/SPI_CSN3*%
X35300000Y-150725000D03*
X38750000Y-150700000D03*
%TO.N,/5-to-32/SPI_CSN4*%
X66800000Y-56225000D03*
X70250000Y-56200000D03*
%TO.N,/5-to-32/SPI_CSN5*%
X66800000Y-87725000D03*
X70250000Y-87700000D03*
%TO.N,/5-to-32/SPI_CSN6*%
X70250000Y-119200000D03*
X66800000Y-119225000D03*
%TO.N,/5-to-32/SPI_CSN7*%
X66800000Y-150725000D03*
X70250000Y-150700000D03*
%TO.N,/5-to-32/SPI_CSN8*%
X98300000Y-56225000D03*
X101750000Y-56200000D03*
%TO.N,/5-to-32/SPI_CSN9*%
X98300000Y-87725000D03*
X101750000Y-87700000D03*
%TO.N,/5-to-32/SPI_CSN10*%
X98300000Y-119225000D03*
X101750000Y-119200000D03*
%TO.N,/5-to-32/SPI_CSN11*%
X101750000Y-150700000D03*
X98300000Y-150725000D03*
%TO.N,/5-to-32/SPI_CSN12*%
X107750234Y-47501430D03*
X129800000Y-56225000D03*
X133250000Y-56200000D03*
X110725000Y-47500000D03*
%TO.N,/5-to-32/SPI_CSN13*%
X83600000Y-45575500D03*
X129800000Y-87725000D03*
X109849500Y-46600865D03*
X133250000Y-87700000D03*
%TO.N,/5-to-32/SPI_CSN14*%
X133250000Y-119200000D03*
X109849500Y-45650000D03*
X129800000Y-119225000D03*
X83600000Y-44675000D03*
%TO.N,/5-to-32/SPI_CSN15*%
X83575000Y-43750000D03*
X109849500Y-44750497D03*
X129800000Y-150725000D03*
X133250000Y-150700000D03*
%TO.N,/5-to-32/SPI_CSN16*%
X109849500Y-43850994D03*
X83575000Y-42850497D03*
X161300000Y-56225000D03*
X164750000Y-56200000D03*
%TO.N,/5-to-32/SPI_CSN17*%
X164750000Y-87950000D03*
X83575000Y-41950994D03*
X109849500Y-42951491D03*
X161300000Y-87975000D03*
%TO.N,/5-to-32/SPI_CSN18*%
X161300000Y-119225000D03*
X164750000Y-119200000D03*
X109849500Y-42051988D03*
X83575000Y-41051491D03*
%TO.N,/5-to-32/SPI_CSN19*%
X164750000Y-150700000D03*
X83575000Y-40151988D03*
X161300000Y-150725000D03*
X109849500Y-41152485D03*
%TO.N,/SWDIO*%
X111500000Y-38100000D03*
X106250000Y-38100000D03*
%TO.N,/SWCLK*%
X114400000Y-39100000D03*
X106250000Y-39100000D03*
%TO.N,/RUN_N*%
X111500000Y-37100000D03*
X106250000Y-37100000D03*
%TO.N,/RESCAN_N*%
X103150000Y-35200000D03*
X111500000Y-39950000D03*
%TO.N,A3*%
X57079053Y-36420118D03*
X76718179Y-36542042D03*
%TO.N,A2*%
X56425060Y-36925489D03*
X76184851Y-37173443D03*
%TO.N,A1*%
X75670000Y-37820000D03*
X55773641Y-37434173D03*
%TO.N,A0*%
X55120000Y-37940000D03*
X75078740Y-38397510D03*
%TD*%
D42*
%TO.N,VBUS*%
X122100000Y-24180000D02*
X122100000Y-25600000D01*
X125200000Y-31900000D02*
X125200000Y-30600000D01*
X116000000Y-27200000D02*
X117300000Y-25900000D01*
X125200000Y-28700000D02*
X125200000Y-31900000D01*
X116000000Y-28900000D02*
X116000000Y-27200000D01*
X124400000Y-29800000D02*
X116900000Y-29800000D01*
X122100000Y-25600000D02*
X125200000Y-28700000D01*
X117300000Y-25900000D02*
X117300000Y-24180000D01*
X116900000Y-29800000D02*
X116000000Y-28900000D01*
X125200000Y-30600000D02*
X124400000Y-29800000D01*
D43*
%TO.N,GND*%
X93900000Y-32550000D02*
X94000000Y-32650000D01*
D44*
X28700000Y-148000000D02*
X28700000Y-150900000D01*
X123200000Y-116500000D02*
X123200000Y-119400000D01*
X123200000Y-53500000D02*
X123200000Y-56400000D01*
D45*
X151900000Y-24325000D02*
X151900000Y-22500000D01*
D43*
X94000000Y-32650000D02*
X94000000Y-33737500D01*
D44*
X122900000Y-25000000D02*
X123750000Y-25850000D01*
X100980000Y-27700000D02*
X102175000Y-27700000D01*
X91700000Y-53500000D02*
X91700000Y-56350000D01*
D43*
X80925000Y-40862500D02*
X80925000Y-40312552D01*
X61625000Y-42385000D02*
X62320000Y-43080000D01*
D42*
X89800000Y-38200000D02*
X90300000Y-38700000D01*
D44*
X118823500Y-28723500D02*
X118213500Y-28723500D01*
X123750000Y-25850000D02*
X124250000Y-25850000D01*
X74350000Y-21220000D02*
X75530000Y-21220000D01*
D43*
X57725000Y-35137500D02*
X57725000Y-33915000D01*
X77025000Y-35137500D02*
X77025000Y-33725000D01*
D44*
X115550000Y-25850000D02*
X115000000Y-25850000D01*
X91700000Y-85000000D02*
X91700000Y-87900000D01*
X65300000Y-26005000D02*
X66645000Y-26005000D01*
X60200000Y-148000000D02*
X60200000Y-150900000D01*
X28700000Y-53500000D02*
X28700000Y-56500000D01*
X89750000Y-160000000D02*
X89750000Y-167000000D01*
D43*
X57725000Y-33915000D02*
X57020000Y-33210000D01*
D44*
X91700000Y-158050000D02*
X89750000Y-160000000D01*
X80120000Y-28350000D02*
X80120000Y-29070000D01*
X101300000Y-39000000D02*
X99820000Y-39000000D01*
X123200000Y-148000000D02*
X123200000Y-150900000D01*
X75530000Y-21220000D02*
X75550000Y-21200000D01*
X118213500Y-28723500D02*
X117750000Y-28260000D01*
X154700000Y-85250000D02*
X154700000Y-88150000D01*
X66645000Y-26005000D02*
X67112500Y-25537500D01*
X154700000Y-53500000D02*
X154700000Y-56400000D01*
X123200000Y-85000000D02*
X123200000Y-87900000D01*
X28700000Y-116500000D02*
X28700000Y-119400000D01*
D43*
X77025000Y-33725000D02*
X76500000Y-33200000D01*
D44*
X91700000Y-150900000D02*
X91700000Y-158050000D01*
X86525000Y-32725000D02*
X86525000Y-32720000D01*
D43*
X80925000Y-40312552D02*
X79992448Y-39380000D01*
D44*
X164350000Y-33000000D02*
X169175000Y-33000000D01*
X89220000Y-27700000D02*
X87775000Y-27700000D01*
X101600000Y-39300000D02*
X101300000Y-39000000D01*
X91700000Y-116500000D02*
X91700000Y-119400000D01*
X80120000Y-29070000D02*
X80450000Y-29400000D01*
X154700000Y-116500000D02*
X154700000Y-119400000D01*
X116500000Y-24900000D02*
X116500000Y-24180000D01*
X122900000Y-24180000D02*
X122900000Y-25000000D01*
D42*
X90300000Y-38700000D02*
X90300000Y-39320000D01*
D43*
X61625000Y-40862500D02*
X61625000Y-42385000D01*
D44*
X93000000Y-30300000D02*
X92675000Y-29975000D01*
X60200000Y-85000000D02*
X60200000Y-87900000D01*
X99820000Y-39000000D02*
X99800000Y-39020000D01*
X60200000Y-116500000D02*
X60200000Y-119400000D01*
X60200000Y-53500000D02*
X60200000Y-56400000D01*
X28700000Y-85000000D02*
X28700000Y-87900000D01*
X91700000Y-148000000D02*
X91700000Y-150900000D01*
X122760000Y-28260000D02*
X121750000Y-28260000D01*
X95000000Y-30300000D02*
X93000000Y-30300000D01*
X116500000Y-24900000D02*
X115550000Y-25850000D01*
X144350000Y-33000000D02*
X148850000Y-33000000D01*
X30600000Y-33000000D02*
X33450000Y-30150000D01*
D43*
X79992448Y-39380000D02*
X79050000Y-39380000D01*
D44*
X102100000Y-39300000D02*
X101600000Y-39300000D01*
X154700000Y-148000000D02*
X154700000Y-150900000D01*
X86525000Y-32720000D02*
X87370000Y-31875000D01*
D43*
%TO.N,+3V3*%
X90180000Y-27700000D02*
X91562500Y-27700000D01*
D42*
X132500000Y-36500000D02*
X134240000Y-36500000D01*
D43*
X97200000Y-27725000D02*
X97200000Y-28650000D01*
X95200000Y-33737500D02*
X95200000Y-32550000D01*
D45*
X52872500Y-35137500D02*
X52870000Y-35140000D01*
D43*
X99154913Y-25245087D02*
X99154913Y-24433027D01*
D44*
X118200000Y-34200000D02*
X116350000Y-32350000D01*
D42*
X89500000Y-155750000D02*
X84500000Y-160750000D01*
D45*
X73775000Y-35137500D02*
X73775000Y-33185000D01*
D44*
X81400000Y-27100000D02*
X81100000Y-27400000D01*
D46*
X97300000Y-30875000D02*
X97300000Y-28750000D01*
D43*
X63825000Y-20425000D02*
X65650000Y-20425000D01*
X100154913Y-25245087D02*
X100154913Y-24426769D01*
X95200000Y-33737500D02*
X95200000Y-34750000D01*
D42*
X89500000Y-53500000D02*
X89500000Y-148000000D01*
D43*
X92675000Y-27825000D02*
X92675000Y-28425000D01*
D46*
X98437500Y-31300000D02*
X97725000Y-31300000D01*
D45*
X76505000Y-22180000D02*
X76850000Y-22525000D01*
D44*
X81100000Y-27400000D02*
X81100000Y-28330000D01*
X83400000Y-27100000D02*
X81400000Y-27100000D01*
X118900000Y-34200000D02*
X118200000Y-34200000D01*
D42*
X125150000Y-34150000D02*
X125200000Y-34200000D01*
D44*
X116350000Y-32350000D02*
X116350000Y-31500000D01*
D43*
X100154913Y-24426769D02*
X100154913Y-25154913D01*
X100050000Y-25900000D02*
X100154913Y-25795087D01*
D45*
X72500000Y-22195000D02*
X74335000Y-22195000D01*
D43*
X95600000Y-26862500D02*
X95600000Y-25225000D01*
X97200000Y-26000000D02*
X97650000Y-25550000D01*
D45*
X54475000Y-35137500D02*
X52872500Y-35137500D01*
D43*
X89350000Y-31875000D02*
X88330000Y-31875000D01*
X91562500Y-31300000D02*
X89925000Y-31300000D01*
X97200000Y-26862500D02*
X97200000Y-26000000D01*
D44*
X83400000Y-27100000D02*
X82470000Y-28030000D01*
D46*
X97725000Y-31300000D02*
X97300000Y-30875000D01*
D43*
X97650000Y-25550000D02*
X98850000Y-25550000D01*
X95600000Y-25225000D02*
X94712859Y-24337859D01*
X92375000Y-31300000D02*
X92700000Y-31625000D01*
X97225000Y-27700000D02*
X97200000Y-27725000D01*
D44*
X82470000Y-28030000D02*
X82470000Y-28270000D01*
D43*
X91562500Y-31300000D02*
X92375000Y-31300000D01*
X95200000Y-27400000D02*
X95625000Y-27825000D01*
X95200000Y-32550000D02*
X95175000Y-32525000D01*
X97200000Y-26862500D02*
X97200000Y-27725000D01*
X97600000Y-26862500D02*
X97600000Y-27325000D01*
X98437500Y-27700000D02*
X97225000Y-27700000D01*
X95600000Y-26862500D02*
X95600000Y-27800000D01*
X98850000Y-25550000D02*
X99154913Y-25245087D01*
D45*
X153790000Y-33000000D02*
X153790000Y-30810000D01*
D42*
X26500000Y-53500000D02*
X26500000Y-148000000D01*
X58000000Y-53500000D02*
X58000000Y-148000000D01*
D43*
X95600000Y-27800000D02*
X95625000Y-27825000D01*
X91562500Y-27700000D02*
X92550000Y-27700000D01*
D45*
X73775000Y-33185000D02*
X73770000Y-33180000D01*
D42*
X89500000Y-148000000D02*
X89500000Y-155750000D01*
D43*
X97200000Y-28650000D02*
X97300000Y-28750000D01*
X93712859Y-23753059D02*
X93712859Y-22521473D01*
D44*
X81100000Y-28330000D02*
X81080000Y-28350000D01*
D43*
X94712859Y-24337859D02*
X94712859Y-22521473D01*
X98437500Y-27700000D02*
X100020000Y-27700000D01*
D45*
X74335000Y-22195000D02*
X74350000Y-22180000D01*
D42*
X152500000Y-53750000D02*
X152500000Y-148000000D01*
X84500000Y-160750000D02*
X84500000Y-167000000D01*
D43*
X92550000Y-27700000D02*
X92675000Y-27825000D01*
D45*
X153790000Y-30810000D02*
X153800000Y-30800000D01*
D43*
X97600000Y-26175000D02*
X97875000Y-25900000D01*
X97875000Y-25900000D02*
X100050000Y-25900000D01*
X95200000Y-26862500D02*
X95199999Y-25240198D01*
X92700000Y-31625000D02*
X92700000Y-31975000D01*
X63500000Y-20750000D02*
X63500000Y-21230000D01*
X94500000Y-35450000D02*
X94500000Y-36220000D01*
X97600000Y-26862500D02*
X97600000Y-26175000D01*
X63825000Y-20425000D02*
X63500000Y-20750000D01*
D44*
X115790000Y-34200000D02*
X118900000Y-34200000D01*
D43*
X95200000Y-26862500D02*
X95200000Y-27400000D01*
D42*
X121000000Y-53500000D02*
X121000000Y-148000000D01*
D43*
X89925000Y-31300000D02*
X89350000Y-31875000D01*
X97600000Y-27325000D02*
X97225000Y-27700000D01*
D45*
X74350000Y-22180000D02*
X76505000Y-22180000D01*
D43*
X100154913Y-25795087D02*
X100154913Y-25245087D01*
X95200000Y-34750000D02*
X94500000Y-35450000D01*
X95199999Y-25240198D02*
X93712859Y-23753059D01*
%TO.N,+1V1*%
X97275000Y-25150000D02*
X97875000Y-25150000D01*
X96800000Y-26862500D02*
X96800000Y-25625000D01*
X98154913Y-24870087D02*
X98154913Y-24433027D01*
X96775000Y-32750500D02*
X96054525Y-32750500D01*
X94800000Y-27550000D02*
X94500000Y-27850000D01*
X96800000Y-27591517D02*
X96800000Y-26862500D01*
X96550500Y-27841017D02*
X96800000Y-27591517D01*
X94800000Y-26862500D02*
X94800000Y-27550000D01*
X95600000Y-33737500D02*
X95600000Y-36220000D01*
X94799999Y-25405884D02*
X92712859Y-23318745D01*
X99725000Y-31575000D02*
X99725000Y-28550000D01*
X97875000Y-25150000D02*
X98154913Y-24870087D01*
X92712859Y-23318745D02*
X92712859Y-22521473D01*
X96800000Y-25625000D02*
X97275000Y-25150000D01*
X94800000Y-26862500D02*
X94799999Y-25405884D01*
X95600000Y-33205025D02*
X95600000Y-33737500D01*
X96054525Y-32750500D02*
X95600000Y-33205025D01*
D45*
%TO.N,/XTAL_IN*%
X88100000Y-40800000D02*
X88620000Y-40280000D01*
X88620000Y-40280000D02*
X90300000Y-40280000D01*
D43*
X91220000Y-40280000D02*
X90300000Y-40280000D01*
X94400000Y-33737500D02*
X94400000Y-34269975D01*
X94400000Y-34269975D02*
X92950000Y-35719975D01*
D45*
X88100000Y-41350000D02*
X88100000Y-40800000D01*
D43*
X92950000Y-35719975D02*
X92950000Y-38550000D01*
X92950000Y-38550000D02*
X91220000Y-40280000D01*
D45*
X90250000Y-43500000D02*
X88100000Y-41350000D01*
%TO.N,/XTAL_OUT_PRE*%
X101800000Y-40600000D02*
X101800000Y-40300000D01*
X99750000Y-42650000D02*
X101800000Y-40600000D01*
X99750000Y-43500000D02*
X99750000Y-42650000D01*
X98630000Y-39980000D02*
X98600000Y-40010000D01*
X101800000Y-40300000D02*
X101480000Y-39980000D01*
X99800000Y-39980000D02*
X98630000Y-39980000D01*
X101480000Y-39980000D02*
X99800000Y-39980000D01*
%TO.N,/LB*%
X82490000Y-30500000D02*
X82490000Y-28950000D01*
X82490000Y-28950000D02*
X82470000Y-28930000D01*
%TO.N,/LG*%
X84290000Y-29200000D02*
X84000000Y-29200000D01*
X84000000Y-29200000D02*
X83730000Y-28930000D01*
X83730000Y-28930000D02*
X83130000Y-28930000D01*
%TO.N,/LR*%
X83900000Y-28000000D02*
X83600000Y-28300000D01*
X84290000Y-28000000D02*
X83900000Y-28000000D01*
X83600000Y-28300000D02*
X83160000Y-28300000D01*
X83160000Y-28300000D02*
X83130000Y-28270000D01*
%TO.N,/CONN_SWDIO*%
X152900000Y-27090000D02*
X152900000Y-23825000D01*
%TO.N,/CONN_SWCLK*%
X150900000Y-27090000D02*
X150900000Y-23825000D01*
D43*
%TO.N,/CC1_USB*%
X120950000Y-24180000D02*
X120950000Y-24750000D01*
X121750000Y-26450000D02*
X121750000Y-27240000D01*
X121300000Y-26000000D02*
X121750000Y-26450000D01*
X120950000Y-24750000D02*
X121300000Y-25100000D01*
X121300000Y-25100000D02*
X121300000Y-26000000D01*
D47*
%TO.N,/USB_D+*%
X119950000Y-21971690D02*
X119078310Y-21100000D01*
X119950000Y-24180000D02*
X119950000Y-21971690D01*
D43*
X118500000Y-26600000D02*
X118500000Y-25407210D01*
X118500000Y-25407210D02*
X118950000Y-24957210D01*
D47*
X119950000Y-26050000D02*
X119950000Y-24180000D01*
D43*
X119800000Y-27900000D02*
X118500000Y-26600000D01*
X119950000Y-27900000D02*
X119800000Y-27900000D01*
D47*
X96000000Y-22000000D02*
X96000000Y-23240000D01*
X96900000Y-21100000D02*
X96000000Y-22000000D01*
D43*
X118950000Y-24957210D02*
X118950000Y-24180000D01*
D47*
X119078310Y-21100000D02*
X96900000Y-21100000D01*
%TO.N,/USB_D-*%
X119450000Y-24180000D02*
X119450000Y-25150000D01*
X118971690Y-21650000D02*
X97287500Y-21650000D01*
X119450000Y-25150000D02*
X119200000Y-25400000D01*
X119200000Y-25400000D02*
X119200000Y-26300000D01*
X120300000Y-26800000D02*
X120700000Y-26400000D01*
X119200000Y-26300000D02*
X119700000Y-26800000D01*
X120450000Y-25050000D02*
X120450000Y-24180000D01*
X97000000Y-21937500D02*
X97000000Y-23240000D01*
X97287500Y-21650000D02*
X97000000Y-21937500D01*
X120700000Y-26400000D02*
X120700000Y-25300000D01*
X119700000Y-26800000D02*
X120300000Y-26800000D01*
X119450000Y-24180000D02*
X119450000Y-22128310D01*
X120700000Y-25300000D02*
X120450000Y-25050000D01*
X119450000Y-22128310D02*
X118971690Y-21650000D01*
D43*
%TO.N,/CC2_USB*%
X117950000Y-26250000D02*
X117750000Y-26450000D01*
X117950000Y-24180000D02*
X117950000Y-26250000D01*
X117750000Y-26450000D02*
X117750000Y-27240000D01*
D45*
%TO.N,/CONN_HAP_L*%
X38900000Y-25063436D02*
X38900000Y-22520000D01*
X38900000Y-22520000D02*
X38880000Y-22500000D01*
%TO.N,/CONN_HAP_R*%
X46520000Y-22520000D02*
X46520000Y-25063436D01*
X46500000Y-22500000D02*
X46520000Y-22520000D01*
D46*
%TO.N,/5-to-32/SPI_CSN0*%
X39941500Y-55258500D02*
X39941501Y-47645024D01*
X38750000Y-56450000D02*
X39941500Y-55258500D01*
X39941501Y-47645024D02*
X41142526Y-46444000D01*
X35300000Y-56225000D02*
X35300000Y-53500000D01*
X50870786Y-46444000D02*
X54475000Y-42839786D01*
X41142526Y-46444000D02*
X50870786Y-46444000D01*
X54475000Y-42839786D02*
X54475000Y-40862500D01*
D43*
%TO.N,SPI0_TX*%
X43325000Y-49875000D02*
X43175994Y-50024006D01*
X111950000Y-48175000D02*
X130475000Y-48175000D01*
D45*
X69000000Y-53500000D02*
X69000000Y-148000000D01*
X100500000Y-148000000D02*
X100500000Y-153000000D01*
D43*
X69488494Y-50024006D02*
X70525500Y-50024006D01*
D45*
X100500000Y-53500000D02*
X100500000Y-148000000D01*
X105500000Y-158000000D02*
X105500000Y-167000000D01*
D43*
X132000000Y-53500000D02*
X132000000Y-49700000D01*
X98437500Y-32500000D02*
X104400000Y-32500000D01*
X100500000Y-50425000D02*
X100901494Y-50023506D01*
X100702988Y-49825000D02*
X74725000Y-49825000D01*
X162150000Y-48175000D02*
X135875000Y-48175000D01*
X100500000Y-53500000D02*
X100500000Y-50425000D01*
X37500000Y-53500000D02*
X37500000Y-50225000D01*
X69000000Y-53500000D02*
X69000000Y-50512500D01*
X69000000Y-50512500D02*
X69488494Y-50024006D01*
D45*
X163500000Y-53500000D02*
X163500000Y-148000000D01*
D43*
X69500994Y-50024006D02*
X69488494Y-50024006D01*
D45*
X100500000Y-153000000D02*
X105500000Y-158000000D01*
D43*
X104400000Y-32500000D02*
X109200000Y-37300000D01*
X37700497Y-50024503D02*
X39025500Y-50024503D01*
X163500000Y-49525000D02*
X162150000Y-48175000D01*
X111950000Y-48175000D02*
X111950000Y-48425500D01*
X69500994Y-50024006D02*
X69351988Y-49875000D01*
X43175994Y-50024006D02*
X41324500Y-50024006D01*
X111950000Y-48425500D02*
X111850000Y-48525500D01*
D45*
X37500000Y-53500000D02*
X37500000Y-148000000D01*
X132000000Y-53500000D02*
X132000000Y-148000000D01*
D43*
X102025500Y-50023506D02*
X100901494Y-50023506D01*
X74525994Y-50024006D02*
X72824500Y-50024006D01*
X100901494Y-50023506D02*
X100702988Y-49825000D01*
X109200000Y-37300000D02*
X109200000Y-47775000D01*
X37500000Y-50225000D02*
X37700497Y-50024503D01*
X132000000Y-49700000D02*
X130475000Y-48175000D01*
X109200000Y-47775000D02*
X109600000Y-48175000D01*
X74725000Y-49825000D02*
X74525994Y-50024006D01*
X163500000Y-53500000D02*
X163500000Y-49525000D01*
X69351988Y-49875000D02*
X43325000Y-49875000D01*
X109600000Y-48175000D02*
X111950000Y-48175000D01*
X130475000Y-48175000D02*
X133450000Y-48175000D01*
%TO.N,SPI0_RX*%
X70525500Y-48225000D02*
X62400000Y-48225000D01*
X108400001Y-48106372D02*
X110468629Y-50175000D01*
X124825000Y-50175000D02*
X126425000Y-50175000D01*
X97200000Y-34700000D02*
X98800000Y-36300000D01*
X31475000Y-48225000D02*
X39025500Y-48225000D01*
X125400000Y-53500000D02*
X125400000Y-50750000D01*
D45*
X93900000Y-53500000D02*
X93900000Y-148000000D01*
D43*
X62400000Y-48225000D02*
X60200000Y-48225000D01*
X98800000Y-36300000D02*
X107068628Y-36300000D01*
D45*
X156900000Y-53500000D02*
X156900000Y-148250000D01*
D43*
X93900000Y-48225000D02*
X83525000Y-48225000D01*
D45*
X95000000Y-163250000D02*
X95000000Y-167000000D01*
D43*
X83525000Y-48225000D02*
X72824500Y-48225000D01*
D45*
X93900000Y-162150000D02*
X94000000Y-162250000D01*
X62400000Y-53500000D02*
X62400000Y-148250000D01*
X94000000Y-162250000D02*
X95000000Y-163250000D01*
D43*
X102025000Y-48225000D02*
X93900000Y-48225000D01*
X125400000Y-50750000D02*
X124825000Y-50175000D01*
X156900000Y-53500000D02*
X156900000Y-50850000D01*
X60200000Y-48225000D02*
X41324500Y-48225000D01*
X108400000Y-37631372D02*
X108400000Y-47975000D01*
X30900000Y-53500000D02*
X30900000Y-48800000D01*
X108400000Y-47975000D02*
X108200000Y-48175000D01*
X110468629Y-50175000D02*
X124825000Y-50175000D01*
X107068628Y-36300000D02*
X108400000Y-37631372D01*
X156900000Y-50850000D02*
X156225000Y-50175000D01*
X156225000Y-50175000D02*
X135875000Y-50175000D01*
X102025500Y-48224500D02*
X102025000Y-48225000D01*
D45*
X30900000Y-53500000D02*
X30900000Y-148000000D01*
D43*
X30900000Y-48800000D02*
X31475000Y-48225000D01*
D45*
X125400000Y-53500000D02*
X125400000Y-148000000D01*
D43*
X108400000Y-47975000D02*
X108400001Y-48106372D01*
X108200000Y-48175000D02*
X104324500Y-48175000D01*
X97200000Y-33737500D02*
X97200000Y-34700000D01*
D45*
X93900000Y-159100000D02*
X93900000Y-162150000D01*
X93900000Y-148000000D02*
X93900000Y-159100000D01*
D43*
%TO.N,SPI0_SCLK*%
X111225000Y-49175000D02*
X126575000Y-49175000D01*
X102025500Y-49124003D02*
X96099003Y-49124003D01*
X65325000Y-49125000D02*
X41324997Y-49125000D01*
X33100000Y-53500000D02*
X33100000Y-49825000D01*
X159100000Y-53500000D02*
X159100000Y-49825000D01*
D45*
X96100000Y-151100000D02*
X94750000Y-152450000D01*
D43*
X41324997Y-49125000D02*
X41324500Y-49124503D01*
X104234314Y-32900000D02*
X98437500Y-32900000D01*
X126575000Y-49175000D02*
X130100000Y-49175000D01*
X127600000Y-50200000D02*
X126575000Y-49175000D01*
X111225000Y-49175000D02*
X110625000Y-48575000D01*
D45*
X96100000Y-148000000D02*
X96100000Y-151100000D01*
X96100000Y-53500000D02*
X96100000Y-148000000D01*
D43*
X159100000Y-49825000D02*
X158450000Y-49175000D01*
X72825000Y-49124003D02*
X72824500Y-49124503D01*
X96099003Y-49124003D02*
X72825000Y-49124003D01*
X110625000Y-48575000D02*
X109434315Y-48575000D01*
X158450000Y-49175000D02*
X135875000Y-49175000D01*
X127600000Y-53500000D02*
X127600000Y-50200000D01*
X65325497Y-49124503D02*
X65325000Y-49125000D01*
X33100000Y-49825000D02*
X33800000Y-49125000D01*
D45*
X127600000Y-53500000D02*
X127600000Y-148250000D01*
X64600000Y-53500000D02*
X64600000Y-148000000D01*
D43*
X70525500Y-49124503D02*
X65325497Y-49124503D01*
D45*
X33100000Y-53500000D02*
X33100000Y-148000000D01*
X159100000Y-53500000D02*
X159100000Y-148250000D01*
D43*
X33800000Y-49125000D02*
X39025500Y-49125000D01*
X109434315Y-48575000D02*
X108800000Y-47940686D01*
X108800000Y-47940686D02*
X108800000Y-37465686D01*
D45*
X94750000Y-161500000D02*
X100250000Y-167000000D01*
D43*
X108800000Y-37465686D02*
X104234314Y-32900000D01*
D45*
X94750000Y-152450000D02*
X94750000Y-161500000D01*
D46*
%TO.N,/5-to-32/SPI_CSN1*%
X55125000Y-42581524D02*
X55125000Y-40862500D01*
X40218500Y-86231500D02*
X40218500Y-47759762D01*
X41257263Y-46721000D02*
X50985524Y-46721000D01*
X50985524Y-46721000D02*
X55125000Y-42581524D01*
X38750000Y-87700000D02*
X40218500Y-86231500D01*
X35300000Y-87725000D02*
X35300000Y-85000000D01*
X40218500Y-47759762D02*
X41257263Y-46721000D01*
%TO.N,/5-to-32/SPI_CSN2*%
X38750000Y-119200000D02*
X40495500Y-117454500D01*
X41372000Y-46998000D02*
X51100262Y-46998000D01*
X55775000Y-42323262D02*
X55775000Y-40862500D01*
X35300000Y-119225000D02*
X35300000Y-116500000D01*
X40495500Y-117454500D02*
X40495500Y-47874500D01*
X51100262Y-46998000D02*
X55775000Y-42323262D01*
X40495500Y-47874500D02*
X41372000Y-46998000D01*
D45*
%TO.N,/5-to-32/SPI_CSN3*%
X35300000Y-160000000D02*
X35300000Y-150725000D01*
D46*
X40772500Y-47996354D02*
X40772500Y-148677500D01*
X56425000Y-42065000D02*
X51215000Y-47275000D01*
X51215000Y-47275000D02*
X41493854Y-47275000D01*
X56425000Y-40862500D02*
X56425000Y-42065000D01*
X35300000Y-150725000D02*
X35300000Y-148000000D01*
X40772500Y-148677500D02*
X38750000Y-150700000D01*
X41493854Y-47275000D02*
X40772500Y-47996354D01*
%TO.N,/5-to-32/SPI_CSN4*%
X70250000Y-56200000D02*
X71150000Y-55300000D01*
X66800000Y-56225000D02*
X66800000Y-53500000D01*
X71150000Y-55300000D02*
X71150000Y-47725000D01*
X62261524Y-47275000D02*
X57075000Y-42088476D01*
X71150000Y-47725000D02*
X70700000Y-47275000D01*
X57075000Y-42088476D02*
X57075000Y-40862500D01*
X70700000Y-47275000D02*
X62261524Y-47275000D01*
%TO.N,/5-to-32/SPI_CSN5*%
X66800000Y-87725000D02*
X66800000Y-85000000D01*
X71500000Y-86450000D02*
X71500000Y-47580026D01*
X62303262Y-46925000D02*
X57725000Y-42346738D01*
X71500000Y-47580026D02*
X70844974Y-46925000D01*
X70250000Y-87700000D02*
X71500000Y-86450000D01*
X57725000Y-42346738D02*
X57725000Y-40862500D01*
X70844974Y-46925000D02*
X62303262Y-46925000D01*
%TO.N,/5-to-32/SPI_CSN6*%
X71850000Y-117600000D02*
X71850000Y-47435051D01*
X70250000Y-119200000D02*
X71850000Y-117600000D01*
X71850000Y-47435051D02*
X70989948Y-46575000D01*
X70989948Y-46575000D02*
X62345000Y-46575000D01*
X58375000Y-42605000D02*
X58375000Y-40862500D01*
X66800000Y-119225000D02*
X66800000Y-116500000D01*
X62345000Y-46575000D02*
X58375000Y-42605000D01*
%TO.N,/5-to-32/SPI_CSN7*%
X62386738Y-46225000D02*
X59025000Y-42863262D01*
X71134923Y-46225000D02*
X62386738Y-46225000D01*
X72200000Y-148750000D02*
X72200000Y-47290076D01*
D45*
X66800000Y-160000000D02*
X66800000Y-150725000D01*
D46*
X66800000Y-150725000D02*
X66800000Y-148000000D01*
X70250000Y-150700000D02*
X72200000Y-148750000D01*
X59025000Y-42863262D02*
X59025000Y-40862500D01*
X72200000Y-47290076D02*
X71134923Y-46225000D01*
%TO.N,/5-to-32/SPI_CSN8*%
X101750000Y-56200000D02*
X102650000Y-55300000D01*
X81513902Y-45837000D02*
X62390476Y-45837000D01*
X102650000Y-55300000D02*
X102650000Y-47725000D01*
X83166902Y-47490000D02*
X81513902Y-45837000D01*
X62390476Y-45837000D02*
X59675000Y-43121524D01*
X59675000Y-43121524D02*
X59675000Y-40862500D01*
X98300000Y-56225000D02*
X98300000Y-53500000D01*
X102415000Y-47490000D02*
X83166902Y-47490000D01*
X102650000Y-47725000D02*
X102415000Y-47490000D01*
%TO.N,/5-to-32/SPI_CSN9*%
X103000000Y-86450000D02*
X103000000Y-47580026D01*
X101750000Y-87700000D02*
X103000000Y-86450000D01*
X98300000Y-87725000D02*
X98300000Y-85000000D01*
X62505214Y-45560000D02*
X60325000Y-43379786D01*
X103000000Y-47580000D02*
X102633000Y-47213000D01*
X83281640Y-47213000D02*
X81628640Y-45560000D01*
X81628640Y-45560000D02*
X62505214Y-45560000D01*
X60325000Y-43379786D02*
X60325000Y-40862500D01*
X102633000Y-47213000D02*
X83281640Y-47213000D01*
%TO.N,/5-to-32/SPI_CSN10*%
X102747737Y-46936000D02*
X83396378Y-46936000D01*
X103350000Y-47538263D02*
X102747737Y-46936000D01*
X101750000Y-119200000D02*
X103350000Y-117600000D01*
X103350000Y-117600000D02*
X103350000Y-47538263D01*
X81743378Y-45283000D02*
X62619952Y-45283000D01*
X98300000Y-119225000D02*
X98300000Y-116500000D01*
X83396378Y-46936000D02*
X81743378Y-45283000D01*
X62619952Y-45283000D02*
X60975000Y-43638048D01*
X60975000Y-43638048D02*
X60975000Y-40862500D01*
D45*
%TO.N,/5-to-32/SPI_CSN11*%
X98300000Y-160000000D02*
X98300000Y-150725000D01*
D46*
X103700000Y-148750000D02*
X103700000Y-47496526D01*
X64100000Y-35580000D02*
X63657500Y-35137500D01*
X70379500Y-45006000D02*
X64100000Y-38726500D01*
X102862474Y-46659000D02*
X83511116Y-46659000D01*
X81858116Y-45006000D02*
X70379500Y-45006000D01*
X63657500Y-35137500D02*
X61625000Y-35137500D01*
X64100000Y-38726500D02*
X64100000Y-35580000D01*
X101750000Y-150700000D02*
X103700000Y-148750000D01*
X98300000Y-150725000D02*
X98300000Y-148000000D01*
X103700000Y-47496526D02*
X102862474Y-46659000D01*
X83511116Y-46659000D02*
X81858116Y-45006000D01*
%TO.N,/5-to-32/SPI_CSN12*%
X134150000Y-47725000D02*
X134150000Y-55300000D01*
X110725000Y-47500000D02*
X133925000Y-47500000D01*
X133925000Y-47500000D02*
X134150000Y-47725000D01*
X134150000Y-55300000D02*
X133250000Y-56200000D01*
X129800000Y-56225000D02*
X129800000Y-53500000D01*
X104096642Y-47501430D02*
X102977212Y-46382000D01*
X64377000Y-38611762D02*
X64377000Y-34745215D01*
X64377000Y-34745215D02*
X63311785Y-33680000D01*
X60975000Y-33915000D02*
X60975000Y-35137500D01*
X63311785Y-33680000D02*
X61210000Y-33680000D01*
X83625854Y-46382000D02*
X81972854Y-44729000D01*
X107750234Y-47501430D02*
X104096642Y-47501430D01*
X70494238Y-44729000D02*
X64377000Y-38611762D01*
X81972854Y-44729000D02*
X70494238Y-44729000D01*
X61210000Y-33680000D02*
X60975000Y-33915000D01*
X102977212Y-46382000D02*
X83625854Y-46382000D01*
%TO.N,/5-to-32/SPI_CSN13*%
X70608976Y-44452000D02*
X64654000Y-38497024D01*
X134069974Y-47150000D02*
X134500000Y-47580026D01*
X134500000Y-47580026D02*
X134500000Y-86450000D01*
X64654000Y-34630477D02*
X63323523Y-33300000D01*
X61000000Y-33300000D02*
X60325000Y-33975000D01*
X64654000Y-38497024D02*
X64654000Y-34630477D01*
X109849500Y-46600865D02*
X113065941Y-46600865D01*
X63323523Y-33300000D02*
X61000000Y-33300000D01*
X60325000Y-33975000D02*
X60325000Y-35137500D01*
X82476500Y-44452000D02*
X70608976Y-44452000D01*
X113065941Y-46600865D02*
X113615077Y-47150000D01*
X83600000Y-45575500D02*
X82476500Y-44452000D01*
X134500000Y-86450000D02*
X133250000Y-87700000D01*
X129800000Y-87725000D02*
X129800000Y-85000000D01*
X113615077Y-47150000D02*
X134069974Y-47150000D01*
%TO.N,/5-to-32/SPI_CSN14*%
X133250000Y-119200000D02*
X134850000Y-117600000D01*
X134214948Y-46800000D02*
X113760051Y-46800000D01*
X129800000Y-119225000D02*
X129800000Y-116500000D01*
X59675000Y-34055000D02*
X60810000Y-32920000D01*
X113760051Y-46800000D02*
X113350000Y-46389949D01*
X64931000Y-38382286D02*
X70723714Y-44175000D01*
X60810000Y-32920000D02*
X63335261Y-32920000D01*
X63335261Y-32920000D02*
X64931000Y-34515739D01*
X134850000Y-47435052D02*
X134214948Y-46800000D01*
X112615078Y-45650000D02*
X109849500Y-45650000D01*
X64931000Y-34515739D02*
X64931000Y-38382286D01*
X113350000Y-46389949D02*
X113350000Y-46384922D01*
X70723714Y-44175000D02*
X83100000Y-44175000D01*
X83100000Y-44175000D02*
X83600000Y-44675000D01*
X59675000Y-35137500D02*
X59675000Y-34055000D01*
X134850000Y-117600000D02*
X134850000Y-47435052D01*
X113350000Y-46384922D02*
X112615078Y-45650000D01*
%TO.N,/5-to-32/SPI_CSN15*%
X83575000Y-43750000D02*
X83427000Y-43898000D01*
X59025000Y-34075000D02*
X59025000Y-35137500D01*
X135200000Y-47290078D02*
X134359922Y-46450000D01*
X65500000Y-38560000D02*
X65208000Y-38268000D01*
X129800000Y-150725000D02*
X129800000Y-148000000D01*
X70838452Y-43898000D02*
X65500452Y-38560000D01*
X65500452Y-38560000D02*
X65500000Y-38560000D01*
X113700000Y-46239948D02*
X112210549Y-44750497D01*
X113905025Y-46450000D02*
X113700000Y-46244975D01*
X63376999Y-32570000D02*
X60530000Y-32570000D01*
X65208000Y-38268000D02*
X65208000Y-34401001D01*
X112210549Y-44750497D02*
X109849500Y-44750497D01*
X65208000Y-34401001D02*
X63376999Y-32570000D01*
X83427000Y-43898000D02*
X70838452Y-43898000D01*
X135200000Y-148750000D02*
X135200000Y-47290078D01*
X60530000Y-32570000D02*
X59025000Y-34075000D01*
D45*
X129800000Y-160000000D02*
X129800000Y-150725000D01*
D46*
X133250000Y-150700000D02*
X135200000Y-148750000D01*
X113700000Y-46244975D02*
X113700000Y-46239948D01*
X134359922Y-46450000D02*
X113905025Y-46450000D01*
%TO.N,/5-to-32/SPI_CSN16*%
X165350000Y-47425000D02*
X165650000Y-47725000D01*
X114050000Y-46100000D02*
X134504896Y-46100000D01*
X73775000Y-42095000D02*
X73775000Y-40862500D01*
X83575000Y-42866116D02*
X82820116Y-43621000D01*
X135829896Y-47425000D02*
X165350000Y-47425000D01*
X165650000Y-55300000D02*
X164750000Y-56200000D01*
X82820116Y-43621000D02*
X75301000Y-43621000D01*
X75301000Y-43621000D02*
X73775000Y-42095000D01*
X111806020Y-43850994D02*
X114050000Y-46094974D01*
X109849500Y-43850994D02*
X111806020Y-43850994D01*
X161300000Y-56225000D02*
X161300000Y-53500000D01*
X134504896Y-46100000D02*
X135829896Y-47425000D01*
X83575000Y-42850497D02*
X83575000Y-42866116D01*
X165650000Y-47725000D02*
X165650000Y-55300000D01*
X114050000Y-46094974D02*
X114050000Y-46100000D01*
%TO.N,/5-to-32/SPI_CSN17*%
X161300000Y-87975000D02*
X161300000Y-85250000D01*
X164750000Y-87950000D02*
X166000000Y-86700000D01*
X111411543Y-42951491D02*
X109849500Y-42951491D01*
X111411543Y-42961543D02*
X111411543Y-42951491D01*
X83575000Y-41950994D02*
X82181994Y-43344000D01*
X165494974Y-47075000D02*
X135974870Y-47075000D01*
X74425000Y-42215000D02*
X74425000Y-40862500D01*
X114200000Y-45750000D02*
X111411543Y-42961543D01*
X82181994Y-43344000D02*
X75554000Y-43344000D01*
X135974870Y-47075000D02*
X134649870Y-45750000D01*
X166000000Y-86700000D02*
X166000000Y-47580026D01*
X166000000Y-47580026D02*
X165494974Y-47075000D01*
X134649870Y-45750000D02*
X114200000Y-45750000D01*
X75554000Y-43344000D02*
X74425000Y-42215000D01*
%TO.N,/5-to-32/SPI_CSN18*%
X111007014Y-42051988D02*
X109849500Y-42051988D01*
X114350000Y-45400000D02*
X134794844Y-45400000D01*
X161300000Y-119225000D02*
X161300000Y-116500000D01*
X83575000Y-41051491D02*
X81559491Y-43067000D01*
X166350000Y-117600000D02*
X164750000Y-119200000D01*
X75797000Y-43067000D02*
X75075000Y-42345000D01*
X111007014Y-42051988D02*
X113765013Y-44809987D01*
X81559491Y-43067000D02*
X75797000Y-43067000D01*
X165639948Y-46725000D02*
X166350000Y-47435052D01*
X75075000Y-42345000D02*
X75075000Y-40862500D01*
X136119844Y-46725000D02*
X165639948Y-46725000D01*
X166350000Y-47435052D02*
X166350000Y-117600000D01*
X113775000Y-44825000D02*
X114350000Y-45400000D01*
X134794844Y-45400000D02*
X136119844Y-46725000D01*
%TO.N,/5-to-32/SPI_CSN19*%
X164750000Y-150700000D02*
X166700000Y-148750000D01*
X161300000Y-150725000D02*
X161300000Y-148000000D01*
D45*
X161300000Y-160000000D02*
X161300000Y-150725000D01*
D46*
X165784922Y-46375000D02*
X136264818Y-46375000D01*
X136264818Y-46375000D02*
X134939818Y-45050000D01*
X83575000Y-40151988D02*
X80936988Y-42790000D01*
X134939818Y-45050000D02*
X114500000Y-45050000D01*
X110602485Y-41152485D02*
X109849500Y-41152485D01*
X114500000Y-45050000D02*
X110602485Y-41152485D01*
X166700000Y-47290078D02*
X165784922Y-46375000D01*
X76020000Y-42790000D02*
X75725000Y-42495000D01*
X80936988Y-42790000D02*
X76020000Y-42790000D01*
X166700000Y-148750000D02*
X166700000Y-47290078D01*
X75725000Y-42495000D02*
X75725000Y-40862500D01*
D43*
%TO.N,/LED_R*%
X86500000Y-28000000D02*
X85310000Y-28000000D01*
X91562500Y-28900000D02*
X87400000Y-28900000D01*
X87400000Y-28900000D02*
X86500000Y-28000000D01*
%TO.N,/LED_G*%
X85610000Y-29300000D02*
X85510000Y-29200000D01*
X91562500Y-29300000D02*
X85610000Y-29300000D01*
%TO.N,/LED_B*%
X91562500Y-29700000D02*
X86050000Y-29700000D01*
X86050000Y-29700000D02*
X85250000Y-30500000D01*
X85250000Y-30500000D02*
X83510000Y-30500000D01*
%TO.N,/SWDIO*%
X111500000Y-38100000D02*
X112250000Y-38100000D01*
X97250000Y-36865685D02*
X97250000Y-35881372D01*
X106250000Y-38100000D02*
X105650000Y-37500000D01*
X136834315Y-42575000D02*
X150325000Y-42575000D01*
X152890000Y-28110000D02*
X152900000Y-28110000D01*
X151400000Y-29600000D02*
X152890000Y-28110000D01*
X150325000Y-42575000D02*
X151400000Y-41500000D01*
X115700000Y-41550000D02*
X135809314Y-41550000D01*
X151400000Y-41500000D02*
X151400000Y-29600000D01*
X105650000Y-37500000D02*
X97884314Y-37500000D01*
X97884314Y-37500000D02*
X97250000Y-36865685D01*
X97250000Y-35881372D02*
X96400000Y-35031372D01*
X96400000Y-35031372D02*
X96400000Y-33737500D01*
X112250000Y-38100000D02*
X115700000Y-41550000D01*
X135809314Y-41550000D02*
X136834315Y-42575000D01*
%TO.N,/SWCLK*%
X115865686Y-41150000D02*
X135975000Y-41150000D01*
X96850000Y-36047058D02*
X96000000Y-35197057D01*
X105050000Y-37900000D02*
X97718628Y-37899999D01*
X97718628Y-37899999D02*
X96850000Y-37031370D01*
X106250000Y-39100000D02*
X105050000Y-37900000D01*
X96850000Y-37031370D02*
X96850000Y-36047058D01*
X150900000Y-41275000D02*
X150900000Y-28110000D01*
X114400000Y-39684314D02*
X115865686Y-41150000D01*
X150025000Y-42175000D02*
X150900000Y-41300000D01*
X135975000Y-41150000D02*
X137000000Y-42175000D01*
X137000000Y-42175000D02*
X150025000Y-42175000D01*
X114400000Y-39100000D02*
X114400000Y-39684314D01*
X96000000Y-35197057D02*
X96000000Y-33737500D01*
%TO.N,/RUN_N*%
X139350000Y-33000000D02*
X136300000Y-29950000D01*
X134840000Y-37510000D02*
X139350000Y-33000000D01*
X97650000Y-36700000D02*
X98050000Y-37100000D01*
X105687791Y-37100000D02*
X106250000Y-37100000D01*
X96800000Y-33737500D02*
X96800000Y-34865686D01*
X136300000Y-29950000D02*
X136300000Y-25600000D01*
X105684448Y-37096657D02*
X105687791Y-37100000D01*
X111500000Y-37100000D02*
X115350000Y-37100000D01*
X98050000Y-37100000D02*
X98300000Y-37100000D01*
X134250000Y-37510000D02*
X134840000Y-37510000D01*
X105684448Y-37096657D02*
X105681105Y-37100000D01*
X133725000Y-40025000D02*
X134250000Y-39500000D01*
X136300000Y-25600000D02*
X139400000Y-22500000D01*
X115350000Y-37100000D02*
X118275000Y-40025000D01*
X134250000Y-39500000D02*
X134250000Y-37510000D01*
X97650000Y-35715686D02*
X97650000Y-36700000D01*
X96800000Y-34865686D02*
X97650000Y-35715686D01*
X118275000Y-40025000D02*
X133725000Y-40025000D01*
X105681105Y-37100000D02*
X98300000Y-37100000D01*
D45*
%TO.N,/RESCAN_N*%
X154810000Y-33000000D02*
X159350000Y-33000000D01*
D43*
X113534314Y-39950000D02*
X111500000Y-39950000D01*
X151900000Y-35910000D02*
X151900000Y-41600000D01*
X135643628Y-41950000D02*
X115534314Y-41950000D01*
X97600000Y-33737500D02*
X97600000Y-34534314D01*
X115534314Y-41950000D02*
X113534314Y-39950000D01*
X136668630Y-42975000D02*
X135643628Y-41950000D01*
D45*
X156400000Y-30050000D02*
X156400000Y-25700000D01*
D43*
X102700000Y-34750000D02*
X103150000Y-35200000D01*
X97600000Y-34534314D02*
X97815686Y-34750000D01*
X154810000Y-33000000D02*
X151900000Y-35910000D01*
X151900000Y-41600000D02*
X150525000Y-42975000D01*
D45*
X159350000Y-33000000D02*
X156400000Y-30050000D01*
D43*
X97815686Y-34750000D02*
X102700000Y-34750000D01*
X150525000Y-42975000D02*
X136668630Y-42975000D01*
D45*
X159300000Y-22800000D02*
X159300000Y-22500000D01*
X156400000Y-25700000D02*
X159300000Y-22800000D01*
D43*
%TO.N,/USB_D+I*%
X96000000Y-26862500D02*
X96000000Y-24260000D01*
%TO.N,/USB_D-I*%
X96400000Y-25562552D02*
X97000000Y-24962552D01*
X97000000Y-24962552D02*
X97000000Y-24260000D01*
X96400000Y-26862500D02*
X96400000Y-25562552D01*
D45*
%TO.N,/BOOTSEL_N*%
X24200000Y-31600000D02*
X25600000Y-33000000D01*
X24200000Y-27400000D02*
X24200000Y-31600000D01*
X62250000Y-21230000D02*
X61120000Y-20100000D01*
X31500000Y-20100000D02*
X24200000Y-27400000D01*
X61120000Y-20100000D02*
X31500000Y-20100000D01*
D43*
%TO.N,/QSPI_NSS*%
X92400000Y-26862500D02*
X92400000Y-26400000D01*
X61000000Y-25400000D02*
X61000000Y-22640000D01*
X81000000Y-25750000D02*
X78550000Y-28200000D01*
X62250000Y-22250000D02*
X63500000Y-22250000D01*
X63800000Y-28200000D02*
X61000000Y-25400000D01*
X91749999Y-25750000D02*
X81000000Y-25750000D01*
X63500000Y-22250000D02*
X65245000Y-22250000D01*
X65245000Y-22250000D02*
X65300000Y-22195000D01*
X92400000Y-26400000D02*
X91749999Y-25750000D01*
X78550000Y-28200000D02*
X63800000Y-28200000D01*
X61390000Y-22250000D02*
X62250000Y-22250000D01*
X61000000Y-22640000D02*
X61390000Y-22250000D01*
%TO.N,/XTAL_OUT*%
X98590000Y-39000000D02*
X98600000Y-38990000D01*
X94800000Y-34435661D02*
X93450000Y-35785661D01*
X93900000Y-39000000D02*
X98590000Y-39000000D01*
X94800000Y-33737500D02*
X94800000Y-34435661D01*
X93450000Y-35785661D02*
X93450000Y-38550000D01*
X93450000Y-38550000D02*
X93900000Y-39000000D01*
%TO.N,/HAP_L*%
X85676000Y-31374000D02*
X81070000Y-31374000D01*
X61300000Y-26900000D02*
X39690000Y-26900000D01*
X91562500Y-30500000D02*
X86550000Y-30500000D01*
X39690000Y-26900000D02*
X38900000Y-26110000D01*
X86550000Y-30500000D02*
X85676000Y-31374000D01*
X63327000Y-28927000D02*
X61300000Y-26900000D01*
X78623000Y-28927000D02*
X63327000Y-28927000D01*
X81070000Y-31374000D02*
X78623000Y-28927000D01*
%TO.N,/HAP_R*%
X86384315Y-30100000D02*
X85437315Y-31047000D01*
X78758448Y-28600000D02*
X63600000Y-28600000D01*
X81205448Y-31047000D02*
X78758448Y-28600000D01*
X91562500Y-30100000D02*
X86384315Y-30100000D01*
X61110000Y-26110000D02*
X46520000Y-26110000D01*
X63600000Y-28600000D02*
X61110000Y-26110000D01*
X85437315Y-31047000D02*
X81205448Y-31047000D01*
%TO.N,E0N_A*%
X86715686Y-30900000D02*
X85415685Y-32200000D01*
X60340000Y-32200000D02*
X58375000Y-34165000D01*
X58375000Y-34165000D02*
X58375000Y-35137500D01*
X85415685Y-32200000D02*
X60340000Y-32200000D01*
X91562500Y-30900000D02*
X86715686Y-30900000D01*
%TO.N,E0N_B*%
X86500208Y-33450000D02*
X82558208Y-37392000D01*
X90250000Y-31700000D02*
X88500000Y-33450000D01*
X77660000Y-35152500D02*
X77675000Y-35137500D01*
X82558208Y-37392000D02*
X78462000Y-37392000D01*
X91562500Y-31700000D02*
X90250000Y-31700000D01*
X77660000Y-36590000D02*
X77660000Y-35152500D01*
X88500000Y-33450000D02*
X86500208Y-33450000D01*
X78462000Y-37392000D02*
X77660000Y-36590000D01*
%TO.N,A3*%
X82693656Y-37719000D02*
X86562656Y-33850000D01*
X57075000Y-36416065D02*
X57075000Y-35137500D01*
X77895137Y-37719000D02*
X82693656Y-37719000D01*
X57079053Y-36420118D02*
X57075000Y-36416065D01*
X76375000Y-36198863D02*
X76375000Y-35137500D01*
X90415686Y-32100000D02*
X91562500Y-32100000D01*
X86562656Y-33850000D02*
X88665686Y-33850000D01*
X76718179Y-36542042D02*
X77895137Y-37719000D01*
X76718179Y-36542042D02*
X76375000Y-36198863D01*
X88665686Y-33850000D02*
X90415686Y-32100000D01*
%TO.N,A2*%
X86625104Y-34250000D02*
X88834314Y-34250000D01*
X88834314Y-34250000D02*
X90031372Y-33052942D01*
X82829104Y-38046000D02*
X86625104Y-34250000D01*
X75725000Y-36713592D02*
X75725000Y-35137500D01*
X56425060Y-35137560D02*
X56425000Y-35137500D01*
X76184851Y-37173443D02*
X77057408Y-38046000D01*
X77057408Y-38046000D02*
X82829104Y-38046000D01*
X90031372Y-33052942D02*
X90031372Y-33050000D01*
X56425060Y-36925489D02*
X56425060Y-35137560D01*
X90031372Y-33050000D02*
X90581372Y-32500000D01*
X76184851Y-37173443D02*
X75725000Y-36713592D01*
X90581372Y-32500000D02*
X91562500Y-32500000D01*
%TO.N,A1*%
X88999999Y-34650000D02*
X90750000Y-32900000D01*
X55773641Y-37434173D02*
X55775000Y-37432814D01*
X76223000Y-38373000D02*
X82964552Y-38373000D01*
X90750000Y-32900000D02*
X91562500Y-32900000D01*
X75670000Y-37820000D02*
X76223000Y-38373000D01*
X75670000Y-37820000D02*
X75075000Y-37225000D01*
X86687552Y-34650000D02*
X88999999Y-34650000D01*
X82964552Y-38373000D02*
X86687552Y-34650000D01*
X75075000Y-37225000D02*
X75075000Y-35137500D01*
X55775000Y-37432814D02*
X55775000Y-35137500D01*
%TO.N,A0*%
X92400000Y-33737500D02*
X92400000Y-34650000D01*
X76960000Y-38700000D02*
X75381230Y-38700000D01*
X74440000Y-37758770D02*
X74440000Y-35152500D01*
X55125000Y-37935000D02*
X55125000Y-35137500D01*
X86750000Y-35050000D02*
X83100000Y-38700000D01*
X92000000Y-35050000D02*
X86750000Y-35050000D01*
X75078740Y-38397510D02*
X74440000Y-37758770D01*
X74440000Y-35152500D02*
X74425000Y-35137500D01*
X83100000Y-38700000D02*
X76960000Y-38700000D01*
X92400000Y-34650000D02*
X92000000Y-35050000D01*
X55120000Y-37940000D02*
X55125000Y-37935000D01*
X75381230Y-38700000D02*
X75078740Y-38397510D01*
%TO.N,/QSPI_SD3*%
X72500000Y-23465000D02*
X73765000Y-23465000D01*
X92578428Y-23750000D02*
X94399999Y-25571570D01*
X94399999Y-25571570D02*
X94400000Y-26862500D01*
X73765000Y-23465000D02*
X74050000Y-23750000D01*
X74050000Y-23750000D02*
X92578428Y-23750000D01*
%TO.N,/QSPI_SCLK*%
X92412743Y-24150000D02*
X93999999Y-25737256D01*
X93999999Y-25737256D02*
X94000000Y-26862500D01*
X72500000Y-24735000D02*
X79749314Y-24735000D01*
X80334314Y-24150000D02*
X92412743Y-24150000D01*
X79749314Y-24735000D02*
X80334314Y-24150000D01*
%TO.N,/QSPI_SD0*%
X80500000Y-24550000D02*
X79045000Y-26005000D01*
X79045000Y-26005000D02*
X72500000Y-26005000D01*
X92247055Y-24550000D02*
X80500000Y-24550000D01*
X93600000Y-26862500D02*
X93599999Y-25902942D01*
X93599999Y-25902942D02*
X92247055Y-24550000D01*
%TO.N,/QSPI_SD2*%
X64315000Y-24735000D02*
X65300000Y-24735000D01*
X63700000Y-26900000D02*
X63700000Y-25350000D01*
X93200000Y-26862500D02*
X93200000Y-26068628D01*
X63700000Y-25350000D02*
X64315000Y-24735000D01*
X78238629Y-27380000D02*
X64780000Y-27380000D01*
X64180000Y-27380000D02*
X63700000Y-26900000D01*
X64770000Y-27380000D02*
X64180000Y-27380000D01*
X80668629Y-24950000D02*
X78238629Y-27380000D01*
X92081370Y-24950000D02*
X80668629Y-24950000D01*
X93200000Y-26068628D02*
X92081370Y-24950000D01*
%TO.N,/QSPI_SD1*%
X91915685Y-25350000D02*
X80834315Y-25350000D01*
X78384315Y-27800000D02*
X64000000Y-27800000D01*
X64035000Y-23465000D02*
X65300000Y-23465000D01*
X92800000Y-26234314D02*
X91915685Y-25350000D01*
X80834315Y-25350000D02*
X78384315Y-27800000D01*
X63300000Y-24200000D02*
X64035000Y-23465000D01*
X64000000Y-27800000D02*
X63300000Y-27100000D01*
X63300000Y-27100000D02*
X63300000Y-24200000D01*
X92800000Y-26862500D02*
X92800000Y-26234314D01*
D45*
%TO.N,unconnected-(J1-PadMP)*%
X149600000Y-21300000D02*
X154200000Y-21300000D01*
%TD*%
%TA.AperFunction,Conductor*%
%TO.N,+3V3*%
G36*
X120176252Y-32071383D02*
G01*
X120224317Y-32123635D01*
X120237275Y-32182220D01*
X120215292Y-33149471D01*
X120227938Y-33150109D01*
X120227939Y-33150109D01*
X121055854Y-33191863D01*
X123200000Y-33300000D01*
X123201280Y-33300011D01*
X123201292Y-33300011D01*
X124722952Y-33312675D01*
X126138291Y-33324454D01*
X126142327Y-33324554D01*
X127879114Y-33395090D01*
X127946366Y-33417840D01*
X127990643Y-33473338D01*
X128000000Y-33520986D01*
X128000000Y-34297507D01*
X127999901Y-34302497D01*
X127975988Y-34905795D01*
X127974600Y-34940800D01*
X127951916Y-35008076D01*
X127896461Y-35052407D01*
X127862159Y-35061089D01*
X127506711Y-35099279D01*
X127493251Y-35100000D01*
X126705660Y-35100000D01*
X126694359Y-35099492D01*
X126140788Y-35049639D01*
X126140784Y-35049639D01*
X126139088Y-35049486D01*
X124057160Y-34975027D01*
X124056587Y-34975005D01*
X122200000Y-34900000D01*
X120160000Y-34899471D01*
X120140292Y-35974471D01*
X120140292Y-36248471D01*
X120120290Y-36316592D01*
X120066634Y-36363085D01*
X120014292Y-36374471D01*
X117905250Y-36374471D01*
X117837129Y-36354469D01*
X117790636Y-36300813D01*
X117779778Y-36259995D01*
X117675341Y-35122874D01*
X117674825Y-35109642D01*
X117698067Y-33395090D01*
X117713656Y-32245123D01*
X117734579Y-32177281D01*
X117788860Y-32131519D01*
X117835900Y-32120889D01*
X120107568Y-32053413D01*
X120176252Y-32071383D01*
G37*
%TD.AperFunction*%
%TD*%
%TA.AperFunction,Conductor*%
%TO.N,GND*%
G36*
X99170089Y-22243132D02*
G01*
X100349661Y-22969022D01*
X100397194Y-23021759D01*
X100408359Y-23058511D01*
X100413985Y-23097897D01*
X100479454Y-23556181D01*
X100469286Y-23626446D01*
X100422745Y-23680059D01*
X100354720Y-23700000D01*
X97926000Y-23700000D01*
X97857879Y-23679998D01*
X97811386Y-23626342D01*
X97800000Y-23574000D01*
X97800000Y-23166018D01*
X97820002Y-23097897D01*
X97854279Y-23062422D01*
X97859927Y-23058512D01*
X99032337Y-22246844D01*
X99099727Y-22224515D01*
X99170089Y-22243132D01*
G37*
%TD.AperFunction*%
%TD*%
%TA.AperFunction,Conductor*%
%TO.N,GND*%
G36*
X44989745Y-21020002D02*
G01*
X45036238Y-21073658D01*
X45047624Y-21126000D01*
X45047624Y-22977587D01*
X45039895Y-23021038D01*
X44475376Y-24557634D01*
X44433110Y-24614678D01*
X44366712Y-24639816D01*
X44357773Y-24640181D01*
X41129497Y-24657287D01*
X41061271Y-24637646D01*
X41013968Y-24583086D01*
X40652213Y-23780879D01*
X40333103Y-23073239D01*
X40322002Y-23024516D01*
X40321918Y-23021038D01*
X40275772Y-21129072D01*
X40294108Y-21060484D01*
X40346614Y-21012697D01*
X40401735Y-21000000D01*
X44921624Y-21000000D01*
X44989745Y-21020002D01*
G37*
%TD.AperFunction*%
%TD*%
%TA.AperFunction,Conductor*%
%TO.N,VBUS*%
G36*
X127942121Y-30920002D02*
G01*
X127988614Y-30973658D01*
X128000000Y-31026000D01*
X128000000Y-32728860D01*
X127979998Y-32796981D01*
X127926342Y-32843474D01*
X127868966Y-32854759D01*
X127214858Y-32828594D01*
X126501287Y-32800051D01*
X126501263Y-32800051D01*
X126500000Y-32800000D01*
X124223577Y-32800000D01*
X124155456Y-32779998D01*
X124108963Y-32726342D01*
X124097601Y-32676446D01*
X124080052Y-31772684D01*
X124080061Y-31767342D01*
X124097170Y-31023104D01*
X124118733Y-30955461D01*
X124173443Y-30910214D01*
X124223137Y-30900000D01*
X127874000Y-30900000D01*
X127942121Y-30920002D01*
G37*
%TD.AperFunction*%
%TD*%
%TA.AperFunction,Conductor*%
%TO.N,+3V3*%
G36*
X98980049Y-24053721D02*
G01*
X99754913Y-24096769D01*
X100542873Y-24138241D01*
X100609847Y-24161795D01*
X100653455Y-24217820D01*
X100659852Y-24288528D01*
X100656513Y-24301649D01*
X100481590Y-24861402D01*
X100442180Y-24920455D01*
X100377099Y-24948828D01*
X100365532Y-24949748D01*
X99149546Y-24990281D01*
X99039002Y-24993966D01*
X98970252Y-24976245D01*
X98920098Y-24920175D01*
X98776707Y-24604716D01*
X98765413Y-24552577D01*
X98765413Y-24308282D01*
X98773434Y-24264046D01*
X98821720Y-24135283D01*
X98864366Y-24078525D01*
X98930930Y-24053832D01*
X98939696Y-24053527D01*
X98973060Y-24053527D01*
X98980049Y-24053721D01*
G37*
%TD.AperFunction*%
%TD*%
%TA.AperFunction,Conductor*%
%TO.N,+3V3*%
G36*
X81269398Y-27956466D02*
G01*
X81550000Y-28050000D01*
X82000000Y-28100000D01*
X82007352Y-28099081D01*
X82007355Y-28099081D01*
X82527872Y-28034016D01*
X82597947Y-28045414D01*
X82650736Y-28092889D01*
X82669500Y-28159043D01*
X82669500Y-28343500D01*
X82649498Y-28411621D01*
X82595842Y-28458114D01*
X82543500Y-28469500D01*
X82265354Y-28469500D01*
X82261650Y-28469941D01*
X82261647Y-28469941D01*
X82254254Y-28470821D01*
X82239154Y-28472618D01*
X82136847Y-28518061D01*
X82057759Y-28597287D01*
X82012494Y-28699673D01*
X82011552Y-28707750D01*
X81974710Y-28767604D01*
X81910714Y-28798346D01*
X81890363Y-28800000D01*
X80981884Y-28800000D01*
X80913763Y-28779998D01*
X80866744Y-28725174D01*
X80858730Y-28707143D01*
X80810860Y-28599434D01*
X80800000Y-28548262D01*
X80800000Y-28076000D01*
X80820002Y-28007879D01*
X80873658Y-27961386D01*
X80926000Y-27950000D01*
X81229553Y-27950000D01*
X81269398Y-27956466D01*
G37*
%TD.AperFunction*%
%TD*%
%TA.AperFunction,Conductor*%
%TO.N,GND*%
G36*
X95111094Y-36673434D02*
G01*
X95124850Y-36682273D01*
X95221548Y-36753696D01*
X95230435Y-36756817D01*
X95230437Y-36756818D01*
X95311811Y-36785394D01*
X95346526Y-36797585D01*
X95354172Y-36798308D01*
X95354173Y-36798308D01*
X95359403Y-36798802D01*
X95377362Y-36800500D01*
X95822638Y-36800500D01*
X95840597Y-36798802D01*
X95845827Y-36798308D01*
X95845828Y-36798308D01*
X95853474Y-36797585D01*
X95978452Y-36753696D01*
X95986022Y-36748105D01*
X95986029Y-36748101D01*
X96034599Y-36712226D01*
X96101277Y-36687843D01*
X96117839Y-36687856D01*
X96149580Y-36689972D01*
X96216220Y-36714461D01*
X96259040Y-36771090D01*
X96263437Y-36846252D01*
X96200000Y-37100000D01*
X96199638Y-37101989D01*
X96199636Y-37102000D01*
X96013845Y-38123855D01*
X95981979Y-38187298D01*
X95925822Y-38222079D01*
X95718967Y-38283649D01*
X95058397Y-38480265D01*
X94985070Y-38479828D01*
X94159019Y-38223198D01*
X94099900Y-38183886D01*
X94071419Y-38118853D01*
X94070584Y-38109652D01*
X94005595Y-36903806D01*
X94021902Y-36834707D01*
X94072977Y-36785394D01*
X94100850Y-36774788D01*
X94111365Y-36772159D01*
X94183676Y-36775514D01*
X94239275Y-36795039D01*
X94239278Y-36795040D01*
X94246526Y-36797585D01*
X94254172Y-36798308D01*
X94254173Y-36798308D01*
X94259403Y-36798802D01*
X94277362Y-36800500D01*
X94722638Y-36800500D01*
X94740597Y-36798802D01*
X94745827Y-36798308D01*
X94745828Y-36798308D01*
X94753474Y-36797585D01*
X94788189Y-36785394D01*
X94869563Y-36756818D01*
X94869565Y-36756817D01*
X94878452Y-36753696D01*
X94975143Y-36682279D01*
X95041819Y-36657897D01*
X95111094Y-36673434D01*
G37*
%TD.AperFunction*%
%TD*%
%TA.AperFunction,Conductor*%
%TO.N,GND*%
G36*
X129785055Y-31017952D02*
G01*
X129852839Y-31039068D01*
X129898446Y-31093478D01*
X129908986Y-31144957D01*
X129872629Y-35626000D01*
X129870000Y-35950000D01*
X129870010Y-35950689D01*
X129888181Y-37231785D01*
X129869147Y-37300183D01*
X129816157Y-37347432D01*
X129761773Y-37359571D01*
X126900122Y-37350000D01*
X124183194Y-37350000D01*
X124115073Y-37329998D01*
X124068580Y-37276342D01*
X124057388Y-37217011D01*
X124099904Y-36451728D01*
X124100000Y-36450000D01*
X124100000Y-35626000D01*
X124120002Y-35557879D01*
X124173658Y-35511386D01*
X124226000Y-35500000D01*
X126340000Y-35500000D01*
X127293604Y-35491815D01*
X128651883Y-35480156D01*
X128651885Y-35480155D01*
X128670000Y-35480000D01*
X128689431Y-31127510D01*
X128709737Y-31059480D01*
X128763600Y-31013227D01*
X128817495Y-31002090D01*
X129785055Y-31017952D01*
G37*
%TD.AperFunction*%
%TD*%
%TA.AperFunction,Conductor*%
%TO.N,GND*%
G36*
X93800330Y-20315038D02*
G01*
X94759091Y-20876062D01*
X94807783Y-20927730D01*
X94814989Y-20944967D01*
X95046822Y-21640465D01*
X95049388Y-21711415D01*
X95013188Y-21772490D01*
X94949716Y-21804298D01*
X94931951Y-21806224D01*
X92525619Y-21895347D01*
X92456805Y-21877880D01*
X92408358Y-21825981D01*
X92395054Y-21774390D01*
X92394979Y-21772490D01*
X92373475Y-21226343D01*
X92390781Y-21157489D01*
X92431110Y-21115484D01*
X93668427Y-20317885D01*
X93736519Y-20297788D01*
X93800330Y-20315038D01*
G37*
%TD.AperFunction*%
%TD*%
%TA.AperFunction,Conductor*%
%TO.N,+3V3*%
G36*
X95121781Y-22220002D02*
G01*
X95161703Y-22261172D01*
X95236486Y-22385811D01*
X95254382Y-22454513D01*
X95237046Y-22514520D01*
X95061538Y-22812884D01*
X95009759Y-22861459D01*
X94952934Y-22875000D01*
X93473121Y-22875000D01*
X93405000Y-22854998D01*
X93363722Y-22811513D01*
X93339960Y-22769929D01*
X93323359Y-22707416D01*
X93323359Y-22595681D01*
X93325806Y-22570970D01*
X93379742Y-22301289D01*
X93412715Y-22238414D01*
X93474447Y-22203347D01*
X93503295Y-22200000D01*
X95053660Y-22200000D01*
X95121781Y-22220002D01*
G37*
%TD.AperFunction*%
%TD*%
M02*
