%TF.GenerationSoftware,KiCad,Pcbnew,(6.0.10)*%
%TF.CreationDate,2023-02-13T20:41:26-05:00*%
%TF.ProjectId,master_board,6d617374-6572-45f6-926f-6172642e6b69,rev?*%
%TF.SameCoordinates,Original*%
%TF.FileFunction,Soldermask,Bot*%
%TF.FilePolarity,Negative*%
%FSLAX46Y46*%
G04 Gerber Fmt 4.6, Leading zero omitted, Abs format (unit mm)*
G04 Created by KiCad (PCBNEW (6.0.10)) date 2023-02-13 20:41:26*
%MOMM*%
%LPD*%
G01*
G04 APERTURE LIST*
%ADD10C,0.650000*%
%ADD11O,1.000000X1.800000*%
%ADD12O,1.000000X2.100000*%
%ADD13O,1.500000X2.500000*%
%ADD14R,1.700000X1.700000*%
%ADD15C,3.200000*%
%ADD16C,2.000000*%
G04 APERTURE END LIST*
D10*
%TO.C,J2*%
X122590000Y-23105000D03*
X116810000Y-23105000D03*
D11*
X115380000Y-19425000D03*
D12*
X124020000Y-23605000D03*
D11*
X124020000Y-19425000D03*
D12*
X115380000Y-23605000D03*
%TD*%
D13*
%TO.C,M6*%
X58000000Y-116500000D03*
X60200000Y-116500000D03*
X62400000Y-116500000D03*
X64600000Y-116500000D03*
X66800000Y-116500000D03*
X69000000Y-116500000D03*
%TD*%
D14*
%TO.C,J5*%
X42700000Y-23700000D03*
%TD*%
%TO.C,J4*%
X46500000Y-23700000D03*
%TD*%
D13*
%TO.C,M18*%
X152500000Y-116500000D03*
X154700000Y-116500000D03*
X156900000Y-116500000D03*
X159100000Y-116500000D03*
X161300000Y-116500000D03*
X163500000Y-116500000D03*
%TD*%
%TO.C,M7*%
X58000000Y-148000000D03*
X60200000Y-148000000D03*
X62400000Y-148000000D03*
X64600000Y-148000000D03*
X66800000Y-148000000D03*
X69000000Y-148000000D03*
%TD*%
D15*
%TO.C,H1*%
X22000000Y-23000000D03*
%TD*%
D13*
%TO.C,M9*%
X89500000Y-85000000D03*
X91700000Y-85000000D03*
X93900000Y-85000000D03*
X96100000Y-85000000D03*
X98300000Y-85000000D03*
X100500000Y-85000000D03*
%TD*%
D15*
%TO.C,H3*%
X168000000Y-23000000D03*
%TD*%
D16*
%TO.C,SW1*%
X159350000Y-33000000D03*
X164350000Y-33000000D03*
X159350000Y-38000000D03*
X164350000Y-38000000D03*
%TD*%
D13*
%TO.C,M5*%
X58000000Y-85000000D03*
X60200000Y-85000000D03*
X62400000Y-85000000D03*
X64600000Y-85000000D03*
X66800000Y-85000000D03*
X69000000Y-85000000D03*
%TD*%
%TO.C,M0*%
X26500000Y-53500000D03*
X28700000Y-53500000D03*
X30900000Y-53500000D03*
X33100000Y-53500000D03*
X35300000Y-53500000D03*
X37500000Y-53500000D03*
%TD*%
%TO.C,M4*%
X58000000Y-53500000D03*
X60200000Y-53500000D03*
X62400000Y-53500000D03*
X64600000Y-53500000D03*
X66800000Y-53500000D03*
X69000000Y-53500000D03*
%TD*%
D15*
%TO.C,H2*%
X22000000Y-169000000D03*
%TD*%
D13*
%TO.C,M2*%
X26500000Y-116500000D03*
X28700000Y-116500000D03*
X30900000Y-116500000D03*
X33100000Y-116500000D03*
X35300000Y-116500000D03*
X37500000Y-116500000D03*
%TD*%
%TO.C,M17*%
X152500000Y-85250000D03*
X154700000Y-85250000D03*
X156900000Y-85250000D03*
X159100000Y-85250000D03*
X161300000Y-85250000D03*
X163500000Y-85250000D03*
%TD*%
%TO.C,M3*%
X26500000Y-148000000D03*
X28700000Y-148000000D03*
X30900000Y-148000000D03*
X33100000Y-148000000D03*
X35300000Y-148000000D03*
X37500000Y-148000000D03*
%TD*%
%TO.C,M16*%
X152500000Y-53500000D03*
X154700000Y-53500000D03*
X156900000Y-53500000D03*
X159100000Y-53500000D03*
X161300000Y-53500000D03*
X163500000Y-53500000D03*
%TD*%
D14*
%TO.C,J3*%
X38900000Y-23700000D03*
%TD*%
D13*
%TO.C,M15*%
X121000000Y-148000000D03*
X123200000Y-148000000D03*
X125400000Y-148000000D03*
X127600000Y-148000000D03*
X129800000Y-148000000D03*
X132000000Y-148000000D03*
%TD*%
%TO.C,M12*%
X121000000Y-53500000D03*
X123200000Y-53500000D03*
X125400000Y-53500000D03*
X127600000Y-53500000D03*
X129800000Y-53500000D03*
X132000000Y-53500000D03*
%TD*%
D15*
%TO.C,H4*%
X168000000Y-169000000D03*
%TD*%
D13*
%TO.C,M10*%
X89500000Y-116500000D03*
X91700000Y-116500000D03*
X93900000Y-116500000D03*
X96100000Y-116500000D03*
X98300000Y-116500000D03*
X100500000Y-116500000D03*
%TD*%
%TO.C,M14*%
X121000000Y-116500000D03*
X123200000Y-116500000D03*
X125400000Y-116500000D03*
X127600000Y-116500000D03*
X129800000Y-116500000D03*
X132000000Y-116500000D03*
%TD*%
%TO.C,M11*%
X89500000Y-148000000D03*
X91700000Y-148000000D03*
X93900000Y-148000000D03*
X96100000Y-148000000D03*
X98300000Y-148000000D03*
X100500000Y-148000000D03*
%TD*%
%TO.C,M19*%
X152500000Y-148000000D03*
X154700000Y-148000000D03*
X156900000Y-148000000D03*
X159100000Y-148000000D03*
X161300000Y-148000000D03*
X163500000Y-148000000D03*
%TD*%
%TO.C,M8*%
X89500000Y-53500000D03*
X91700000Y-53500000D03*
X93900000Y-53500000D03*
X96100000Y-53500000D03*
X98300000Y-53500000D03*
X100500000Y-53500000D03*
%TD*%
D14*
%TO.C,J6*%
X50300000Y-23700000D03*
%TD*%
D13*
%TO.C,M13*%
X121000000Y-85000000D03*
X123200000Y-85000000D03*
X125400000Y-85000000D03*
X127600000Y-85000000D03*
X129800000Y-85000000D03*
X132000000Y-85000000D03*
%TD*%
D16*
%TO.C,SW2*%
X139350000Y-33000000D03*
X144350000Y-33000000D03*
X139350000Y-38000000D03*
X144350000Y-38000000D03*
%TD*%
%TO.C,SW3*%
X25600000Y-33000000D03*
X30600000Y-33000000D03*
X25600000Y-38000000D03*
X30600000Y-38000000D03*
%TD*%
D13*
%TO.C,M1*%
X26500000Y-85000000D03*
X28700000Y-85000000D03*
X30900000Y-85000000D03*
X33100000Y-85000000D03*
X35300000Y-85000000D03*
X37500000Y-85000000D03*
%TD*%
M02*
