M48
; DRILL file {KiCad (6.0.10)} date Fri Mar  3 22:29:33 2023
; FORMAT={-:-/ absolute / metric / decimal}
; #@! TF.CreationDate,2023-03-03T22:29:33-05:00
; #@! TF.GenerationSoftware,Kicad,Pcbnew,(6.0.10)
; #@! TF.FileFunction,MixedPlating,1,2
FMAT,2
METRIC
; #@! TA.AperFunction,Plated,PTH,ViaDrill
T1C0.300
; #@! TA.AperFunction,Plated,PTH,ViaDrill
T2C0.400
; #@! TA.AperFunction,Plated,PTH,ComponentDrill
T3C0.600
; #@! TA.AperFunction,Plated,PTH,ComponentDrill
T4C1.000
; #@! TA.AperFunction,Plated,PTH,ComponentDrill
T5C1.100
; #@! TA.AperFunction,Plated,PTH,ComponentDrill
T6C1.120
; #@! TA.AperFunction,NonPlated,NPTH,ComponentDrill
T7C0.650
; #@! TA.AperFunction,NonPlated,NPTH,ComponentDrill
T8C3.200
%
G90
G05
T1
X28.7Y-56.5
X28.7Y-87.9
X28.7Y-119.4
X28.7Y-150.9
X33.45Y-30.15
X35.3Y-56.225
X35.3Y-87.725
X35.3Y-119.225
X35.3Y-150.725
X38.75Y-56.2
X38.75Y-87.7
X38.75Y-119.2
X38.75Y-150.7
X39.026Y-48.225
X39.026Y-49.125
X39.026Y-50.025
X41.325Y-48.225
X41.325Y-49.125
X41.325Y-50.024
X41.44Y-24.198
X43.975Y-24.198
X52.87Y-35.14
X55.12Y-37.94
X55.774Y-37.434
X56.425Y-36.925
X57.02Y-33.21
X57.079Y-36.42
X60.2Y-56.4
X60.2Y-87.9
X60.2Y-119.4
X60.2Y-150.9
X62.32Y-43.08
X62.4Y-48.225
X64.575Y-49.125
X65.65Y-20.425
X66.8Y-56.225
X66.8Y-87.725
X66.8Y-119.225
X66.8Y-150.725
X67.112Y-25.537
X70.25Y-56.2
X70.25Y-87.7
X70.25Y-119.2
X70.25Y-150.7
X70.525Y-48.225
X70.525Y-49.125
X70.525Y-50.024
X72.825Y-48.225
X72.825Y-49.125
X72.825Y-50.024
X73.77Y-33.18
X75.079Y-38.398
X75.55Y-21.2
X75.67Y-37.82
X76.185Y-37.173
X76.5Y-33.2
X76.718Y-36.542
X76.85Y-22.525
X79.05Y-39.38
X80.45Y-29.4
X83.4Y-27.1
X83.575Y-40.152
X83.575Y-41.051
X83.575Y-41.951
X83.575Y-42.85
X83.575Y-43.75
X83.6Y-44.675
X83.6Y-45.575
X86.525Y-32.725
X87.775Y-27.7
X89.8Y-38.2
X91.7Y-56.35
X91.7Y-87.9
X91.7Y-119.4
X91.7Y-150.9
X92.675Y-28.425
X92.675Y-29.975
X92.7Y-31.975
X93.713Y-20.771
X93.9Y-48.225
X94.5Y-27.85
X95.05Y-38.0
X95.175Y-32.525
X95.625Y-27.825
X96.099Y-49.124
X96.55Y-27.841
X96.775Y-32.75
X97.3Y-28.75
X98.3Y-56.225
X98.3Y-87.725
X98.3Y-119.225
X98.3Y-150.725
X99.155Y-22.697
X99.725Y-28.55
X99.725Y-31.575
X101.75Y-56.2
X101.75Y-87.7
X101.75Y-119.2
X101.75Y-150.7
X102.025Y-48.224
X102.025Y-49.124
X102.025Y-50.024
X102.1Y-39.3
X102.175Y-27.7
X103.15Y-35.2
X104.325Y-48.175
X106.25Y-37.1
X106.25Y-38.1
X106.25Y-39.1
X107.75Y-47.501
X109.849Y-41.152
X109.849Y-42.052
X109.849Y-42.951
X109.849Y-43.851
X109.849Y-44.75
X109.849Y-45.65
X109.849Y-46.601
X110.725Y-47.5
X111.225Y-49.175
X111.5Y-37.1
X111.5Y-38.1
X111.5Y-39.95
X111.85Y-48.526
X114.4Y-39.1
X115.0Y-25.85
X115.79Y-34.2
X116.35Y-31.5
X118.823Y-28.723
X119.95Y-26.05
X119.95Y-27.9
X122.76Y-28.26
X123.0Y-34.15
X123.2Y-56.4
X123.2Y-87.9
X123.2Y-119.4
X123.2Y-150.9
X124.25Y-25.85
X126.425Y-50.175
X127.1Y-35.9
X127.1Y-36.9
X128.1Y-35.9
X128.1Y-36.9
X129.1Y-35.9
X129.1Y-36.9
X129.8Y-56.225
X129.8Y-87.725
X129.8Y-119.225
X129.8Y-150.725
X130.1Y-49.175
X132.5Y-36.5
X133.25Y-56.2
X133.25Y-87.7
X133.25Y-119.2
X133.25Y-150.7
X133.45Y-48.175
X135.875Y-48.175
X135.875Y-49.175
X135.875Y-50.175
X148.85Y-33.0
X151.9Y-22.5
X153.8Y-30.8
X154.7Y-56.4
X154.7Y-88.15
X154.7Y-119.4
X154.7Y-150.9
X161.3Y-56.225
X161.3Y-87.975
X161.3Y-119.225
X161.3Y-150.725
X164.75Y-56.2
X164.75Y-87.95
X164.75Y-119.2
X164.75Y-150.7
X169.175Y-33.0
T2
X93.9Y-32.55
T4
X38.88Y-22.5
X41.42Y-22.5
X43.96Y-22.5
X46.5Y-22.5
T5
X25.6Y-33.0
X25.6Y-38.0
X30.6Y-33.0
X30.6Y-38.0
X139.35Y-33.0
X139.35Y-38.0
X144.35Y-33.0
X144.35Y-38.0
X159.35Y-33.0
X159.35Y-38.0
X164.35Y-33.0
X164.35Y-38.0
T6
X26.5Y-53.5
X26.5Y-85.0
X26.5Y-116.5
X26.5Y-148.0
X28.7Y-53.5
X28.7Y-85.0
X28.7Y-116.5
X28.7Y-148.0
X30.9Y-53.5
X30.9Y-85.0
X30.9Y-116.5
X30.9Y-148.0
X33.1Y-53.5
X33.1Y-85.0
X33.1Y-116.5
X33.1Y-148.0
X35.3Y-53.5
X35.3Y-85.0
X35.3Y-116.5
X35.3Y-148.0
X37.5Y-53.5
X37.5Y-85.0
X37.5Y-116.5
X37.5Y-148.0
X58.0Y-53.5
X58.0Y-85.0
X58.0Y-116.5
X58.0Y-148.0
X60.2Y-53.5
X60.2Y-85.0
X60.2Y-116.5
X60.2Y-148.0
X62.4Y-53.5
X62.4Y-85.0
X62.4Y-116.5
X62.4Y-148.0
X64.6Y-53.5
X64.6Y-85.0
X64.6Y-116.5
X64.6Y-148.0
X66.8Y-53.5
X66.8Y-85.0
X66.8Y-116.5
X66.8Y-148.0
X69.0Y-53.5
X69.0Y-85.0
X69.0Y-116.5
X69.0Y-148.0
X89.5Y-53.5
X89.5Y-85.0
X89.5Y-116.5
X89.5Y-148.0
X91.7Y-53.5
X91.7Y-85.0
X91.7Y-116.5
X91.7Y-148.0
X93.9Y-53.5
X93.9Y-85.0
X93.9Y-116.5
X93.9Y-148.0
X96.1Y-53.5
X96.1Y-85.0
X96.1Y-116.5
X96.1Y-148.0
X98.3Y-53.5
X98.3Y-85.0
X98.3Y-116.5
X98.3Y-148.0
X100.5Y-53.5
X100.5Y-85.0
X100.5Y-116.5
X100.5Y-148.0
X121.0Y-53.5
X121.0Y-85.0
X121.0Y-116.5
X121.0Y-148.0
X123.2Y-53.5
X123.2Y-85.0
X123.2Y-116.5
X123.2Y-148.0
X125.4Y-53.5
X125.4Y-85.0
X125.4Y-116.5
X125.4Y-148.0
X127.6Y-53.5
X127.6Y-85.0
X127.6Y-116.5
X127.6Y-148.0
X129.8Y-53.5
X129.8Y-85.0
X129.8Y-116.5
X129.8Y-148.0
X132.0Y-53.5
X132.0Y-85.0
X132.0Y-116.5
X132.0Y-148.0
X152.5Y-53.5
X152.5Y-85.25
X152.5Y-116.5
X152.5Y-148.0
X154.7Y-53.5
X154.7Y-85.25
X154.7Y-116.5
X154.7Y-148.0
X156.9Y-53.5
X156.9Y-85.25
X156.9Y-116.5
X156.9Y-148.0
X159.1Y-53.5
X159.1Y-85.25
X159.1Y-116.5
X159.1Y-148.0
X161.3Y-53.5
X161.3Y-85.25
X161.3Y-116.5
X161.3Y-148.0
X163.5Y-53.5
X163.5Y-85.25
X163.5Y-116.5
X163.5Y-148.0
T7
X116.81Y-23.105
X122.59Y-23.105
T8
X22.0Y-23.0
X22.0Y-169.0
X168.0Y-23.0
X168.0Y-169.0
T3
G00X115.38Y-19.825
M15
G01X115.38Y-19.025
M16
G05
G00X115.38Y-24.155
M15
G01X115.38Y-23.055
M16
G05
G00X124.02Y-19.825
M15
G01X124.02Y-19.025
M16
G05
G00X124.02Y-24.155
M15
G01X124.02Y-23.055
M16
G05
T0
M30
