%TF.GenerationSoftware,KiCad,Pcbnew,(6.0.10)*%
%TF.CreationDate,2023-03-03T22:29:42-05:00*%
%TF.ProjectId,master_board,6d617374-6572-45f6-926f-6172642e6b69,rev?*%
%TF.SameCoordinates,Original*%
%TF.FileFunction,Legend,Bot*%
%TF.FilePolarity,Positive*%
%FSLAX46Y46*%
G04 Gerber Fmt 4.6, Leading zero omitted, Abs format (unit mm)*
G04 Created by KiCad (PCBNEW (6.0.10)) date 2023-03-03 22:29:42*
%MOMM*%
%LPD*%
G01*
G04 APERTURE LIST*
%ADD10C,0.200000*%
G04 APERTURE END LIST*
D10*
X25200000Y-169000000D02*
G75*
G03*
X25200000Y-169000000I-3201562J0D01*
G01*
X25201562Y-23000000D02*
G75*
G03*
X25201562Y-23000000I-3201562J0D01*
G01*
X171203124Y-23000000D02*
G75*
G03*
X171203124Y-23000000I-3201562J0D01*
G01*
X171201562Y-169001562D02*
G75*
G03*
X171201562Y-169001562I-3201562J0D01*
G01*
X130541904Y-169812380D02*
X130541904Y-168812380D01*
X130208571Y-169526666D01*
X129875238Y-168812380D01*
X129875238Y-169812380D01*
X128970476Y-169812380D02*
X128970476Y-169288571D01*
X129018095Y-169193333D01*
X129113333Y-169145714D01*
X129303809Y-169145714D01*
X129399047Y-169193333D01*
X128970476Y-169764761D02*
X129065714Y-169812380D01*
X129303809Y-169812380D01*
X129399047Y-169764761D01*
X129446666Y-169669523D01*
X129446666Y-169574285D01*
X129399047Y-169479047D01*
X129303809Y-169431428D01*
X129065714Y-169431428D01*
X128970476Y-169383809D01*
X128065714Y-169812380D02*
X128065714Y-168812380D01*
X128065714Y-169764761D02*
X128160952Y-169812380D01*
X128351428Y-169812380D01*
X128446666Y-169764761D01*
X128494285Y-169717142D01*
X128541904Y-169621904D01*
X128541904Y-169336190D01*
X128494285Y-169240952D01*
X128446666Y-169193333D01*
X128351428Y-169145714D01*
X128160952Y-169145714D01*
X128065714Y-169193333D01*
X127208571Y-169764761D02*
X127303809Y-169812380D01*
X127494285Y-169812380D01*
X127589523Y-169764761D01*
X127637142Y-169669523D01*
X127637142Y-169288571D01*
X127589523Y-169193333D01*
X127494285Y-169145714D01*
X127303809Y-169145714D01*
X127208571Y-169193333D01*
X127160952Y-169288571D01*
X127160952Y-169383809D01*
X127637142Y-169479047D01*
X126065714Y-169145714D02*
X125875238Y-169812380D01*
X125684761Y-169336190D01*
X125494285Y-169812380D01*
X125303809Y-169145714D01*
X124922857Y-169812380D02*
X124922857Y-169145714D01*
X124922857Y-168812380D02*
X124970476Y-168860000D01*
X124922857Y-168907619D01*
X124875238Y-168860000D01*
X124922857Y-168812380D01*
X124922857Y-168907619D01*
X124589523Y-169145714D02*
X124208571Y-169145714D01*
X124446666Y-168812380D02*
X124446666Y-169669523D01*
X124399047Y-169764761D01*
X124303809Y-169812380D01*
X124208571Y-169812380D01*
X123875238Y-169812380D02*
X123875238Y-168812380D01*
X123446666Y-169812380D02*
X123446666Y-169288571D01*
X123494285Y-169193333D01*
X123589523Y-169145714D01*
X123732380Y-169145714D01*
X123827619Y-169193333D01*
X123875238Y-169240952D01*
X121446666Y-169145714D02*
X122208571Y-169431428D01*
X121446666Y-169717142D01*
X121065714Y-168812380D02*
X120446666Y-168812380D01*
X120779999Y-169193333D01*
X120637142Y-169193333D01*
X120541904Y-169240952D01*
X120494285Y-169288571D01*
X120446666Y-169383809D01*
X120446666Y-169621904D01*
X120494285Y-169717142D01*
X120541904Y-169764761D01*
X120637142Y-169812380D01*
X120922857Y-169812380D01*
X121018095Y-169764761D01*
X121065714Y-169717142D01*
X120018095Y-169717142D02*
X119970476Y-169764761D01*
X120018095Y-169812380D01*
X120065714Y-169764761D01*
X120018095Y-169717142D01*
X120018095Y-169812380D01*
X120018095Y-169193333D02*
X119970476Y-169240952D01*
X120018095Y-169288571D01*
X120065714Y-169240952D01*
X120018095Y-169193333D01*
X120018095Y-169288571D01*
X118589523Y-169336190D02*
X118589523Y-169812380D01*
X118922857Y-168812380D02*
X118589523Y-169336190D01*
X118256190Y-168812380D01*
X117494285Y-169145714D02*
X117494285Y-169812380D01*
X117922857Y-169145714D02*
X117922857Y-169669523D01*
X117875238Y-169764761D01*
X117779999Y-169812380D01*
X117637142Y-169812380D01*
X117541904Y-169764761D01*
X117494285Y-169717142D01*
X117018095Y-169431428D02*
X116256190Y-169431428D01*
X115875238Y-169145714D02*
X115637142Y-169812380D01*
X115399047Y-169145714D02*
X115637142Y-169812380D01*
X115732380Y-170050476D01*
X115779999Y-170098095D01*
X115875238Y-170145714D01*
X114589523Y-169812380D02*
X114589523Y-169288571D01*
X114637142Y-169193333D01*
X114732380Y-169145714D01*
X114922857Y-169145714D01*
X115018095Y-169193333D01*
X114589523Y-169764761D02*
X114684761Y-169812380D01*
X114922857Y-169812380D01*
X115018095Y-169764761D01*
X115065714Y-169669523D01*
X115065714Y-169574285D01*
X115018095Y-169479047D01*
X114922857Y-169431428D01*
X114684761Y-169431428D01*
X114589523Y-169383809D01*
X114113333Y-169145714D02*
X114113333Y-169812380D01*
X114113333Y-169240952D02*
X114065714Y-169193333D01*
X113970476Y-169145714D01*
X113827619Y-169145714D01*
X113732380Y-169193333D01*
X113684761Y-169288571D01*
X113684761Y-169812380D01*
X112779999Y-169145714D02*
X112779999Y-169955238D01*
X112827619Y-170050476D01*
X112875238Y-170098095D01*
X112970476Y-170145714D01*
X113113333Y-170145714D01*
X113208571Y-170098095D01*
X112779999Y-169764761D02*
X112875238Y-169812380D01*
X113065714Y-169812380D01*
X113160952Y-169764761D01*
X113208571Y-169717142D01*
X113256190Y-169621904D01*
X113256190Y-169336190D01*
X113208571Y-169240952D01*
X113160952Y-169193333D01*
X113065714Y-169145714D01*
X112875238Y-169145714D01*
X112779999Y-169193333D01*
X111541904Y-169812380D02*
X111541904Y-168812380D01*
X111541904Y-169288571D02*
X110970476Y-169288571D01*
X110970476Y-169812380D02*
X110970476Y-168812380D01*
X110541904Y-169764761D02*
X110446666Y-169812380D01*
X110256190Y-169812380D01*
X110160952Y-169764761D01*
X110113333Y-169669523D01*
X110113333Y-169621904D01*
X110160952Y-169526666D01*
X110256190Y-169479047D01*
X110399047Y-169479047D01*
X110494285Y-169431428D01*
X110541904Y-169336190D01*
X110541904Y-169288571D01*
X110494285Y-169193333D01*
X110399047Y-169145714D01*
X110256190Y-169145714D01*
X110160952Y-169193333D01*
X109684761Y-169812380D02*
X109684761Y-169145714D01*
X109684761Y-168812380D02*
X109732380Y-168860000D01*
X109684761Y-168907619D01*
X109637142Y-168860000D01*
X109684761Y-168812380D01*
X109684761Y-168907619D01*
X108827619Y-169764761D02*
X108922857Y-169812380D01*
X109113333Y-169812380D01*
X109208571Y-169764761D01*
X109256190Y-169669523D01*
X109256190Y-169288571D01*
X109208571Y-169193333D01*
X109113333Y-169145714D01*
X108922857Y-169145714D01*
X108827619Y-169193333D01*
X108779999Y-169288571D01*
X108779999Y-169383809D01*
X109256190Y-169479047D01*
X108351428Y-169812380D02*
X108351428Y-168812380D01*
X107922857Y-169812380D02*
X107922857Y-169288571D01*
X107970476Y-169193333D01*
X108065714Y-169145714D01*
X108208571Y-169145714D01*
X108303809Y-169193333D01*
X108351428Y-169240952D01*
X107399047Y-169764761D02*
X107399047Y-169812380D01*
X107446666Y-169907619D01*
X107494285Y-169955238D01*
X105875238Y-169288571D02*
X105732380Y-169336190D01*
X105684761Y-169383809D01*
X105637142Y-169479047D01*
X105637142Y-169621904D01*
X105684761Y-169717142D01*
X105732380Y-169764761D01*
X105827619Y-169812380D01*
X106208571Y-169812380D01*
X106208571Y-168812380D01*
X105875238Y-168812380D01*
X105779999Y-168860000D01*
X105732380Y-168907619D01*
X105684761Y-169002857D01*
X105684761Y-169098095D01*
X105732380Y-169193333D01*
X105779999Y-169240952D01*
X105875238Y-169288571D01*
X106208571Y-169288571D01*
X105208571Y-169812380D02*
X105208571Y-169145714D01*
X105208571Y-169336190D02*
X105160952Y-169240952D01*
X105113333Y-169193333D01*
X105018095Y-169145714D01*
X104922857Y-169145714D01*
X104589523Y-169812380D02*
X104589523Y-169145714D01*
X104589523Y-168812380D02*
X104637142Y-168860000D01*
X104589523Y-168907619D01*
X104541904Y-168860000D01*
X104589523Y-168812380D01*
X104589523Y-168907619D01*
X104256190Y-169145714D02*
X103875238Y-169145714D01*
X104113333Y-168812380D02*
X104113333Y-169669523D01*
X104065714Y-169764761D01*
X103970476Y-169812380D01*
X103875238Y-169812380D01*
X103684761Y-169145714D02*
X103303809Y-169145714D01*
X103541904Y-168812380D02*
X103541904Y-169669523D01*
X103494285Y-169764761D01*
X103399047Y-169812380D01*
X103303809Y-169812380D01*
X102827619Y-169812380D02*
X102922857Y-169764761D01*
X102970476Y-169717142D01*
X103018095Y-169621904D01*
X103018095Y-169336190D01*
X102970476Y-169240952D01*
X102922857Y-169193333D01*
X102827619Y-169145714D01*
X102684761Y-169145714D01*
X102589523Y-169193333D01*
X102541904Y-169240952D01*
X102494285Y-169336190D01*
X102494285Y-169621904D01*
X102541904Y-169717142D01*
X102589523Y-169764761D01*
X102684761Y-169812380D01*
X102827619Y-169812380D01*
X102065714Y-169145714D02*
X102065714Y-169812380D01*
X102065714Y-169240952D02*
X102018095Y-169193333D01*
X101922857Y-169145714D01*
X101779999Y-169145714D01*
X101684761Y-169193333D01*
X101637142Y-169288571D01*
X101637142Y-169812380D01*
X100399047Y-169812380D02*
X100399047Y-168812380D01*
X100065714Y-169526666D01*
X99732380Y-168812380D01*
X99732380Y-169812380D01*
X98827619Y-169764761D02*
X98922857Y-169812380D01*
X99113333Y-169812380D01*
X99208571Y-169764761D01*
X99256190Y-169717142D01*
X99303809Y-169621904D01*
X99303809Y-169336190D01*
X99256190Y-169240952D01*
X99208571Y-169193333D01*
X99113333Y-169145714D01*
X98922857Y-169145714D01*
X98827619Y-169193333D01*
X97922857Y-169812380D02*
X98399047Y-169812380D01*
X98399047Y-168812380D01*
X97208571Y-169764761D02*
X97303809Y-169812380D01*
X97494285Y-169812380D01*
X97589523Y-169764761D01*
X97637142Y-169669523D01*
X97637142Y-169288571D01*
X97589523Y-169193333D01*
X97494285Y-169145714D01*
X97303809Y-169145714D01*
X97208571Y-169193333D01*
X97160952Y-169288571D01*
X97160952Y-169383809D01*
X97637142Y-169479047D01*
X96303809Y-169812380D02*
X96303809Y-169288571D01*
X96351428Y-169193333D01*
X96446666Y-169145714D01*
X96637142Y-169145714D01*
X96732380Y-169193333D01*
X96303809Y-169764761D02*
X96399047Y-169812380D01*
X96637142Y-169812380D01*
X96732380Y-169764761D01*
X96779999Y-169669523D01*
X96779999Y-169574285D01*
X96732380Y-169479047D01*
X96637142Y-169431428D01*
X96399047Y-169431428D01*
X96303809Y-169383809D01*
X95922857Y-169145714D02*
X95684761Y-169812380D01*
X95446666Y-169145714D01*
X95160952Y-169145714D02*
X94922857Y-169812380D01*
X94684761Y-169145714D02*
X94922857Y-169812380D01*
X95018095Y-170050476D01*
X95065714Y-170098095D01*
X95160952Y-170145714D01*
X94256190Y-169764761D02*
X94256190Y-169812380D01*
X94303809Y-169907619D01*
X94351428Y-169955238D01*
X92494285Y-169717142D02*
X92541904Y-169764761D01*
X92684761Y-169812380D01*
X92779999Y-169812380D01*
X92922857Y-169764761D01*
X93018095Y-169669523D01*
X93065714Y-169574285D01*
X93113333Y-169383809D01*
X93113333Y-169240952D01*
X93065714Y-169050476D01*
X93018095Y-168955238D01*
X92922857Y-168860000D01*
X92779999Y-168812380D01*
X92684761Y-168812380D01*
X92541904Y-168860000D01*
X92494285Y-168907619D01*
X91637142Y-169812380D02*
X91637142Y-169288571D01*
X91684761Y-169193333D01*
X91779999Y-169145714D01*
X91970476Y-169145714D01*
X92065714Y-169193333D01*
X91637142Y-169764761D02*
X91732380Y-169812380D01*
X91970476Y-169812380D01*
X92065714Y-169764761D01*
X92113333Y-169669523D01*
X92113333Y-169574285D01*
X92065714Y-169479047D01*
X91970476Y-169431428D01*
X91732380Y-169431428D01*
X91637142Y-169383809D01*
X91018095Y-169812380D02*
X91113333Y-169764761D01*
X91160952Y-169669523D01*
X91160952Y-168812380D01*
X90256190Y-169764761D02*
X90351428Y-169812380D01*
X90541904Y-169812380D01*
X90637142Y-169764761D01*
X90684761Y-169669523D01*
X90684761Y-169288571D01*
X90637142Y-169193333D01*
X90541904Y-169145714D01*
X90351428Y-169145714D01*
X90256190Y-169193333D01*
X90208571Y-169288571D01*
X90208571Y-169383809D01*
X90684761Y-169479047D01*
X89779999Y-169812380D02*
X89779999Y-168812380D01*
X89779999Y-169193333D02*
X89684761Y-169145714D01*
X89494285Y-169145714D01*
X89399047Y-169193333D01*
X89351428Y-169240952D01*
X89303809Y-169336190D01*
X89303809Y-169621904D01*
X89351428Y-169717142D01*
X89399047Y-169764761D01*
X89494285Y-169812380D01*
X89684761Y-169812380D01*
X89779999Y-169764761D01*
X87922857Y-168812380D02*
X87732380Y-168812380D01*
X87637142Y-168860000D01*
X87541904Y-168955238D01*
X87494285Y-169145714D01*
X87494285Y-169479047D01*
X87541904Y-169669523D01*
X87637142Y-169764761D01*
X87732380Y-169812380D01*
X87922857Y-169812380D01*
X88018095Y-169764761D01*
X88113333Y-169669523D01*
X88160952Y-169479047D01*
X88160952Y-169145714D01*
X88113333Y-168955238D01*
X88018095Y-168860000D01*
X87922857Y-168812380D01*
X87018095Y-168812380D02*
X87113333Y-169002857D01*
X86589523Y-169812380D02*
X86589523Y-168812380D01*
X86256190Y-169526666D01*
X85922857Y-168812380D01*
X85922857Y-169812380D01*
X85018095Y-169812380D02*
X85018095Y-169288571D01*
X85065714Y-169193333D01*
X85160952Y-169145714D01*
X85351428Y-169145714D01*
X85446666Y-169193333D01*
X85018095Y-169764761D02*
X85113333Y-169812380D01*
X85351428Y-169812380D01*
X85446666Y-169764761D01*
X85494285Y-169669523D01*
X85494285Y-169574285D01*
X85446666Y-169479047D01*
X85351428Y-169431428D01*
X85113333Y-169431428D01*
X85018095Y-169383809D01*
X84399047Y-169812380D02*
X84494285Y-169764761D01*
X84541904Y-169669523D01*
X84541904Y-168812380D01*
X83875238Y-169812380D02*
X83970476Y-169764761D01*
X84018095Y-169669523D01*
X84018095Y-168812380D01*
X83113333Y-169764761D02*
X83208571Y-169812380D01*
X83399047Y-169812380D01*
X83494285Y-169764761D01*
X83541904Y-169669523D01*
X83541904Y-169288571D01*
X83494285Y-169193333D01*
X83399047Y-169145714D01*
X83208571Y-169145714D01*
X83113333Y-169193333D01*
X83065714Y-169288571D01*
X83065714Y-169383809D01*
X83541904Y-169479047D01*
X82732380Y-169145714D02*
X82494285Y-169812380D01*
X82256190Y-169145714D02*
X82494285Y-169812380D01*
X82589523Y-170050476D01*
X82637142Y-170098095D01*
X82732380Y-170145714D01*
X81827619Y-169764761D02*
X81827619Y-169812380D01*
X81875238Y-169907619D01*
X81922857Y-169955238D01*
X80637142Y-169288571D02*
X80303809Y-169288571D01*
X80160952Y-169812380D02*
X80637142Y-169812380D01*
X80637142Y-168812380D01*
X80160952Y-168812380D01*
X79827619Y-169145714D02*
X79589523Y-169812380D01*
X79351428Y-169145714D01*
X78541904Y-169812380D02*
X78541904Y-169288571D01*
X78589523Y-169193333D01*
X78684761Y-169145714D01*
X78875238Y-169145714D01*
X78970476Y-169193333D01*
X78541904Y-169764761D02*
X78637142Y-169812380D01*
X78875238Y-169812380D01*
X78970476Y-169764761D01*
X79018095Y-169669523D01*
X79018095Y-169574285D01*
X78970476Y-169479047D01*
X78875238Y-169431428D01*
X78637142Y-169431428D01*
X78541904Y-169383809D01*
X78065714Y-169145714D02*
X78065714Y-169812380D01*
X78065714Y-169240952D02*
X78018095Y-169193333D01*
X77922857Y-169145714D01*
X77779999Y-169145714D01*
X77684761Y-169193333D01*
X77637142Y-169288571D01*
X77637142Y-169812380D01*
X76494285Y-168812380D02*
X75827619Y-168812380D01*
X76494285Y-169812380D01*
X75827619Y-169812380D01*
X75446666Y-169812380D02*
X75446666Y-168812380D01*
X75018095Y-169812380D02*
X75018095Y-169288571D01*
X75065714Y-169193333D01*
X75160952Y-169145714D01*
X75303809Y-169145714D01*
X75399047Y-169193333D01*
X75446666Y-169240952D01*
X74113333Y-169812380D02*
X74113333Y-169288571D01*
X74160952Y-169193333D01*
X74256190Y-169145714D01*
X74446666Y-169145714D01*
X74541904Y-169193333D01*
X74113333Y-169764761D02*
X74208571Y-169812380D01*
X74446666Y-169812380D01*
X74541904Y-169764761D01*
X74589523Y-169669523D01*
X74589523Y-169574285D01*
X74541904Y-169479047D01*
X74446666Y-169431428D01*
X74208571Y-169431428D01*
X74113333Y-169383809D01*
X73637142Y-169145714D02*
X73637142Y-169812380D01*
X73637142Y-169240952D02*
X73589523Y-169193333D01*
X73494285Y-169145714D01*
X73351428Y-169145714D01*
X73256190Y-169193333D01*
X73208571Y-169288571D01*
X73208571Y-169812380D01*
X72303809Y-169145714D02*
X72303809Y-169955238D01*
X72351428Y-170050476D01*
X72399047Y-170098095D01*
X72494285Y-170145714D01*
X72637142Y-170145714D01*
X72732380Y-170098095D01*
X72303809Y-169764761D02*
X72399047Y-169812380D01*
X72589523Y-169812380D01*
X72684761Y-169764761D01*
X72732380Y-169717142D01*
X72779999Y-169621904D01*
X72779999Y-169336190D01*
X72732380Y-169240952D01*
X72684761Y-169193333D01*
X72589523Y-169145714D01*
X72399047Y-169145714D01*
X72303809Y-169193333D01*
X71779999Y-169764761D02*
X71779999Y-169812380D01*
X71827619Y-169907619D01*
X71875238Y-169955238D01*
X70589523Y-169812380D02*
X70589523Y-168812380D01*
X70256190Y-169526666D01*
X69922857Y-168812380D01*
X69922857Y-169812380D01*
X69065714Y-169764761D02*
X69160952Y-169812380D01*
X69351428Y-169812380D01*
X69446666Y-169764761D01*
X69494285Y-169669523D01*
X69494285Y-169288571D01*
X69446666Y-169193333D01*
X69351428Y-169145714D01*
X69160952Y-169145714D01*
X69065714Y-169193333D01*
X69018095Y-169288571D01*
X69018095Y-169383809D01*
X69494285Y-169479047D01*
X68589523Y-169812380D02*
X68589523Y-169145714D01*
X68589523Y-169336190D02*
X68541904Y-169240952D01*
X68494285Y-169193333D01*
X68399047Y-169145714D01*
X68303809Y-169145714D01*
X67970476Y-169812380D02*
X67970476Y-169145714D01*
X67970476Y-169336190D02*
X67922857Y-169240952D01*
X67875238Y-169193333D01*
X67779999Y-169145714D01*
X67684761Y-169145714D01*
X67351428Y-169812380D02*
X67351428Y-169145714D01*
X67351428Y-168812380D02*
X67399047Y-168860000D01*
X67351428Y-168907619D01*
X67303809Y-168860000D01*
X67351428Y-168812380D01*
X67351428Y-168907619D01*
X66446666Y-169764761D02*
X66541904Y-169812380D01*
X66732380Y-169812380D01*
X66827619Y-169764761D01*
X66875238Y-169717142D01*
X66922857Y-169621904D01*
X66922857Y-169336190D01*
X66875238Y-169240952D01*
X66827619Y-169193333D01*
X66732380Y-169145714D01*
X66541904Y-169145714D01*
X66446666Y-169193333D01*
X66018095Y-169812380D02*
X66018095Y-168812380D01*
X65922857Y-169431428D02*
X65637142Y-169812380D01*
X65637142Y-169145714D02*
X66018095Y-169526666D01*
X63875238Y-169812380D02*
X64208571Y-169336190D01*
X64446666Y-169812380D02*
X64446666Y-168812380D01*
X64065714Y-168812380D01*
X63970476Y-168860000D01*
X63922857Y-168907619D01*
X63875238Y-169002857D01*
X63875238Y-169145714D01*
X63922857Y-169240952D01*
X63970476Y-169288571D01*
X64065714Y-169336190D01*
X64446666Y-169336190D01*
X63541904Y-169145714D02*
X63303809Y-169812380D01*
X63065714Y-169145714D02*
X63303809Y-169812380D01*
X63399047Y-170050476D01*
X63446666Y-170098095D01*
X63541904Y-170145714D01*
X62684761Y-169812380D02*
X62684761Y-169145714D01*
X62684761Y-169240952D02*
X62637142Y-169193333D01*
X62541904Y-169145714D01*
X62399047Y-169145714D01*
X62303809Y-169193333D01*
X62256190Y-169288571D01*
X62256190Y-169812380D01*
X62256190Y-169288571D02*
X62208571Y-169193333D01*
X62113333Y-169145714D01*
X61970476Y-169145714D01*
X61875238Y-169193333D01*
X61827619Y-169288571D01*
X61827619Y-169812380D01*
X60922857Y-169812380D02*
X60922857Y-169288571D01*
X60970476Y-169193333D01*
X61065714Y-169145714D01*
X61256190Y-169145714D01*
X61351428Y-169193333D01*
X60922857Y-169764761D02*
X61018095Y-169812380D01*
X61256190Y-169812380D01*
X61351428Y-169764761D01*
X61399047Y-169669523D01*
X61399047Y-169574285D01*
X61351428Y-169479047D01*
X61256190Y-169431428D01*
X61018095Y-169431428D01*
X60922857Y-169383809D01*
X60446666Y-169145714D02*
X60446666Y-169812380D01*
X60446666Y-169240952D02*
X60399047Y-169193333D01*
X60303809Y-169145714D01*
X60160952Y-169145714D01*
X60065714Y-169193333D01*
X60018095Y-169288571D01*
X60018095Y-169812380D01*
X104879523Y-166982380D02*
X105212857Y-166506190D01*
X105450952Y-166982380D02*
X105450952Y-165982380D01*
X105070000Y-165982380D01*
X104974761Y-166030000D01*
X104927142Y-166077619D01*
X104879523Y-166172857D01*
X104879523Y-166315714D01*
X104927142Y-166410952D01*
X104974761Y-166458571D01*
X105070000Y-166506190D01*
X105450952Y-166506190D01*
X104070000Y-166934761D02*
X104165238Y-166982380D01*
X104355714Y-166982380D01*
X104450952Y-166934761D01*
X104498571Y-166839523D01*
X104498571Y-166458571D01*
X104450952Y-166363333D01*
X104355714Y-166315714D01*
X104165238Y-166315714D01*
X104070000Y-166363333D01*
X104022380Y-166458571D01*
X104022380Y-166553809D01*
X104498571Y-166649047D01*
X103689047Y-166315714D02*
X103450952Y-166982380D01*
X103212857Y-166315714D01*
X102831904Y-166982380D02*
X102831904Y-166315714D01*
X102831904Y-165982380D02*
X102879523Y-166030000D01*
X102831904Y-166077619D01*
X102784285Y-166030000D01*
X102831904Y-165982380D01*
X102831904Y-166077619D01*
X102403333Y-166934761D02*
X102308095Y-166982380D01*
X102117619Y-166982380D01*
X102022380Y-166934761D01*
X101974761Y-166839523D01*
X101974761Y-166791904D01*
X102022380Y-166696666D01*
X102117619Y-166649047D01*
X102260476Y-166649047D01*
X102355714Y-166601428D01*
X102403333Y-166506190D01*
X102403333Y-166458571D01*
X102355714Y-166363333D01*
X102260476Y-166315714D01*
X102117619Y-166315714D01*
X102022380Y-166363333D01*
X101546190Y-166982380D02*
X101546190Y-166315714D01*
X101546190Y-165982380D02*
X101593809Y-166030000D01*
X101546190Y-166077619D01*
X101498571Y-166030000D01*
X101546190Y-165982380D01*
X101546190Y-166077619D01*
X100927142Y-166982380D02*
X101022380Y-166934761D01*
X101070000Y-166887142D01*
X101117619Y-166791904D01*
X101117619Y-166506190D01*
X101070000Y-166410952D01*
X101022380Y-166363333D01*
X100927142Y-166315714D01*
X100784285Y-166315714D01*
X100689047Y-166363333D01*
X100641428Y-166410952D01*
X100593809Y-166506190D01*
X100593809Y-166791904D01*
X100641428Y-166887142D01*
X100689047Y-166934761D01*
X100784285Y-166982380D01*
X100927142Y-166982380D01*
X100165238Y-166315714D02*
X100165238Y-166982380D01*
X100165238Y-166410952D02*
X100117619Y-166363333D01*
X100022380Y-166315714D01*
X99879523Y-166315714D01*
X99784285Y-166363333D01*
X99736666Y-166458571D01*
X99736666Y-166982380D01*
X98498571Y-166982380D02*
X98498571Y-165982380D01*
X98260476Y-165982380D01*
X98117619Y-166030000D01*
X98022380Y-166125238D01*
X97974761Y-166220476D01*
X97927142Y-166410952D01*
X97927142Y-166553809D01*
X97974761Y-166744285D01*
X98022380Y-166839523D01*
X98117619Y-166934761D01*
X98260476Y-166982380D01*
X98498571Y-166982380D01*
X97070000Y-166982380D02*
X97070000Y-166458571D01*
X97117619Y-166363333D01*
X97212857Y-166315714D01*
X97403333Y-166315714D01*
X97498571Y-166363333D01*
X97070000Y-166934761D02*
X97165238Y-166982380D01*
X97403333Y-166982380D01*
X97498571Y-166934761D01*
X97546190Y-166839523D01*
X97546190Y-166744285D01*
X97498571Y-166649047D01*
X97403333Y-166601428D01*
X97165238Y-166601428D01*
X97070000Y-166553809D01*
X96736666Y-166315714D02*
X96355714Y-166315714D01*
X96593809Y-165982380D02*
X96593809Y-166839523D01*
X96546190Y-166934761D01*
X96450952Y-166982380D01*
X96355714Y-166982380D01*
X95641428Y-166934761D02*
X95736666Y-166982380D01*
X95927142Y-166982380D01*
X96022380Y-166934761D01*
X96070000Y-166839523D01*
X96070000Y-166458571D01*
X96022380Y-166363333D01*
X95927142Y-166315714D01*
X95736666Y-166315714D01*
X95641428Y-166363333D01*
X95593809Y-166458571D01*
X95593809Y-166553809D01*
X96070000Y-166649047D01*
X95165238Y-166887142D02*
X95117619Y-166934761D01*
X95165238Y-166982380D01*
X95212857Y-166934761D01*
X95165238Y-166887142D01*
X95165238Y-166982380D01*
X95165238Y-166363333D02*
X95117619Y-166410952D01*
X95165238Y-166458571D01*
X95212857Y-166410952D01*
X95165238Y-166363333D01*
X95165238Y-166458571D01*
X93736666Y-165982380D02*
X93641428Y-165982380D01*
X93546190Y-166030000D01*
X93498571Y-166077619D01*
X93450952Y-166172857D01*
X93403333Y-166363333D01*
X93403333Y-166601428D01*
X93450952Y-166791904D01*
X93498571Y-166887142D01*
X93546190Y-166934761D01*
X93641428Y-166982380D01*
X93736666Y-166982380D01*
X93831904Y-166934761D01*
X93879523Y-166887142D01*
X93927142Y-166791904D01*
X93974761Y-166601428D01*
X93974761Y-166363333D01*
X93927142Y-166172857D01*
X93879523Y-166077619D01*
X93831904Y-166030000D01*
X93736666Y-165982380D01*
X93070000Y-165982380D02*
X92450952Y-165982380D01*
X92784285Y-166363333D01*
X92641428Y-166363333D01*
X92546190Y-166410952D01*
X92498571Y-166458571D01*
X92450952Y-166553809D01*
X92450952Y-166791904D01*
X92498571Y-166887142D01*
X92546190Y-166934761D01*
X92641428Y-166982380D01*
X92927142Y-166982380D01*
X93022380Y-166934761D01*
X93070000Y-166887142D01*
X91308095Y-165934761D02*
X92165238Y-167220476D01*
X90784285Y-165982380D02*
X90689047Y-165982380D01*
X90593809Y-166030000D01*
X90546190Y-166077619D01*
X90498571Y-166172857D01*
X90450952Y-166363333D01*
X90450952Y-166601428D01*
X90498571Y-166791904D01*
X90546190Y-166887142D01*
X90593809Y-166934761D01*
X90689047Y-166982380D01*
X90784285Y-166982380D01*
X90879523Y-166934761D01*
X90927142Y-166887142D01*
X90974761Y-166791904D01*
X91022380Y-166601428D01*
X91022380Y-166363333D01*
X90974761Y-166172857D01*
X90927142Y-166077619D01*
X90879523Y-166030000D01*
X90784285Y-165982380D01*
X90117619Y-165982380D02*
X89498571Y-165982380D01*
X89831904Y-166363333D01*
X89689047Y-166363333D01*
X89593809Y-166410952D01*
X89546190Y-166458571D01*
X89498571Y-166553809D01*
X89498571Y-166791904D01*
X89546190Y-166887142D01*
X89593809Y-166934761D01*
X89689047Y-166982380D01*
X89974761Y-166982380D01*
X90070000Y-166934761D01*
X90117619Y-166887142D01*
X88355714Y-165934761D02*
X89212857Y-167220476D01*
X88070000Y-166077619D02*
X88022380Y-166030000D01*
X87927142Y-165982380D01*
X87689047Y-165982380D01*
X87593809Y-166030000D01*
X87546190Y-166077619D01*
X87498571Y-166172857D01*
X87498571Y-166268095D01*
X87546190Y-166410952D01*
X88117619Y-166982380D01*
X87498571Y-166982380D01*
X86879523Y-165982380D02*
X86784285Y-165982380D01*
X86689047Y-166030000D01*
X86641428Y-166077619D01*
X86593809Y-166172857D01*
X86546190Y-166363333D01*
X86546190Y-166601428D01*
X86593809Y-166791904D01*
X86641428Y-166887142D01*
X86689047Y-166934761D01*
X86784285Y-166982380D01*
X86879523Y-166982380D01*
X86974761Y-166934761D01*
X87022380Y-166887142D01*
X87070000Y-166791904D01*
X87117619Y-166601428D01*
X87117619Y-166363333D01*
X87070000Y-166172857D01*
X87022380Y-166077619D01*
X86974761Y-166030000D01*
X86879523Y-165982380D01*
X86165238Y-166077619D02*
X86117619Y-166030000D01*
X86022380Y-165982380D01*
X85784285Y-165982380D01*
X85689047Y-166030000D01*
X85641428Y-166077619D01*
X85593809Y-166172857D01*
X85593809Y-166268095D01*
X85641428Y-166410952D01*
X86212857Y-166982380D01*
X85593809Y-166982380D01*
X85260476Y-165982380D02*
X84641428Y-165982380D01*
X84974761Y-166363333D01*
X84831904Y-166363333D01*
X84736666Y-166410952D01*
X84689047Y-166458571D01*
X84641428Y-166553809D01*
X84641428Y-166791904D01*
X84689047Y-166887142D01*
X84736666Y-166934761D01*
X84831904Y-166982380D01*
X85117619Y-166982380D01*
X85212857Y-166934761D01*
X85260476Y-166887142D01*
X168909523Y-27852380D02*
X168909523Y-26852380D01*
X168576190Y-27566666D01*
X168242857Y-26852380D01*
X168242857Y-27852380D01*
X167861904Y-26852380D02*
X167242857Y-26852380D01*
X167576190Y-27233333D01*
X167433333Y-27233333D01*
X167338095Y-27280952D01*
X167290476Y-27328571D01*
X167242857Y-27423809D01*
X167242857Y-27661904D01*
X167290476Y-27757142D01*
X167338095Y-27804761D01*
X167433333Y-27852380D01*
X167719047Y-27852380D01*
X167814285Y-27804761D01*
X167861904Y-27757142D01*
M02*
