%TF.GenerationSoftware,KiCad,Pcbnew,(6.0.10)*%
%TF.CreationDate,2023-03-03T22:29:42-05:00*%
%TF.ProjectId,master_board,6d617374-6572-45f6-926f-6172642e6b69,rev?*%
%TF.SameCoordinates,Original*%
%TF.FileFunction,Paste,Top*%
%TF.FilePolarity,Positive*%
%FSLAX46Y46*%
G04 Gerber Fmt 4.6, Leading zero omitted, Abs format (unit mm)*
G04 Created by KiCad (PCBNEW (6.0.10)) date 2023-03-03 22:29:42*
%MOMM*%
%LPD*%
G01*
G04 APERTURE LIST*
G04 Aperture macros list*
%AMRoundRect*
0 Rectangle with rounded corners*
0 $1 Rounding radius*
0 $2 $3 $4 $5 $6 $7 $8 $9 X,Y pos of 4 corners*
0 Add a 4 corners polygon primitive as box body*
4,1,4,$2,$3,$4,$5,$6,$7,$8,$9,$2,$3,0*
0 Add four circle primitives for the rounded corners*
1,1,$1+$1,$2,$3*
1,1,$1+$1,$4,$5*
1,1,$1+$1,$6,$7*
1,1,$1+$1,$8,$9*
0 Add four rect primitives between the rounded corners*
20,1,$1+$1,$2,$3,$4,$5,0*
20,1,$1+$1,$4,$5,$6,$7,0*
20,1,$1+$1,$6,$7,$8,$9,0*
20,1,$1+$1,$8,$9,$2,$3,0*%
G04 Aperture macros list end*
%ADD10R,0.600000X1.150000*%
%ADD11R,0.300000X1.150000*%
%ADD12RoundRect,0.135000X0.185000X-0.135000X0.185000X0.135000X-0.185000X0.135000X-0.185000X-0.135000X0*%
%ADD13RoundRect,0.140000X0.170000X-0.140000X0.170000X0.140000X-0.170000X0.140000X-0.170000X-0.140000X0*%
%ADD14RoundRect,0.140000X-0.170000X0.140000X-0.170000X-0.140000X0.170000X-0.140000X0.170000X0.140000X0*%
%ADD15RoundRect,0.140000X-0.140000X-0.170000X0.140000X-0.170000X0.140000X0.170000X-0.140000X0.170000X0*%
%ADD16RoundRect,0.135000X0.135000X0.185000X-0.135000X0.185000X-0.135000X-0.185000X0.135000X-0.185000X0*%
%ADD17RoundRect,0.249999X-0.395001X-0.395001X0.395001X-0.395001X0.395001X0.395001X-0.395001X0.395001X0*%
%ADD18RoundRect,0.050000X-0.387500X-0.050000X0.387500X-0.050000X0.387500X0.050000X-0.387500X0.050000X0*%
%ADD19RoundRect,0.050000X-0.050000X-0.387500X0.050000X-0.387500X0.050000X0.387500X-0.050000X0.387500X0*%
%ADD20RoundRect,0.250000X0.250000X0.475000X-0.250000X0.475000X-0.250000X-0.475000X0.250000X-0.475000X0*%
%ADD21RoundRect,0.135000X-0.185000X0.135000X-0.185000X-0.135000X0.185000X-0.135000X0.185000X0.135000X0*%
%ADD22RoundRect,0.250000X-0.250000X-0.475000X0.250000X-0.475000X0.250000X0.475000X-0.250000X0.475000X0*%
%ADD23RoundRect,0.135000X-0.135000X-0.185000X0.135000X-0.185000X0.135000X0.185000X-0.135000X0.185000X0*%
%ADD24R,5.600000X2.100000*%
%ADD25R,0.320000X0.320000*%
%ADD26RoundRect,0.140000X0.140000X0.170000X-0.140000X0.170000X-0.140000X-0.170000X0.140000X-0.170000X0*%
%ADD27RoundRect,0.150000X-0.150000X-0.625000X0.150000X-0.625000X0.150000X0.625000X-0.150000X0.625000X0*%
%ADD28RoundRect,0.250000X-0.350000X-0.650000X0.350000X-0.650000X0.350000X0.650000X-0.350000X0.650000X0*%
%ADD29R,2.000000X1.500000*%
%ADD30R,2.000000X3.800000*%
%ADD31RoundRect,0.100000X0.100000X-0.637500X0.100000X0.637500X-0.100000X0.637500X-0.100000X-0.637500X0*%
%ADD32RoundRect,0.150000X-0.650000X-0.150000X0.650000X-0.150000X0.650000X0.150000X-0.650000X0.150000X0*%
G04 APERTURE END LIST*
D10*
%TO.C,J2*%
X122900000Y-24180000D03*
X122100000Y-24180000D03*
D11*
X120950000Y-24180000D03*
X119950000Y-24180000D03*
X119450000Y-24180000D03*
X118450000Y-24180000D03*
D10*
X117300000Y-24180000D03*
X116500000Y-24180000D03*
X116500000Y-24180000D03*
X117300000Y-24180000D03*
D11*
X117950000Y-24180000D03*
X118950000Y-24180000D03*
X120450000Y-24180000D03*
X121450000Y-24180000D03*
D10*
X122100000Y-24180000D03*
X122900000Y-24180000D03*
%TD*%
D12*
%TO.C,R15*%
X38900000Y-26110000D03*
X38900000Y-25090000D03*
%TD*%
%TO.C,R13*%
X98600000Y-40010000D03*
X98600000Y-38990000D03*
%TD*%
D13*
%TO.C,C7*%
X99154913Y-24433027D03*
X99154913Y-23473027D03*
%TD*%
D14*
%TO.C,C12*%
X90300000Y-39320000D03*
X90300000Y-40280000D03*
%TD*%
D15*
%TO.C,C9*%
X100020000Y-27700000D03*
X100980000Y-27700000D03*
%TD*%
D16*
%TO.C,R2*%
X85310000Y-29200000D03*
X84290000Y-29200000D03*
%TD*%
D12*
%TO.C,R14*%
X63500000Y-22250000D03*
X63500000Y-21230000D03*
%TD*%
D17*
%TO.C,U2*%
X95800000Y-29500000D03*
X94200000Y-29500000D03*
X94200000Y-31100000D03*
X95800000Y-31100000D03*
D18*
X91562500Y-27700000D03*
X91562500Y-28100000D03*
X91562500Y-28500000D03*
X91562500Y-28900000D03*
X91562500Y-29300000D03*
X91562500Y-29700000D03*
X91562500Y-30100000D03*
X91562500Y-30500000D03*
X91562500Y-30900000D03*
X91562500Y-31300000D03*
X91562500Y-31700000D03*
X91562500Y-32100000D03*
X91562500Y-32500000D03*
X91562500Y-32900000D03*
D19*
X92400000Y-33737500D03*
X92800000Y-33737500D03*
X93200000Y-33737500D03*
X93600000Y-33737500D03*
X94000000Y-33737500D03*
X94400000Y-33737500D03*
X94800000Y-33737500D03*
X95200000Y-33737500D03*
X95600000Y-33737500D03*
X96000000Y-33737500D03*
X96400000Y-33737500D03*
X96800000Y-33737500D03*
X97200000Y-33737500D03*
X97600000Y-33737500D03*
D18*
X98437500Y-32900000D03*
X98437500Y-32500000D03*
X98437500Y-32100000D03*
X98437500Y-31700000D03*
X98437500Y-31300000D03*
X98437500Y-30900000D03*
X98437500Y-30500000D03*
X98437500Y-30100000D03*
X98437500Y-29700000D03*
X98437500Y-29300000D03*
X98437500Y-28900000D03*
X98437500Y-28500000D03*
X98437500Y-28100000D03*
X98437500Y-27700000D03*
D19*
X97600000Y-26862500D03*
X97200000Y-26862500D03*
X96800000Y-26862500D03*
X96400000Y-26862500D03*
X96000000Y-26862500D03*
X95600000Y-26862500D03*
X95200000Y-26862500D03*
X94800000Y-26862500D03*
X94400000Y-26862500D03*
X94000000Y-26862500D03*
X93600000Y-26862500D03*
X93200000Y-26862500D03*
X92800000Y-26862500D03*
X92400000Y-26862500D03*
%TD*%
D20*
%TO.C,C2*%
X129275000Y-34250000D03*
X127375000Y-34250000D03*
%TD*%
D16*
%TO.C,R1*%
X85310000Y-28000000D03*
X84290000Y-28000000D03*
%TD*%
D21*
%TO.C,R6*%
X121750000Y-27240000D03*
X121750000Y-28260000D03*
%TD*%
D14*
%TO.C,C13*%
X99800000Y-39020000D03*
X99800000Y-39980000D03*
%TD*%
D21*
%TO.C,R10*%
X97000000Y-23240000D03*
X97000000Y-24260000D03*
%TD*%
D13*
%TO.C,C6*%
X98154913Y-24433027D03*
X98154913Y-23473027D03*
%TD*%
D21*
%TO.C,R4*%
X152900000Y-27090000D03*
X152900000Y-28110000D03*
%TD*%
D16*
%TO.C,R3*%
X83510000Y-30500000D03*
X82490000Y-30500000D03*
%TD*%
D13*
%TO.C,C8*%
X100154913Y-24426769D03*
X100154913Y-23466769D03*
%TD*%
%TO.C,C16*%
X94712859Y-22521473D03*
X94712859Y-21561473D03*
%TD*%
D22*
%TO.C,C1*%
X127375000Y-31875000D03*
X129275000Y-31875000D03*
%TD*%
D13*
%TO.C,C15*%
X93712859Y-22521473D03*
X93712859Y-21561473D03*
%TD*%
D21*
%TO.C,R12*%
X62250000Y-21230000D03*
X62250000Y-22250000D03*
%TD*%
D23*
%TO.C,R8*%
X153790000Y-33000000D03*
X154810000Y-33000000D03*
%TD*%
D21*
%TO.C,R5*%
X150900000Y-27090000D03*
X150900000Y-28110000D03*
%TD*%
D12*
%TO.C,R16*%
X46520000Y-26110000D03*
X46520000Y-25090000D03*
%TD*%
D24*
%TO.C,Y1*%
X99750000Y-43500000D03*
X90250000Y-43500000D03*
%TD*%
D14*
%TO.C,C4*%
X95600000Y-36220000D03*
X95600000Y-37180000D03*
%TD*%
D25*
%TO.C,D1*%
X82470000Y-28930000D03*
X83130000Y-28930000D03*
X83130000Y-28270000D03*
X82470000Y-28270000D03*
%TD*%
D21*
%TO.C,R7*%
X117750000Y-27240000D03*
X117750000Y-28260000D03*
%TD*%
D13*
%TO.C,C17*%
X74350000Y-22180000D03*
X74350000Y-21220000D03*
%TD*%
D26*
%TO.C,C14*%
X90180000Y-27700000D03*
X89220000Y-27700000D03*
%TD*%
D21*
%TO.C,R9*%
X96000000Y-23240000D03*
X96000000Y-24260000D03*
%TD*%
D27*
%TO.C,J1*%
X150900000Y-23825000D03*
X151900000Y-23825000D03*
X152900000Y-23825000D03*
D28*
X149600000Y-21300000D03*
X154200000Y-21300000D03*
%TD*%
D26*
%TO.C,C3*%
X81080000Y-28350000D03*
X80120000Y-28350000D03*
%TD*%
D29*
%TO.C,U1*%
X125200000Y-36500000D03*
X125200000Y-34200000D03*
D30*
X118900000Y-34200000D03*
D29*
X125200000Y-31900000D03*
%TD*%
D13*
%TO.C,C5*%
X92712859Y-22521473D03*
X92712859Y-21561473D03*
%TD*%
D31*
%TO.C,U5*%
X73775000Y-40862500D03*
X74425000Y-40862500D03*
X75075000Y-40862500D03*
X75725000Y-40862500D03*
X76375000Y-40862500D03*
X77025000Y-40862500D03*
X77675000Y-40862500D03*
X78325000Y-40862500D03*
X78975000Y-40862500D03*
X79625000Y-40862500D03*
X80275000Y-40862500D03*
X80925000Y-40862500D03*
X80925000Y-35137500D03*
X80275000Y-35137500D03*
X79625000Y-35137500D03*
X78975000Y-35137500D03*
X78325000Y-35137500D03*
X77675000Y-35137500D03*
X77025000Y-35137500D03*
X76375000Y-35137500D03*
X75725000Y-35137500D03*
X75075000Y-35137500D03*
X74425000Y-35137500D03*
X73775000Y-35137500D03*
%TD*%
D14*
%TO.C,C10*%
X94500000Y-36220000D03*
X94500000Y-37180000D03*
%TD*%
D32*
%TO.C,U3*%
X65300000Y-22195000D03*
X65300000Y-23465000D03*
X65300000Y-24735000D03*
X65300000Y-26005000D03*
X72500000Y-26005000D03*
X72500000Y-24735000D03*
X72500000Y-23465000D03*
X72500000Y-22195000D03*
%TD*%
D31*
%TO.C,U4*%
X54475000Y-40862500D03*
X55125000Y-40862500D03*
X55775000Y-40862500D03*
X56425000Y-40862500D03*
X57075000Y-40862500D03*
X57725000Y-40862500D03*
X58375000Y-40862500D03*
X59025000Y-40862500D03*
X59675000Y-40862500D03*
X60325000Y-40862500D03*
X60975000Y-40862500D03*
X61625000Y-40862500D03*
X61625000Y-35137500D03*
X60975000Y-35137500D03*
X60325000Y-35137500D03*
X59675000Y-35137500D03*
X59025000Y-35137500D03*
X58375000Y-35137500D03*
X57725000Y-35137500D03*
X57075000Y-35137500D03*
X56425000Y-35137500D03*
X55775000Y-35137500D03*
X55125000Y-35137500D03*
X54475000Y-35137500D03*
%TD*%
D21*
%TO.C,R11*%
X134250000Y-36490000D03*
X134250000Y-37510000D03*
%TD*%
D26*
%TO.C,C11*%
X88330000Y-31875000D03*
X87370000Y-31875000D03*
%TD*%
M02*
