%TF.GenerationSoftware,KiCad,Pcbnew,(6.0.10)*%
%TF.CreationDate,2023-02-13T20:41:26-05:00*%
%TF.ProjectId,master_board,6d617374-6572-45f6-926f-6172642e6b69,rev?*%
%TF.SameCoordinates,Original*%
%TF.FileFunction,Soldermask,Top*%
%TF.FilePolarity,Negative*%
%FSLAX46Y46*%
G04 Gerber Fmt 4.6, Leading zero omitted, Abs format (unit mm)*
G04 Created by KiCad (PCBNEW (6.0.10)) date 2023-02-13 20:41:26*
%MOMM*%
%LPD*%
G01*
G04 APERTURE LIST*
G04 Aperture macros list*
%AMRoundRect*
0 Rectangle with rounded corners*
0 $1 Rounding radius*
0 $2 $3 $4 $5 $6 $7 $8 $9 X,Y pos of 4 corners*
0 Add a 4 corners polygon primitive as box body*
4,1,4,$2,$3,$4,$5,$6,$7,$8,$9,$2,$3,0*
0 Add four circle primitives for the rounded corners*
1,1,$1+$1,$2,$3*
1,1,$1+$1,$4,$5*
1,1,$1+$1,$6,$7*
1,1,$1+$1,$8,$9*
0 Add four rect primitives between the rounded corners*
20,1,$1+$1,$2,$3,$4,$5,0*
20,1,$1+$1,$4,$5,$6,$7,0*
20,1,$1+$1,$6,$7,$8,$9,0*
20,1,$1+$1,$8,$9,$2,$3,0*%
G04 Aperture macros list end*
%ADD10C,0.650000*%
%ADD11R,0.600000X1.150000*%
%ADD12R,0.300000X1.150000*%
%ADD13O,1.000000X1.800000*%
%ADD14O,1.000000X2.100000*%
%ADD15RoundRect,0.135000X0.185000X-0.135000X0.185000X0.135000X-0.185000X0.135000X-0.185000X-0.135000X0*%
%ADD16RoundRect,0.135000X0.135000X0.185000X-0.135000X0.185000X-0.135000X-0.185000X0.135000X-0.185000X0*%
%ADD17RoundRect,0.140000X0.170000X-0.140000X0.170000X0.140000X-0.170000X0.140000X-0.170000X-0.140000X0*%
%ADD18O,1.500000X2.500000*%
%ADD19RoundRect,0.140000X-0.170000X0.140000X-0.170000X-0.140000X0.170000X-0.140000X0.170000X0.140000X0*%
%ADD20R,1.700000X1.700000*%
%ADD21RoundRect,0.140000X-0.140000X-0.170000X0.140000X-0.170000X0.140000X0.170000X-0.140000X0.170000X0*%
%ADD22RoundRect,0.050000X-0.387500X-0.050000X0.387500X-0.050000X0.387500X0.050000X-0.387500X0.050000X0*%
%ADD23RoundRect,0.050000X-0.050000X-0.387500X0.050000X-0.387500X0.050000X0.387500X-0.050000X0.387500X0*%
%ADD24R,3.200000X3.200000*%
%ADD25RoundRect,0.250000X0.250000X0.475000X-0.250000X0.475000X-0.250000X-0.475000X0.250000X-0.475000X0*%
%ADD26RoundRect,0.135000X-0.185000X0.135000X-0.185000X-0.135000X0.185000X-0.135000X0.185000X0.135000X0*%
%ADD27C,3.200000*%
%ADD28C,2.000000*%
%ADD29RoundRect,0.250000X-0.250000X-0.475000X0.250000X-0.475000X0.250000X0.475000X-0.250000X0.475000X0*%
%ADD30R,5.600000X2.100000*%
%ADD31R,0.320000X0.320000*%
%ADD32RoundRect,0.140000X0.140000X0.170000X-0.140000X0.170000X-0.140000X-0.170000X0.140000X-0.170000X0*%
%ADD33R,2.000000X1.500000*%
%ADD34R,2.000000X3.800000*%
%ADD35RoundRect,0.062500X-0.675000X-0.062500X0.675000X-0.062500X0.675000X0.062500X-0.675000X0.062500X0*%
%ADD36RoundRect,0.150000X-0.650000X-0.150000X0.650000X-0.150000X0.650000X0.150000X-0.650000X0.150000X0*%
%ADD37R,0.740000X2.400000*%
G04 APERTURE END LIST*
D10*
%TO.C,J2*%
X122590000Y-23105000D03*
X116810000Y-23105000D03*
D11*
X122900000Y-24180000D03*
X122100000Y-24180000D03*
D12*
X120950000Y-24180000D03*
X119950000Y-24180000D03*
X119450000Y-24180000D03*
X118450000Y-24180000D03*
D11*
X117300000Y-24180000D03*
X116500000Y-24180000D03*
X116500000Y-24180000D03*
X117300000Y-24180000D03*
D12*
X117950000Y-24180000D03*
X118950000Y-24180000D03*
X120450000Y-24180000D03*
X121450000Y-24180000D03*
D11*
X122100000Y-24180000D03*
X122900000Y-24180000D03*
D13*
X115380000Y-19425000D03*
D14*
X124020000Y-23605000D03*
D13*
X124020000Y-19425000D03*
D14*
X115380000Y-23605000D03*
%TD*%
D15*
%TO.C,R16*%
X38900000Y-27210000D03*
X38900000Y-26190000D03*
%TD*%
D16*
%TO.C,R6*%
X149510000Y-29250000D03*
X148490000Y-29250000D03*
%TD*%
D15*
%TO.C,R14*%
X98600000Y-40010000D03*
X98600000Y-38990000D03*
%TD*%
D17*
%TO.C,C7*%
X99154913Y-24433027D03*
X99154913Y-23473027D03*
%TD*%
D18*
%TO.C,M6*%
X58000000Y-116500000D03*
X60200000Y-116500000D03*
X62400000Y-116500000D03*
X64600000Y-116500000D03*
X66800000Y-116500000D03*
X69000000Y-116500000D03*
%TD*%
D19*
%TO.C,C12*%
X90300000Y-39320000D03*
X90300000Y-40280000D03*
%TD*%
D20*
%TO.C,J5*%
X42700000Y-23700000D03*
%TD*%
D21*
%TO.C,C9*%
X100020000Y-27700000D03*
X100980000Y-27700000D03*
%TD*%
D20*
%TO.C,J4*%
X46500000Y-23700000D03*
%TD*%
D16*
%TO.C,R2*%
X85310000Y-29200000D03*
X84290000Y-29200000D03*
%TD*%
D18*
%TO.C,M18*%
X152500000Y-116500000D03*
X154700000Y-116500000D03*
X156900000Y-116500000D03*
X159100000Y-116500000D03*
X161300000Y-116500000D03*
X163500000Y-116500000D03*
%TD*%
D15*
%TO.C,R15*%
X63500000Y-22250000D03*
X63500000Y-21230000D03*
%TD*%
D22*
%TO.C,U2*%
X91562500Y-27700000D03*
X91562500Y-28100000D03*
X91562500Y-28500000D03*
X91562500Y-28900000D03*
X91562500Y-29300000D03*
X91562500Y-29700000D03*
X91562500Y-30100000D03*
X91562500Y-30500000D03*
X91562500Y-30900000D03*
X91562500Y-31300000D03*
X91562500Y-31700000D03*
X91562500Y-32100000D03*
X91562500Y-32500000D03*
X91562500Y-32900000D03*
D23*
X92400000Y-33737500D03*
X92800000Y-33737500D03*
X93200000Y-33737500D03*
X93600000Y-33737500D03*
X94000000Y-33737500D03*
X94400000Y-33737500D03*
X94800000Y-33737500D03*
X95200000Y-33737500D03*
X95600000Y-33737500D03*
X96000000Y-33737500D03*
X96400000Y-33737500D03*
X96800000Y-33737500D03*
X97200000Y-33737500D03*
X97600000Y-33737500D03*
D22*
X98437500Y-32900000D03*
X98437500Y-32500000D03*
X98437500Y-32100000D03*
X98437500Y-31700000D03*
X98437500Y-31300000D03*
X98437500Y-30900000D03*
X98437500Y-30500000D03*
X98437500Y-30100000D03*
X98437500Y-29700000D03*
X98437500Y-29300000D03*
X98437500Y-28900000D03*
X98437500Y-28500000D03*
X98437500Y-28100000D03*
X98437500Y-27700000D03*
D23*
X97600000Y-26862500D03*
X97200000Y-26862500D03*
X96800000Y-26862500D03*
X96400000Y-26862500D03*
X96000000Y-26862500D03*
X95600000Y-26862500D03*
X95200000Y-26862500D03*
X94800000Y-26862500D03*
X94400000Y-26862500D03*
X94000000Y-26862500D03*
X93600000Y-26862500D03*
X93200000Y-26862500D03*
X92800000Y-26862500D03*
X92400000Y-26862500D03*
D24*
X95000000Y-30300000D03*
%TD*%
D18*
%TO.C,M7*%
X58000000Y-148000000D03*
X60200000Y-148000000D03*
X62400000Y-148000000D03*
X64600000Y-148000000D03*
X66800000Y-148000000D03*
X69000000Y-148000000D03*
%TD*%
D25*
%TO.C,C2*%
X129275000Y-34250000D03*
X127375000Y-34250000D03*
%TD*%
D16*
%TO.C,R1*%
X85310000Y-28000000D03*
X84290000Y-28000000D03*
%TD*%
D26*
%TO.C,R7*%
X121750000Y-27240000D03*
X121750000Y-28260000D03*
%TD*%
D19*
%TO.C,C13*%
X99800000Y-39020000D03*
X99800000Y-39980000D03*
%TD*%
D26*
%TO.C,R11*%
X97000000Y-23240000D03*
X97000000Y-24260000D03*
%TD*%
D27*
%TO.C,H1*%
X22000000Y-23000000D03*
%TD*%
D18*
%TO.C,M9*%
X89500000Y-85000000D03*
X91700000Y-85000000D03*
X93900000Y-85000000D03*
X96100000Y-85000000D03*
X98300000Y-85000000D03*
X100500000Y-85000000D03*
%TD*%
D27*
%TO.C,H3*%
X168000000Y-23000000D03*
%TD*%
D28*
%TO.C,SW1*%
X159350000Y-33000000D03*
X164350000Y-33000000D03*
X159350000Y-38000000D03*
X164350000Y-38000000D03*
%TD*%
D17*
%TO.C,C6*%
X98154913Y-24433027D03*
X98154913Y-23473027D03*
%TD*%
D26*
%TO.C,R4*%
X154500000Y-29240000D03*
X154500000Y-30260000D03*
%TD*%
D18*
%TO.C,M5*%
X58000000Y-85000000D03*
X60200000Y-85000000D03*
X62400000Y-85000000D03*
X64600000Y-85000000D03*
X66800000Y-85000000D03*
X69000000Y-85000000D03*
%TD*%
%TO.C,M0*%
X26500000Y-53500000D03*
X28700000Y-53500000D03*
X30900000Y-53500000D03*
X33100000Y-53500000D03*
X35300000Y-53500000D03*
X37500000Y-53500000D03*
%TD*%
%TO.C,M4*%
X58000000Y-53500000D03*
X60200000Y-53500000D03*
X62400000Y-53500000D03*
X64600000Y-53500000D03*
X66800000Y-53500000D03*
X69000000Y-53500000D03*
%TD*%
D16*
%TO.C,R3*%
X83510000Y-30500000D03*
X82490000Y-30500000D03*
%TD*%
D17*
%TO.C,C8*%
X100154913Y-24426769D03*
X100154913Y-23466769D03*
%TD*%
%TO.C,C16*%
X94712859Y-22521473D03*
X94712859Y-21561473D03*
%TD*%
D29*
%TO.C,C1*%
X127375000Y-31875000D03*
X129275000Y-31875000D03*
%TD*%
D17*
%TO.C,C15*%
X93712859Y-22521473D03*
X93712859Y-21561473D03*
%TD*%
D27*
%TO.C,H2*%
X22000000Y-169000000D03*
%TD*%
D18*
%TO.C,M2*%
X26500000Y-116500000D03*
X28700000Y-116500000D03*
X30900000Y-116500000D03*
X33100000Y-116500000D03*
X35300000Y-116500000D03*
X37500000Y-116500000D03*
%TD*%
%TO.C,M17*%
X152500000Y-85250000D03*
X154700000Y-85250000D03*
X156900000Y-85250000D03*
X159100000Y-85250000D03*
X161300000Y-85250000D03*
X163500000Y-85250000D03*
%TD*%
%TO.C,M3*%
X26500000Y-148000000D03*
X28700000Y-148000000D03*
X30900000Y-148000000D03*
X33100000Y-148000000D03*
X35300000Y-148000000D03*
X37500000Y-148000000D03*
%TD*%
%TO.C,M16*%
X152500000Y-53500000D03*
X154700000Y-53500000D03*
X156900000Y-53500000D03*
X159100000Y-53500000D03*
X161300000Y-53500000D03*
X163500000Y-53500000D03*
%TD*%
D26*
%TO.C,R13*%
X62250000Y-21230000D03*
X62250000Y-22250000D03*
%TD*%
%TO.C,R9*%
X156200000Y-30240000D03*
X156200000Y-31260000D03*
%TD*%
%TO.C,R5*%
X153250000Y-29240000D03*
X153250000Y-30260000D03*
%TD*%
D15*
%TO.C,R17*%
X50300000Y-27210000D03*
X50300000Y-26190000D03*
%TD*%
D20*
%TO.C,J3*%
X38900000Y-23700000D03*
%TD*%
D30*
%TO.C,Y1*%
X99750000Y-43500000D03*
X90250000Y-43500000D03*
%TD*%
D19*
%TO.C,C4*%
X95600000Y-36220000D03*
X95600000Y-37180000D03*
%TD*%
D18*
%TO.C,M15*%
X121000000Y-148000000D03*
X123200000Y-148000000D03*
X125400000Y-148000000D03*
X127600000Y-148000000D03*
X129800000Y-148000000D03*
X132000000Y-148000000D03*
%TD*%
D31*
%TO.C,D1*%
X82470000Y-28930000D03*
X83130000Y-28930000D03*
X83130000Y-28270000D03*
X82470000Y-28270000D03*
%TD*%
D18*
%TO.C,M12*%
X121000000Y-53500000D03*
X123200000Y-53500000D03*
X125400000Y-53500000D03*
X127600000Y-53500000D03*
X129800000Y-53500000D03*
X132000000Y-53500000D03*
%TD*%
D26*
%TO.C,R8*%
X117750000Y-26865000D03*
X117750000Y-27885000D03*
%TD*%
D17*
%TO.C,C17*%
X74350000Y-22180000D03*
X74350000Y-21220000D03*
%TD*%
D32*
%TO.C,C14*%
X90180000Y-27700000D03*
X89220000Y-27700000D03*
%TD*%
D27*
%TO.C,H4*%
X168000000Y-169000000D03*
%TD*%
D18*
%TO.C,M10*%
X89500000Y-116500000D03*
X91700000Y-116500000D03*
X93900000Y-116500000D03*
X96100000Y-116500000D03*
X98300000Y-116500000D03*
X100500000Y-116500000D03*
%TD*%
D26*
%TO.C,R10*%
X96000000Y-23240000D03*
X96000000Y-24260000D03*
%TD*%
D18*
%TO.C,M14*%
X121000000Y-116500000D03*
X123200000Y-116500000D03*
X125400000Y-116500000D03*
X127600000Y-116500000D03*
X129800000Y-116500000D03*
X132000000Y-116500000D03*
%TD*%
%TO.C,M11*%
X89500000Y-148000000D03*
X91700000Y-148000000D03*
X93900000Y-148000000D03*
X96100000Y-148000000D03*
X98300000Y-148000000D03*
X100500000Y-148000000D03*
%TD*%
D32*
%TO.C,C3*%
X81080000Y-28350000D03*
X80120000Y-28350000D03*
%TD*%
D18*
%TO.C,M19*%
X152500000Y-148000000D03*
X154700000Y-148000000D03*
X156900000Y-148000000D03*
X159100000Y-148000000D03*
X161300000Y-148000000D03*
X163500000Y-148000000D03*
%TD*%
%TO.C,M8*%
X89500000Y-53500000D03*
X91700000Y-53500000D03*
X93900000Y-53500000D03*
X96100000Y-53500000D03*
X98300000Y-53500000D03*
X100500000Y-53500000D03*
%TD*%
D20*
%TO.C,J6*%
X50300000Y-23700000D03*
%TD*%
D18*
%TO.C,M13*%
X121000000Y-85000000D03*
X123200000Y-85000000D03*
X125400000Y-85000000D03*
X127600000Y-85000000D03*
X129800000Y-85000000D03*
X132000000Y-85000000D03*
%TD*%
D33*
%TO.C,U1*%
X125200000Y-36500000D03*
X125200000Y-34200000D03*
D34*
X118900000Y-34200000D03*
D33*
X125200000Y-31900000D03*
%TD*%
D17*
%TO.C,C5*%
X92712859Y-22521473D03*
X92712859Y-21561473D03*
%TD*%
D35*
%TO.C,U5*%
X69725243Y-35200000D03*
X69725243Y-35600000D03*
X69725243Y-36000000D03*
X69725243Y-36400000D03*
X69725243Y-36800000D03*
X69725243Y-37200000D03*
X69725243Y-37600000D03*
X69725243Y-38000000D03*
X69725243Y-38400000D03*
X69725243Y-38800000D03*
X69725243Y-39200000D03*
X69725243Y-39600000D03*
X75450243Y-39600000D03*
X75450243Y-39200000D03*
X75450243Y-38800000D03*
X75450243Y-38400000D03*
X75450243Y-38000000D03*
X75450243Y-37600000D03*
X75450243Y-37200000D03*
X75450243Y-36800000D03*
X75450243Y-36400000D03*
X75450243Y-36000000D03*
X75450243Y-35600000D03*
X75450243Y-35200000D03*
%TD*%
D19*
%TO.C,C10*%
X94500000Y-36220000D03*
X94500000Y-37180000D03*
%TD*%
D36*
%TO.C,U3*%
X65300000Y-22195000D03*
X65300000Y-23465000D03*
X65300000Y-24735000D03*
X65300000Y-26005000D03*
X72500000Y-26005000D03*
X72500000Y-24735000D03*
X72500000Y-23465000D03*
X72500000Y-22195000D03*
%TD*%
D35*
%TO.C,U4*%
X47137500Y-37800000D03*
X47137500Y-38200000D03*
X47137500Y-38600000D03*
X47137500Y-39000000D03*
X47137500Y-39400000D03*
X47137500Y-39800000D03*
X47137500Y-40200000D03*
X47137500Y-40600000D03*
X47137500Y-41000000D03*
X47137500Y-41400000D03*
X47137500Y-41800000D03*
X47137500Y-42200000D03*
X52862500Y-42200000D03*
X52862500Y-41800000D03*
X52862500Y-41400000D03*
X52862500Y-41000000D03*
X52862500Y-40600000D03*
X52862500Y-40200000D03*
X52862500Y-39800000D03*
X52862500Y-39400000D03*
X52862500Y-39000000D03*
X52862500Y-38600000D03*
X52862500Y-38200000D03*
X52862500Y-37800000D03*
%TD*%
D28*
%TO.C,SW2*%
X139350000Y-33000000D03*
X144350000Y-33000000D03*
X139350000Y-38000000D03*
X144350000Y-38000000D03*
%TD*%
D37*
%TO.C,J1*%
X154540000Y-22350000D03*
X154540000Y-26250000D03*
X153270000Y-22350000D03*
X153270000Y-26250000D03*
X152000000Y-22350000D03*
X152000000Y-26250000D03*
X150730000Y-22350000D03*
X150730000Y-26250000D03*
X149460000Y-22350000D03*
X149460000Y-26250000D03*
%TD*%
D26*
%TO.C,R12*%
X134250000Y-36490000D03*
X134250000Y-37510000D03*
%TD*%
D28*
%TO.C,SW3*%
X25600000Y-33000000D03*
X30600000Y-33000000D03*
X25600000Y-38000000D03*
X30600000Y-38000000D03*
%TD*%
D32*
%TO.C,C11*%
X88330000Y-31875000D03*
X87370000Y-31875000D03*
%TD*%
D18*
%TO.C,M1*%
X26500000Y-85000000D03*
X28700000Y-85000000D03*
X30900000Y-85000000D03*
X33100000Y-85000000D03*
X35300000Y-85000000D03*
X37500000Y-85000000D03*
%TD*%
M02*
