%TF.GenerationSoftware,KiCad,Pcbnew,(6.0.10)*%
%TF.CreationDate,2023-02-13T20:41:26-05:00*%
%TF.ProjectId,master_board,6d617374-6572-45f6-926f-6172642e6b69,rev?*%
%TF.SameCoordinates,Original*%
%TF.FileFunction,Legend,Top*%
%TF.FilePolarity,Positive*%
%FSLAX46Y46*%
G04 Gerber Fmt 4.6, Leading zero omitted, Abs format (unit mm)*
G04 Created by KiCad (PCBNEW (6.0.10)) date 2023-02-13 20:41:26*
%MOMM*%
%LPD*%
G01*
G04 APERTURE LIST*
%ADD10C,0.150000*%
%ADD11C,0.200000*%
%ADD12C,0.300000*%
%ADD13C,0.050000*%
%ADD14C,0.120000*%
%ADD15C,0.127000*%
G04 APERTURE END LIST*
D10*
X80000000Y-50600000D02*
X80000000Y-172900000D01*
X141500000Y-50600000D02*
X141500000Y-172900000D01*
X171900000Y-81000000D02*
X18100000Y-81000000D01*
X171900000Y-111000000D02*
X18100000Y-111000000D01*
X143000000Y-50600000D02*
X143000000Y-172900000D01*
D11*
X25201562Y-23000000D02*
G75*
G03*
X25201562Y-23000000I-3201562J0D01*
G01*
D10*
X78500000Y-50600000D02*
X78500000Y-172900000D01*
D11*
X171200000Y-169000000D02*
G75*
G03*
X171200000Y-169000000I-3201562J0D01*
G01*
D10*
X171900000Y-79500000D02*
X18100000Y-79500000D01*
D11*
X25200000Y-169000000D02*
G75*
G03*
X25200000Y-169000000I-3201562J0D01*
G01*
D10*
X154600000Y-20600000D02*
G75*
G03*
X154600000Y-20600000I-100000J0D01*
G01*
X111500000Y-50600000D02*
X111500000Y-172900000D01*
X171900000Y-112500000D02*
X18100000Y-112500000D01*
D11*
X171200000Y-23000000D02*
G75*
G03*
X171200000Y-23000000I-3201562J0D01*
G01*
D10*
X68600000Y-34300000D02*
G75*
G03*
X68600000Y-34300000I-100000J0D01*
G01*
X171900000Y-142500000D02*
X18100000Y-142500000D01*
X47000000Y-50600000D02*
X47000000Y-172900000D01*
X90500000Y-26800000D02*
G75*
G03*
X90500000Y-26800000I-100000J0D01*
G01*
X171900000Y-144000000D02*
X18100000Y-144000000D01*
X64600000Y-21000000D02*
G75*
G03*
X64600000Y-21000000I-100000J0D01*
G01*
X45900000Y-36900000D02*
G75*
G03*
X45900000Y-36900000I-100000J0D01*
G01*
X48500000Y-50600000D02*
X48500000Y-172900000D01*
X110000000Y-50600000D02*
X110000000Y-172900000D01*
D12*
X37722276Y-32278571D02*
X37909776Y-30778571D01*
X38481205Y-30778571D01*
X38615133Y-30850000D01*
X38677633Y-30921428D01*
X38731205Y-31064285D01*
X38704419Y-31278571D01*
X38615133Y-31421428D01*
X38534776Y-31492857D01*
X38382991Y-31564285D01*
X37811562Y-31564285D01*
X40079419Y-32278571D02*
X39668705Y-31564285D01*
X39222276Y-32278571D02*
X39409776Y-30778571D01*
X39981205Y-30778571D01*
X40115133Y-30850000D01*
X40177633Y-30921428D01*
X40231205Y-31064285D01*
X40204419Y-31278571D01*
X40115133Y-31421428D01*
X40034776Y-31492857D01*
X39882991Y-31564285D01*
X39311562Y-31564285D01*
X41195491Y-30778571D02*
X41481205Y-30778571D01*
X41615133Y-30850000D01*
X41740133Y-30992857D01*
X41775848Y-31278571D01*
X41713348Y-31778571D01*
X41606205Y-32064285D01*
X41445491Y-32207142D01*
X41293705Y-32278571D01*
X41007991Y-32278571D01*
X40874062Y-32207142D01*
X40749062Y-32064285D01*
X40713348Y-31778571D01*
X40775848Y-31278571D01*
X40882991Y-30992857D01*
X41043705Y-30850000D01*
X41195491Y-30778571D01*
X42266919Y-30778571D02*
X43124062Y-30778571D01*
X42507991Y-32278571D02*
X42695491Y-30778571D01*
X43909776Y-30778571D02*
X44195491Y-30778571D01*
X44329419Y-30850000D01*
X44454419Y-30992857D01*
X44490133Y-31278571D01*
X44427633Y-31778571D01*
X44320491Y-32064285D01*
X44159776Y-32207142D01*
X44007991Y-32278571D01*
X43722276Y-32278571D01*
X43588348Y-32207142D01*
X43463348Y-32064285D01*
X43427633Y-31778571D01*
X43490133Y-31278571D01*
X43597276Y-30992857D01*
X43757991Y-30850000D01*
X43909776Y-30778571D01*
X44981205Y-30778571D02*
X45838348Y-30778571D01*
X45222276Y-32278571D02*
X45409776Y-30778571D01*
X47007991Y-32278571D02*
X46597276Y-31564285D01*
X46150848Y-32278571D02*
X46338348Y-30778571D01*
X46909776Y-30778571D01*
X47043705Y-30850000D01*
X47106205Y-30921428D01*
X47159776Y-31064285D01*
X47132991Y-31278571D01*
X47043705Y-31421428D01*
X46963348Y-31492857D01*
X46811562Y-31564285D01*
X46240133Y-31564285D01*
X48124062Y-30778571D02*
X48409776Y-30778571D01*
X48543705Y-30850000D01*
X48668705Y-30992857D01*
X48704419Y-31278571D01*
X48641919Y-31778571D01*
X48534776Y-32064285D01*
X48374062Y-32207142D01*
X48222276Y-32278571D01*
X47936562Y-32278571D01*
X47802633Y-32207142D01*
X47677633Y-32064285D01*
X47641919Y-31778571D01*
X47704419Y-31278571D01*
X47811562Y-30992857D01*
X47972276Y-30850000D01*
X48124062Y-30778571D01*
X49936562Y-32278571D02*
X49222276Y-32278571D01*
X49409776Y-30778571D01*
X51150848Y-32278571D02*
X50436562Y-32278571D01*
X50624062Y-30778571D01*
X51749062Y-31492857D02*
X52249062Y-31492857D01*
X52365133Y-32278571D02*
X51650848Y-32278571D01*
X51838348Y-30778571D01*
X52552633Y-30778571D01*
X53865133Y-32278571D02*
X53454419Y-31564285D01*
X53007991Y-32278571D02*
X53195491Y-30778571D01*
X53766919Y-30778571D01*
X53900848Y-30850000D01*
X53963348Y-30921428D01*
X54016919Y-31064285D01*
X53990133Y-31278571D01*
X53900848Y-31421428D01*
X53820491Y-31492857D01*
X53668705Y-31564285D01*
X53097276Y-31564285D01*
D11*
X32066666Y-23647380D02*
X32066666Y-22647380D01*
X32066666Y-23123571D02*
X32638095Y-23123571D01*
X32638095Y-23647380D02*
X32638095Y-22647380D01*
X33066666Y-23361666D02*
X33542857Y-23361666D01*
X32971428Y-23647380D02*
X33304761Y-22647380D01*
X33638095Y-23647380D01*
X33971428Y-23647380D02*
X33971428Y-22647380D01*
X34352380Y-22647380D01*
X34447619Y-22695000D01*
X34495238Y-22742619D01*
X34542857Y-22837857D01*
X34542857Y-22980714D01*
X34495238Y-23075952D01*
X34447619Y-23123571D01*
X34352380Y-23171190D01*
X33971428Y-23171190D01*
X34828571Y-22647380D02*
X35400000Y-22647380D01*
X35114285Y-23647380D02*
X35114285Y-22647380D01*
X35733333Y-23647380D02*
X35733333Y-22647380D01*
X36780952Y-23552142D02*
X36733333Y-23599761D01*
X36590476Y-23647380D01*
X36495238Y-23647380D01*
X36352380Y-23599761D01*
X36257142Y-23504523D01*
X36209523Y-23409285D01*
X36161904Y-23218809D01*
X36161904Y-23075952D01*
X36209523Y-22885476D01*
X36257142Y-22790238D01*
X36352380Y-22695000D01*
X36495238Y-22647380D01*
X36590476Y-22647380D01*
X36733333Y-22695000D01*
X36780952Y-22742619D01*
X34709523Y-25257380D02*
X34233333Y-25257380D01*
X34233333Y-24257380D01*
X52466666Y-23447380D02*
X52466666Y-22447380D01*
X52466666Y-22923571D02*
X53038095Y-22923571D01*
X53038095Y-23447380D02*
X53038095Y-22447380D01*
X53466666Y-23161666D02*
X53942857Y-23161666D01*
X53371428Y-23447380D02*
X53704761Y-22447380D01*
X54038095Y-23447380D01*
X54371428Y-23447380D02*
X54371428Y-22447380D01*
X54752380Y-22447380D01*
X54847619Y-22495000D01*
X54895238Y-22542619D01*
X54942857Y-22637857D01*
X54942857Y-22780714D01*
X54895238Y-22875952D01*
X54847619Y-22923571D01*
X54752380Y-22971190D01*
X54371428Y-22971190D01*
X55228571Y-22447380D02*
X55800000Y-22447380D01*
X55514285Y-23447380D02*
X55514285Y-22447380D01*
X56133333Y-23447380D02*
X56133333Y-22447380D01*
X57180952Y-23352142D02*
X57133333Y-23399761D01*
X56990476Y-23447380D01*
X56895238Y-23447380D01*
X56752380Y-23399761D01*
X56657142Y-23304523D01*
X56609523Y-23209285D01*
X56561904Y-23018809D01*
X56561904Y-22875952D01*
X56609523Y-22685476D01*
X56657142Y-22590238D01*
X56752380Y-22495000D01*
X56895238Y-22447380D01*
X56990476Y-22447380D01*
X57133333Y-22495000D01*
X57180952Y-22542619D01*
X55109523Y-25057380D02*
X54776190Y-24581190D01*
X54538095Y-25057380D02*
X54538095Y-24057380D01*
X54919047Y-24057380D01*
X55014285Y-24105000D01*
X55061904Y-24152619D01*
X55109523Y-24247857D01*
X55109523Y-24390714D01*
X55061904Y-24485952D01*
X55014285Y-24533571D01*
X54919047Y-24581190D01*
X54538095Y-24581190D01*
X159728571Y-42652380D02*
X159395238Y-42176190D01*
X159157142Y-42652380D02*
X159157142Y-41652380D01*
X159538095Y-41652380D01*
X159633333Y-41700000D01*
X159680952Y-41747619D01*
X159728571Y-41842857D01*
X159728571Y-41985714D01*
X159680952Y-42080952D01*
X159633333Y-42128571D01*
X159538095Y-42176190D01*
X159157142Y-42176190D01*
X160157142Y-42128571D02*
X160490476Y-42128571D01*
X160633333Y-42652380D02*
X160157142Y-42652380D01*
X160157142Y-41652380D01*
X160633333Y-41652380D01*
X161014285Y-42604761D02*
X161157142Y-42652380D01*
X161395238Y-42652380D01*
X161490476Y-42604761D01*
X161538095Y-42557142D01*
X161585714Y-42461904D01*
X161585714Y-42366666D01*
X161538095Y-42271428D01*
X161490476Y-42223809D01*
X161395238Y-42176190D01*
X161204761Y-42128571D01*
X161109523Y-42080952D01*
X161061904Y-42033333D01*
X161014285Y-41938095D01*
X161014285Y-41842857D01*
X161061904Y-41747619D01*
X161109523Y-41700000D01*
X161204761Y-41652380D01*
X161442857Y-41652380D01*
X161585714Y-41700000D01*
X162585714Y-42557142D02*
X162538095Y-42604761D01*
X162395238Y-42652380D01*
X162300000Y-42652380D01*
X162157142Y-42604761D01*
X162061904Y-42509523D01*
X162014285Y-42414285D01*
X161966666Y-42223809D01*
X161966666Y-42080952D01*
X162014285Y-41890476D01*
X162061904Y-41795238D01*
X162157142Y-41700000D01*
X162300000Y-41652380D01*
X162395238Y-41652380D01*
X162538095Y-41700000D01*
X162585714Y-41747619D01*
X162966666Y-42366666D02*
X163442857Y-42366666D01*
X162871428Y-42652380D02*
X163204761Y-41652380D01*
X163538095Y-42652380D01*
X163871428Y-42652380D02*
X163871428Y-41652380D01*
X164442857Y-42652380D01*
X164442857Y-41652380D01*
X125652380Y-22661904D02*
X126461904Y-22661904D01*
X126557142Y-22614285D01*
X126604761Y-22566666D01*
X126652380Y-22471428D01*
X126652380Y-22280952D01*
X126604761Y-22185714D01*
X126557142Y-22138095D01*
X126461904Y-22090476D01*
X125652380Y-22090476D01*
X126604761Y-21661904D02*
X126652380Y-21519047D01*
X126652380Y-21280952D01*
X126604761Y-21185714D01*
X126557142Y-21138095D01*
X126461904Y-21090476D01*
X126366666Y-21090476D01*
X126271428Y-21138095D01*
X126223809Y-21185714D01*
X126176190Y-21280952D01*
X126128571Y-21471428D01*
X126080952Y-21566666D01*
X126033333Y-21614285D01*
X125938095Y-21661904D01*
X125842857Y-21661904D01*
X125747619Y-21614285D01*
X125700000Y-21566666D01*
X125652380Y-21471428D01*
X125652380Y-21233333D01*
X125700000Y-21090476D01*
X126128571Y-20328571D02*
X126176190Y-20185714D01*
X126223809Y-20138095D01*
X126319047Y-20090476D01*
X126461904Y-20090476D01*
X126557142Y-20138095D01*
X126604761Y-20185714D01*
X126652380Y-20280952D01*
X126652380Y-20661904D01*
X125652380Y-20661904D01*
X125652380Y-20328571D01*
X125700000Y-20233333D01*
X125747619Y-20185714D01*
X125842857Y-20138095D01*
X125938095Y-20138095D01*
X126033333Y-20185714D01*
X126080952Y-20233333D01*
X126128571Y-20328571D01*
X126128571Y-20661904D01*
X43838095Y-26500000D02*
X43742857Y-26452380D01*
X43600000Y-26452380D01*
X43457142Y-26500000D01*
X43361904Y-26595238D01*
X43314285Y-26690476D01*
X43266666Y-26880952D01*
X43266666Y-27023809D01*
X43314285Y-27214285D01*
X43361904Y-27309523D01*
X43457142Y-27404761D01*
X43600000Y-27452380D01*
X43695238Y-27452380D01*
X43838095Y-27404761D01*
X43885714Y-27357142D01*
X43885714Y-27023809D01*
X43695238Y-27023809D01*
X44314285Y-27452380D02*
X44314285Y-26452380D01*
X44885714Y-27452380D01*
X44885714Y-26452380D01*
X45361904Y-27452380D02*
X45361904Y-26452380D01*
X45600000Y-26452380D01*
X45742857Y-26500000D01*
X45838095Y-26595238D01*
X45885714Y-26690476D01*
X45933333Y-26880952D01*
X45933333Y-27023809D01*
X45885714Y-27214285D01*
X45838095Y-27309523D01*
X45742857Y-27404761D01*
X45600000Y-27452380D01*
X45361904Y-27452380D01*
X25509523Y-42128571D02*
X25652380Y-42176190D01*
X25700000Y-42223809D01*
X25747619Y-42319047D01*
X25747619Y-42461904D01*
X25700000Y-42557142D01*
X25652380Y-42604761D01*
X25557142Y-42652380D01*
X25176190Y-42652380D01*
X25176190Y-41652380D01*
X25509523Y-41652380D01*
X25604761Y-41700000D01*
X25652380Y-41747619D01*
X25700000Y-41842857D01*
X25700000Y-41938095D01*
X25652380Y-42033333D01*
X25604761Y-42080952D01*
X25509523Y-42128571D01*
X25176190Y-42128571D01*
X26366666Y-41652380D02*
X26557142Y-41652380D01*
X26652380Y-41700000D01*
X26747619Y-41795238D01*
X26795238Y-41985714D01*
X26795238Y-42319047D01*
X26747619Y-42509523D01*
X26652380Y-42604761D01*
X26557142Y-42652380D01*
X26366666Y-42652380D01*
X26271428Y-42604761D01*
X26176190Y-42509523D01*
X26128571Y-42319047D01*
X26128571Y-41985714D01*
X26176190Y-41795238D01*
X26271428Y-41700000D01*
X26366666Y-41652380D01*
X27414285Y-41652380D02*
X27604761Y-41652380D01*
X27700000Y-41700000D01*
X27795238Y-41795238D01*
X27842857Y-41985714D01*
X27842857Y-42319047D01*
X27795238Y-42509523D01*
X27700000Y-42604761D01*
X27604761Y-42652380D01*
X27414285Y-42652380D01*
X27319047Y-42604761D01*
X27223809Y-42509523D01*
X27176190Y-42319047D01*
X27176190Y-41985714D01*
X27223809Y-41795238D01*
X27319047Y-41700000D01*
X27414285Y-41652380D01*
X28128571Y-41652380D02*
X28700000Y-41652380D01*
X28414285Y-42652380D02*
X28414285Y-41652380D01*
X28985714Y-42604761D02*
X29128571Y-42652380D01*
X29366666Y-42652380D01*
X29461904Y-42604761D01*
X29509523Y-42557142D01*
X29557142Y-42461904D01*
X29557142Y-42366666D01*
X29509523Y-42271428D01*
X29461904Y-42223809D01*
X29366666Y-42176190D01*
X29176190Y-42128571D01*
X29080952Y-42080952D01*
X29033333Y-42033333D01*
X28985714Y-41938095D01*
X28985714Y-41842857D01*
X29033333Y-41747619D01*
X29080952Y-41700000D01*
X29176190Y-41652380D01*
X29414285Y-41652380D01*
X29557142Y-41700000D01*
X29985714Y-42128571D02*
X30319047Y-42128571D01*
X30461904Y-42652380D02*
X29985714Y-42652380D01*
X29985714Y-41652380D01*
X30461904Y-41652380D01*
X31366666Y-42652380D02*
X30890476Y-42652380D01*
X30890476Y-41652380D01*
X147747619Y-40652380D02*
X147414285Y-40176190D01*
X147176190Y-40652380D02*
X147176190Y-39652380D01*
X147557142Y-39652380D01*
X147652380Y-39700000D01*
X147700000Y-39747619D01*
X147747619Y-39842857D01*
X147747619Y-39985714D01*
X147700000Y-40080952D01*
X147652380Y-40128571D01*
X147557142Y-40176190D01*
X147176190Y-40176190D01*
X148176190Y-40128571D02*
X148509523Y-40128571D01*
X148652380Y-40652380D02*
X148176190Y-40652380D01*
X148176190Y-39652380D01*
X148652380Y-39652380D01*
X149033333Y-40604761D02*
X149176190Y-40652380D01*
X149414285Y-40652380D01*
X149509523Y-40604761D01*
X149557142Y-40557142D01*
X149604761Y-40461904D01*
X149604761Y-40366666D01*
X149557142Y-40271428D01*
X149509523Y-40223809D01*
X149414285Y-40176190D01*
X149223809Y-40128571D01*
X149128571Y-40080952D01*
X149080952Y-40033333D01*
X149033333Y-39938095D01*
X149033333Y-39842857D01*
X149080952Y-39747619D01*
X149128571Y-39700000D01*
X149223809Y-39652380D01*
X149461904Y-39652380D01*
X149604761Y-39700000D01*
X150033333Y-40128571D02*
X150366666Y-40128571D01*
X150509523Y-40652380D02*
X150033333Y-40652380D01*
X150033333Y-39652380D01*
X150509523Y-39652380D01*
X150795238Y-39652380D02*
X151366666Y-39652380D01*
X151080952Y-40652380D02*
X151080952Y-39652380D01*
X78080952Y-29752380D02*
X78271428Y-29752380D01*
X78366666Y-29800000D01*
X78461904Y-29895238D01*
X78509523Y-30085714D01*
X78509523Y-30419047D01*
X78461904Y-30609523D01*
X78366666Y-30704761D01*
X78271428Y-30752380D01*
X78080952Y-30752380D01*
X77985714Y-30704761D01*
X77890476Y-30609523D01*
X77842857Y-30419047D01*
X77842857Y-30085714D01*
X77890476Y-29895238D01*
X77985714Y-29800000D01*
X78080952Y-29752380D01*
X78938095Y-30752380D02*
X78938095Y-29752380D01*
X79509523Y-30752380D01*
X79509523Y-29752380D01*
X43178571Y-34678571D02*
X42678571Y-33964285D01*
X42321428Y-34678571D02*
X42321428Y-33178571D01*
X42892857Y-33178571D01*
X43035714Y-33250000D01*
X43107142Y-33321428D01*
X43178571Y-33464285D01*
X43178571Y-33678571D01*
X43107142Y-33821428D01*
X43035714Y-33892857D01*
X42892857Y-33964285D01*
X42321428Y-33964285D01*
X43821428Y-33892857D02*
X44321428Y-33892857D01*
X44535714Y-34678571D02*
X43821428Y-34678571D01*
X43821428Y-33178571D01*
X44535714Y-33178571D01*
X44964285Y-33178571D02*
X45464285Y-34678571D01*
X45964285Y-33178571D01*
X47535714Y-34250000D02*
X48250000Y-34250000D01*
X47392857Y-34678571D02*
X47892857Y-33178571D01*
X48392857Y-34678571D01*
X150642857Y-20304761D02*
X150785714Y-20352380D01*
X151023809Y-20352380D01*
X151119047Y-20304761D01*
X151166666Y-20257142D01*
X151214285Y-20161904D01*
X151214285Y-20066666D01*
X151166666Y-19971428D01*
X151119047Y-19923809D01*
X151023809Y-19876190D01*
X150833333Y-19828571D01*
X150738095Y-19780952D01*
X150690476Y-19733333D01*
X150642857Y-19638095D01*
X150642857Y-19542857D01*
X150690476Y-19447619D01*
X150738095Y-19400000D01*
X150833333Y-19352380D01*
X151071428Y-19352380D01*
X151214285Y-19400000D01*
X151547619Y-19352380D02*
X151785714Y-20352380D01*
X151976190Y-19638095D01*
X152166666Y-20352380D01*
X152404761Y-19352380D01*
X152785714Y-20352380D02*
X152785714Y-19352380D01*
X153023809Y-19352380D01*
X153166666Y-19400000D01*
X153261904Y-19495238D01*
X153309523Y-19590476D01*
X153357142Y-19780952D01*
X153357142Y-19923809D01*
X153309523Y-20114285D01*
X153261904Y-20209523D01*
X153166666Y-20304761D01*
X153023809Y-20352380D01*
X152785714Y-20352380D01*
D13*
%TO.C,D1*%
X82036428Y-27892380D02*
X82203095Y-27892380D01*
X81941190Y-27951904D02*
X82119761Y-28011428D01*
X82119761Y-27856666D01*
D14*
%TO.C,R16*%
X39280000Y-26853641D02*
X39280000Y-26546359D01*
X38520000Y-26853641D02*
X38520000Y-26546359D01*
%TO.C,R6*%
X149153641Y-28870000D02*
X148846359Y-28870000D01*
X149153641Y-29630000D02*
X148846359Y-29630000D01*
%TO.C,R14*%
X98220000Y-39653641D02*
X98220000Y-39346359D01*
X98980000Y-39653641D02*
X98980000Y-39346359D01*
%TO.C,C7*%
X98794913Y-24060863D02*
X98794913Y-23845191D01*
X99514913Y-24060863D02*
X99514913Y-23845191D01*
%TO.C,M6*%
X56750000Y-118250000D02*
X56750000Y-114750000D01*
X70250000Y-114750000D02*
X70250000Y-118250000D01*
X56750000Y-114750000D02*
X70250000Y-114750000D01*
X70250000Y-118250000D02*
X56750000Y-118250000D01*
X59100000Y-114750000D02*
X59100000Y-118250000D01*
%TO.C,C12*%
X89940000Y-39692164D02*
X89940000Y-39907836D01*
X90660000Y-39692164D02*
X90660000Y-39907836D01*
%TO.C,J5*%
X41430000Y-25030000D02*
X41370000Y-25030000D01*
X44030000Y-22370000D02*
X44030000Y-23700000D01*
X42700000Y-22370000D02*
X44030000Y-22370000D01*
X41370000Y-22370000D02*
X41370000Y-25030000D01*
X41430000Y-22370000D02*
X41430000Y-25030000D01*
X41430000Y-22370000D02*
X41370000Y-22370000D01*
%TO.C,C9*%
X100392164Y-27340000D02*
X100607836Y-27340000D01*
X100392164Y-28060000D02*
X100607836Y-28060000D01*
%TO.C,J4*%
X45230000Y-22370000D02*
X45170000Y-22370000D01*
X45170000Y-22370000D02*
X45170000Y-25030000D01*
X45230000Y-22370000D02*
X45230000Y-25030000D01*
X47830000Y-22370000D02*
X47830000Y-23700000D01*
X46500000Y-22370000D02*
X47830000Y-22370000D01*
X45230000Y-25030000D02*
X45170000Y-25030000D01*
%TO.C,R2*%
X84953641Y-28820000D02*
X84646359Y-28820000D01*
X84953641Y-29580000D02*
X84646359Y-29580000D01*
%TO.C,M18*%
X164750000Y-114750000D02*
X164750000Y-118250000D01*
X151250000Y-114750000D02*
X164750000Y-114750000D01*
X153600000Y-114750000D02*
X153600000Y-118250000D01*
X164750000Y-118250000D02*
X151250000Y-118250000D01*
X151250000Y-118250000D02*
X151250000Y-114750000D01*
%TO.C,R15*%
X63120000Y-21893641D02*
X63120000Y-21586359D01*
X63880000Y-21893641D02*
X63880000Y-21586359D01*
%TO.C,U2*%
X92040000Y-26690000D02*
X91390000Y-26690000D01*
X92040000Y-33910000D02*
X91390000Y-33910000D01*
X91390000Y-33910000D02*
X91390000Y-33260000D01*
X98610000Y-33910000D02*
X98610000Y-33260000D01*
X97960000Y-26690000D02*
X98610000Y-26690000D01*
X97960000Y-33910000D02*
X98610000Y-33910000D01*
X98610000Y-26690000D02*
X98610000Y-27340000D01*
%TO.C,M7*%
X56750000Y-146250000D02*
X70250000Y-146250000D01*
X70250000Y-146250000D02*
X70250000Y-149750000D01*
X56750000Y-149750000D02*
X56750000Y-146250000D01*
X70250000Y-149750000D02*
X56750000Y-149750000D01*
X59100000Y-146250000D02*
X59100000Y-149750000D01*
%TO.C,C2*%
X128586252Y-34985000D02*
X128063748Y-34985000D01*
X128586252Y-33515000D02*
X128063748Y-33515000D01*
%TO.C,R1*%
X84953641Y-28380000D02*
X84646359Y-28380000D01*
X84953641Y-27620000D02*
X84646359Y-27620000D01*
%TO.C,R7*%
X122130000Y-27596359D02*
X122130000Y-27903641D01*
X121370000Y-27596359D02*
X121370000Y-27903641D01*
%TO.C,C13*%
X100160000Y-39392164D02*
X100160000Y-39607836D01*
X99440000Y-39392164D02*
X99440000Y-39607836D01*
%TO.C,R11*%
X97380000Y-23596359D02*
X97380000Y-23903641D01*
X96620000Y-23596359D02*
X96620000Y-23903641D01*
%TO.C,M9*%
X101750000Y-83250000D02*
X101750000Y-86750000D01*
X90600000Y-83250000D02*
X90600000Y-86750000D01*
X88250000Y-86750000D02*
X88250000Y-83250000D01*
X88250000Y-83250000D02*
X101750000Y-83250000D01*
X101750000Y-86750000D02*
X88250000Y-86750000D01*
D10*
%TO.C,SW1*%
X164240000Y-41140000D02*
X159460000Y-41140000D01*
X164246843Y-41137095D02*
G75*
G03*
X159460000Y-41140000I-2396843J5637095D01*
G01*
D14*
%TO.C,C6*%
X98514913Y-24060863D02*
X98514913Y-23845191D01*
X97794913Y-24060863D02*
X97794913Y-23845191D01*
%TO.C,R4*%
X154880000Y-29596359D02*
X154880000Y-29903641D01*
X154120000Y-29596359D02*
X154120000Y-29903641D01*
%TO.C,M5*%
X59100000Y-83250000D02*
X59100000Y-86750000D01*
X56750000Y-86750000D02*
X56750000Y-83250000D01*
X70250000Y-83250000D02*
X70250000Y-86750000D01*
X56750000Y-83250000D02*
X70250000Y-83250000D01*
X70250000Y-86750000D02*
X56750000Y-86750000D01*
%TO.C,M0*%
X27600000Y-51750000D02*
X27600000Y-55250000D01*
X25250000Y-51750000D02*
X38750000Y-51750000D01*
X25250000Y-55250000D02*
X25250000Y-51750000D01*
X38750000Y-51750000D02*
X38750000Y-55250000D01*
X38750000Y-55250000D02*
X25250000Y-55250000D01*
%TO.C,M4*%
X56750000Y-51750000D02*
X70250000Y-51750000D01*
X70250000Y-55250000D02*
X56750000Y-55250000D01*
X59100000Y-51750000D02*
X59100000Y-55250000D01*
X70250000Y-51750000D02*
X70250000Y-55250000D01*
X56750000Y-55250000D02*
X56750000Y-51750000D01*
%TO.C,R3*%
X83153641Y-30120000D02*
X82846359Y-30120000D01*
X83153641Y-30880000D02*
X82846359Y-30880000D01*
%TO.C,C8*%
X100514913Y-24054605D02*
X100514913Y-23838933D01*
X99794913Y-24054605D02*
X99794913Y-23838933D01*
%TO.C,C16*%
X95072859Y-22149309D02*
X95072859Y-21933637D01*
X94352859Y-22149309D02*
X94352859Y-21933637D01*
%TO.C,C1*%
X128063748Y-32610000D02*
X128586252Y-32610000D01*
X128063748Y-31140000D02*
X128586252Y-31140000D01*
%TO.C,C15*%
X93352859Y-22149309D02*
X93352859Y-21933637D01*
X94072859Y-22149309D02*
X94072859Y-21933637D01*
%TO.C,M2*%
X27600000Y-114750000D02*
X27600000Y-118250000D01*
X25250000Y-118250000D02*
X25250000Y-114750000D01*
X38750000Y-118250000D02*
X25250000Y-118250000D01*
X25250000Y-114750000D02*
X38750000Y-114750000D01*
X38750000Y-114750000D02*
X38750000Y-118250000D01*
%TO.C,M17*%
X164750000Y-87000000D02*
X151250000Y-87000000D01*
X151250000Y-83500000D02*
X164750000Y-83500000D01*
X164750000Y-83500000D02*
X164750000Y-87000000D01*
X153600000Y-83500000D02*
X153600000Y-87000000D01*
X151250000Y-87000000D02*
X151250000Y-83500000D01*
%TO.C,M3*%
X25250000Y-146250000D02*
X38750000Y-146250000D01*
X38750000Y-146250000D02*
X38750000Y-149750000D01*
X38750000Y-149750000D02*
X25250000Y-149750000D01*
X27600000Y-146250000D02*
X27600000Y-149750000D01*
X25250000Y-149750000D02*
X25250000Y-146250000D01*
%TO.C,M16*%
X153600000Y-51750000D02*
X153600000Y-55250000D01*
X151250000Y-51750000D02*
X164750000Y-51750000D01*
X164750000Y-55250000D02*
X151250000Y-55250000D01*
X151250000Y-55250000D02*
X151250000Y-51750000D01*
X164750000Y-51750000D02*
X164750000Y-55250000D01*
%TO.C,R13*%
X62630000Y-21586359D02*
X62630000Y-21893641D01*
X61870000Y-21586359D02*
X61870000Y-21893641D01*
%TO.C,R9*%
X156580000Y-30596359D02*
X156580000Y-30903641D01*
X155820000Y-30596359D02*
X155820000Y-30903641D01*
%TO.C,R5*%
X153630000Y-29596359D02*
X153630000Y-29903641D01*
X152870000Y-29596359D02*
X152870000Y-29903641D01*
%TO.C,R17*%
X50680000Y-26853641D02*
X50680000Y-26546359D01*
X49920000Y-26853641D02*
X49920000Y-26546359D01*
%TO.C,J3*%
X37630000Y-22370000D02*
X37570000Y-22370000D01*
X37630000Y-22370000D02*
X37630000Y-25030000D01*
X37630000Y-25030000D02*
X37570000Y-25030000D01*
X40230000Y-22370000D02*
X40230000Y-23700000D01*
X37570000Y-22370000D02*
X37570000Y-25030000D01*
X38900000Y-22370000D02*
X40230000Y-22370000D01*
D15*
%TO.C,Y1*%
X100700000Y-45850000D02*
X89300000Y-45850000D01*
X100700000Y-41150000D02*
X89300000Y-41150000D01*
D14*
%TO.C,C4*%
X95240000Y-36592164D02*
X95240000Y-36807836D01*
X95960000Y-36592164D02*
X95960000Y-36807836D01*
%TO.C,M15*%
X133250000Y-146250000D02*
X133250000Y-149750000D01*
X119750000Y-149750000D02*
X119750000Y-146250000D01*
X133250000Y-149750000D02*
X119750000Y-149750000D01*
X122100000Y-146250000D02*
X122100000Y-149750000D01*
X119750000Y-146250000D02*
X133250000Y-146250000D01*
%TO.C,M12*%
X133250000Y-51750000D02*
X133250000Y-55250000D01*
X119750000Y-51750000D02*
X133250000Y-51750000D01*
X133250000Y-55250000D02*
X119750000Y-55250000D01*
X119750000Y-55250000D02*
X119750000Y-51750000D01*
X122100000Y-51750000D02*
X122100000Y-55250000D01*
%TO.C,R8*%
X118130000Y-27221359D02*
X118130000Y-27528641D01*
X117370000Y-27221359D02*
X117370000Y-27528641D01*
%TO.C,C17*%
X73990000Y-21807836D02*
X73990000Y-21592164D01*
X74710000Y-21807836D02*
X74710000Y-21592164D01*
%TO.C,C14*%
X89807836Y-27340000D02*
X89592164Y-27340000D01*
X89807836Y-28060000D02*
X89592164Y-28060000D01*
%TO.C,M10*%
X101750000Y-118250000D02*
X88250000Y-118250000D01*
X88250000Y-114750000D02*
X101750000Y-114750000D01*
X88250000Y-118250000D02*
X88250000Y-114750000D01*
X90600000Y-114750000D02*
X90600000Y-118250000D01*
X101750000Y-114750000D02*
X101750000Y-118250000D01*
%TO.C,R10*%
X95620000Y-23596359D02*
X95620000Y-23903641D01*
X96380000Y-23596359D02*
X96380000Y-23903641D01*
%TO.C,M14*%
X133250000Y-118250000D02*
X119750000Y-118250000D01*
X133250000Y-114750000D02*
X133250000Y-118250000D01*
X119750000Y-114750000D02*
X133250000Y-114750000D01*
X119750000Y-118250000D02*
X119750000Y-114750000D01*
X122100000Y-114750000D02*
X122100000Y-118250000D01*
%TO.C,M11*%
X101750000Y-146250000D02*
X101750000Y-149750000D01*
X88250000Y-146250000D02*
X101750000Y-146250000D01*
X90600000Y-146250000D02*
X90600000Y-149750000D01*
X101750000Y-149750000D02*
X88250000Y-149750000D01*
X88250000Y-149750000D02*
X88250000Y-146250000D01*
%TO.C,C3*%
X80707836Y-28710000D02*
X80492164Y-28710000D01*
X80707836Y-27990000D02*
X80492164Y-27990000D01*
%TO.C,M19*%
X164750000Y-149750000D02*
X151250000Y-149750000D01*
X164750000Y-146250000D02*
X164750000Y-149750000D01*
X151250000Y-149750000D02*
X151250000Y-146250000D01*
X151250000Y-146250000D02*
X164750000Y-146250000D01*
X153600000Y-146250000D02*
X153600000Y-149750000D01*
%TO.C,M8*%
X101750000Y-51750000D02*
X101750000Y-55250000D01*
X90600000Y-51750000D02*
X90600000Y-55250000D01*
X88250000Y-55250000D02*
X88250000Y-51750000D01*
X101750000Y-55250000D02*
X88250000Y-55250000D01*
X88250000Y-51750000D02*
X101750000Y-51750000D01*
%TO.C,J6*%
X49030000Y-22370000D02*
X49030000Y-25030000D01*
X51630000Y-22370000D02*
X51630000Y-23700000D01*
X49030000Y-25030000D02*
X48970000Y-25030000D01*
X48970000Y-22370000D02*
X48970000Y-25030000D01*
X50300000Y-22370000D02*
X51630000Y-22370000D01*
X49030000Y-22370000D02*
X48970000Y-22370000D01*
%TO.C,M13*%
X133250000Y-83250000D02*
X133250000Y-86750000D01*
X119750000Y-83250000D02*
X133250000Y-83250000D01*
X122100000Y-83250000D02*
X122100000Y-86750000D01*
X119750000Y-86750000D02*
X119750000Y-83250000D01*
X133250000Y-86750000D02*
X119750000Y-86750000D01*
%TO.C,U1*%
X123900000Y-30790000D02*
X120140000Y-30790000D01*
X126150000Y-37610000D02*
X120140000Y-37610000D01*
X120140000Y-37610000D02*
X120140000Y-36350000D01*
X120140000Y-30790000D02*
X120140000Y-32050000D01*
%TO.C,C5*%
X93072859Y-22149309D02*
X93072859Y-21933637D01*
X92352859Y-22149309D02*
X92352859Y-21933637D01*
%TO.C,U5*%
X72587743Y-40010000D02*
X70387743Y-40010000D01*
X72587743Y-34790000D02*
X68987743Y-34790000D01*
X72587743Y-40010000D02*
X74787743Y-40010000D01*
X72587743Y-34790000D02*
X74787743Y-34790000D01*
%TO.C,C10*%
X94140000Y-36592164D02*
X94140000Y-36807836D01*
X94860000Y-36592164D02*
X94860000Y-36807836D01*
%TO.C,U3*%
X66175000Y-21375000D02*
X66175000Y-21635000D01*
X66175000Y-26825000D02*
X66175000Y-26565000D01*
X68900000Y-26825000D02*
X71625000Y-26825000D01*
X71625000Y-26825000D02*
X71625000Y-26565000D01*
X66175000Y-21635000D02*
X64500000Y-21635000D01*
X71625000Y-21375000D02*
X71625000Y-21635000D01*
X68900000Y-21375000D02*
X71625000Y-21375000D01*
X68900000Y-26825000D02*
X66175000Y-26825000D01*
X68900000Y-21375000D02*
X66175000Y-21375000D01*
%TO.C,U4*%
X50000000Y-37390000D02*
X46400000Y-37390000D01*
X50000000Y-37390000D02*
X52200000Y-37390000D01*
X50000000Y-42610000D02*
X47800000Y-42610000D01*
X50000000Y-42610000D02*
X52200000Y-42610000D01*
D10*
%TO.C,SW2*%
X144240000Y-41140000D02*
X139460000Y-41140000D01*
X144246843Y-41137095D02*
G75*
G03*
X139460000Y-41140000I-2396843J5637095D01*
G01*
D14*
%TO.C,J1*%
X155235000Y-26065000D02*
X155170000Y-26065000D01*
X155235000Y-22535000D02*
X155235000Y-26065000D01*
X155235000Y-22535000D02*
X155170000Y-22535000D01*
X155170000Y-21210000D02*
X155170000Y-22535000D01*
X148830000Y-26065000D02*
X148765000Y-26065000D01*
X148765000Y-22535000D02*
X148765000Y-26065000D01*
X148830000Y-22535000D02*
X148765000Y-22535000D01*
%TO.C,R12*%
X134630000Y-36846359D02*
X134630000Y-37153641D01*
X133870000Y-36846359D02*
X133870000Y-37153641D01*
D10*
%TO.C,SW3*%
X30490000Y-41140000D02*
X25710000Y-41140000D01*
X30496843Y-41137095D02*
G75*
G03*
X25710000Y-41140000I-2396843J5637095D01*
G01*
D14*
%TO.C,C11*%
X87957836Y-31515000D02*
X87742164Y-31515000D01*
X87957836Y-32235000D02*
X87742164Y-32235000D01*
%TO.C,M1*%
X38750000Y-83250000D02*
X38750000Y-86750000D01*
X25250000Y-86750000D02*
X25250000Y-83250000D01*
X25250000Y-83250000D02*
X38750000Y-83250000D01*
X27600000Y-83250000D02*
X27600000Y-86750000D01*
X38750000Y-86750000D02*
X25250000Y-86750000D01*
%TD*%
M02*
