%TF.GenerationSoftware,KiCad,Pcbnew,(6.0.10)*%
%TF.CreationDate,2023-03-03T22:40:34-05:00*%
%TF.ProjectId,module_board,6d6f6475-6c65-45f6-926f-6172642e6b69,rev?*%
%TF.SameCoordinates,Original*%
%TF.FileFunction,Copper,L1,Top*%
%TF.FilePolarity,Positive*%
%FSLAX46Y46*%
G04 Gerber Fmt 4.6, Leading zero omitted, Abs format (unit mm)*
G04 Created by KiCad (PCBNEW (6.0.10)) date 2023-03-03 22:40:34*
%MOMM*%
%LPD*%
G01*
G04 APERTURE LIST*
G04 Aperture macros list*
%AMRoundRect*
0 Rectangle with rounded corners*
0 $1 Rounding radius*
0 $2 $3 $4 $5 $6 $7 $8 $9 X,Y pos of 4 corners*
0 Add a 4 corners polygon primitive as box body*
4,1,4,$2,$3,$4,$5,$6,$7,$8,$9,$2,$3,0*
0 Add four circle primitives for the rounded corners*
1,1,$1+$1,$2,$3*
1,1,$1+$1,$4,$5*
1,1,$1+$1,$6,$7*
1,1,$1+$1,$8,$9*
0 Add four rect primitives between the rounded corners*
20,1,$1+$1,$2,$3,$4,$5,0*
20,1,$1+$1,$4,$5,$6,$7,0*
20,1,$1+$1,$6,$7,$8,$9,0*
20,1,$1+$1,$8,$9,$2,$3,0*%
G04 Aperture macros list end*
%TA.AperFunction,SMDPad,CuDef*%
%ADD10RoundRect,0.140000X-0.170000X0.140000X-0.170000X-0.140000X0.170000X-0.140000X0.170000X0.140000X0*%
%TD*%
%TA.AperFunction,SMDPad,CuDef*%
%ADD11RoundRect,0.140000X0.170000X-0.140000X0.170000X0.140000X-0.170000X0.140000X-0.170000X-0.140000X0*%
%TD*%
%TA.AperFunction,ComponentPad*%
%ADD12R,1.700000X1.700000*%
%TD*%
%TA.AperFunction,ComponentPad*%
%ADD13O,1.700000X1.700000*%
%TD*%
%TA.AperFunction,SMDPad,CuDef*%
%ADD14RoundRect,0.140000X-0.140000X-0.170000X0.140000X-0.170000X0.140000X0.170000X-0.140000X0.170000X0*%
%TD*%
%TA.AperFunction,SMDPad,CuDef*%
%ADD15RoundRect,0.135000X0.185000X-0.135000X0.185000X0.135000X-0.185000X0.135000X-0.185000X-0.135000X0*%
%TD*%
%TA.AperFunction,SMDPad,CuDef*%
%ADD16R,0.320000X0.320000*%
%TD*%
%TA.AperFunction,SMDPad,CuDef*%
%ADD17RoundRect,0.135000X-0.185000X0.135000X-0.185000X-0.135000X0.185000X-0.135000X0.185000X0.135000X0*%
%TD*%
%TA.AperFunction,SMDPad,CuDef*%
%ADD18RoundRect,0.140000X0.140000X0.170000X-0.140000X0.170000X-0.140000X-0.170000X0.140000X-0.170000X0*%
%TD*%
%TA.AperFunction,SMDPad,CuDef*%
%ADD19RoundRect,0.135000X0.135000X0.185000X-0.135000X0.185000X-0.135000X-0.185000X0.135000X-0.185000X0*%
%TD*%
%TA.AperFunction,SMDPad,CuDef*%
%ADD20R,5.600000X2.100000*%
%TD*%
%TA.AperFunction,SMDPad,CuDef*%
%ADD21RoundRect,0.050000X-0.387500X-0.050000X0.387500X-0.050000X0.387500X0.050000X-0.387500X0.050000X0*%
%TD*%
%TA.AperFunction,SMDPad,CuDef*%
%ADD22RoundRect,0.050000X-0.050000X-0.387500X0.050000X-0.387500X0.050000X0.387500X-0.050000X0.387500X0*%
%TD*%
%TA.AperFunction,SMDPad,CuDef*%
%ADD23R,3.200000X3.200000*%
%TD*%
%TA.AperFunction,ComponentPad*%
%ADD24O,2.000000X1.200000*%
%TD*%
%TA.AperFunction,SMDPad,CuDef*%
%ADD25RoundRect,0.150000X-0.650000X-0.150000X0.650000X-0.150000X0.650000X0.150000X-0.650000X0.150000X0*%
%TD*%
%TA.AperFunction,ViaPad*%
%ADD26C,0.700000*%
%TD*%
%TA.AperFunction,Conductor*%
%ADD27C,0.200000*%
%TD*%
%TA.AperFunction,Conductor*%
%ADD28C,0.300000*%
%TD*%
%TA.AperFunction,Conductor*%
%ADD29C,0.127000*%
%TD*%
G04 APERTURE END LIST*
D10*
%TO.P,C9,1*%
%TO.N,GND*%
X155800000Y-96020000D03*
%TO.P,C9,2*%
%TO.N,Net-(C9-Pad2)*%
X155800000Y-96980000D03*
%TD*%
D11*
%TO.P,C4,1*%
%TO.N,+3V3*%
X166000000Y-83880000D03*
%TO.P,C4,2*%
%TO.N,GND*%
X166000000Y-82920000D03*
%TD*%
%TO.P,C5,1*%
%TO.N,+3V3*%
X163800000Y-83880000D03*
%TO.P,C5,2*%
%TO.N,GND*%
X163800000Y-82920000D03*
%TD*%
D12*
%TO.P,J10,1,Pin_1*%
%TO.N,+3V3*%
X171420000Y-78570000D03*
D13*
%TO.P,J10,2,Pin_2*%
%TO.N,/GPIO29_ADC3*%
X171420000Y-81110000D03*
%TD*%
D10*
%TO.P,C8,1*%
%TO.N,GND*%
X153200000Y-96020000D03*
%TO.P,C8,2*%
%TO.N,/XTAL_IN*%
X153200000Y-96980000D03*
%TD*%
D14*
%TO.P,C6,1*%
%TO.N,+3V3*%
X163920000Y-81800000D03*
%TO.P,C6,2*%
%TO.N,GND*%
X164880000Y-81800000D03*
%TD*%
D15*
%TO.P,R3,1*%
%TO.N,Net-(C9-Pad2)*%
X154500000Y-97010000D03*
%TO.P,R3,2*%
%TO.N,/XTAL_OUT*%
X154500000Y-95990000D03*
%TD*%
D11*
%TO.P,C14,1*%
%TO.N,+3V3*%
X163400000Y-78580000D03*
%TO.P,C14,2*%
%TO.N,GND*%
X163400000Y-77620000D03*
%TD*%
D16*
%TO.P,D1,1,B*%
%TO.N,/LB*%
X151930000Y-92930000D03*
%TO.P,D1,2,G*%
%TO.N,/LG*%
X151930000Y-92270000D03*
%TO.P,D1,3,R*%
%TO.N,/LR*%
X151270000Y-92270000D03*
%TO.P,D1,4,A*%
%TO.N,+3V3*%
X151270000Y-92930000D03*
%TD*%
D12*
%TO.P,J2,1,Pin_1*%
%TO.N,/SPI1_RX*%
X148560000Y-78570000D03*
D13*
%TO.P,J2,2,Pin_2*%
%TO.N,/SPI1_TX*%
X148560000Y-81110000D03*
%TO.P,J2,3,Pin_3*%
%TO.N,GND*%
X148560000Y-83650000D03*
%TO.P,J2,4,Pin_4*%
%TO.N,/GPIO28_ADC2*%
X148560000Y-86190000D03*
%TO.P,J2,5,Pin_5*%
%TO.N,/GPIO27_ADC1*%
X148560000Y-88730000D03*
%TO.P,J2,6,Pin_6*%
%TO.N,/GPIO26_ADC0*%
X148560000Y-91270000D03*
%TO.P,J2,7,Pin_7*%
%TO.N,/GPIO25*%
X148560000Y-93810000D03*
%TO.P,J2,8,Pin_8*%
%TO.N,+3V3*%
X148560000Y-96350000D03*
%TO.P,J2,9,Pin_9*%
%TO.N,/SPI1_CS_IO9*%
X148560000Y-98890000D03*
%TO.P,J2,10,Pin_10*%
%TO.N,/SPI1_SCK*%
X148560000Y-101430000D03*
%TD*%
D17*
%TO.P,R4,1*%
%TO.N,/LED_R*%
X151100000Y-89990000D03*
%TO.P,R4,2*%
%TO.N,/LR*%
X151100000Y-91010000D03*
%TD*%
D11*
%TO.P,C13,1*%
%TO.N,+3V3*%
X167100000Y-83880000D03*
%TO.P,C13,2*%
%TO.N,GND*%
X167100000Y-82920000D03*
%TD*%
D10*
%TO.P,C12,1*%
%TO.N,+3V3*%
X157100000Y-96020000D03*
%TO.P,C12,2*%
%TO.N,GND*%
X157100000Y-96980000D03*
%TD*%
D12*
%TO.P,J9,1,Pin_1*%
%TO.N,GND*%
X171420000Y-98880000D03*
D13*
%TO.P,J9,2,Pin_2*%
X171420000Y-101420000D03*
%TD*%
D10*
%TO.P,C3,1*%
%TO.N,GND*%
X164900000Y-82920000D03*
%TO.P,C3,2*%
%TO.N,+1V1*%
X164900000Y-83880000D03*
%TD*%
D18*
%TO.P,C10,1*%
%TO.N,+3V3*%
X156180000Y-89600000D03*
%TO.P,C10,2*%
%TO.N,GND*%
X155220000Y-89600000D03*
%TD*%
D19*
%TO.P,R6,1*%
%TO.N,/LED_B*%
X154710000Y-93200000D03*
%TO.P,R6,2*%
%TO.N,/LB*%
X153690000Y-93200000D03*
%TD*%
D14*
%TO.P,C11,1*%
%TO.N,+3V3*%
X167400000Y-90606250D03*
%TO.P,C11,2*%
%TO.N,GND*%
X168360000Y-90606250D03*
%TD*%
D20*
%TO.P,Y1,1,1*%
%TO.N,Net-(C9-Pad2)*%
X164400000Y-100550000D03*
%TO.P,Y1,2,2*%
%TO.N,/XTAL_IN*%
X154900000Y-100550000D03*
%TD*%
D10*
%TO.P,C2,1*%
%TO.N,+1V1*%
X158400000Y-96020000D03*
%TO.P,C2,2*%
%TO.N,GND*%
X158400000Y-96980000D03*
%TD*%
D17*
%TO.P,R2,1*%
%TO.N,/QSPI_NSS*%
X162200000Y-77590000D03*
%TO.P,R2,2*%
%TO.N,+3V3*%
X162200000Y-78610000D03*
%TD*%
D14*
%TO.P,C15,1*%
%TO.N,+3V3*%
X151020000Y-94500000D03*
%TO.P,C15,2*%
%TO.N,GND*%
X151980000Y-94500000D03*
%TD*%
D12*
%TO.P,J1,1,Pin_1*%
%TO.N,/RESET_N*%
X165925000Y-96100000D03*
D13*
%TO.P,J1,2,Pin_2*%
%TO.N,/SWDIO*%
X163385000Y-96100000D03*
%TO.P,J1,3,Pin_3*%
%TO.N,/SWCLK*%
X160845000Y-96100000D03*
%TD*%
D21*
%TO.P,U1,1,IOVDD*%
%TO.N,+3V3*%
X157562500Y-87012500D03*
%TO.P,U1,2,GPIO0*%
%TO.N,/GPIO0*%
X157562500Y-87412500D03*
%TO.P,U1,3,GPIO1*%
%TO.N,/GPIO1*%
X157562500Y-87812500D03*
%TO.P,U1,4,GPIO2*%
%TO.N,/LED_R*%
X157562500Y-88212500D03*
%TO.P,U1,5,GPIO3*%
%TO.N,/LED_G*%
X157562500Y-88612500D03*
%TO.P,U1,6,GPIO4*%
%TO.N,/GPIO4*%
X157562500Y-89012500D03*
%TO.P,U1,7,GPIO5*%
%TO.N,/GPIO5*%
X157562500Y-89412500D03*
%TO.P,U1,8,GPIO6*%
%TO.N,/GPIO6*%
X157562500Y-89812500D03*
%TO.P,U1,9,GPIO7*%
%TO.N,/GPIO7*%
X157562500Y-90212500D03*
%TO.P,U1,10,IOVDD*%
%TO.N,+3V3*%
X157562500Y-90612500D03*
%TO.P,U1,11,GPIO8*%
%TO.N,/SPI1_RX*%
X157562500Y-91012500D03*
%TO.P,U1,12,GPIO9*%
%TO.N,/SPI1_CS_IO9*%
X157562500Y-91412500D03*
%TO.P,U1,13,GPIO10*%
%TO.N,/SPI1_SCK*%
X157562500Y-91812500D03*
%TO.P,U1,14,GPIO11*%
%TO.N,/SPI1_TX*%
X157562500Y-92212500D03*
D22*
%TO.P,U1,15,GPIO12*%
%TO.N,/LED_B*%
X158400000Y-93050000D03*
%TO.P,U1,16,GPIO13*%
%TO.N,/GPIO13*%
X158800000Y-93050000D03*
%TO.P,U1,17,GPIO14*%
%TO.N,/GPIO14*%
X159200000Y-93050000D03*
%TO.P,U1,18,GPIO15*%
%TO.N,/GPIO15*%
X159600000Y-93050000D03*
%TO.P,U1,19,TESTEN*%
%TO.N,GND*%
X160000000Y-93050000D03*
%TO.P,U1,20,XIN*%
%TO.N,/XTAL_IN*%
X160400000Y-93050000D03*
%TO.P,U1,21,XOUT*%
%TO.N,/XTAL_OUT*%
X160800000Y-93050000D03*
%TO.P,U1,22,IOVDD*%
%TO.N,+3V3*%
X161200000Y-93050000D03*
%TO.P,U1,23,DVDD*%
%TO.N,+1V1*%
X161600000Y-93050000D03*
%TO.P,U1,24,SWCLK*%
%TO.N,/SWCLK*%
X162000000Y-93050000D03*
%TO.P,U1,25,SWD*%
%TO.N,/SWDIO*%
X162400000Y-93050000D03*
%TO.P,U1,26,RUN*%
%TO.N,/RESET_N*%
X162800000Y-93050000D03*
%TO.P,U1,27,GPIO16*%
%TO.N,/RX*%
X163200000Y-93050000D03*
%TO.P,U1,28,GPIO17*%
%TO.N,/CS*%
X163600000Y-93050000D03*
D21*
%TO.P,U1,29,GPIO18*%
%TO.N,/SCLK*%
X164437500Y-92212500D03*
%TO.P,U1,30,GPIO19*%
%TO.N,/TX*%
X164437500Y-91812500D03*
%TO.P,U1,31,GPIO20*%
%TO.N,/GPIO20*%
X164437500Y-91412500D03*
%TO.P,U1,32,GPIO21*%
%TO.N,/GPIO21*%
X164437500Y-91012500D03*
%TO.P,U1,33,IOVDD*%
%TO.N,+3V3*%
X164437500Y-90612500D03*
%TO.P,U1,34,GPIO22*%
%TO.N,/GPIO22*%
X164437500Y-90212500D03*
%TO.P,U1,35,GPIO23*%
%TO.N,/GPIO23*%
X164437500Y-89812500D03*
%TO.P,U1,36,GPIO24*%
%TO.N,/GPIO24*%
X164437500Y-89412500D03*
%TO.P,U1,37,GPIO25*%
%TO.N,/GPIO25*%
X164437500Y-89012500D03*
%TO.P,U1,38,GPIO26_ADC0*%
%TO.N,/GPIO26_ADC0*%
X164437500Y-88612500D03*
%TO.P,U1,39,GPIO27_ADC1*%
%TO.N,/GPIO27_ADC1*%
X164437500Y-88212500D03*
%TO.P,U1,40,GPIO28_ADC2*%
%TO.N,/GPIO28_ADC2*%
X164437500Y-87812500D03*
%TO.P,U1,41,GPIO29_ADC3*%
%TO.N,/GPIO29_ADC3*%
X164437500Y-87412500D03*
%TO.P,U1,42,IOVDD*%
%TO.N,+3V3*%
X164437500Y-87012500D03*
D22*
%TO.P,U1,43,ADC_AVDD*%
X163600000Y-86175000D03*
%TO.P,U1,44,VREG_IN*%
X163200000Y-86175000D03*
%TO.P,U1,45,VREG_VOUT*%
%TO.N,+1V1*%
X162800000Y-86175000D03*
%TO.P,U1,46,USB_DM*%
%TO.N,unconnected-(U1-Pad46)*%
X162400000Y-86175000D03*
%TO.P,U1,47,USB_DP*%
%TO.N,unconnected-(U1-Pad47)*%
X162000000Y-86175000D03*
%TO.P,U1,48,USB_VDD*%
%TO.N,+3V3*%
X161600000Y-86175000D03*
%TO.P,U1,49,IOVDD*%
X161200000Y-86175000D03*
%TO.P,U1,50,DVDD*%
%TO.N,+1V1*%
X160800000Y-86175000D03*
%TO.P,U1,51,QSPI_SD3*%
%TO.N,/QSPI_SD3*%
X160400000Y-86175000D03*
%TO.P,U1,52,QSPI_SCLK*%
%TO.N,/QSPI_SCLK*%
X160000000Y-86175000D03*
%TO.P,U1,53,QSPI_SD0*%
%TO.N,/QSPI_SD0*%
X159600000Y-86175000D03*
%TO.P,U1,54,QSPI_SD2*%
%TO.N,/QSPI_SD2*%
X159200000Y-86175000D03*
%TO.P,U1,55,QSPI_SD1*%
%TO.N,/QSPI_SD1*%
X158800000Y-86175000D03*
%TO.P,U1,56,QSPI_SS*%
%TO.N,/QSPI_NSS*%
X158400000Y-86175000D03*
D23*
%TO.P,U1,57,GND*%
%TO.N,GND*%
X161000000Y-89612500D03*
%TD*%
D24*
%TO.P,J5,1,Pin_1*%
%TO.N,+3V3*%
X171000000Y-84500000D03*
%TO.P,J5,2,Pin_2*%
%TO.N,GND*%
X171000000Y-86700000D03*
%TO.P,J5,3,Pin_3*%
%TO.N,/TX*%
X171000000Y-88900000D03*
%TO.P,J5,4,Pin_4*%
%TO.N,/SCLK*%
X171000000Y-91100000D03*
%TO.P,J5,5,Pin_5*%
%TO.N,/CS*%
X171000000Y-93300000D03*
%TO.P,J5,6,Pin_6*%
%TO.N,/RX*%
X171000000Y-95500000D03*
%TD*%
D14*
%TO.P,C1,1*%
%TO.N,+1V1*%
X160220000Y-84100000D03*
%TO.P,C1,2*%
%TO.N,GND*%
X161180000Y-84100000D03*
%TD*%
D25*
%TO.P,U2,1,~{CS}*%
%TO.N,/QSPI_NSS*%
X153200000Y-78595000D03*
%TO.P,U2,2,DO(IO1)*%
%TO.N,/QSPI_SD1*%
X153200000Y-79865000D03*
%TO.P,U2,3,IO2*%
%TO.N,/QSPI_SD2*%
X153200000Y-81135000D03*
%TO.P,U2,4,GND*%
%TO.N,GND*%
X153200000Y-82405000D03*
%TO.P,U2,5,DI(IO0)*%
%TO.N,/QSPI_SD0*%
X160400000Y-82405000D03*
%TO.P,U2,6,CLK*%
%TO.N,/QSPI_SCLK*%
X160400000Y-81135000D03*
%TO.P,U2,7,IO3*%
%TO.N,/QSPI_SD3*%
X160400000Y-79865000D03*
%TO.P,U2,8,VCC*%
%TO.N,+3V3*%
X160400000Y-78595000D03*
%TD*%
D17*
%TO.P,R5,1*%
%TO.N,/LED_G*%
X152300000Y-89990000D03*
%TO.P,R5,2*%
%TO.N,/LG*%
X152300000Y-91010000D03*
%TD*%
D18*
%TO.P,C7,1*%
%TO.N,+3V3*%
X156180000Y-87050000D03*
%TO.P,C7,2*%
%TO.N,GND*%
X155220000Y-87050000D03*
%TD*%
D26*
%TO.N,+3V3*%
X161800000Y-87300000D03*
X164600000Y-78600000D03*
X159000000Y-87300000D03*
X168500000Y-82800000D03*
X167401825Y-88899544D03*
X151350000Y-96350000D03*
X160699500Y-91900000D03*
%TO.N,GND*%
X169000000Y-87100000D03*
X173800000Y-86100000D03*
X157700000Y-97600000D03*
X151900000Y-97500000D03*
X168800000Y-89500000D03*
X172900000Y-86100000D03*
X155200000Y-86200000D03*
X158890000Y-91090000D03*
X166000000Y-81700000D03*
X164280000Y-76750000D03*
X167000000Y-81700000D03*
X155400000Y-90436000D03*
X173800000Y-87100000D03*
X169000000Y-86100000D03*
X154387352Y-94687352D03*
X162200000Y-83900000D03*
X172900000Y-87100000D03*
X155100000Y-82400000D03*
X155900000Y-95000000D03*
%TO.N,+1V1*%
X160400000Y-87300000D03*
X162800000Y-87300000D03*
%TO.N,/SPI1_CS_IO9*%
X154124876Y-91496916D03*
%TO.N,/SPI1_SCK*%
X155456086Y-91989000D03*
%TO.N,/SPI1_RX*%
X152656997Y-85543003D03*
%TO.N,/SPI1_TX*%
X151742352Y-85257648D03*
%TO.N,/GPIO25*%
X165900000Y-89800000D03*
%TO.N,/GPIO26_ADC0*%
X166600000Y-89100000D03*
%TO.N,/GPIO27_ADC1*%
X166600000Y-88200000D03*
%TO.N,/GPIO28_ADC2*%
X166773500Y-87391914D03*
%TO.N,/GPIO29_ADC3*%
X166700000Y-86000000D03*
%TO.N,/LED_R*%
X154500000Y-88500000D03*
X151300000Y-88500000D03*
%TO.N,/LED_G*%
X155800000Y-88403500D03*
X152400000Y-88900000D03*
%TD*%
D27*
%TO.N,+3V3*%
X161200000Y-92400500D02*
X161200000Y-93050000D01*
X157991737Y-90612500D02*
X159000000Y-89604237D01*
X161200000Y-86175000D02*
X161200000Y-85200000D01*
X161600000Y-86175000D02*
X161600000Y-85400000D01*
X162600000Y-85200000D02*
X163200000Y-84600000D01*
D28*
X162210000Y-78600000D02*
X162200000Y-78610000D01*
D29*
X150600000Y-92900000D02*
X150600000Y-94080000D01*
D27*
X163200000Y-86175000D02*
X163200000Y-85642448D01*
X162300000Y-84800000D02*
X163100000Y-84000000D01*
X161600000Y-87100000D02*
X161800000Y-87300000D01*
X157562500Y-90612500D02*
X157991737Y-90612500D01*
D28*
X164600000Y-78600000D02*
X162210000Y-78600000D01*
D27*
X156217500Y-87012500D02*
X156180000Y-87050000D01*
X166400000Y-85200000D02*
X167400000Y-85200000D01*
D29*
X150600000Y-94080000D02*
X151020000Y-94500000D01*
D27*
X162200000Y-78610000D02*
X163370000Y-78610000D01*
D28*
X169630000Y-78570000D02*
X171420000Y-78570000D01*
X167400000Y-85600000D02*
X167400000Y-86300000D01*
D27*
X164587500Y-87012500D02*
X165425000Y-86175000D01*
X158212500Y-87012500D02*
X158500000Y-87300000D01*
X156180000Y-90480000D02*
X156312500Y-90612500D01*
X157366000Y-94554000D02*
X160577372Y-94554000D01*
X163200000Y-86175000D02*
X163600000Y-86175000D01*
D28*
X168500000Y-82800000D02*
X168500000Y-83900000D01*
D27*
X156312500Y-90612500D02*
X157562500Y-90612500D01*
X161600000Y-86175000D02*
X161600000Y-87100000D01*
X165200000Y-85300000D02*
X166000000Y-84500000D01*
X151350000Y-96350000D02*
X151350000Y-94830000D01*
X166350000Y-85250000D02*
X167100000Y-84500000D01*
X164437500Y-90612500D02*
X167393750Y-90612500D01*
X163600000Y-86175000D02*
X165425000Y-86175000D01*
X157562500Y-87012500D02*
X158212500Y-87012500D01*
D28*
X168500000Y-83900000D02*
X169100000Y-84500000D01*
X167400000Y-86300000D02*
X167400000Y-86993750D01*
D27*
X160699500Y-91900000D02*
X161200000Y-92400500D01*
X151350000Y-94830000D02*
X151020000Y-94500000D01*
X163100000Y-81000000D02*
X164600000Y-79500000D01*
X157562500Y-87012500D02*
X156217500Y-87012500D01*
X159000000Y-89604237D02*
X159000000Y-87300000D01*
X163200000Y-85642448D02*
X163542448Y-85300000D01*
X163600000Y-84600000D02*
X163800000Y-84400000D01*
X160577372Y-94554000D02*
X161200000Y-93931372D01*
X163300000Y-81800000D02*
X163920000Y-81800000D01*
X163370000Y-78610000D02*
X163400000Y-78580000D01*
D28*
X169100000Y-84500000D02*
X170000000Y-84500000D01*
D27*
X157000000Y-94920000D02*
X157366000Y-94554000D01*
X165425000Y-86175000D02*
X166350000Y-85250000D01*
X163100000Y-82200000D02*
X163100000Y-82000000D01*
X163100000Y-82200000D02*
X163100000Y-81000000D01*
X161200000Y-85200000D02*
X161600000Y-84800000D01*
X163100000Y-82000000D02*
X163300000Y-81800000D01*
D28*
X171000000Y-84500000D02*
X170000000Y-84500000D01*
D27*
X166350000Y-85250000D02*
X166400000Y-85200000D01*
D28*
X170000000Y-84500000D02*
X168100000Y-84500000D01*
D27*
X161200000Y-93931372D02*
X161200000Y-93050000D01*
D29*
X151270000Y-92930000D02*
X151240000Y-92900000D01*
D27*
X164600000Y-79500000D02*
X164600000Y-78600000D01*
X163542448Y-85300000D02*
X165200000Y-85300000D01*
D28*
X169100000Y-79100000D02*
X169630000Y-78570000D01*
D27*
X161800000Y-85200000D02*
X162600000Y-85200000D01*
X161800000Y-87300000D02*
X161200000Y-86700000D01*
X164437500Y-87012500D02*
X164587500Y-87012500D01*
X167100000Y-84500000D02*
X167100000Y-83880000D01*
X166000000Y-84500000D02*
X166000000Y-83880000D01*
X161600000Y-84800000D02*
X162300000Y-84800000D01*
D29*
X151240000Y-92900000D02*
X150600000Y-92900000D01*
D27*
X151350000Y-96350000D02*
X148560000Y-96350000D01*
X156180000Y-89600000D02*
X156180000Y-90480000D01*
D28*
X169100000Y-84500000D02*
X169100000Y-79100000D01*
D27*
X157000000Y-96020000D02*
X157000000Y-94920000D01*
X158500000Y-87300000D02*
X159000000Y-87300000D01*
D28*
X167400000Y-90606250D02*
X167400000Y-86993750D01*
D27*
X161600000Y-85400000D02*
X161800000Y-85200000D01*
X163200000Y-84600000D02*
X163600000Y-84600000D01*
D28*
X168100000Y-84500000D02*
X167400000Y-85200000D01*
D27*
X163800000Y-84400000D02*
X163800000Y-83880000D01*
D28*
X160400000Y-78595000D02*
X162185000Y-78595000D01*
D27*
X161200000Y-86700000D02*
X161200000Y-86175000D01*
D28*
X167400000Y-85200000D02*
X167400000Y-85600000D01*
X162185000Y-78595000D02*
X162200000Y-78610000D01*
D27*
X163100000Y-84000000D02*
X163100000Y-82200000D01*
D29*
%TO.N,/LB*%
X153420000Y-92930000D02*
X151930000Y-92930000D01*
X153690000Y-93200000D02*
X153420000Y-92930000D01*
%TO.N,/LG*%
X151930000Y-91380000D02*
X151930000Y-92270000D01*
X152300000Y-91010000D02*
X151930000Y-91380000D01*
%TO.N,/LR*%
X151100000Y-91010000D02*
X151270000Y-91180000D01*
X151270000Y-91180000D02*
X151270000Y-92270000D01*
D28*
%TO.N,GND*%
X154387352Y-94687352D02*
X153200000Y-95874704D01*
X168360000Y-90606250D02*
X168360000Y-89940000D01*
D27*
X154336000Y-90436000D02*
X153923000Y-90023000D01*
X161180000Y-84100000D02*
X162000000Y-84100000D01*
D28*
X155095000Y-82405000D02*
X155100000Y-82400000D01*
X155220000Y-87050000D02*
X155220000Y-86220000D01*
D29*
X151980000Y-94500000D02*
X151900000Y-94580000D01*
D27*
X160000000Y-90612500D02*
X160406250Y-90206250D01*
D28*
X153200000Y-95874704D02*
X153200000Y-96020000D01*
D27*
X153923000Y-90023000D02*
X153923000Y-87477000D01*
X155400000Y-90436000D02*
X155220000Y-90256000D01*
X155400000Y-90436000D02*
X154336000Y-90436000D01*
D28*
X163410000Y-77620000D02*
X163400000Y-77620000D01*
D27*
X160406250Y-90206250D02*
X161000000Y-89612500D01*
X160000000Y-93050000D02*
X160000000Y-90612500D01*
X155220000Y-90256000D02*
X155220000Y-89600000D01*
D28*
X155800000Y-96020000D02*
X155800000Y-95100000D01*
X164280000Y-76750000D02*
X163410000Y-77620000D01*
D27*
X162000000Y-84100000D02*
X162200000Y-83900000D01*
D28*
X168360000Y-89940000D02*
X168800000Y-89500000D01*
D29*
X151900000Y-94580000D02*
X151900000Y-97500000D01*
D28*
X153200000Y-82405000D02*
X155095000Y-82405000D01*
X155220000Y-86220000D02*
X155200000Y-86200000D01*
D27*
X153923000Y-87477000D02*
X155200000Y-86200000D01*
D28*
X155800000Y-95100000D02*
X155900000Y-95000000D01*
D27*
%TO.N,/XTAL_IN*%
X160160000Y-93900000D02*
X160400000Y-93660000D01*
X152680000Y-96980000D02*
X152400000Y-96700000D01*
X160400000Y-93660000D02*
X160400000Y-93050000D01*
X152400000Y-96700000D02*
X152400000Y-95300000D01*
X152400000Y-95300000D02*
X153800000Y-93900000D01*
D28*
X154900000Y-99400000D02*
X154900000Y-100550000D01*
X153200000Y-96980000D02*
X153200000Y-97700000D01*
D27*
X153200000Y-96980000D02*
X152680000Y-96980000D01*
D28*
X153200000Y-97700000D02*
X154900000Y-99400000D01*
D27*
X153800000Y-93900000D02*
X160160000Y-93900000D01*
%TO.N,/XTAL_OUT*%
X160800000Y-93050000D02*
X160800000Y-93722448D01*
X155663000Y-94227000D02*
X154500000Y-95390000D01*
X160800000Y-93722448D02*
X160295448Y-94227000D01*
X154500000Y-95390000D02*
X154500000Y-95990000D01*
X160295448Y-94227000D02*
X155663000Y-94227000D01*
%TO.N,+1V1*%
X163400000Y-87900000D02*
X162800000Y-87300000D01*
X162800000Y-86175000D02*
X162800000Y-85580000D01*
X163400000Y-91400000D02*
X163400000Y-87900000D01*
X164400000Y-84973000D02*
X164900000Y-84473000D01*
X158400000Y-95300000D02*
X158400000Y-96020000D01*
X160800000Y-86175000D02*
X160800000Y-85300000D01*
X161600000Y-93993820D02*
X160712820Y-94881000D01*
X163407000Y-84973000D02*
X164400000Y-84973000D01*
X160800000Y-86175000D02*
X160800000Y-86900000D01*
X162800000Y-87300000D02*
X162800000Y-86175000D01*
X161600000Y-93050000D02*
X161600000Y-93993820D01*
X162540763Y-91680000D02*
X163120000Y-91680000D01*
X161600000Y-93050000D02*
X161600000Y-92620763D01*
X160800000Y-85300000D02*
X160220000Y-84720000D01*
X163120000Y-91680000D02*
X163400000Y-91400000D01*
X162800000Y-85580000D02*
X163407000Y-84973000D01*
X164900000Y-84473000D02*
X164900000Y-83880000D01*
X160220000Y-84720000D02*
X160220000Y-84100000D01*
X160800000Y-86900000D02*
X160400000Y-87300000D01*
X161600000Y-92620763D02*
X162540763Y-91680000D01*
X158819000Y-94881000D02*
X158400000Y-95300000D01*
X160712820Y-94881000D02*
X158819000Y-94881000D01*
%TO.N,/SWCLK*%
X162000000Y-94945000D02*
X160845000Y-96100000D01*
X162000000Y-93050000D02*
X162000000Y-94945000D01*
%TO.N,/SWDIO*%
X163360000Y-94822448D02*
X163360000Y-96000000D01*
X162400000Y-93050000D02*
X162400000Y-93862448D01*
X162400000Y-93862448D02*
X163360000Y-94822448D01*
%TO.N,/RESET_N*%
X164300000Y-94400000D02*
X165900000Y-96000000D01*
X162800000Y-93690000D02*
X163510000Y-94400000D01*
X162800000Y-93050000D02*
X162800000Y-93690000D01*
X163510000Y-94400000D02*
X164300000Y-94400000D01*
%TO.N,/SPI1_CS_IO9*%
X154124876Y-91496916D02*
X154209292Y-91412500D01*
X154209292Y-91412500D02*
X157562500Y-91412500D01*
%TO.N,/SPI1_SCK*%
X155537500Y-91812500D02*
X157562500Y-91812500D01*
X155456086Y-91989000D02*
X155456086Y-91893914D01*
X155456086Y-91893914D02*
X155537500Y-91812500D01*
%TO.N,/SPI1_RX*%
X153527000Y-90089448D02*
X154450052Y-91012500D01*
X153527000Y-88078546D02*
X153527000Y-90089448D01*
X152656997Y-87208543D02*
X153527000Y-88078546D01*
X152656997Y-85543003D02*
X152656997Y-87208543D01*
X154450052Y-91012500D02*
X157562500Y-91012500D01*
%TO.N,/SPI1_TX*%
X157000000Y-92200000D02*
X157550000Y-92200000D01*
X153200000Y-91730000D02*
X154070000Y-92600000D01*
X154070000Y-92600000D02*
X156600000Y-92600000D01*
X152329997Y-87343991D02*
X153200000Y-88213994D01*
X152329997Y-86032005D02*
X152329997Y-87343991D01*
X157550000Y-92200000D02*
X157562500Y-92212500D01*
X153200000Y-88213994D02*
X153200000Y-91730000D01*
X151742352Y-85257648D02*
X151742352Y-85444360D01*
X151742352Y-85444360D02*
X152329997Y-86032005D01*
X156600000Y-92600000D02*
X157000000Y-92200000D01*
%TO.N,/GPIO25*%
X165512500Y-89012500D02*
X165900000Y-89400000D01*
X165900000Y-89400000D02*
X165900000Y-89800000D01*
X164437500Y-89012500D02*
X165512500Y-89012500D01*
%TO.N,/GPIO26_ADC0*%
X166112500Y-88612500D02*
X164437500Y-88612500D01*
X166600000Y-89100000D02*
X166112500Y-88612500D01*
%TO.N,/GPIO27_ADC1*%
X166600000Y-88200000D02*
X166587500Y-88212500D01*
X166587500Y-88212500D02*
X164437500Y-88212500D01*
%TO.N,/GPIO28_ADC2*%
X166171498Y-87812500D02*
X164437500Y-87812500D01*
X166773500Y-87391914D02*
X166592084Y-87391914D01*
X166592084Y-87391914D02*
X166171498Y-87812500D01*
%TO.N,/GPIO29_ADC3*%
X165287500Y-87412500D02*
X166700000Y-86000000D01*
X164437500Y-87412500D02*
X165287500Y-87412500D01*
%TO.N,/QSPI_SD3*%
X160400000Y-86175000D02*
X160400000Y-85412656D01*
X159027000Y-84039656D02*
X159027000Y-83573000D01*
X160400000Y-85412656D02*
X159027000Y-84039656D01*
X159273000Y-83327000D02*
X161918552Y-83327000D01*
X161365000Y-79865000D02*
X160400000Y-79865000D01*
X161918552Y-83327000D02*
X161927000Y-83318552D01*
X161927000Y-80427000D02*
X161365000Y-79865000D01*
X161927000Y-83318552D02*
X161927000Y-80427000D01*
X159027000Y-83573000D02*
X159273000Y-83327000D01*
%TO.N,/QSPI_SCLK*%
X160000000Y-85475104D02*
X158700000Y-84175104D01*
X161600000Y-83000000D02*
X161600000Y-81400000D01*
X161335000Y-81135000D02*
X160400000Y-81135000D01*
X159100000Y-83000000D02*
X161600000Y-83000000D01*
X158700000Y-83400000D02*
X159100000Y-83000000D01*
X160000000Y-86175000D02*
X160000000Y-85475104D01*
X161600000Y-81400000D02*
X161335000Y-81135000D01*
X158700000Y-84175104D02*
X158700000Y-83400000D01*
%TO.N,/QSPI_SD0*%
X159232552Y-82405000D02*
X160400000Y-82405000D01*
X159600000Y-86175000D02*
X159600000Y-85537552D01*
X158373000Y-84310552D02*
X158373000Y-83264552D01*
X159600000Y-85537552D02*
X158373000Y-84310552D01*
X158373000Y-83264552D02*
X159232552Y-82405000D01*
%TO.N,/QSPI_SD2*%
X159200000Y-86175000D02*
X159200000Y-85600000D01*
X158046000Y-82746000D02*
X156435000Y-81135000D01*
X159200000Y-85600000D02*
X158046000Y-84446000D01*
X156435000Y-81135000D02*
X153200000Y-81135000D01*
X158046000Y-84446000D02*
X158046000Y-82746000D01*
%TO.N,/QSPI_SD1*%
X151900000Y-80400000D02*
X151900000Y-83200000D01*
X152435000Y-79865000D02*
X151900000Y-80400000D01*
X158800000Y-85700000D02*
X158800000Y-86175000D01*
X153400000Y-84700000D02*
X157800000Y-84700000D01*
X157800000Y-84700000D02*
X158800000Y-85700000D01*
X153200000Y-79865000D02*
X152435000Y-79865000D01*
X151900000Y-83200000D02*
X153400000Y-84700000D01*
D28*
%TO.N,/QSPI_NSS*%
X153200000Y-78595000D02*
X152595000Y-78595000D01*
X162110000Y-77500000D02*
X154295000Y-77500000D01*
X162200000Y-77590000D02*
X162110000Y-77500000D01*
X153200000Y-85200000D02*
X151400000Y-83400000D01*
X157425000Y-85200000D02*
X153200000Y-85200000D01*
X158325000Y-86100000D02*
X157425000Y-85200000D01*
X154295000Y-77500000D02*
X153200000Y-78595000D01*
X151400000Y-80000000D02*
X152805000Y-78595000D01*
X151400000Y-83400000D02*
X151400000Y-80000000D01*
X152805000Y-78595000D02*
X153200000Y-78595000D01*
%TO.N,Net-(C9-Pad2)*%
X164400000Y-100550000D02*
X160870000Y-100550000D01*
X160870000Y-100550000D02*
X158920000Y-98600000D01*
X155800000Y-98100000D02*
X155800000Y-96980000D01*
X155800000Y-96980000D02*
X154430000Y-96980000D01*
X158920000Y-98600000D02*
X156300000Y-98600000D01*
X156300000Y-98600000D02*
X155800000Y-98100000D01*
D27*
%TO.N,/LED_R*%
X155173500Y-87826500D02*
X154500000Y-88500000D01*
X156039002Y-87826500D02*
X155173500Y-87826500D01*
D29*
X151100000Y-88700000D02*
X151100000Y-89990000D01*
D27*
X156425002Y-88212500D02*
X156039002Y-87826500D01*
X157562500Y-88212500D02*
X156425002Y-88212500D01*
D29*
X151300000Y-88500000D02*
X151100000Y-88700000D01*
D27*
%TO.N,/CS*%
X163650000Y-93000000D02*
X170700000Y-93000000D01*
X163600000Y-93050000D02*
X163650000Y-93000000D01*
X170700000Y-93000000D02*
X171000000Y-93300000D01*
%TO.N,/SCLK*%
X164437500Y-92212500D02*
X164450000Y-92200000D01*
X164450000Y-92200000D02*
X169900000Y-92200000D01*
X169900000Y-92200000D02*
X171000000Y-91100000D01*
%TO.N,/RX*%
X169500000Y-94000000D02*
X171000000Y-95500000D01*
X163200000Y-93050000D02*
X163200000Y-93479237D01*
X163200000Y-93479237D02*
X163720763Y-94000000D01*
X163720763Y-94000000D02*
X169500000Y-94000000D01*
%TO.N,/TX*%
X164866737Y-91812500D02*
X165309237Y-91370000D01*
X171000000Y-89100000D02*
X171000000Y-88900000D01*
X165309237Y-91370000D02*
X168730000Y-91370000D01*
X164437500Y-91812500D02*
X164866737Y-91812500D01*
X168730000Y-91370000D02*
X171000000Y-89100000D01*
%TO.N,/LED_G*%
X157562500Y-88612500D02*
X156009000Y-88612500D01*
D29*
X152400000Y-88900000D02*
X152400000Y-89890000D01*
D27*
X156009000Y-88612500D02*
X155800000Y-88403500D01*
D29*
X152400000Y-89890000D02*
X152300000Y-89990000D01*
%TO.N,/LED_B*%
X158400000Y-93050000D02*
X154860000Y-93050000D01*
X154860000Y-93050000D02*
X154710000Y-93200000D01*
%TD*%
%TA.AperFunction,Conductor*%
%TO.N,GND*%
G36*
X157808478Y-96661518D02*
G01*
X157825053Y-96672170D01*
X157829371Y-96676488D01*
X157970403Y-96759894D01*
X157978014Y-96762105D01*
X157978016Y-96762106D01*
X158020733Y-96774516D01*
X158127746Y-96805606D01*
X158134151Y-96806110D01*
X158134156Y-96806111D01*
X158162060Y-96808307D01*
X158162068Y-96808307D01*
X158164516Y-96808500D01*
X158635484Y-96808500D01*
X158637932Y-96808307D01*
X158637940Y-96808307D01*
X158665844Y-96806111D01*
X158665849Y-96806110D01*
X158672254Y-96805606D01*
X158738847Y-96786259D01*
X158809844Y-96786462D01*
X158869460Y-96825016D01*
X158898768Y-96889681D01*
X158900000Y-96907256D01*
X158900000Y-97774000D01*
X158879998Y-97842121D01*
X158826342Y-97888614D01*
X158774000Y-97900000D01*
X156615066Y-97900000D01*
X156546945Y-97879998D01*
X156500452Y-97826342D01*
X156489583Y-97785407D01*
X156471991Y-97591894D01*
X156489020Y-97516348D01*
X156565859Y-97386420D01*
X156565859Y-97386419D01*
X156569894Y-97379597D01*
X156615606Y-97222254D01*
X156618500Y-97185484D01*
X156618500Y-96912631D01*
X156638502Y-96844510D01*
X156692158Y-96798017D01*
X156762432Y-96787913D01*
X156779652Y-96791634D01*
X156821566Y-96803811D01*
X156821570Y-96803812D01*
X156827746Y-96805606D01*
X156834151Y-96806110D01*
X156834156Y-96806111D01*
X156862060Y-96808307D01*
X156862068Y-96808307D01*
X156864516Y-96808500D01*
X157335484Y-96808500D01*
X157337932Y-96808307D01*
X157337940Y-96808307D01*
X157365844Y-96806111D01*
X157365849Y-96806110D01*
X157372254Y-96805606D01*
X157479267Y-96774516D01*
X157521984Y-96762106D01*
X157521986Y-96762105D01*
X157529597Y-96759894D01*
X157670629Y-96676488D01*
X157674051Y-96673066D01*
X157738855Y-96647620D01*
X157808478Y-96661518D01*
G37*
%TD.AperFunction*%
%TD*%
%TA.AperFunction,Conductor*%
%TO.N,GND*%
G36*
X159974109Y-90399891D02*
G01*
X160042213Y-90419952D01*
X160088659Y-90473648D01*
X160100000Y-90525891D01*
X160100000Y-91234438D01*
X160079998Y-91302559D01*
X160067642Y-91318742D01*
X160032012Y-91358312D01*
X159971568Y-91395550D01*
X159938378Y-91400000D01*
X158629960Y-91400000D01*
X158561839Y-91379998D01*
X158515346Y-91326342D01*
X158504873Y-91289137D01*
X158497478Y-91228027D01*
X158500339Y-91227681D01*
X158500339Y-91197319D01*
X158497478Y-91196973D01*
X158508044Y-91109657D01*
X158508500Y-91105892D01*
X158508500Y-91008476D01*
X158528502Y-90940355D01*
X158545405Y-90919381D01*
X159028732Y-90436054D01*
X159091044Y-90402028D01*
X159117936Y-90399149D01*
X159974109Y-90399891D01*
G37*
%TD.AperFunction*%
%TD*%
%TA.AperFunction,Conductor*%
%TO.N,GND*%
G36*
X174192121Y-85670002D02*
G01*
X174238614Y-85723658D01*
X174250000Y-85776000D01*
X174250000Y-87424000D01*
X174229998Y-87492121D01*
X174176342Y-87538614D01*
X174124000Y-87550000D01*
X168526000Y-87550000D01*
X168457879Y-87529998D01*
X168411386Y-87476342D01*
X168400000Y-87424000D01*
X168400000Y-85776000D01*
X168420002Y-85707879D01*
X168473658Y-85661386D01*
X168526000Y-85650000D01*
X174124000Y-85650000D01*
X174192121Y-85670002D01*
G37*
%TD.AperFunction*%
%TD*%
%TA.AperFunction,Conductor*%
%TO.N,GND*%
G36*
X165824635Y-81295290D02*
G01*
X165900000Y-81300000D01*
X167374000Y-81300000D01*
X167442121Y-81320002D01*
X167488614Y-81373658D01*
X167500000Y-81426000D01*
X167500000Y-82008645D01*
X167479998Y-82076766D01*
X167426342Y-82123259D01*
X167389498Y-82129771D01*
X167389789Y-82131157D01*
X167356969Y-82138052D01*
X167354000Y-82149513D01*
X167354000Y-82965500D01*
X167333998Y-83033621D01*
X167280342Y-83080114D01*
X167228000Y-83091500D01*
X166864516Y-83091500D01*
X166862068Y-83091693D01*
X166862060Y-83091693D01*
X166834156Y-83093889D01*
X166834151Y-83093890D01*
X166827746Y-83094394D01*
X166728995Y-83123084D01*
X166678016Y-83137894D01*
X166678014Y-83137895D01*
X166670403Y-83140106D01*
X166663581Y-83144141D01*
X166663580Y-83144141D01*
X166642760Y-83156454D01*
X166578621Y-83174000D01*
X166521379Y-83174000D01*
X166457240Y-83156454D01*
X166436420Y-83144141D01*
X166436419Y-83144141D01*
X166429597Y-83140106D01*
X166421986Y-83137895D01*
X166421984Y-83137894D01*
X166371005Y-83123084D01*
X166272254Y-83094394D01*
X166265849Y-83093890D01*
X166265844Y-83093889D01*
X166237940Y-83091693D01*
X166237932Y-83091693D01*
X166235484Y-83091500D01*
X165764516Y-83091500D01*
X165762068Y-83091693D01*
X165762060Y-83091693D01*
X165734156Y-83093889D01*
X165734151Y-83093890D01*
X165727746Y-83094394D01*
X165628995Y-83123084D01*
X165578016Y-83137894D01*
X165578014Y-83137895D01*
X165570403Y-83140106D01*
X165563581Y-83144141D01*
X165563580Y-83144141D01*
X165542760Y-83156454D01*
X165478621Y-83174000D01*
X165421379Y-83174000D01*
X165357240Y-83156454D01*
X165336420Y-83144141D01*
X165336419Y-83144141D01*
X165329597Y-83140106D01*
X165321986Y-83137895D01*
X165321984Y-83137894D01*
X165271005Y-83123084D01*
X165172254Y-83094394D01*
X165165849Y-83093890D01*
X165165844Y-83093889D01*
X165137940Y-83091693D01*
X165137932Y-83091693D01*
X165135484Y-83091500D01*
X164664516Y-83091500D01*
X164662068Y-83091693D01*
X164662060Y-83091693D01*
X164634156Y-83093889D01*
X164634151Y-83093890D01*
X164627746Y-83094394D01*
X164528995Y-83123084D01*
X164478016Y-83137894D01*
X164478014Y-83137895D01*
X164470403Y-83140106D01*
X164463581Y-83144141D01*
X164463580Y-83144141D01*
X164442760Y-83156454D01*
X164378621Y-83174000D01*
X164321379Y-83174000D01*
X164257240Y-83156454D01*
X164236420Y-83144141D01*
X164236419Y-83144141D01*
X164229597Y-83140106D01*
X164221986Y-83137895D01*
X164221984Y-83137894D01*
X164171005Y-83123084D01*
X164072254Y-83094394D01*
X164065849Y-83093890D01*
X164065844Y-83093889D01*
X164037940Y-83091693D01*
X164037932Y-83091693D01*
X164035484Y-83091500D01*
X163834500Y-83091500D01*
X163766379Y-83071498D01*
X163719886Y-83017842D01*
X163708500Y-82965500D01*
X163708500Y-82792000D01*
X163728502Y-82723879D01*
X163782158Y-82677386D01*
X163834500Y-82666000D01*
X164627885Y-82666000D01*
X164641828Y-82661906D01*
X164631104Y-82625384D01*
X164626000Y-82589886D01*
X164626000Y-82321379D01*
X164643546Y-82257240D01*
X164655859Y-82236420D01*
X164655859Y-82236419D01*
X164659894Y-82229597D01*
X164674781Y-82178357D01*
X164676916Y-82171005D01*
X164705132Y-82073885D01*
X165134000Y-82073885D01*
X165148896Y-82124616D01*
X165154000Y-82160114D01*
X165154000Y-82647885D01*
X165158475Y-82663124D01*
X165159865Y-82664329D01*
X165167548Y-82666000D01*
X165727885Y-82666000D01*
X165743124Y-82661525D01*
X165744329Y-82660135D01*
X165746000Y-82652452D01*
X165746000Y-82647885D01*
X166254000Y-82647885D01*
X166258475Y-82663124D01*
X166259865Y-82664329D01*
X166267548Y-82666000D01*
X166827885Y-82666000D01*
X166843124Y-82661525D01*
X166844329Y-82660135D01*
X166846000Y-82652452D01*
X166846000Y-82151576D01*
X166841656Y-82136781D01*
X166831225Y-82134937D01*
X166821641Y-82136688D01*
X166678216Y-82178357D01*
X166663778Y-82184605D01*
X166614140Y-82213961D01*
X166545323Y-82231421D01*
X166485860Y-82213961D01*
X166436222Y-82184605D01*
X166421784Y-82178357D01*
X166278359Y-82136688D01*
X166270391Y-82135232D01*
X166256969Y-82138052D01*
X166254000Y-82149513D01*
X166254000Y-82647885D01*
X165746000Y-82647885D01*
X165746000Y-82151576D01*
X165741525Y-82136337D01*
X165726598Y-82123402D01*
X165696557Y-82108499D01*
X165674154Y-82068994D01*
X165662419Y-82057091D01*
X165650487Y-82054000D01*
X165152115Y-82054000D01*
X165136876Y-82058475D01*
X165135671Y-82059865D01*
X165134000Y-82067548D01*
X165134000Y-82073885D01*
X164705132Y-82073885D01*
X164705606Y-82072254D01*
X164706582Y-82059865D01*
X164708307Y-82037940D01*
X164708307Y-82037932D01*
X164708500Y-82035484D01*
X164708500Y-81672000D01*
X164728502Y-81603879D01*
X164782158Y-81557386D01*
X164834500Y-81546000D01*
X165648424Y-81546000D01*
X165663219Y-81541656D01*
X165665063Y-81531225D01*
X165663312Y-81521641D01*
X165643347Y-81452921D01*
X165643550Y-81381925D01*
X165682103Y-81322309D01*
X165746768Y-81293000D01*
X165772203Y-81292013D01*
X165824635Y-81295290D01*
G37*
%TD.AperFunction*%
%TD*%
M02*
