%TF.GenerationSoftware,KiCad,Pcbnew,(6.0.10)*%
%TF.CreationDate,2023-03-03T22:40:34-05:00*%
%TF.ProjectId,module_board,6d6f6475-6c65-45f6-926f-6172642e6b69,rev?*%
%TF.SameCoordinates,Original*%
%TF.FileFunction,Legend,Top*%
%TF.FilePolarity,Positive*%
%FSLAX46Y46*%
G04 Gerber Fmt 4.6, Leading zero omitted, Abs format (unit mm)*
G04 Created by KiCad (PCBNEW (6.0.10)) date 2023-03-03 22:40:34*
%MOMM*%
%LPD*%
G01*
G04 APERTURE LIST*
%ADD10C,0.150000*%
%ADD11C,0.050000*%
%ADD12C,0.120000*%
%ADD13C,0.127000*%
G04 APERTURE END LIST*
D10*
X147078571Y-78642857D02*
X146364285Y-79142857D01*
X147078571Y-79500000D02*
X145578571Y-79500000D01*
X145578571Y-78928571D01*
X145650000Y-78785714D01*
X145721428Y-78714285D01*
X145864285Y-78642857D01*
X146078571Y-78642857D01*
X146221428Y-78714285D01*
X146292857Y-78785714D01*
X146364285Y-78928571D01*
X146364285Y-79500000D01*
X147078571Y-78142857D02*
X146078571Y-77357142D01*
X146078571Y-78142857D02*
X147078571Y-77357142D01*
X145721428Y-87242857D02*
X145650000Y-87171428D01*
X145578571Y-87028571D01*
X145578571Y-86671428D01*
X145650000Y-86528571D01*
X145721428Y-86457142D01*
X145864285Y-86385714D01*
X146007142Y-86385714D01*
X146221428Y-86457142D01*
X147078571Y-87314285D01*
X147078571Y-86385714D01*
X146221428Y-85528571D02*
X146150000Y-85671428D01*
X146078571Y-85742857D01*
X145935714Y-85814285D01*
X145864285Y-85814285D01*
X145721428Y-85742857D01*
X145650000Y-85671428D01*
X145578571Y-85528571D01*
X145578571Y-85242857D01*
X145650000Y-85100000D01*
X145721428Y-85028571D01*
X145864285Y-84957142D01*
X145935714Y-84957142D01*
X146078571Y-85028571D01*
X146150000Y-85100000D01*
X146221428Y-85242857D01*
X146221428Y-85528571D01*
X146292857Y-85671428D01*
X146364285Y-85742857D01*
X146507142Y-85814285D01*
X146792857Y-85814285D01*
X146935714Y-85742857D01*
X147007142Y-85671428D01*
X147078571Y-85528571D01*
X147078571Y-85242857D01*
X147007142Y-85100000D01*
X146935714Y-85028571D01*
X146792857Y-84957142D01*
X146507142Y-84957142D01*
X146364285Y-85028571D01*
X146292857Y-85100000D01*
X146221428Y-85242857D01*
X146935714Y-99342857D02*
X147007142Y-99414285D01*
X147078571Y-99628571D01*
X147078571Y-99771428D01*
X147007142Y-99985714D01*
X146864285Y-100128571D01*
X146721428Y-100200000D01*
X146435714Y-100271428D01*
X146221428Y-100271428D01*
X145935714Y-100200000D01*
X145792857Y-100128571D01*
X145650000Y-99985714D01*
X145578571Y-99771428D01*
X145578571Y-99628571D01*
X145650000Y-99414285D01*
X145721428Y-99342857D01*
X147007142Y-98771428D02*
X147078571Y-98628571D01*
X147078571Y-98342857D01*
X147007142Y-98200000D01*
X146864285Y-98128571D01*
X146792857Y-98128571D01*
X146650000Y-98200000D01*
X146578571Y-98342857D01*
X146578571Y-98557142D01*
X146507142Y-98700000D01*
X146364285Y-98771428D01*
X146292857Y-98771428D01*
X146150000Y-98700000D01*
X146078571Y-98557142D01*
X146078571Y-98342857D01*
X146150000Y-98200000D01*
X146935714Y-102042857D02*
X147007142Y-102114285D01*
X147078571Y-102328571D01*
X147078571Y-102471428D01*
X147007142Y-102685714D01*
X146864285Y-102828571D01*
X146721428Y-102900000D01*
X146435714Y-102971428D01*
X146221428Y-102971428D01*
X145935714Y-102900000D01*
X145792857Y-102828571D01*
X145650000Y-102685714D01*
X145578571Y-102471428D01*
X145578571Y-102328571D01*
X145650000Y-102114285D01*
X145721428Y-102042857D01*
X147078571Y-101400000D02*
X145578571Y-101400000D01*
X146507142Y-101257142D02*
X147078571Y-100828571D01*
X146078571Y-100828571D02*
X146650000Y-101400000D01*
X145721428Y-95042857D02*
X145650000Y-94971428D01*
X145578571Y-94828571D01*
X145578571Y-94471428D01*
X145650000Y-94328571D01*
X145721428Y-94257142D01*
X145864285Y-94185714D01*
X146007142Y-94185714D01*
X146221428Y-94257142D01*
X147078571Y-95114285D01*
X147078571Y-94185714D01*
X145578571Y-92828571D02*
X145578571Y-93542857D01*
X146292857Y-93614285D01*
X146221428Y-93542857D01*
X146150000Y-93400000D01*
X146150000Y-93042857D01*
X146221428Y-92900000D01*
X146292857Y-92828571D01*
X146435714Y-92757142D01*
X146792857Y-92757142D01*
X146935714Y-92828571D01*
X147007142Y-92900000D01*
X147078571Y-93042857D01*
X147078571Y-93400000D01*
X147007142Y-93542857D01*
X146935714Y-93614285D01*
X145650000Y-83307142D02*
X145578571Y-83450000D01*
X145578571Y-83664285D01*
X145650000Y-83878571D01*
X145792857Y-84021428D01*
X145935714Y-84092857D01*
X146221428Y-84164285D01*
X146435714Y-84164285D01*
X146721428Y-84092857D01*
X146864285Y-84021428D01*
X147007142Y-83878571D01*
X147078571Y-83664285D01*
X147078571Y-83521428D01*
X147007142Y-83307142D01*
X146935714Y-83235714D01*
X146435714Y-83235714D01*
X146435714Y-83521428D01*
X145578571Y-97842857D02*
X145578571Y-96914285D01*
X146150000Y-97414285D01*
X146150000Y-97200000D01*
X146221428Y-97057142D01*
X146292857Y-96985714D01*
X146435714Y-96914285D01*
X146792857Y-96914285D01*
X146935714Y-96985714D01*
X147007142Y-97057142D01*
X147078571Y-97200000D01*
X147078571Y-97628571D01*
X147007142Y-97771428D01*
X146935714Y-97842857D01*
X145578571Y-96485714D02*
X147078571Y-95985714D01*
X145578571Y-95485714D01*
X145578571Y-82235714D02*
X145578571Y-81378571D01*
X147078571Y-81807142D02*
X145578571Y-81807142D01*
X147078571Y-81021428D02*
X146078571Y-80235714D01*
X146078571Y-81021428D02*
X147078571Y-80235714D01*
D11*
%TO.C,D1*%
X151317619Y-93396428D02*
X151317619Y-93563095D01*
X151258095Y-93301190D02*
X151198571Y-93479761D01*
X151353333Y-93479761D01*
D12*
%TO.C,C9*%
X155440000Y-96392164D02*
X155440000Y-96607836D01*
X156160000Y-96392164D02*
X156160000Y-96607836D01*
%TO.C,C4*%
X165640000Y-83507836D02*
X165640000Y-83292164D01*
X166360000Y-83507836D02*
X166360000Y-83292164D01*
%TO.C,C5*%
X164160000Y-83507836D02*
X164160000Y-83292164D01*
X163440000Y-83507836D02*
X163440000Y-83292164D01*
%TO.C,J10*%
X170090000Y-78570000D02*
X170090000Y-77240000D01*
X170090000Y-82440000D02*
X172750000Y-82440000D01*
X170090000Y-77240000D02*
X171420000Y-77240000D01*
X172750000Y-79840000D02*
X172750000Y-82440000D01*
X170090000Y-79840000D02*
X170090000Y-82440000D01*
X170090000Y-79840000D02*
X172750000Y-79840000D01*
%TO.C,C8*%
X152840000Y-96392164D02*
X152840000Y-96607836D01*
X153560000Y-96392164D02*
X153560000Y-96607836D01*
%TO.C,C6*%
X164292164Y-82160000D02*
X164507836Y-82160000D01*
X164292164Y-81440000D02*
X164507836Y-81440000D01*
%TO.C,R3*%
X154880000Y-96653641D02*
X154880000Y-96346359D01*
X154120000Y-96653641D02*
X154120000Y-96346359D01*
%TO.C,C14*%
X163760000Y-78207836D02*
X163760000Y-77992164D01*
X163040000Y-78207836D02*
X163040000Y-77992164D01*
%TO.C,J2*%
X147230000Y-79840000D02*
X149890000Y-79840000D01*
X147230000Y-79840000D02*
X147230000Y-102760000D01*
X149890000Y-79840000D02*
X149890000Y-102760000D01*
X147230000Y-77240000D02*
X148560000Y-77240000D01*
X147230000Y-102760000D02*
X149890000Y-102760000D01*
X147230000Y-78570000D02*
X147230000Y-77240000D01*
%TO.C,R4*%
X151480000Y-90346359D02*
X151480000Y-90653641D01*
X150720000Y-90346359D02*
X150720000Y-90653641D01*
%TO.C,C13*%
X166740000Y-83507836D02*
X166740000Y-83292164D01*
X167460000Y-83507836D02*
X167460000Y-83292164D01*
%TO.C,C12*%
X156740000Y-96392164D02*
X156740000Y-96607836D01*
X157460000Y-96392164D02*
X157460000Y-96607836D01*
%TO.C,J9*%
X170090000Y-102750000D02*
X172750000Y-102750000D01*
X170090000Y-98880000D02*
X170090000Y-97550000D01*
X170090000Y-100150000D02*
X172750000Y-100150000D01*
X170090000Y-97550000D02*
X171420000Y-97550000D01*
X172750000Y-100150000D02*
X172750000Y-102750000D01*
X170090000Y-100150000D02*
X170090000Y-102750000D01*
%TO.C,C3*%
X164540000Y-83292164D02*
X164540000Y-83507836D01*
X165260000Y-83292164D02*
X165260000Y-83507836D01*
%TO.C,C10*%
X155807836Y-89240000D02*
X155592164Y-89240000D01*
X155807836Y-89960000D02*
X155592164Y-89960000D01*
%TO.C,R6*%
X154353641Y-92820000D02*
X154046359Y-92820000D01*
X154353641Y-93580000D02*
X154046359Y-93580000D01*
%TO.C,C11*%
X167772164Y-90246250D02*
X167987836Y-90246250D01*
X167772164Y-90966250D02*
X167987836Y-90966250D01*
D13*
%TO.C,Y1*%
X165350000Y-98200000D02*
X153950000Y-98200000D01*
X165350000Y-102900000D02*
X153950000Y-102900000D01*
D12*
%TO.C,C2*%
X158040000Y-96392164D02*
X158040000Y-96607836D01*
X158760000Y-96392164D02*
X158760000Y-96607836D01*
%TO.C,R2*%
X161820000Y-77946359D02*
X161820000Y-78253641D01*
X162580000Y-77946359D02*
X162580000Y-78253641D01*
%TO.C,C15*%
X151392164Y-94860000D02*
X151607836Y-94860000D01*
X151392164Y-94140000D02*
X151607836Y-94140000D01*
%TO.C,J1*%
X164655000Y-97430000D02*
X159515000Y-97430000D01*
X164655000Y-94770000D02*
X164655000Y-97430000D01*
X159515000Y-94770000D02*
X159515000Y-97430000D01*
X167255000Y-94770000D02*
X167255000Y-96100000D01*
X164655000Y-94770000D02*
X159515000Y-94770000D01*
X165925000Y-94770000D02*
X167255000Y-94770000D01*
%TO.C,U1*%
X158040000Y-93222500D02*
X157390000Y-93222500D01*
X164610000Y-93222500D02*
X164610000Y-92572500D01*
X163960000Y-93222500D02*
X164610000Y-93222500D01*
X164610000Y-86002500D02*
X164610000Y-86652500D01*
X157390000Y-93222500D02*
X157390000Y-92572500D01*
X158040000Y-86002500D02*
X157390000Y-86002500D01*
X163960000Y-86002500D02*
X164610000Y-86002500D01*
%TO.C,J5*%
X169500000Y-83400000D02*
X172500000Y-83400000D01*
X172500000Y-83400000D02*
X172500000Y-96600000D01*
X172500000Y-96600000D02*
X169500000Y-96600000D01*
X172500000Y-85600000D02*
X169500000Y-85600000D01*
X169500000Y-96600000D02*
X169500000Y-83400000D01*
%TO.C,C1*%
X160592164Y-84460000D02*
X160807836Y-84460000D01*
X160592164Y-83740000D02*
X160807836Y-83740000D01*
%TO.C,U2*%
X156800000Y-77775000D02*
X159525000Y-77775000D01*
X156800000Y-83225000D02*
X159525000Y-83225000D01*
X154075000Y-83225000D02*
X154075000Y-82965000D01*
X154075000Y-78035000D02*
X152400000Y-78035000D01*
X154075000Y-77775000D02*
X154075000Y-78035000D01*
X159525000Y-83225000D02*
X159525000Y-82965000D01*
X159525000Y-77775000D02*
X159525000Y-78035000D01*
X156800000Y-77775000D02*
X154075000Y-77775000D01*
X156800000Y-83225000D02*
X154075000Y-83225000D01*
%TO.C,R5*%
X151920000Y-90346359D02*
X151920000Y-90653641D01*
X152680000Y-90346359D02*
X152680000Y-90653641D01*
%TO.C,C7*%
X155807836Y-87410000D02*
X155592164Y-87410000D01*
X155807836Y-86690000D02*
X155592164Y-86690000D01*
%TD*%
M02*
