%TF.GenerationSoftware,KiCad,Pcbnew,(6.0.10)*%
%TF.CreationDate,2023-03-03T22:40:34-05:00*%
%TF.ProjectId,module_board,6d6f6475-6c65-45f6-926f-6172642e6b69,rev?*%
%TF.SameCoordinates,Original*%
%TF.FileFunction,Soldermask,Top*%
%TF.FilePolarity,Negative*%
%FSLAX46Y46*%
G04 Gerber Fmt 4.6, Leading zero omitted, Abs format (unit mm)*
G04 Created by KiCad (PCBNEW (6.0.10)) date 2023-03-03 22:40:34*
%MOMM*%
%LPD*%
G01*
G04 APERTURE LIST*
G04 Aperture macros list*
%AMRoundRect*
0 Rectangle with rounded corners*
0 $1 Rounding radius*
0 $2 $3 $4 $5 $6 $7 $8 $9 X,Y pos of 4 corners*
0 Add a 4 corners polygon primitive as box body*
4,1,4,$2,$3,$4,$5,$6,$7,$8,$9,$2,$3,0*
0 Add four circle primitives for the rounded corners*
1,1,$1+$1,$2,$3*
1,1,$1+$1,$4,$5*
1,1,$1+$1,$6,$7*
1,1,$1+$1,$8,$9*
0 Add four rect primitives between the rounded corners*
20,1,$1+$1,$2,$3,$4,$5,0*
20,1,$1+$1,$4,$5,$6,$7,0*
20,1,$1+$1,$6,$7,$8,$9,0*
20,1,$1+$1,$8,$9,$2,$3,0*%
G04 Aperture macros list end*
%ADD10RoundRect,0.140000X-0.170000X0.140000X-0.170000X-0.140000X0.170000X-0.140000X0.170000X0.140000X0*%
%ADD11RoundRect,0.140000X0.170000X-0.140000X0.170000X0.140000X-0.170000X0.140000X-0.170000X-0.140000X0*%
%ADD12R,1.700000X1.700000*%
%ADD13O,1.700000X1.700000*%
%ADD14RoundRect,0.140000X-0.140000X-0.170000X0.140000X-0.170000X0.140000X0.170000X-0.140000X0.170000X0*%
%ADD15RoundRect,0.135000X0.185000X-0.135000X0.185000X0.135000X-0.185000X0.135000X-0.185000X-0.135000X0*%
%ADD16R,0.320000X0.320000*%
%ADD17RoundRect,0.135000X-0.185000X0.135000X-0.185000X-0.135000X0.185000X-0.135000X0.185000X0.135000X0*%
%ADD18RoundRect,0.140000X0.140000X0.170000X-0.140000X0.170000X-0.140000X-0.170000X0.140000X-0.170000X0*%
%ADD19RoundRect,0.135000X0.135000X0.185000X-0.135000X0.185000X-0.135000X-0.185000X0.135000X-0.185000X0*%
%ADD20R,5.600000X2.100000*%
%ADD21RoundRect,0.050000X-0.387500X-0.050000X0.387500X-0.050000X0.387500X0.050000X-0.387500X0.050000X0*%
%ADD22RoundRect,0.050000X-0.050000X-0.387500X0.050000X-0.387500X0.050000X0.387500X-0.050000X0.387500X0*%
%ADD23R,3.200000X3.200000*%
%ADD24O,2.000000X1.200000*%
%ADD25RoundRect,0.150000X-0.650000X-0.150000X0.650000X-0.150000X0.650000X0.150000X-0.650000X0.150000X0*%
G04 APERTURE END LIST*
D10*
%TO.C,C9*%
X155800000Y-96020000D03*
X155800000Y-96980000D03*
%TD*%
D11*
%TO.C,C4*%
X166000000Y-83880000D03*
X166000000Y-82920000D03*
%TD*%
%TO.C,C5*%
X163800000Y-83880000D03*
X163800000Y-82920000D03*
%TD*%
D12*
%TO.C,J10*%
X171420000Y-78570000D03*
D13*
X171420000Y-81110000D03*
%TD*%
D10*
%TO.C,C8*%
X153200000Y-96020000D03*
X153200000Y-96980000D03*
%TD*%
D14*
%TO.C,C6*%
X163920000Y-81800000D03*
X164880000Y-81800000D03*
%TD*%
D15*
%TO.C,R3*%
X154500000Y-97010000D03*
X154500000Y-95990000D03*
%TD*%
D11*
%TO.C,C14*%
X163400000Y-78580000D03*
X163400000Y-77620000D03*
%TD*%
D16*
%TO.C,D1*%
X151930000Y-92930000D03*
X151930000Y-92270000D03*
X151270000Y-92270000D03*
X151270000Y-92930000D03*
%TD*%
D12*
%TO.C,J2*%
X148560000Y-78570000D03*
D13*
X148560000Y-81110000D03*
X148560000Y-83650000D03*
X148560000Y-86190000D03*
X148560000Y-88730000D03*
X148560000Y-91270000D03*
X148560000Y-93810000D03*
X148560000Y-96350000D03*
X148560000Y-98890000D03*
X148560000Y-101430000D03*
%TD*%
D17*
%TO.C,R4*%
X151100000Y-89990000D03*
X151100000Y-91010000D03*
%TD*%
D11*
%TO.C,C13*%
X167100000Y-83880000D03*
X167100000Y-82920000D03*
%TD*%
D10*
%TO.C,C12*%
X157100000Y-96020000D03*
X157100000Y-96980000D03*
%TD*%
D12*
%TO.C,J9*%
X171420000Y-98880000D03*
D13*
X171420000Y-101420000D03*
%TD*%
D10*
%TO.C,C3*%
X164900000Y-82920000D03*
X164900000Y-83880000D03*
%TD*%
D18*
%TO.C,C10*%
X156180000Y-89600000D03*
X155220000Y-89600000D03*
%TD*%
D19*
%TO.C,R6*%
X154710000Y-93200000D03*
X153690000Y-93200000D03*
%TD*%
D14*
%TO.C,C11*%
X167400000Y-90606250D03*
X168360000Y-90606250D03*
%TD*%
D20*
%TO.C,Y1*%
X164400000Y-100550000D03*
X154900000Y-100550000D03*
%TD*%
D10*
%TO.C,C2*%
X158400000Y-96020000D03*
X158400000Y-96980000D03*
%TD*%
D17*
%TO.C,R2*%
X162200000Y-77590000D03*
X162200000Y-78610000D03*
%TD*%
D14*
%TO.C,C15*%
X151020000Y-94500000D03*
X151980000Y-94500000D03*
%TD*%
D12*
%TO.C,J1*%
X165925000Y-96100000D03*
D13*
X163385000Y-96100000D03*
X160845000Y-96100000D03*
%TD*%
D21*
%TO.C,U1*%
X157562500Y-87012500D03*
X157562500Y-87412500D03*
X157562500Y-87812500D03*
X157562500Y-88212500D03*
X157562500Y-88612500D03*
X157562500Y-89012500D03*
X157562500Y-89412500D03*
X157562500Y-89812500D03*
X157562500Y-90212500D03*
X157562500Y-90612500D03*
X157562500Y-91012500D03*
X157562500Y-91412500D03*
X157562500Y-91812500D03*
X157562500Y-92212500D03*
D22*
X158400000Y-93050000D03*
X158800000Y-93050000D03*
X159200000Y-93050000D03*
X159600000Y-93050000D03*
X160000000Y-93050000D03*
X160400000Y-93050000D03*
X160800000Y-93050000D03*
X161200000Y-93050000D03*
X161600000Y-93050000D03*
X162000000Y-93050000D03*
X162400000Y-93050000D03*
X162800000Y-93050000D03*
X163200000Y-93050000D03*
X163600000Y-93050000D03*
D21*
X164437500Y-92212500D03*
X164437500Y-91812500D03*
X164437500Y-91412500D03*
X164437500Y-91012500D03*
X164437500Y-90612500D03*
X164437500Y-90212500D03*
X164437500Y-89812500D03*
X164437500Y-89412500D03*
X164437500Y-89012500D03*
X164437500Y-88612500D03*
X164437500Y-88212500D03*
X164437500Y-87812500D03*
X164437500Y-87412500D03*
X164437500Y-87012500D03*
D22*
X163600000Y-86175000D03*
X163200000Y-86175000D03*
X162800000Y-86175000D03*
X162400000Y-86175000D03*
X162000000Y-86175000D03*
X161600000Y-86175000D03*
X161200000Y-86175000D03*
X160800000Y-86175000D03*
X160400000Y-86175000D03*
X160000000Y-86175000D03*
X159600000Y-86175000D03*
X159200000Y-86175000D03*
X158800000Y-86175000D03*
X158400000Y-86175000D03*
D23*
X161000000Y-89612500D03*
%TD*%
D24*
%TO.C,J5*%
X171000000Y-84500000D03*
X171000000Y-86700000D03*
X171000000Y-88900000D03*
X171000000Y-91100000D03*
X171000000Y-93300000D03*
X171000000Y-95500000D03*
%TD*%
D14*
%TO.C,C1*%
X160220000Y-84100000D03*
X161180000Y-84100000D03*
%TD*%
D25*
%TO.C,U2*%
X153200000Y-78595000D03*
X153200000Y-79865000D03*
X153200000Y-81135000D03*
X153200000Y-82405000D03*
X160400000Y-82405000D03*
X160400000Y-81135000D03*
X160400000Y-79865000D03*
X160400000Y-78595000D03*
%TD*%
D17*
%TO.C,R5*%
X152300000Y-89990000D03*
X152300000Y-91010000D03*
%TD*%
D18*
%TO.C,C7*%
X156180000Y-87050000D03*
X155220000Y-87050000D03*
%TD*%
M02*
