M48
; DRILL file {KiCad (6.0.10)} date Fri Mar  3 22:40:33 2023
; FORMAT={-:-/ absolute / metric / decimal}
; #@! TF.CreationDate,2023-03-03T22:40:33-05:00
; #@! TF.GenerationSoftware,Kicad,Pcbnew,(6.0.10)
; #@! TF.FileFunction,MixedPlating,1,2
FMAT,2
METRIC
; #@! TA.AperFunction,Plated,PTH,ViaDrill
T1C0.300
; #@! TA.AperFunction,Plated,PTH,ComponentDrill
T2C0.720
; #@! TA.AperFunction,Plated,PTH,ComponentDrill
T3C1.000
%
G90
G05
T1
X151.3Y-88.5
X151.35Y-96.35
X151.742Y-85.258
X151.9Y-97.5
X152.4Y-88.9
X152.657Y-85.543
X154.125Y-91.497
X154.387Y-94.687
X154.5Y-88.5
X155.1Y-82.4
X155.2Y-86.2
X155.4Y-90.436
X155.456Y-91.989
X155.8Y-88.403
X155.9Y-95.0
X157.7Y-97.6
X158.89Y-91.09
X159.0Y-87.3
X160.4Y-87.3
X160.7Y-91.9
X161.8Y-87.3
X162.2Y-83.9
X162.8Y-87.3
X164.28Y-76.75
X164.6Y-78.6
X165.9Y-89.8
X166.0Y-81.7
X166.6Y-88.2
X166.6Y-89.1
X166.7Y-86.0
X166.773Y-87.392
X167.0Y-81.7
X167.402Y-88.9
X168.5Y-82.8
X168.8Y-89.5
X169.0Y-86.1
X169.0Y-87.1
X172.9Y-86.1
X172.9Y-87.1
X173.8Y-86.1
X173.8Y-87.1
T2
X171.0Y-84.5
X171.0Y-86.7
X171.0Y-88.9
X171.0Y-91.1
X171.0Y-93.3
X171.0Y-95.5
T3
X148.56Y-78.57
X148.56Y-81.11
X148.56Y-83.65
X148.56Y-86.19
X148.56Y-88.73
X148.56Y-91.27
X148.56Y-93.81
X148.56Y-96.35
X148.56Y-98.89
X148.56Y-101.43
X160.845Y-96.1
X163.385Y-96.1
X165.925Y-96.1
X171.42Y-78.57
X171.42Y-81.11
X171.42Y-98.88
X171.42Y-101.42
T0
M30
