%TF.GenerationSoftware,KiCad,Pcbnew,(6.0.10)*%
%TF.CreationDate,2023-02-13T21:08:55-05:00*%
%TF.ProjectId,module_board,6d6f6475-6c65-45f6-926f-6172642e6b69,rev?*%
%TF.SameCoordinates,Original*%
%TF.FileFunction,Legend,Top*%
%TF.FilePolarity,Positive*%
%FSLAX46Y46*%
G04 Gerber Fmt 4.6, Leading zero omitted, Abs format (unit mm)*
G04 Created by KiCad (PCBNEW (6.0.10)) date 2023-02-13 21:08:55*
%MOMM*%
%LPD*%
G01*
G04 APERTURE LIST*
%ADD10C,0.150000*%
%ADD11C,0.120000*%
%ADD12C,0.127000*%
G04 APERTURE END LIST*
D10*
X146350000Y-90400000D02*
X146050000Y-90800000D01*
X146650000Y-90800000D02*
X146350000Y-90400000D01*
X146350000Y-91600000D02*
X146350000Y-90400000D01*
X147078571Y-78750000D02*
X146364285Y-79250000D01*
X147078571Y-79607142D02*
X145578571Y-79607142D01*
X145578571Y-79035714D01*
X145650000Y-78892857D01*
X145721428Y-78821428D01*
X145864285Y-78750000D01*
X146078571Y-78750000D01*
X146221428Y-78821428D01*
X146292857Y-78892857D01*
X146364285Y-79035714D01*
X146364285Y-79607142D01*
X145578571Y-78250000D02*
X147078571Y-77250000D01*
X145578571Y-77250000D02*
X147078571Y-78250000D01*
X151735714Y-99050000D02*
X151807142Y-99121428D01*
X151878571Y-99335714D01*
X151878571Y-99478571D01*
X151807142Y-99692857D01*
X151664285Y-99835714D01*
X151521428Y-99907142D01*
X151235714Y-99978571D01*
X151021428Y-99978571D01*
X150735714Y-99907142D01*
X150592857Y-99835714D01*
X150450000Y-99692857D01*
X150378571Y-99478571D01*
X150378571Y-99335714D01*
X150450000Y-99121428D01*
X150521428Y-99050000D01*
X151807142Y-98478571D02*
X151878571Y-98264285D01*
X151878571Y-97907142D01*
X151807142Y-97764285D01*
X151735714Y-97692857D01*
X151592857Y-97621428D01*
X151450000Y-97621428D01*
X151307142Y-97692857D01*
X151235714Y-97764285D01*
X151164285Y-97907142D01*
X151092857Y-98192857D01*
X151021428Y-98335714D01*
X150950000Y-98407142D01*
X150807142Y-98478571D01*
X150664285Y-98478571D01*
X150521428Y-98407142D01*
X150450000Y-98335714D01*
X150378571Y-98192857D01*
X150378571Y-97835714D01*
X150450000Y-97621428D01*
X151735714Y-102585714D02*
X151807142Y-102657142D01*
X151878571Y-102871428D01*
X151878571Y-103014285D01*
X151807142Y-103228571D01*
X151664285Y-103371428D01*
X151521428Y-103442857D01*
X151235714Y-103514285D01*
X151021428Y-103514285D01*
X150735714Y-103442857D01*
X150592857Y-103371428D01*
X150450000Y-103228571D01*
X150378571Y-103014285D01*
X150378571Y-102871428D01*
X150450000Y-102657142D01*
X150521428Y-102585714D01*
X151878571Y-101942857D02*
X150378571Y-101942857D01*
X151878571Y-101085714D02*
X151021428Y-101728571D01*
X150378571Y-101085714D02*
X151235714Y-101942857D01*
X145721428Y-94442857D02*
X145650000Y-94371428D01*
X145578571Y-94228571D01*
X145578571Y-93871428D01*
X145650000Y-93728571D01*
X145721428Y-93657142D01*
X145864285Y-93585714D01*
X146007142Y-93585714D01*
X146221428Y-93657142D01*
X147078571Y-94514285D01*
X147078571Y-93585714D01*
X145578571Y-92228571D02*
X145578571Y-92942857D01*
X146292857Y-93014285D01*
X146221428Y-92942857D01*
X146150000Y-92800000D01*
X146150000Y-92442857D01*
X146221428Y-92300000D01*
X146292857Y-92228571D01*
X146435714Y-92157142D01*
X146792857Y-92157142D01*
X146935714Y-92228571D01*
X147007142Y-92300000D01*
X147078571Y-92442857D01*
X147078571Y-92800000D01*
X147007142Y-92942857D01*
X146935714Y-93014285D01*
X145650000Y-83207142D02*
X145578571Y-83350000D01*
X145578571Y-83564285D01*
X145650000Y-83778571D01*
X145792857Y-83921428D01*
X145935714Y-83992857D01*
X146221428Y-84064285D01*
X146435714Y-84064285D01*
X146721428Y-83992857D01*
X146864285Y-83921428D01*
X147007142Y-83778571D01*
X147078571Y-83564285D01*
X147078571Y-83421428D01*
X147007142Y-83207142D01*
X146935714Y-83135714D01*
X146435714Y-83135714D01*
X146435714Y-83421428D01*
X145578571Y-99057142D02*
X145578571Y-98128571D01*
X146150000Y-98628571D01*
X146150000Y-98414285D01*
X146221428Y-98271428D01*
X146292857Y-98200000D01*
X146435714Y-98128571D01*
X146792857Y-98128571D01*
X146935714Y-98200000D01*
X147007142Y-98271428D01*
X147078571Y-98414285D01*
X147078571Y-98842857D01*
X147007142Y-98985714D01*
X146935714Y-99057142D01*
X145578571Y-97700000D02*
X147078571Y-97200000D01*
X145578571Y-96700000D01*
X145578571Y-96342857D02*
X145578571Y-95414285D01*
X146150000Y-95914285D01*
X146150000Y-95700000D01*
X146221428Y-95557142D01*
X146292857Y-95485714D01*
X146435714Y-95414285D01*
X146792857Y-95414285D01*
X146935714Y-95485714D01*
X147007142Y-95557142D01*
X147078571Y-95700000D01*
X147078571Y-96128571D01*
X147007142Y-96271428D01*
X146935714Y-96342857D01*
X145578571Y-82242857D02*
X145578571Y-81385714D01*
X147078571Y-81814285D02*
X145578571Y-81814285D01*
X145578571Y-81028571D02*
X147078571Y-80028571D01*
X145578571Y-80028571D02*
X147078571Y-81028571D01*
D11*
%TO.C,J1*%
X158850000Y-94770000D02*
X158850000Y-97430000D01*
X169130000Y-94770000D02*
X169130000Y-96100000D01*
X166530000Y-94770000D02*
X166530000Y-97430000D01*
X166530000Y-97430000D02*
X158850000Y-97430000D01*
X166530000Y-94770000D02*
X158850000Y-94770000D01*
X167800000Y-94770000D02*
X169130000Y-94770000D01*
%TO.C,C9*%
X155140000Y-96392164D02*
X155140000Y-96607836D01*
X155860000Y-96392164D02*
X155860000Y-96607836D01*
%TO.C,C4*%
X165640000Y-83507836D02*
X165640000Y-83292164D01*
X166360000Y-83507836D02*
X166360000Y-83292164D01*
%TO.C,C5*%
X164160000Y-83507836D02*
X164160000Y-83292164D01*
X163440000Y-83507836D02*
X163440000Y-83292164D01*
%TO.C,J10*%
X170090000Y-78570000D02*
X170090000Y-77240000D01*
X170090000Y-82440000D02*
X172750000Y-82440000D01*
X170090000Y-77240000D02*
X171420000Y-77240000D01*
X172750000Y-79840000D02*
X172750000Y-82440000D01*
X170090000Y-79840000D02*
X170090000Y-82440000D01*
X170090000Y-79840000D02*
X172750000Y-79840000D01*
%TO.C,C8*%
X152940000Y-96392164D02*
X152940000Y-96607836D01*
X153660000Y-96392164D02*
X153660000Y-96607836D01*
%TO.C,C6*%
X164292164Y-82160000D02*
X164507836Y-82160000D01*
X164292164Y-81440000D02*
X164507836Y-81440000D01*
%TO.C,R3*%
X154780000Y-96653641D02*
X154780000Y-96346359D01*
X154020000Y-96653641D02*
X154020000Y-96346359D01*
%TO.C,C14*%
X163760000Y-78207836D02*
X163760000Y-77992164D01*
X163040000Y-78207836D02*
X163040000Y-77992164D01*
%TO.C,J2*%
X147230000Y-79840000D02*
X149890000Y-79840000D01*
X147230000Y-79840000D02*
X147230000Y-102760000D01*
X149890000Y-79840000D02*
X149890000Y-102760000D01*
X147230000Y-77240000D02*
X148560000Y-77240000D01*
X147230000Y-102760000D02*
X149890000Y-102760000D01*
X147230000Y-78570000D02*
X147230000Y-77240000D01*
%TO.C,C13*%
X166740000Y-83507836D02*
X166740000Y-83292164D01*
X167460000Y-83507836D02*
X167460000Y-83292164D01*
%TO.C,C12*%
X156240000Y-96392164D02*
X156240000Y-96607836D01*
X156960000Y-96392164D02*
X156960000Y-96607836D01*
%TO.C,J9*%
X170090000Y-102750000D02*
X172750000Y-102750000D01*
X170090000Y-98880000D02*
X170090000Y-97550000D01*
X170090000Y-100150000D02*
X172750000Y-100150000D01*
X170090000Y-97550000D02*
X171420000Y-97550000D01*
X172750000Y-100150000D02*
X172750000Y-102750000D01*
X170090000Y-100150000D02*
X170090000Y-102750000D01*
%TO.C,C3*%
X164540000Y-83292164D02*
X164540000Y-83507836D01*
X165260000Y-83292164D02*
X165260000Y-83507836D01*
%TO.C,C10*%
X155807836Y-87840000D02*
X155592164Y-87840000D01*
X155807836Y-88560000D02*
X155592164Y-88560000D01*
%TO.C,C11*%
X167772164Y-90246250D02*
X167987836Y-90246250D01*
X167772164Y-90966250D02*
X167987836Y-90966250D01*
D12*
%TO.C,Y1*%
X165350000Y-98200000D02*
X153950000Y-98200000D01*
X165350000Y-102900000D02*
X153950000Y-102900000D01*
D11*
%TO.C,C2*%
X157390000Y-96392164D02*
X157390000Y-96607836D01*
X158110000Y-96392164D02*
X158110000Y-96607836D01*
%TO.C,R1*%
X151580000Y-78753641D02*
X151580000Y-78446359D01*
X150820000Y-78753641D02*
X150820000Y-78446359D01*
%TO.C,R2*%
X161820000Y-77946359D02*
X161820000Y-78253641D01*
X162580000Y-77946359D02*
X162580000Y-78253641D01*
%TO.C,U1*%
X158040000Y-93222500D02*
X157390000Y-93222500D01*
X164610000Y-93222500D02*
X164610000Y-92572500D01*
X163960000Y-93222500D02*
X164610000Y-93222500D01*
X164610000Y-86002500D02*
X164610000Y-86652500D01*
X157390000Y-93222500D02*
X157390000Y-92572500D01*
X158040000Y-86002500D02*
X157390000Y-86002500D01*
X163960000Y-86002500D02*
X164610000Y-86002500D01*
%TO.C,J5*%
X169500000Y-83400000D02*
X172500000Y-83400000D01*
X172500000Y-83400000D02*
X172500000Y-96600000D01*
X172500000Y-96600000D02*
X169500000Y-96600000D01*
X172500000Y-85600000D02*
X169500000Y-85600000D01*
X169500000Y-96600000D02*
X169500000Y-83400000D01*
%TO.C,C1*%
X160592164Y-84460000D02*
X160807836Y-84460000D01*
X160592164Y-83740000D02*
X160807836Y-83740000D01*
%TO.C,U2*%
X156800000Y-77775000D02*
X159525000Y-77775000D01*
X156800000Y-83225000D02*
X159525000Y-83225000D01*
X154075000Y-83225000D02*
X154075000Y-82965000D01*
X154075000Y-78035000D02*
X152400000Y-78035000D01*
X154075000Y-77775000D02*
X154075000Y-78035000D01*
X159525000Y-83225000D02*
X159525000Y-82965000D01*
X159525000Y-77775000D02*
X159525000Y-78035000D01*
X156800000Y-77775000D02*
X154075000Y-77775000D01*
X156800000Y-83225000D02*
X154075000Y-83225000D01*
%TO.C,JP1*%
X152700000Y-86850000D02*
X152700000Y-89650000D01*
X152700000Y-89650000D02*
X150700000Y-89650000D01*
X150700000Y-86850000D02*
X152700000Y-86850000D01*
X150700000Y-89650000D02*
X150700000Y-86850000D01*
%TO.C,C7*%
X155807836Y-87410000D02*
X155592164Y-87410000D01*
X155807836Y-86690000D02*
X155592164Y-86690000D01*
%TD*%
M02*
