%TF.GenerationSoftware,KiCad,Pcbnew,(6.0.10)*%
%TF.CreationDate,2023-02-13T21:08:55-05:00*%
%TF.ProjectId,module_board,6d6f6475-6c65-45f6-926f-6172642e6b69,rev?*%
%TF.SameCoordinates,Original*%
%TF.FileFunction,Copper,L2,Bot*%
%TF.FilePolarity,Positive*%
%FSLAX46Y46*%
G04 Gerber Fmt 4.6, Leading zero omitted, Abs format (unit mm)*
G04 Created by KiCad (PCBNEW (6.0.10)) date 2023-02-13 21:08:55*
%MOMM*%
%LPD*%
G01*
G04 APERTURE LIST*
%TA.AperFunction,ComponentPad*%
%ADD10R,1.700000X1.700000*%
%TD*%
%TA.AperFunction,ComponentPad*%
%ADD11O,1.700000X1.700000*%
%TD*%
%TA.AperFunction,ComponentPad*%
%ADD12O,2.000000X1.200000*%
%TD*%
%TA.AperFunction,ViaPad*%
%ADD13C,0.700000*%
%TD*%
%TA.AperFunction,Conductor*%
%ADD14C,0.200000*%
%TD*%
%TA.AperFunction,Conductor*%
%ADD15C,0.300000*%
%TD*%
G04 APERTURE END LIST*
D10*
%TO.P,J1,1,Pin_1*%
%TO.N,GND*%
X167800000Y-96100000D03*
D11*
%TO.P,J1,2,Pin_2*%
%TO.N,/RESET_N*%
X165260000Y-96100000D03*
%TO.P,J1,3,Pin_3*%
%TO.N,/SWDIO*%
X162720000Y-96100000D03*
%TO.P,J1,4,Pin_4*%
%TO.N,/SWCLK*%
X160180000Y-96100000D03*
%TD*%
D10*
%TO.P,J10,1,Pin_1*%
%TO.N,unconnected-(J10-Pad1)*%
X171420000Y-78570000D03*
D11*
%TO.P,J10,2,Pin_2*%
%TO.N,unconnected-(J10-Pad2)*%
X171420000Y-81110000D03*
%TD*%
D10*
%TO.P,J2,1,Pin_1*%
%TO.N,/SPI1_RX*%
X148560000Y-78570000D03*
D11*
%TO.P,J2,2,Pin_2*%
%TO.N,/SPI1_TX*%
X148560000Y-81110000D03*
%TO.P,J2,3,Pin_3*%
%TO.N,GND*%
X148560000Y-83650000D03*
%TO.P,J2,4,Pin_4*%
%TO.N,/GPIO28_ADC2*%
X148560000Y-86190000D03*
%TO.P,J2,5,Pin_5*%
%TO.N,/GPIO27_ADC1*%
X148560000Y-88730000D03*
%TO.P,J2,6,Pin_6*%
%TO.N,/GPIO26_ADC0*%
X148560000Y-91270000D03*
%TO.P,J2,7,Pin_7*%
%TO.N,/GPIO25*%
X148560000Y-93810000D03*
%TO.P,J2,8,Pin_8*%
%TO.N,+3V3*%
X148560000Y-96350000D03*
%TO.P,J2,9,Pin_9*%
%TO.N,/SPI1_CS_IO9*%
X148560000Y-98890000D03*
%TO.P,J2,10,Pin_10*%
%TO.N,/SPI1_SCK*%
X148560000Y-101430000D03*
%TD*%
D10*
%TO.P,J9,1,Pin_1*%
%TO.N,unconnected-(J9-Pad1)*%
X171420000Y-98880000D03*
D11*
%TO.P,J9,2,Pin_2*%
%TO.N,unconnected-(J9-Pad2)*%
X171420000Y-101420000D03*
%TD*%
D12*
%TO.P,J5,1,Pin_1*%
%TO.N,+3V3*%
X171000000Y-84500000D03*
%TO.P,J5,2,Pin_2*%
%TO.N,GND*%
X171000000Y-86700000D03*
%TO.P,J5,3,Pin_3*%
%TO.N,/TX*%
X171000000Y-88900000D03*
%TO.P,J5,4,Pin_4*%
%TO.N,/SCLK*%
X171000000Y-91100000D03*
%TO.P,J5,5,Pin_5*%
%TO.N,/CS*%
X171000000Y-93300000D03*
%TO.P,J5,6,Pin_6*%
%TO.N,/RX*%
X171000000Y-95500000D03*
%TD*%
D13*
%TO.N,+3V3*%
X161800000Y-87300000D03*
X164600000Y-78600000D03*
X159000000Y-87300000D03*
X168500000Y-82800000D03*
X167401825Y-88899544D03*
X151350000Y-96350000D03*
X160699500Y-91900000D03*
%TO.N,GND*%
X169000000Y-87100000D03*
X173800000Y-86100000D03*
X158500000Y-97500000D03*
X168800000Y-89500000D03*
X172900000Y-86100000D03*
X158750000Y-90850000D03*
X166000000Y-81700000D03*
X166500000Y-77600000D03*
X167000000Y-81700000D03*
X152500000Y-91200000D03*
X155700000Y-90436000D03*
X173800000Y-87100000D03*
X169000000Y-86100000D03*
X154387352Y-94687352D03*
X162200000Y-83900000D03*
X172900000Y-87100000D03*
X155100000Y-82400000D03*
X155900000Y-95000000D03*
%TO.N,+1V1*%
X160400000Y-87300000D03*
X162800000Y-87300000D03*
%TO.N,/SPI1_CS_IO9*%
X154483165Y-91496416D03*
%TO.N,/SPI1_SCK*%
X155456086Y-91989000D03*
%TO.N,/SPI1_RX*%
X154380000Y-87090000D03*
%TO.N,/SPI1_TX*%
X153490000Y-87050000D03*
%TO.N,/GPIO25*%
X165900000Y-89800000D03*
%TO.N,/GPIO26_ADC0*%
X166600000Y-89100000D03*
%TO.N,/GPIO27_ADC1*%
X166600000Y-88200000D03*
%TO.N,/GPIO28_ADC2*%
X165600000Y-87589000D03*
%TD*%
D14*
%TO.N,+3V3*%
X151350000Y-96350000D02*
X151450000Y-96350000D01*
X159600000Y-87900000D02*
X161300000Y-87900000D01*
X161300000Y-87900000D02*
X161800000Y-87400000D01*
D15*
X168500000Y-79800000D02*
X167300000Y-78600000D01*
D14*
X161800000Y-87400000D02*
X161800000Y-87300000D01*
X154900000Y-92900000D02*
X155800000Y-92900000D01*
X165089496Y-91900000D02*
X167401825Y-89587671D01*
X151450000Y-96350000D02*
X154900000Y-92900000D01*
X155800000Y-92900000D02*
X156800000Y-91900000D01*
X159000000Y-87300000D02*
X159600000Y-87900000D01*
D15*
X167300000Y-78600000D02*
X164600000Y-78600000D01*
D14*
X167401825Y-89587671D02*
X167401825Y-88899544D01*
X156800000Y-91900000D02*
X160699500Y-91900000D01*
D15*
X168500000Y-82800000D02*
X168500000Y-79800000D01*
D14*
X160699500Y-91900000D02*
X165089496Y-91900000D01*
%TO.N,+1V1*%
X162800000Y-86800000D02*
X162200000Y-86200000D01*
X162800000Y-87300000D02*
X162800000Y-86800000D01*
X162200000Y-86200000D02*
X161500000Y-86200000D01*
X161500000Y-86200000D02*
X160400000Y-87300000D01*
%TO.N,/SPI1_CS_IO9*%
X150400000Y-94800000D02*
X150400000Y-97040000D01*
X153703584Y-91496416D02*
X150400000Y-94800000D01*
X154483165Y-91496416D02*
X153703584Y-91496416D01*
X150400000Y-97040000D02*
X148560000Y-98880000D01*
%TO.N,/SPI1_SCK*%
X155371670Y-92073416D02*
X153926584Y-92073416D01*
X153926584Y-92073416D02*
X150727000Y-95273000D01*
X150727000Y-95273000D02*
X150727000Y-99253000D01*
X155456086Y-91989000D02*
X155371670Y-92073416D01*
X150727000Y-99253000D02*
X148560000Y-101420000D01*
%TO.N,/SPI1_RX*%
X150400000Y-83110000D02*
X150400000Y-80410000D01*
X150400000Y-80410000D02*
X148560000Y-78570000D01*
X154380000Y-87090000D02*
X150400000Y-83110000D01*
%TO.N,/SPI1_TX*%
X148560000Y-81960000D02*
X148560000Y-81110000D01*
X153490000Y-86890000D02*
X148560000Y-81960000D01*
X153490000Y-87050000D02*
X153490000Y-86890000D01*
%TO.N,/GPIO25*%
X152802998Y-89481000D02*
X148560000Y-93723998D01*
X148560000Y-93723998D02*
X148560000Y-93820000D01*
X165581000Y-89481000D02*
X152802998Y-89481000D01*
X165900000Y-89800000D02*
X165581000Y-89481000D01*
%TO.N,/GPIO26_ADC0*%
X166600000Y-89100000D02*
X164254896Y-89100000D01*
X150686000Y-89154000D02*
X148560000Y-91280000D01*
X164254896Y-89100000D02*
X164200896Y-89154000D01*
X164200896Y-89154000D02*
X150686000Y-89154000D01*
%TO.N,/GPIO27_ADC1*%
X148647000Y-88827000D02*
X148560000Y-88740000D01*
X166600000Y-88200000D02*
X166566000Y-88166000D01*
X166566000Y-88166000D02*
X164726448Y-88166000D01*
X164726448Y-88166000D02*
X164065448Y-88827000D01*
X164065448Y-88827000D02*
X148647000Y-88827000D01*
%TO.N,/GPIO28_ADC2*%
X150860000Y-88500000D02*
X148560000Y-86200000D01*
X165600000Y-87589000D02*
X164841000Y-87589000D01*
X164841000Y-87589000D02*
X163930000Y-88500000D01*
X163930000Y-88500000D02*
X150860000Y-88500000D01*
%TD*%
%TA.AperFunction,Conductor*%
%TO.N,GND*%
G36*
X172970018Y-75510000D02*
G01*
X172984851Y-75512310D01*
X172984855Y-75512310D01*
X172993724Y-75513691D01*
X173008981Y-75511696D01*
X173034302Y-75510953D01*
X173203285Y-75523039D01*
X173221064Y-75525596D01*
X173411392Y-75566999D01*
X173428641Y-75572063D01*
X173611150Y-75640136D01*
X173627502Y-75647604D01*
X173798458Y-75740952D01*
X173813582Y-75750672D01*
X173969514Y-75867402D01*
X173983100Y-75879175D01*
X174120825Y-76016900D01*
X174132598Y-76030486D01*
X174249328Y-76186418D01*
X174259048Y-76201542D01*
X174352396Y-76372498D01*
X174359864Y-76388850D01*
X174427937Y-76571359D01*
X174433001Y-76588607D01*
X174474404Y-76778936D01*
X174476962Y-76796721D01*
X174488540Y-76958601D01*
X174487793Y-76976565D01*
X174487692Y-76984845D01*
X174486309Y-76993724D01*
X174487474Y-77002630D01*
X174490436Y-77025283D01*
X174491500Y-77041621D01*
X174491500Y-102950633D01*
X174490000Y-102970018D01*
X174487690Y-102984851D01*
X174487690Y-102984855D01*
X174486309Y-102993724D01*
X174488136Y-103007693D01*
X174488304Y-103008976D01*
X174489047Y-103034305D01*
X174476962Y-103203279D01*
X174474404Y-103221064D01*
X174456598Y-103302919D01*
X174433001Y-103411392D01*
X174427937Y-103428641D01*
X174359864Y-103611150D01*
X174352396Y-103627502D01*
X174259048Y-103798458D01*
X174249328Y-103813582D01*
X174132598Y-103969514D01*
X174120825Y-103983100D01*
X173983100Y-104120825D01*
X173969514Y-104132598D01*
X173813582Y-104249328D01*
X173798458Y-104259048D01*
X173627502Y-104352396D01*
X173611150Y-104359864D01*
X173428641Y-104427937D01*
X173411393Y-104433001D01*
X173221064Y-104474404D01*
X173203285Y-104476961D01*
X173041395Y-104488540D01*
X173023435Y-104487793D01*
X173015155Y-104487692D01*
X173006276Y-104486309D01*
X172974714Y-104490436D01*
X172958379Y-104491500D01*
X147049367Y-104491500D01*
X147029982Y-104490000D01*
X147015149Y-104487690D01*
X147015145Y-104487690D01*
X147006276Y-104486309D01*
X146991019Y-104488304D01*
X146965698Y-104489047D01*
X146796715Y-104476961D01*
X146778936Y-104474404D01*
X146588607Y-104433001D01*
X146571359Y-104427937D01*
X146388850Y-104359864D01*
X146372498Y-104352396D01*
X146201542Y-104259048D01*
X146186418Y-104249328D01*
X146030486Y-104132598D01*
X146016900Y-104120825D01*
X145879175Y-103983100D01*
X145867402Y-103969514D01*
X145750672Y-103813582D01*
X145740952Y-103798458D01*
X145647604Y-103627502D01*
X145640136Y-103611150D01*
X145572063Y-103428641D01*
X145566999Y-103411392D01*
X145543402Y-103302919D01*
X145525596Y-103221064D01*
X145523038Y-103203278D01*
X145511719Y-103045012D01*
X145512805Y-103022245D01*
X145512334Y-103022203D01*
X145512770Y-103017345D01*
X145513576Y-103012552D01*
X145513729Y-103000000D01*
X145509773Y-102972376D01*
X145508500Y-102954514D01*
X145508500Y-101396695D01*
X147197251Y-101396695D01*
X147197548Y-101401848D01*
X147197548Y-101401851D01*
X147203011Y-101496590D01*
X147210110Y-101619715D01*
X147211247Y-101624761D01*
X147211248Y-101624767D01*
X147230022Y-101708069D01*
X147259222Y-101837639D01*
X147297461Y-101931811D01*
X147337262Y-102029829D01*
X147343266Y-102044616D01*
X147459987Y-102235088D01*
X147606250Y-102403938D01*
X147778126Y-102546632D01*
X147971000Y-102659338D01*
X148179692Y-102739030D01*
X148184760Y-102740061D01*
X148184763Y-102740062D01*
X148250165Y-102753368D01*
X148398597Y-102783567D01*
X148403772Y-102783757D01*
X148403774Y-102783757D01*
X148616673Y-102791564D01*
X148616677Y-102791564D01*
X148621837Y-102791753D01*
X148626957Y-102791097D01*
X148626959Y-102791097D01*
X148838288Y-102764025D01*
X148838289Y-102764025D01*
X148843416Y-102763368D01*
X148874558Y-102754025D01*
X149052429Y-102700661D01*
X149052434Y-102700659D01*
X149057384Y-102699174D01*
X149257994Y-102600896D01*
X149439860Y-102471173D01*
X149598096Y-102313489D01*
X149602661Y-102307137D01*
X149725435Y-102136277D01*
X149728453Y-102132077D01*
X149733396Y-102122077D01*
X149825136Y-101936453D01*
X149825137Y-101936451D01*
X149827430Y-101931811D01*
X149892370Y-101718069D01*
X149921529Y-101496590D01*
X149923156Y-101430000D01*
X149919596Y-101386695D01*
X170057251Y-101386695D01*
X170057548Y-101391848D01*
X170057548Y-101391851D01*
X170063011Y-101486590D01*
X170070110Y-101609715D01*
X170071247Y-101614761D01*
X170071248Y-101614767D01*
X170073502Y-101624767D01*
X170119222Y-101827639D01*
X170203266Y-102034616D01*
X170319987Y-102225088D01*
X170466250Y-102393938D01*
X170638126Y-102536632D01*
X170831000Y-102649338D01*
X170835825Y-102651180D01*
X170835826Y-102651181D01*
X170908612Y-102678975D01*
X171039692Y-102729030D01*
X171044760Y-102730061D01*
X171044763Y-102730062D01*
X171152017Y-102751883D01*
X171258597Y-102773567D01*
X171263772Y-102773757D01*
X171263774Y-102773757D01*
X171476673Y-102781564D01*
X171476677Y-102781564D01*
X171481837Y-102781753D01*
X171486957Y-102781097D01*
X171486959Y-102781097D01*
X171698288Y-102754025D01*
X171698289Y-102754025D01*
X171703416Y-102753368D01*
X171751207Y-102739030D01*
X171912429Y-102690661D01*
X171912434Y-102690659D01*
X171917384Y-102689174D01*
X172117994Y-102590896D01*
X172299860Y-102461173D01*
X172458096Y-102303489D01*
X172517594Y-102220689D01*
X172585435Y-102126277D01*
X172588453Y-102122077D01*
X172626737Y-102044616D01*
X172685136Y-101926453D01*
X172685137Y-101926451D01*
X172687430Y-101921811D01*
X172752370Y-101708069D01*
X172781529Y-101486590D01*
X172781611Y-101483240D01*
X172783074Y-101423365D01*
X172783074Y-101423361D01*
X172783156Y-101420000D01*
X172764852Y-101197361D01*
X172710431Y-100980702D01*
X172621354Y-100775840D01*
X172500014Y-100588277D01*
X172485329Y-100572138D01*
X172352798Y-100426488D01*
X172321746Y-100362642D01*
X172330141Y-100292143D01*
X172375317Y-100237375D01*
X172401761Y-100223706D01*
X172508297Y-100183767D01*
X172516705Y-100180615D01*
X172633261Y-100093261D01*
X172720615Y-99976705D01*
X172771745Y-99840316D01*
X172778500Y-99778134D01*
X172778500Y-97981866D01*
X172771745Y-97919684D01*
X172720615Y-97783295D01*
X172633261Y-97666739D01*
X172516705Y-97579385D01*
X172380316Y-97528255D01*
X172318134Y-97521500D01*
X170521866Y-97521500D01*
X170459684Y-97528255D01*
X170323295Y-97579385D01*
X170206739Y-97666739D01*
X170119385Y-97783295D01*
X170068255Y-97919684D01*
X170061500Y-97981866D01*
X170061500Y-99778134D01*
X170068255Y-99840316D01*
X170119385Y-99976705D01*
X170206739Y-100093261D01*
X170323295Y-100180615D01*
X170331704Y-100183767D01*
X170331705Y-100183768D01*
X170440451Y-100224535D01*
X170497216Y-100267176D01*
X170521916Y-100333738D01*
X170506709Y-100403087D01*
X170487316Y-100429568D01*
X170360629Y-100562138D01*
X170357715Y-100566410D01*
X170357714Y-100566411D01*
X170345409Y-100584450D01*
X170234743Y-100746680D01*
X170140688Y-100949305D01*
X170080989Y-101164570D01*
X170057251Y-101386695D01*
X149919596Y-101386695D01*
X149904852Y-101207361D01*
X149903591Y-101202339D01*
X149867716Y-101059514D01*
X149870520Y-100988573D01*
X149900825Y-100939724D01*
X151123234Y-99717315D01*
X151135625Y-99706448D01*
X151154437Y-99692013D01*
X151160987Y-99686987D01*
X151185474Y-99655075D01*
X151185478Y-99655071D01*
X151258524Y-99559876D01*
X151319838Y-99411851D01*
X151328951Y-99342628D01*
X151335500Y-99292885D01*
X151335500Y-99292880D01*
X151340750Y-99253000D01*
X151336578Y-99221307D01*
X151335500Y-99204864D01*
X151335500Y-97332265D01*
X151355502Y-97264144D01*
X151409158Y-97217651D01*
X151440366Y-97209130D01*
X151440232Y-97208500D01*
X151616752Y-97170980D01*
X151652446Y-97155088D01*
X151775585Y-97100263D01*
X151775587Y-97100262D01*
X151781615Y-97097578D01*
X151822868Y-97067606D01*
X151922269Y-96995387D01*
X151922271Y-96995385D01*
X151927613Y-96991504D01*
X152048367Y-96857393D01*
X152130800Y-96714616D01*
X152135295Y-96706830D01*
X152135296Y-96706829D01*
X152138599Y-96701107D01*
X152182679Y-96565442D01*
X152192325Y-96535754D01*
X152192325Y-96535753D01*
X152194365Y-96529475D01*
X152197135Y-96503122D01*
X152224149Y-96437466D01*
X152233350Y-96427199D01*
X152593854Y-96066695D01*
X158817251Y-96066695D01*
X158817548Y-96071848D01*
X158817548Y-96071851D01*
X158823011Y-96166590D01*
X158830110Y-96289715D01*
X158831247Y-96294761D01*
X158831248Y-96294767D01*
X158852275Y-96388069D01*
X158879222Y-96507639D01*
X158920177Y-96608500D01*
X158957781Y-96701107D01*
X158963266Y-96714616D01*
X159014942Y-96798944D01*
X159077291Y-96900688D01*
X159079987Y-96905088D01*
X159226250Y-97073938D01*
X159398126Y-97216632D01*
X159591000Y-97329338D01*
X159799692Y-97409030D01*
X159804760Y-97410061D01*
X159804763Y-97410062D01*
X159912017Y-97431883D01*
X160018597Y-97453567D01*
X160023772Y-97453757D01*
X160023774Y-97453757D01*
X160236673Y-97461564D01*
X160236677Y-97461564D01*
X160241837Y-97461753D01*
X160246957Y-97461097D01*
X160246959Y-97461097D01*
X160458288Y-97434025D01*
X160458289Y-97434025D01*
X160463416Y-97433368D01*
X160468366Y-97431883D01*
X160672429Y-97370661D01*
X160672434Y-97370659D01*
X160677384Y-97369174D01*
X160877994Y-97270896D01*
X161059860Y-97141173D01*
X161218096Y-96983489D01*
X161277594Y-96900689D01*
X161348453Y-96802077D01*
X161349776Y-96803028D01*
X161396645Y-96759857D01*
X161466580Y-96747625D01*
X161532026Y-96775144D01*
X161559875Y-96806994D01*
X161619987Y-96905088D01*
X161766250Y-97073938D01*
X161938126Y-97216632D01*
X162131000Y-97329338D01*
X162339692Y-97409030D01*
X162344760Y-97410061D01*
X162344763Y-97410062D01*
X162452017Y-97431883D01*
X162558597Y-97453567D01*
X162563772Y-97453757D01*
X162563774Y-97453757D01*
X162776673Y-97461564D01*
X162776677Y-97461564D01*
X162781837Y-97461753D01*
X162786957Y-97461097D01*
X162786959Y-97461097D01*
X162998288Y-97434025D01*
X162998289Y-97434025D01*
X163003416Y-97433368D01*
X163008366Y-97431883D01*
X163212429Y-97370661D01*
X163212434Y-97370659D01*
X163217384Y-97369174D01*
X163417994Y-97270896D01*
X163599860Y-97141173D01*
X163758096Y-96983489D01*
X163817594Y-96900689D01*
X163888453Y-96802077D01*
X163889776Y-96803028D01*
X163936645Y-96759857D01*
X164006580Y-96747625D01*
X164072026Y-96775144D01*
X164099875Y-96806994D01*
X164159987Y-96905088D01*
X164306250Y-97073938D01*
X164478126Y-97216632D01*
X164671000Y-97329338D01*
X164879692Y-97409030D01*
X164884760Y-97410061D01*
X164884763Y-97410062D01*
X164992017Y-97431883D01*
X165098597Y-97453567D01*
X165103772Y-97453757D01*
X165103774Y-97453757D01*
X165316673Y-97461564D01*
X165316677Y-97461564D01*
X165321837Y-97461753D01*
X165326957Y-97461097D01*
X165326959Y-97461097D01*
X165538288Y-97434025D01*
X165538289Y-97434025D01*
X165543416Y-97433368D01*
X165548366Y-97431883D01*
X165752429Y-97370661D01*
X165752434Y-97370659D01*
X165757384Y-97369174D01*
X165957994Y-97270896D01*
X166139860Y-97141173D01*
X166207331Y-97073938D01*
X166248479Y-97032933D01*
X166310851Y-96999017D01*
X166381658Y-97004205D01*
X166438419Y-97046851D01*
X166455401Y-97077954D01*
X166496676Y-97188054D01*
X166505214Y-97203649D01*
X166581715Y-97305724D01*
X166594276Y-97318285D01*
X166696351Y-97394786D01*
X166711946Y-97403324D01*
X166832394Y-97448478D01*
X166847649Y-97452105D01*
X166898514Y-97457631D01*
X166905328Y-97458000D01*
X167527885Y-97458000D01*
X167543124Y-97453525D01*
X167544329Y-97452135D01*
X167546000Y-97444452D01*
X167546000Y-97439884D01*
X168054000Y-97439884D01*
X168058475Y-97455123D01*
X168059865Y-97456328D01*
X168067548Y-97457999D01*
X168694669Y-97457999D01*
X168701490Y-97457629D01*
X168752352Y-97452105D01*
X168767604Y-97448479D01*
X168888054Y-97403324D01*
X168903649Y-97394786D01*
X169005724Y-97318285D01*
X169018285Y-97305724D01*
X169094786Y-97203649D01*
X169103324Y-97188054D01*
X169148478Y-97067606D01*
X169152105Y-97052351D01*
X169157631Y-97001486D01*
X169158000Y-96994672D01*
X169158000Y-96372115D01*
X169153525Y-96356876D01*
X169152135Y-96355671D01*
X169144452Y-96354000D01*
X168072115Y-96354000D01*
X168056876Y-96358475D01*
X168055671Y-96359865D01*
X168054000Y-96367548D01*
X168054000Y-97439884D01*
X167546000Y-97439884D01*
X167546000Y-95827885D01*
X168054000Y-95827885D01*
X168058475Y-95843124D01*
X168059865Y-95844329D01*
X168067548Y-95846000D01*
X169139884Y-95846000D01*
X169155123Y-95841525D01*
X169156328Y-95840135D01*
X169157999Y-95832452D01*
X169157999Y-95445604D01*
X169487787Y-95445604D01*
X169497567Y-95656899D01*
X169498971Y-95662724D01*
X169498971Y-95662725D01*
X169544034Y-95849707D01*
X169547125Y-95862534D01*
X169549607Y-95867992D01*
X169549608Y-95867996D01*
X169593053Y-95963546D01*
X169634674Y-96055087D01*
X169757054Y-96227611D01*
X169909850Y-96373881D01*
X170087548Y-96488620D01*
X170146616Y-96512425D01*
X170278168Y-96565442D01*
X170278171Y-96565443D01*
X170283737Y-96567686D01*
X170491337Y-96608228D01*
X170496899Y-96608500D01*
X171452846Y-96608500D01*
X171610566Y-96593452D01*
X171813534Y-96533908D01*
X171855246Y-96512425D01*
X171996249Y-96439804D01*
X171996252Y-96439802D01*
X172001580Y-96437058D01*
X172167920Y-96306396D01*
X172171852Y-96301865D01*
X172171855Y-96301862D01*
X172302621Y-96151167D01*
X172306552Y-96146637D01*
X172309552Y-96141451D01*
X172309555Y-96141447D01*
X172409467Y-95968742D01*
X172412473Y-95963546D01*
X172481861Y-95763729D01*
X172501352Y-95629305D01*
X172511352Y-95560336D01*
X172511352Y-95560333D01*
X172512213Y-95554396D01*
X172502433Y-95343101D01*
X172462906Y-95179087D01*
X172454281Y-95143299D01*
X172454280Y-95143297D01*
X172452875Y-95137466D01*
X172445990Y-95122322D01*
X172392881Y-95005516D01*
X172365326Y-94944913D01*
X172249813Y-94782069D01*
X172246412Y-94777275D01*
X172246411Y-94777274D01*
X172242946Y-94772389D01*
X172090150Y-94626119D01*
X172054805Y-94603297D01*
X171917489Y-94514632D01*
X171917486Y-94514630D01*
X171912452Y-94511380D01*
X171907211Y-94509268D01*
X171856021Y-94460242D01*
X171839435Y-94391210D01*
X171862804Y-94324170D01*
X171907585Y-94285468D01*
X171961365Y-94257770D01*
X171996249Y-94239804D01*
X171996252Y-94239802D01*
X172001580Y-94237058D01*
X172167920Y-94106396D01*
X172171852Y-94101865D01*
X172171855Y-94101862D01*
X172302621Y-93951167D01*
X172306552Y-93946637D01*
X172309552Y-93941451D01*
X172309555Y-93941447D01*
X172409467Y-93768742D01*
X172412473Y-93763546D01*
X172481861Y-93563729D01*
X172483189Y-93554570D01*
X172511352Y-93360336D01*
X172511352Y-93360333D01*
X172512213Y-93354396D01*
X172502433Y-93143101D01*
X172456411Y-92952138D01*
X172454281Y-92943299D01*
X172454280Y-92943297D01*
X172452875Y-92937466D01*
X172409525Y-92842122D01*
X172384703Y-92787530D01*
X172365326Y-92744913D01*
X172242946Y-92572389D01*
X172090150Y-92426119D01*
X172028996Y-92386632D01*
X171917489Y-92314632D01*
X171917486Y-92314630D01*
X171912452Y-92311380D01*
X171907211Y-92309268D01*
X171856021Y-92260242D01*
X171839435Y-92191210D01*
X171862804Y-92124170D01*
X171907585Y-92085468D01*
X171961365Y-92057770D01*
X171996249Y-92039804D01*
X171996252Y-92039802D01*
X172001580Y-92037058D01*
X172167920Y-91906396D01*
X172171852Y-91901865D01*
X172171855Y-91901862D01*
X172302621Y-91751167D01*
X172306552Y-91746637D01*
X172309552Y-91741451D01*
X172309555Y-91741447D01*
X172409467Y-91568742D01*
X172412473Y-91563546D01*
X172481861Y-91363729D01*
X172487557Y-91324445D01*
X172511352Y-91160336D01*
X172511352Y-91160333D01*
X172512213Y-91154396D01*
X172502433Y-90943101D01*
X172452875Y-90737466D01*
X172425893Y-90678121D01*
X172386918Y-90592401D01*
X172365326Y-90544913D01*
X172242946Y-90372389D01*
X172090150Y-90226119D01*
X172054805Y-90203297D01*
X171917489Y-90114632D01*
X171917486Y-90114630D01*
X171912452Y-90111380D01*
X171907211Y-90109268D01*
X171856021Y-90060242D01*
X171839435Y-89991210D01*
X171862804Y-89924170D01*
X171907585Y-89885468D01*
X171961365Y-89857770D01*
X171996249Y-89839804D01*
X171996252Y-89839802D01*
X172001580Y-89837058D01*
X172167920Y-89706396D01*
X172171852Y-89701865D01*
X172171855Y-89701862D01*
X172302621Y-89551167D01*
X172306552Y-89546637D01*
X172309552Y-89541451D01*
X172309555Y-89541447D01*
X172409467Y-89368742D01*
X172412473Y-89363546D01*
X172481861Y-89163729D01*
X172493233Y-89085298D01*
X172511352Y-88960336D01*
X172511352Y-88960333D01*
X172512213Y-88954396D01*
X172502433Y-88743101D01*
X172452875Y-88537466D01*
X172426614Y-88479707D01*
X172367806Y-88350368D01*
X172365326Y-88344913D01*
X172242946Y-88172389D01*
X172090150Y-88026119D01*
X172054805Y-88003297D01*
X171917489Y-87914632D01*
X171917486Y-87914630D01*
X171912452Y-87911380D01*
X171906889Y-87909138D01*
X171906752Y-87909067D01*
X171855477Y-87859960D01*
X171838891Y-87790928D01*
X171862260Y-87723888D01*
X171907043Y-87685185D01*
X171995978Y-87639381D01*
X172006024Y-87632931D01*
X172162857Y-87509738D01*
X172171506Y-87501501D01*
X172302212Y-87350877D01*
X172309147Y-87341153D01*
X172409010Y-87168533D01*
X172413984Y-87157669D01*
X172479407Y-86969273D01*
X172479648Y-86968284D01*
X172478180Y-86957992D01*
X172464615Y-86954000D01*
X169539598Y-86954000D01*
X169526067Y-86957973D01*
X169524712Y-86967399D01*
X169546194Y-87056537D01*
X169550083Y-87067832D01*
X169632629Y-87249382D01*
X169638576Y-87259724D01*
X169753968Y-87422397D01*
X169761761Y-87431425D01*
X169905831Y-87569342D01*
X169915196Y-87576738D01*
X170082747Y-87684925D01*
X170093252Y-87690370D01*
X170144526Y-87739477D01*
X170161112Y-87808509D01*
X170137742Y-87875549D01*
X170092961Y-87914250D01*
X170092220Y-87914632D01*
X170003751Y-87960196D01*
X170003748Y-87960198D01*
X169998420Y-87962942D01*
X169832080Y-88093604D01*
X169828148Y-88098135D01*
X169828145Y-88098138D01*
X169759474Y-88177275D01*
X169693448Y-88253363D01*
X169690448Y-88258549D01*
X169690445Y-88258553D01*
X169643312Y-88340026D01*
X169587527Y-88436454D01*
X169518139Y-88636271D01*
X169487787Y-88845604D01*
X169497567Y-89056899D01*
X169498971Y-89062724D01*
X169498971Y-89062725D01*
X169542747Y-89244366D01*
X169547125Y-89262534D01*
X169549607Y-89267992D01*
X169549608Y-89267996D01*
X169593053Y-89363546D01*
X169634674Y-89455087D01*
X169757054Y-89627611D01*
X169909850Y-89773881D01*
X169945195Y-89796703D01*
X170082511Y-89885368D01*
X170082514Y-89885370D01*
X170087548Y-89888620D01*
X170092789Y-89890732D01*
X170143979Y-89939758D01*
X170160565Y-90008790D01*
X170137196Y-90075830D01*
X170092415Y-90114532D01*
X170038635Y-90142230D01*
X170003751Y-90160196D01*
X170003748Y-90160198D01*
X169998420Y-90162942D01*
X169832080Y-90293604D01*
X169828148Y-90298135D01*
X169828145Y-90298138D01*
X169759474Y-90377275D01*
X169693448Y-90453363D01*
X169690448Y-90458549D01*
X169690445Y-90458553D01*
X169661603Y-90508409D01*
X169587527Y-90636454D01*
X169518139Y-90836271D01*
X169517278Y-90842206D01*
X169517278Y-90842208D01*
X169492287Y-91014570D01*
X169487787Y-91045604D01*
X169497567Y-91256899D01*
X169498971Y-91262724D01*
X169498971Y-91262725D01*
X169516773Y-91336590D01*
X169547125Y-91462534D01*
X169549607Y-91467992D01*
X169549608Y-91467996D01*
X169593053Y-91563546D01*
X169634674Y-91655087D01*
X169757054Y-91827611D01*
X169909850Y-91973881D01*
X169914886Y-91977132D01*
X169914885Y-91977132D01*
X170082511Y-92085368D01*
X170082514Y-92085370D01*
X170087548Y-92088620D01*
X170092789Y-92090732D01*
X170143979Y-92139758D01*
X170160565Y-92208790D01*
X170137196Y-92275830D01*
X170092415Y-92314532D01*
X170054640Y-92333987D01*
X170003751Y-92360196D01*
X170003748Y-92360198D01*
X169998420Y-92362942D01*
X169832080Y-92493604D01*
X169828148Y-92498135D01*
X169828145Y-92498138D01*
X169759474Y-92577275D01*
X169693448Y-92653363D01*
X169690448Y-92658549D01*
X169690445Y-92658553D01*
X169596661Y-92820665D01*
X169587527Y-92836454D01*
X169518139Y-93036271D01*
X169517278Y-93042206D01*
X169517278Y-93042208D01*
X169502900Y-93141375D01*
X169487787Y-93245604D01*
X169497567Y-93456899D01*
X169498971Y-93462724D01*
X169498971Y-93462725D01*
X169510003Y-93508499D01*
X169547125Y-93662534D01*
X169549607Y-93667992D01*
X169549608Y-93667996D01*
X169593053Y-93763546D01*
X169634674Y-93855087D01*
X169757054Y-94027611D01*
X169909850Y-94173881D01*
X169914886Y-94177132D01*
X169914885Y-94177132D01*
X170082511Y-94285368D01*
X170082514Y-94285370D01*
X170087548Y-94288620D01*
X170092789Y-94290732D01*
X170143979Y-94339758D01*
X170160565Y-94408790D01*
X170137196Y-94475830D01*
X170092415Y-94514532D01*
X170038635Y-94542230D01*
X170003751Y-94560196D01*
X170003748Y-94560198D01*
X169998420Y-94562942D01*
X169832080Y-94693604D01*
X169828148Y-94698135D01*
X169828145Y-94698138D01*
X169740111Y-94799589D01*
X169693448Y-94853363D01*
X169690448Y-94858549D01*
X169690445Y-94858553D01*
X169649551Y-94929242D01*
X169587527Y-95036454D01*
X169518139Y-95236271D01*
X169517278Y-95242206D01*
X169517278Y-95242208D01*
X169494455Y-95399618D01*
X169487787Y-95445604D01*
X169157999Y-95445604D01*
X169157999Y-95205331D01*
X169157629Y-95198510D01*
X169152105Y-95147648D01*
X169148479Y-95132396D01*
X169103324Y-95011946D01*
X169094786Y-94996351D01*
X169018285Y-94894276D01*
X169005724Y-94881715D01*
X168903649Y-94805214D01*
X168888054Y-94796676D01*
X168767606Y-94751522D01*
X168752351Y-94747895D01*
X168701486Y-94742369D01*
X168694672Y-94742000D01*
X168072115Y-94742000D01*
X168056876Y-94746475D01*
X168055671Y-94747865D01*
X168054000Y-94755548D01*
X168054000Y-95827885D01*
X167546000Y-95827885D01*
X167546000Y-94760116D01*
X167541525Y-94744877D01*
X167540135Y-94743672D01*
X167532452Y-94742001D01*
X166905331Y-94742001D01*
X166898510Y-94742371D01*
X166847648Y-94747895D01*
X166832396Y-94751521D01*
X166711946Y-94796676D01*
X166696351Y-94805214D01*
X166594276Y-94881715D01*
X166581715Y-94894276D01*
X166505214Y-94996351D01*
X166496676Y-95011946D01*
X166455297Y-95122322D01*
X166412655Y-95179087D01*
X166346093Y-95203786D01*
X166276744Y-95188578D01*
X166244121Y-95162891D01*
X166193151Y-95106876D01*
X166193145Y-95106870D01*
X166189670Y-95103051D01*
X166185619Y-95099852D01*
X166185615Y-95099848D01*
X166018414Y-94967800D01*
X166018410Y-94967798D01*
X166014359Y-94964598D01*
X165818789Y-94856638D01*
X165813920Y-94854914D01*
X165813916Y-94854912D01*
X165613087Y-94783795D01*
X165613083Y-94783794D01*
X165608212Y-94782069D01*
X165603119Y-94781162D01*
X165603116Y-94781161D01*
X165393373Y-94743800D01*
X165393367Y-94743799D01*
X165388284Y-94742894D01*
X165314452Y-94741992D01*
X165170081Y-94740228D01*
X165170079Y-94740228D01*
X165164911Y-94740165D01*
X164944091Y-94773955D01*
X164731756Y-94843357D01*
X164533607Y-94946507D01*
X164529474Y-94949610D01*
X164529471Y-94949612D01*
X164359100Y-95077530D01*
X164354965Y-95080635D01*
X164315128Y-95122322D01*
X164206236Y-95236271D01*
X164200629Y-95242138D01*
X164093201Y-95399621D01*
X164038293Y-95444621D01*
X163967768Y-95452792D01*
X163904021Y-95421538D01*
X163883324Y-95397054D01*
X163802822Y-95272617D01*
X163802820Y-95272614D01*
X163800014Y-95268277D01*
X163649670Y-95103051D01*
X163645619Y-95099852D01*
X163645615Y-95099848D01*
X163478414Y-94967800D01*
X163478410Y-94967798D01*
X163474359Y-94964598D01*
X163278789Y-94856638D01*
X163273920Y-94854914D01*
X163273916Y-94854912D01*
X163073087Y-94783795D01*
X163073083Y-94783794D01*
X163068212Y-94782069D01*
X163063119Y-94781162D01*
X163063116Y-94781161D01*
X162853373Y-94743800D01*
X162853367Y-94743799D01*
X162848284Y-94742894D01*
X162774452Y-94741992D01*
X162630081Y-94740228D01*
X162630079Y-94740228D01*
X162624911Y-94740165D01*
X162404091Y-94773955D01*
X162191756Y-94843357D01*
X161993607Y-94946507D01*
X161989474Y-94949610D01*
X161989471Y-94949612D01*
X161819100Y-95077530D01*
X161814965Y-95080635D01*
X161775128Y-95122322D01*
X161666236Y-95236271D01*
X161660629Y-95242138D01*
X161553201Y-95399621D01*
X161498293Y-95444621D01*
X161427768Y-95452792D01*
X161364021Y-95421538D01*
X161343324Y-95397054D01*
X161262822Y-95272617D01*
X161262820Y-95272614D01*
X161260014Y-95268277D01*
X161109670Y-95103051D01*
X161105619Y-95099852D01*
X161105615Y-95099848D01*
X160938414Y-94967800D01*
X160938410Y-94967798D01*
X160934359Y-94964598D01*
X160738789Y-94856638D01*
X160733920Y-94854914D01*
X160733916Y-94854912D01*
X160533087Y-94783795D01*
X160533083Y-94783794D01*
X160528212Y-94782069D01*
X160523119Y-94781162D01*
X160523116Y-94781161D01*
X160313373Y-94743800D01*
X160313367Y-94743799D01*
X160308284Y-94742894D01*
X160234452Y-94741992D01*
X160090081Y-94740228D01*
X160090079Y-94740228D01*
X160084911Y-94740165D01*
X159864091Y-94773955D01*
X159651756Y-94843357D01*
X159453607Y-94946507D01*
X159449474Y-94949610D01*
X159449471Y-94949612D01*
X159279100Y-95077530D01*
X159274965Y-95080635D01*
X159235128Y-95122322D01*
X159126236Y-95236271D01*
X159120629Y-95242138D01*
X159117720Y-95246403D01*
X159117714Y-95246411D01*
X159060260Y-95330635D01*
X158994743Y-95426680D01*
X158900688Y-95629305D01*
X158840989Y-95844570D01*
X158817251Y-96066695D01*
X152593854Y-96066695D01*
X155115144Y-93545405D01*
X155177456Y-93511379D01*
X155204239Y-93508500D01*
X155751864Y-93508500D01*
X155768307Y-93509578D01*
X155800000Y-93513750D01*
X155808189Y-93512672D01*
X155839874Y-93508501D01*
X155839884Y-93508500D01*
X155839885Y-93508500D01*
X155939457Y-93495391D01*
X155950664Y-93493916D01*
X155950666Y-93493915D01*
X155958851Y-93492838D01*
X156106876Y-93431524D01*
X156202072Y-93358477D01*
X156202075Y-93358474D01*
X156233987Y-93333987D01*
X156239017Y-93327432D01*
X156253452Y-93308621D01*
X156264319Y-93296230D01*
X157015144Y-92545405D01*
X157077456Y-92511379D01*
X157104239Y-92508500D01*
X160037897Y-92508500D01*
X160106018Y-92528502D01*
X160119336Y-92538671D01*
X160121887Y-92541504D01*
X160127229Y-92545385D01*
X160127231Y-92545387D01*
X160262543Y-92643697D01*
X160267885Y-92647578D01*
X160273913Y-92650262D01*
X160273915Y-92650263D01*
X160345009Y-92681916D01*
X160432748Y-92720980D01*
X160521008Y-92739740D01*
X160602811Y-92757128D01*
X160602815Y-92757128D01*
X160609268Y-92758500D01*
X160789732Y-92758500D01*
X160796185Y-92757128D01*
X160796189Y-92757128D01*
X160877992Y-92739740D01*
X160966252Y-92720980D01*
X161053991Y-92681916D01*
X161125085Y-92650263D01*
X161125087Y-92650262D01*
X161131115Y-92647578D01*
X161136457Y-92643697D01*
X161271769Y-92545387D01*
X161271771Y-92545385D01*
X161277113Y-92541504D01*
X161278373Y-92540105D01*
X161340801Y-92510146D01*
X161361103Y-92508500D01*
X165041360Y-92508500D01*
X165057803Y-92509578D01*
X165089496Y-92513750D01*
X165097685Y-92512672D01*
X165129370Y-92508501D01*
X165129380Y-92508500D01*
X165129381Y-92508500D01*
X165129389Y-92508499D01*
X165240160Y-92493916D01*
X165240162Y-92493916D01*
X165242528Y-92493604D01*
X165248347Y-92492838D01*
X165255973Y-92489679D01*
X165255974Y-92489679D01*
X165297959Y-92472288D01*
X165396372Y-92431524D01*
X165491568Y-92358477D01*
X165491571Y-92358474D01*
X165523483Y-92333987D01*
X165538411Y-92314533D01*
X165542948Y-92308621D01*
X165553815Y-92296230D01*
X167798059Y-90051986D01*
X167810450Y-90041119D01*
X167829262Y-90026684D01*
X167835812Y-90021658D01*
X167860299Y-89989746D01*
X167860305Y-89989740D01*
X167928321Y-89901100D01*
X167928322Y-89901098D01*
X167933349Y-89894547D01*
X167994663Y-89746522D01*
X167998582Y-89716754D01*
X168010325Y-89627556D01*
X168010325Y-89627551D01*
X168015575Y-89587671D01*
X168013192Y-89569569D01*
X168024132Y-89499420D01*
X168044478Y-89468813D01*
X168095773Y-89411845D01*
X168095774Y-89411844D01*
X168100192Y-89406937D01*
X168128516Y-89357878D01*
X168187120Y-89256374D01*
X168187121Y-89256373D01*
X168190424Y-89250651D01*
X168246190Y-89079019D01*
X168265054Y-88899544D01*
X168246190Y-88720069D01*
X168238596Y-88696695D01*
X168192466Y-88554722D01*
X168190424Y-88548437D01*
X168180937Y-88532004D01*
X168103493Y-88397869D01*
X168100192Y-88392151D01*
X168062571Y-88350368D01*
X167983860Y-88262951D01*
X167983859Y-88262950D01*
X167979438Y-88258040D01*
X167833440Y-88151966D01*
X167827412Y-88149282D01*
X167827410Y-88149281D01*
X167674608Y-88081249D01*
X167674606Y-88081249D01*
X167668577Y-88078564D01*
X167662122Y-88077192D01*
X167662119Y-88077191D01*
X167545488Y-88052401D01*
X167519146Y-88046802D01*
X167456672Y-88013074D01*
X167425509Y-87962491D01*
X167390641Y-87855178D01*
X167388599Y-87848893D01*
X167298367Y-87692607D01*
X167207488Y-87591675D01*
X167182035Y-87563407D01*
X167182034Y-87563406D01*
X167177613Y-87558496D01*
X167099167Y-87501501D01*
X167036957Y-87456303D01*
X167036956Y-87456302D01*
X167031615Y-87452422D01*
X167025587Y-87449738D01*
X167025585Y-87449737D01*
X166872783Y-87381705D01*
X166872781Y-87381705D01*
X166866752Y-87379020D01*
X166772084Y-87358898D01*
X166696689Y-87342872D01*
X166696685Y-87342872D01*
X166690232Y-87341500D01*
X166513807Y-87341500D01*
X166445686Y-87321498D01*
X166399193Y-87267842D01*
X166393974Y-87254437D01*
X166388599Y-87237893D01*
X166298367Y-87081607D01*
X166281168Y-87062505D01*
X166182035Y-86952407D01*
X166182034Y-86952406D01*
X166177613Y-86947496D01*
X166143357Y-86922607D01*
X166036957Y-86845303D01*
X166036956Y-86845302D01*
X166031615Y-86841422D01*
X166025587Y-86838738D01*
X166025585Y-86838737D01*
X165872783Y-86770705D01*
X165872781Y-86770705D01*
X165866752Y-86768020D01*
X165778492Y-86749260D01*
X165696689Y-86731872D01*
X165696685Y-86731872D01*
X165690232Y-86730500D01*
X165509768Y-86730500D01*
X165503315Y-86731872D01*
X165503311Y-86731872D01*
X165421508Y-86749260D01*
X165333248Y-86768020D01*
X165327219Y-86770704D01*
X165327217Y-86770705D01*
X165174416Y-86838737D01*
X165174414Y-86838738D01*
X165168386Y-86841422D01*
X165163045Y-86845302D01*
X165163044Y-86845303D01*
X165027731Y-86943613D01*
X165027729Y-86943615D01*
X165022387Y-86947496D01*
X165021127Y-86948895D01*
X164958699Y-86978854D01*
X164938397Y-86980500D01*
X164889144Y-86980500D01*
X164872698Y-86979422D01*
X164849188Y-86976327D01*
X164841000Y-86975249D01*
X164682149Y-86996162D01*
X164534124Y-87057476D01*
X164502676Y-87081607D01*
X164438937Y-87130515D01*
X164438921Y-87130529D01*
X164413566Y-87149984D01*
X164413563Y-87149987D01*
X164407013Y-87155013D01*
X164401983Y-87161568D01*
X164387548Y-87180379D01*
X164376681Y-87192770D01*
X163800999Y-87768452D01*
X163738687Y-87802478D01*
X163667872Y-87797413D01*
X163611036Y-87754866D01*
X163586225Y-87688346D01*
X163592071Y-87640421D01*
X163642325Y-87485754D01*
X163642325Y-87485753D01*
X163644365Y-87479475D01*
X163647209Y-87452422D01*
X163662539Y-87306565D01*
X163663229Y-87300000D01*
X163647461Y-87149984D01*
X163645055Y-87127089D01*
X163645055Y-87127088D01*
X163644365Y-87120525D01*
X163588599Y-86948893D01*
X163498367Y-86792607D01*
X163478647Y-86770705D01*
X163424299Y-86710346D01*
X163399441Y-86656406D01*
X163396053Y-86657314D01*
X163393916Y-86649337D01*
X163392838Y-86641150D01*
X163389871Y-86633987D01*
X163372727Y-86592596D01*
X163334684Y-86500754D01*
X163331524Y-86493124D01*
X163297280Y-86448496D01*
X163278566Y-86424108D01*
X163258477Y-86397928D01*
X163258474Y-86397925D01*
X163233987Y-86366013D01*
X163227432Y-86360983D01*
X163208621Y-86346548D01*
X163196230Y-86335681D01*
X162664315Y-85803766D01*
X162653448Y-85791375D01*
X162639013Y-85772563D01*
X162633987Y-85766013D01*
X162602075Y-85741526D01*
X162602072Y-85741523D01*
X162560509Y-85709630D01*
X162513429Y-85673504D01*
X162513426Y-85673502D01*
X162506876Y-85668476D01*
X162358851Y-85607162D01*
X162350664Y-85606084D01*
X162350663Y-85606084D01*
X162339458Y-85604609D01*
X162308262Y-85600502D01*
X162239885Y-85591500D01*
X162239882Y-85591500D01*
X162239874Y-85591499D01*
X162208189Y-85587328D01*
X162200000Y-85586250D01*
X162168307Y-85590422D01*
X162151864Y-85591500D01*
X161548136Y-85591500D01*
X161531693Y-85590422D01*
X161500000Y-85586250D01*
X161491811Y-85587328D01*
X161460126Y-85591499D01*
X161460117Y-85591500D01*
X161460115Y-85591500D01*
X161460109Y-85591501D01*
X161460107Y-85591501D01*
X161360543Y-85604609D01*
X161349336Y-85606084D01*
X161349334Y-85606085D01*
X161341149Y-85607162D01*
X161267136Y-85637819D01*
X161200752Y-85665316D01*
X161200750Y-85665317D01*
X161193124Y-85668476D01*
X161186575Y-85673502D01*
X161186574Y-85673502D01*
X161126884Y-85719305D01*
X161066013Y-85766013D01*
X161046546Y-85791383D01*
X161035684Y-85803768D01*
X160434855Y-86404596D01*
X160372543Y-86438621D01*
X160345760Y-86441500D01*
X160309768Y-86441500D01*
X160303315Y-86442872D01*
X160303311Y-86442872D01*
X160221508Y-86460260D01*
X160133248Y-86479020D01*
X160127219Y-86481704D01*
X160127217Y-86481705D01*
X159974416Y-86549737D01*
X159974414Y-86549738D01*
X159968386Y-86552422D01*
X159963045Y-86556302D01*
X159963044Y-86556303D01*
X159827731Y-86654613D01*
X159827729Y-86654615D01*
X159822387Y-86658496D01*
X159793634Y-86690429D01*
X159733190Y-86727667D01*
X159662206Y-86726315D01*
X159606366Y-86690429D01*
X159577613Y-86658496D01*
X159553739Y-86641150D01*
X159436957Y-86556303D01*
X159436956Y-86556302D01*
X159431615Y-86552422D01*
X159425587Y-86549738D01*
X159425585Y-86549737D01*
X159272783Y-86481705D01*
X159272781Y-86481705D01*
X159266752Y-86479020D01*
X159178492Y-86460260D01*
X159096689Y-86442872D01*
X159096685Y-86442872D01*
X159090232Y-86441500D01*
X158909768Y-86441500D01*
X158903315Y-86442872D01*
X158903311Y-86442872D01*
X158821508Y-86460260D01*
X158733248Y-86479020D01*
X158727219Y-86481704D01*
X158727217Y-86481705D01*
X158574416Y-86549737D01*
X158574414Y-86549738D01*
X158568386Y-86552422D01*
X158563045Y-86556302D01*
X158563044Y-86556303D01*
X158427731Y-86654613D01*
X158427729Y-86654615D01*
X158422387Y-86658496D01*
X158417969Y-86663403D01*
X158417965Y-86663407D01*
X158321354Y-86770705D01*
X158301633Y-86792607D01*
X158211401Y-86948893D01*
X158155635Y-87120525D01*
X158154945Y-87127088D01*
X158154945Y-87127089D01*
X158152539Y-87149984D01*
X158136771Y-87300000D01*
X158137461Y-87306565D01*
X158152792Y-87452422D01*
X158155635Y-87479475D01*
X158157675Y-87485753D01*
X158157675Y-87485754D01*
X158182906Y-87563407D01*
X158211401Y-87651107D01*
X158238663Y-87698325D01*
X158241073Y-87702500D01*
X158257811Y-87771495D01*
X158234591Y-87838587D01*
X158178784Y-87882474D01*
X158131954Y-87891500D01*
X155096552Y-87891500D01*
X155028431Y-87871498D01*
X154981938Y-87817842D01*
X154971834Y-87747568D01*
X155002916Y-87681190D01*
X155073948Y-87602301D01*
X155073949Y-87602300D01*
X155078367Y-87597393D01*
X155146447Y-87479475D01*
X155165295Y-87446830D01*
X155165296Y-87446829D01*
X155168599Y-87441107D01*
X155224365Y-87269475D01*
X155227685Y-87237893D01*
X155242539Y-87096565D01*
X155243229Y-87090000D01*
X155224365Y-86910525D01*
X155221853Y-86902792D01*
X155170641Y-86745178D01*
X155168599Y-86738893D01*
X155164546Y-86731872D01*
X155089809Y-86602425D01*
X155078367Y-86582607D01*
X154987515Y-86481705D01*
X154962035Y-86453407D01*
X154962034Y-86453406D01*
X154957613Y-86448496D01*
X154949873Y-86442872D01*
X154816957Y-86346303D01*
X154816956Y-86346302D01*
X154811615Y-86342422D01*
X154805587Y-86339738D01*
X154805585Y-86339737D01*
X154652783Y-86271705D01*
X154652781Y-86271705D01*
X154646752Y-86269020D01*
X154521189Y-86242331D01*
X154476689Y-86232872D01*
X154476685Y-86232872D01*
X154470232Y-86231500D01*
X154434239Y-86231500D01*
X154366118Y-86211498D01*
X154345144Y-86194595D01*
X152596153Y-84445604D01*
X169487787Y-84445604D01*
X169497567Y-84656899D01*
X169498971Y-84662724D01*
X169498971Y-84662725D01*
X169524543Y-84768831D01*
X169547125Y-84862534D01*
X169549607Y-84867992D01*
X169549608Y-84867996D01*
X169593053Y-84963546D01*
X169634674Y-85055087D01*
X169757054Y-85227611D01*
X169909850Y-85373881D01*
X169914886Y-85377132D01*
X169914885Y-85377132D01*
X170082511Y-85485368D01*
X170082514Y-85485370D01*
X170087548Y-85488620D01*
X170093111Y-85490862D01*
X170093248Y-85490933D01*
X170144523Y-85540040D01*
X170161109Y-85609072D01*
X170137740Y-85676112D01*
X170092957Y-85714815D01*
X170004022Y-85760619D01*
X169993976Y-85767069D01*
X169837143Y-85890262D01*
X169828494Y-85898499D01*
X169697788Y-86049123D01*
X169690853Y-86058847D01*
X169590990Y-86231467D01*
X169586016Y-86242331D01*
X169520593Y-86430727D01*
X169520352Y-86431716D01*
X169521820Y-86442008D01*
X169535385Y-86446000D01*
X172460402Y-86446000D01*
X172473933Y-86442027D01*
X172475288Y-86432601D01*
X172453806Y-86343463D01*
X172449917Y-86332168D01*
X172367371Y-86150618D01*
X172361424Y-86140276D01*
X172246032Y-85977603D01*
X172238239Y-85968575D01*
X172094169Y-85830658D01*
X172084804Y-85823262D01*
X171917253Y-85715075D01*
X171906748Y-85709630D01*
X171855474Y-85660523D01*
X171838888Y-85591491D01*
X171862258Y-85524451D01*
X171907039Y-85485750D01*
X171945699Y-85465838D01*
X171996249Y-85439804D01*
X171996252Y-85439802D01*
X172001580Y-85437058D01*
X172167920Y-85306396D01*
X172171852Y-85301865D01*
X172171855Y-85301862D01*
X172302621Y-85151167D01*
X172306552Y-85146637D01*
X172309552Y-85141451D01*
X172309555Y-85141447D01*
X172409467Y-84968742D01*
X172412473Y-84963546D01*
X172481861Y-84763729D01*
X172482722Y-84757792D01*
X172511352Y-84560336D01*
X172511352Y-84560333D01*
X172512213Y-84554396D01*
X172502433Y-84343101D01*
X172452875Y-84137466D01*
X172409525Y-84042122D01*
X172367806Y-83950368D01*
X172365326Y-83944913D01*
X172242946Y-83772389D01*
X172090150Y-83626119D01*
X171912452Y-83511380D01*
X171808926Y-83469658D01*
X171721832Y-83434558D01*
X171721829Y-83434557D01*
X171716263Y-83432314D01*
X171508663Y-83391772D01*
X171503101Y-83391500D01*
X170547154Y-83391500D01*
X170389434Y-83406548D01*
X170186466Y-83466092D01*
X170181139Y-83468836D01*
X170181138Y-83468836D01*
X170003751Y-83560196D01*
X170003748Y-83560198D01*
X169998420Y-83562942D01*
X169832080Y-83693604D01*
X169828148Y-83698135D01*
X169828145Y-83698138D01*
X169759474Y-83777275D01*
X169693448Y-83853363D01*
X169690448Y-83858549D01*
X169690445Y-83858553D01*
X169661855Y-83907973D01*
X169587527Y-84036454D01*
X169518139Y-84236271D01*
X169517278Y-84242206D01*
X169517278Y-84242208D01*
X169502057Y-84347188D01*
X169487787Y-84445604D01*
X152596153Y-84445604D01*
X151045405Y-82894856D01*
X151011379Y-82832544D01*
X151008500Y-82805761D01*
X151008500Y-80458136D01*
X151009578Y-80441690D01*
X151009620Y-80441375D01*
X151013750Y-80410000D01*
X151008500Y-80370120D01*
X151008500Y-80370115D01*
X150996409Y-80278277D01*
X150993916Y-80259338D01*
X150992838Y-80251150D01*
X150960498Y-80173074D01*
X150940565Y-80124950D01*
X150934684Y-80110752D01*
X150934683Y-80110750D01*
X150931524Y-80103124D01*
X150858477Y-80007929D01*
X150858476Y-80007927D01*
X150839017Y-79982567D01*
X150839013Y-79982563D01*
X150833987Y-79976013D01*
X150827437Y-79970987D01*
X150827434Y-79970984D01*
X150808620Y-79956548D01*
X150796229Y-79945681D01*
X149955405Y-79104857D01*
X149921379Y-79042545D01*
X149918500Y-79015762D01*
X149918500Y-78600000D01*
X163736771Y-78600000D01*
X163755635Y-78779475D01*
X163811401Y-78951107D01*
X163901633Y-79107393D01*
X164022387Y-79241504D01*
X164027729Y-79245385D01*
X164027731Y-79245387D01*
X164158767Y-79340590D01*
X164168385Y-79347578D01*
X164174413Y-79350262D01*
X164174415Y-79350263D01*
X164286164Y-79400017D01*
X164333248Y-79420980D01*
X164413609Y-79438061D01*
X164503311Y-79457128D01*
X164503315Y-79457128D01*
X164509768Y-79458500D01*
X164690232Y-79458500D01*
X164696685Y-79457128D01*
X164696689Y-79457128D01*
X164786391Y-79438061D01*
X164866752Y-79420980D01*
X164913836Y-79400017D01*
X165025585Y-79350263D01*
X165025587Y-79350262D01*
X165031615Y-79347578D01*
X165080020Y-79312410D01*
X165121099Y-79282564D01*
X165187967Y-79258705D01*
X165195160Y-79258500D01*
X166975049Y-79258500D01*
X167043170Y-79278502D01*
X167064144Y-79295404D01*
X167804595Y-80035854D01*
X167838620Y-80098167D01*
X167841500Y-80124950D01*
X167841500Y-82199964D01*
X167821498Y-82268085D01*
X167809142Y-82284267D01*
X167801633Y-82292607D01*
X167711401Y-82448893D01*
X167655635Y-82620525D01*
X167636771Y-82800000D01*
X167637461Y-82806565D01*
X167654918Y-82972649D01*
X167655635Y-82979475D01*
X167711401Y-83151107D01*
X167801633Y-83307393D01*
X167922387Y-83441504D01*
X167927729Y-83445385D01*
X167927731Y-83445387D01*
X168018563Y-83511380D01*
X168068385Y-83547578D01*
X168074413Y-83550262D01*
X168074415Y-83550263D01*
X168111212Y-83566646D01*
X168233248Y-83620980D01*
X168321508Y-83639740D01*
X168403311Y-83657128D01*
X168403315Y-83657128D01*
X168409768Y-83658500D01*
X168590232Y-83658500D01*
X168596685Y-83657128D01*
X168596689Y-83657128D01*
X168678492Y-83639740D01*
X168766752Y-83620980D01*
X168888788Y-83566646D01*
X168925585Y-83550263D01*
X168925587Y-83550262D01*
X168931615Y-83547578D01*
X168981437Y-83511380D01*
X169072269Y-83445387D01*
X169072271Y-83445385D01*
X169077613Y-83441504D01*
X169198367Y-83307393D01*
X169288599Y-83151107D01*
X169344365Y-82979475D01*
X169345083Y-82972649D01*
X169362539Y-82806565D01*
X169363229Y-82800000D01*
X169344365Y-82620525D01*
X169288599Y-82448893D01*
X169198367Y-82292607D01*
X169190862Y-82284272D01*
X169160146Y-82220266D01*
X169158500Y-82199964D01*
X169158500Y-81076695D01*
X170057251Y-81076695D01*
X170057548Y-81081848D01*
X170057548Y-81081851D01*
X170063011Y-81176590D01*
X170070110Y-81299715D01*
X170071247Y-81304761D01*
X170071248Y-81304767D01*
X170091119Y-81392939D01*
X170119222Y-81517639D01*
X170203266Y-81724616D01*
X170319987Y-81915088D01*
X170466250Y-82083938D01*
X170638126Y-82226632D01*
X170831000Y-82339338D01*
X171039692Y-82419030D01*
X171044760Y-82420061D01*
X171044763Y-82420062D01*
X171152017Y-82441883D01*
X171258597Y-82463567D01*
X171263772Y-82463757D01*
X171263774Y-82463757D01*
X171476673Y-82471564D01*
X171476677Y-82471564D01*
X171481837Y-82471753D01*
X171486957Y-82471097D01*
X171486959Y-82471097D01*
X171698288Y-82444025D01*
X171698289Y-82444025D01*
X171703416Y-82443368D01*
X171708366Y-82441883D01*
X171912429Y-82380661D01*
X171912434Y-82380659D01*
X171917384Y-82379174D01*
X172117994Y-82280896D01*
X172299860Y-82151173D01*
X172458096Y-81993489D01*
X172517594Y-81910689D01*
X172585435Y-81816277D01*
X172588453Y-81812077D01*
X172687430Y-81611811D01*
X172752370Y-81398069D01*
X172781529Y-81176590D01*
X172783156Y-81110000D01*
X172764852Y-80887361D01*
X172710431Y-80670702D01*
X172621354Y-80465840D01*
X172500014Y-80278277D01*
X172482781Y-80259338D01*
X172352798Y-80116488D01*
X172321746Y-80052642D01*
X172330141Y-79982143D01*
X172375317Y-79927375D01*
X172401761Y-79913706D01*
X172508297Y-79873767D01*
X172516705Y-79870615D01*
X172633261Y-79783261D01*
X172720615Y-79666705D01*
X172771745Y-79530316D01*
X172778500Y-79468134D01*
X172778500Y-77671866D01*
X172771745Y-77609684D01*
X172720615Y-77473295D01*
X172633261Y-77356739D01*
X172516705Y-77269385D01*
X172380316Y-77218255D01*
X172318134Y-77211500D01*
X170521866Y-77211500D01*
X170459684Y-77218255D01*
X170323295Y-77269385D01*
X170206739Y-77356739D01*
X170119385Y-77473295D01*
X170068255Y-77609684D01*
X170061500Y-77671866D01*
X170061500Y-79468134D01*
X170068255Y-79530316D01*
X170119385Y-79666705D01*
X170206739Y-79783261D01*
X170323295Y-79870615D01*
X170331704Y-79873767D01*
X170331705Y-79873768D01*
X170440451Y-79914535D01*
X170497216Y-79957176D01*
X170521916Y-80023738D01*
X170506709Y-80093087D01*
X170487316Y-80119568D01*
X170368865Y-80243520D01*
X170360629Y-80252138D01*
X170234743Y-80436680D01*
X170140688Y-80639305D01*
X170080989Y-80854570D01*
X170057251Y-81076695D01*
X169158500Y-81076695D01*
X169158500Y-79882056D01*
X169159059Y-79870200D01*
X169159059Y-79870197D01*
X169160788Y-79862463D01*
X169158562Y-79791631D01*
X169158500Y-79787673D01*
X169158500Y-79758568D01*
X169157944Y-79754168D01*
X169157012Y-79742330D01*
X169155811Y-79704094D01*
X169155562Y-79696169D01*
X169149580Y-79675579D01*
X169145570Y-79656216D01*
X169143875Y-79642796D01*
X169143875Y-79642795D01*
X169142882Y-79634936D01*
X169139966Y-79627571D01*
X169139965Y-79627567D01*
X169125874Y-79591979D01*
X169122035Y-79580769D01*
X169109145Y-79536400D01*
X169098229Y-79517943D01*
X169089534Y-79500193D01*
X169081635Y-79480244D01*
X169075305Y-79471531D01*
X169054477Y-79442864D01*
X169047960Y-79432943D01*
X169024452Y-79393193D01*
X169009291Y-79378032D01*
X168996449Y-79362997D01*
X168983841Y-79345643D01*
X168948242Y-79316193D01*
X168939463Y-79308204D01*
X167823655Y-78192396D01*
X167815663Y-78183613D01*
X167815663Y-78183612D01*
X167811416Y-78176920D01*
X167759741Y-78128394D01*
X167756900Y-78125640D01*
X167736333Y-78105073D01*
X167732826Y-78102353D01*
X167723804Y-78094647D01*
X167695913Y-78068456D01*
X167690133Y-78063028D01*
X167683181Y-78059206D01*
X167671342Y-78052697D01*
X167654818Y-78041843D01*
X167644132Y-78033555D01*
X167637868Y-78028696D01*
X167630596Y-78025549D01*
X167630594Y-78025548D01*
X167595465Y-78010346D01*
X167584805Y-78005124D01*
X167551284Y-77986695D01*
X167551282Y-77986694D01*
X167544337Y-77982876D01*
X167523559Y-77977541D01*
X167504869Y-77971142D01*
X167485176Y-77962620D01*
X167439552Y-77955394D01*
X167427929Y-77952987D01*
X167399928Y-77945798D01*
X167383188Y-77941500D01*
X167361741Y-77941500D01*
X167342031Y-77939949D01*
X167328677Y-77937834D01*
X167320848Y-77936594D01*
X167274859Y-77940941D01*
X167263004Y-77941500D01*
X165195160Y-77941500D01*
X165127039Y-77921498D01*
X165121099Y-77917436D01*
X165036957Y-77856303D01*
X165036956Y-77856302D01*
X165031615Y-77852422D01*
X165025587Y-77849738D01*
X165025585Y-77849737D01*
X164872783Y-77781705D01*
X164872781Y-77781705D01*
X164866752Y-77779020D01*
X164778492Y-77760260D01*
X164696689Y-77742872D01*
X164696685Y-77742872D01*
X164690232Y-77741500D01*
X164509768Y-77741500D01*
X164503315Y-77742872D01*
X164503311Y-77742872D01*
X164421508Y-77760260D01*
X164333248Y-77779020D01*
X164327219Y-77781704D01*
X164327217Y-77781705D01*
X164174416Y-77849737D01*
X164174414Y-77849738D01*
X164168386Y-77852422D01*
X164163045Y-77856302D01*
X164163044Y-77856303D01*
X164027731Y-77954613D01*
X164027729Y-77954615D01*
X164022387Y-77958496D01*
X164017966Y-77963406D01*
X164017965Y-77963407D01*
X163923379Y-78068456D01*
X163901633Y-78092607D01*
X163811401Y-78248893D01*
X163755635Y-78420525D01*
X163736771Y-78600000D01*
X149918500Y-78600000D01*
X149918500Y-77671866D01*
X149911745Y-77609684D01*
X149860615Y-77473295D01*
X149773261Y-77356739D01*
X149656705Y-77269385D01*
X149520316Y-77218255D01*
X149458134Y-77211500D01*
X147661866Y-77211500D01*
X147599684Y-77218255D01*
X147463295Y-77269385D01*
X147346739Y-77356739D01*
X147259385Y-77473295D01*
X147208255Y-77609684D01*
X147201500Y-77671866D01*
X147201500Y-79468134D01*
X147208255Y-79530316D01*
X147259385Y-79666705D01*
X147346739Y-79783261D01*
X147463295Y-79870615D01*
X147471704Y-79873767D01*
X147471705Y-79873768D01*
X147580451Y-79914535D01*
X147637216Y-79957176D01*
X147661916Y-80023738D01*
X147646709Y-80093087D01*
X147627316Y-80119568D01*
X147508865Y-80243520D01*
X147500629Y-80252138D01*
X147374743Y-80436680D01*
X147280688Y-80639305D01*
X147220989Y-80854570D01*
X147197251Y-81076695D01*
X147197548Y-81081848D01*
X147197548Y-81081851D01*
X147203011Y-81176590D01*
X147210110Y-81299715D01*
X147211247Y-81304761D01*
X147211248Y-81304767D01*
X147231119Y-81392939D01*
X147259222Y-81517639D01*
X147343266Y-81724616D01*
X147459987Y-81915088D01*
X147606250Y-82083938D01*
X147778126Y-82226632D01*
X147815258Y-82248330D01*
X147851955Y-82269774D01*
X147900679Y-82321412D01*
X147913750Y-82391195D01*
X147887019Y-82456967D01*
X147846562Y-82490327D01*
X147838457Y-82494546D01*
X147829738Y-82500036D01*
X147659433Y-82627905D01*
X147651726Y-82634748D01*
X147504590Y-82788717D01*
X147498104Y-82796727D01*
X147378098Y-82972649D01*
X147373000Y-82981623D01*
X147283338Y-83174783D01*
X147279775Y-83184470D01*
X147224389Y-83384183D01*
X147225912Y-83392607D01*
X147238292Y-83396000D01*
X148688000Y-83396000D01*
X148756121Y-83416002D01*
X148802614Y-83469658D01*
X148814000Y-83522000D01*
X148814000Y-83778000D01*
X148793998Y-83846121D01*
X148740342Y-83892614D01*
X148688000Y-83904000D01*
X147243225Y-83904000D01*
X147229694Y-83907973D01*
X147228257Y-83917966D01*
X147258565Y-84052446D01*
X147261645Y-84062275D01*
X147341770Y-84259603D01*
X147346413Y-84268794D01*
X147457694Y-84450388D01*
X147463777Y-84458699D01*
X147603213Y-84619667D01*
X147610580Y-84626883D01*
X147774434Y-84762916D01*
X147782881Y-84768831D01*
X147851969Y-84809203D01*
X147900693Y-84860842D01*
X147913764Y-84930625D01*
X147887033Y-84996396D01*
X147846584Y-85029752D01*
X147833607Y-85036507D01*
X147829474Y-85039610D01*
X147829471Y-85039612D01*
X147659100Y-85167530D01*
X147654965Y-85170635D01*
X147500629Y-85332138D01*
X147374743Y-85516680D01*
X147340513Y-85590422D01*
X147307974Y-85660523D01*
X147280688Y-85719305D01*
X147220989Y-85934570D01*
X147197251Y-86156695D01*
X147197548Y-86161848D01*
X147197548Y-86161851D01*
X147208198Y-86346548D01*
X147210110Y-86379715D01*
X147211247Y-86384761D01*
X147211248Y-86384767D01*
X147226717Y-86453407D01*
X147259222Y-86597639D01*
X147313171Y-86730500D01*
X147340712Y-86798325D01*
X147343266Y-86804616D01*
X147345965Y-86809020D01*
X147447830Y-86975249D01*
X147459987Y-86995088D01*
X147606250Y-87163938D01*
X147778126Y-87306632D01*
X147837202Y-87341153D01*
X147851445Y-87349476D01*
X147900169Y-87401114D01*
X147913240Y-87470897D01*
X147886509Y-87536669D01*
X147846055Y-87570027D01*
X147833607Y-87576507D01*
X147829474Y-87579610D01*
X147829471Y-87579612D01*
X147659100Y-87707530D01*
X147654965Y-87710635D01*
X147651393Y-87714373D01*
X147512267Y-87859960D01*
X147500629Y-87872138D01*
X147497715Y-87876410D01*
X147497714Y-87876411D01*
X147440560Y-87960196D01*
X147374743Y-88056680D01*
X147359324Y-88089898D01*
X147283078Y-88254157D01*
X147280688Y-88259305D01*
X147220989Y-88474570D01*
X147197251Y-88696695D01*
X147197548Y-88701848D01*
X147197548Y-88701851D01*
X147200272Y-88749091D01*
X147210110Y-88919715D01*
X147211247Y-88924761D01*
X147211248Y-88924767D01*
X147219264Y-88960336D01*
X147259222Y-89137639D01*
X147343266Y-89344616D01*
X147377950Y-89401216D01*
X147438130Y-89499420D01*
X147459987Y-89535088D01*
X147606250Y-89703938D01*
X147778126Y-89846632D01*
X147844415Y-89885368D01*
X147851445Y-89889476D01*
X147900169Y-89941114D01*
X147913240Y-90010897D01*
X147886509Y-90076669D01*
X147846055Y-90110027D01*
X147833607Y-90116507D01*
X147829474Y-90119610D01*
X147829471Y-90119612D01*
X147659100Y-90247530D01*
X147654965Y-90250635D01*
X147500629Y-90412138D01*
X147374743Y-90596680D01*
X147356785Y-90635368D01*
X147309393Y-90737466D01*
X147280688Y-90799305D01*
X147220989Y-91014570D01*
X147197251Y-91236695D01*
X147197548Y-91241848D01*
X147197548Y-91241851D01*
X147204667Y-91365316D01*
X147210110Y-91459715D01*
X147211247Y-91464761D01*
X147211248Y-91464767D01*
X147225501Y-91528009D01*
X147259222Y-91677639D01*
X147343266Y-91884616D01*
X147459987Y-92075088D01*
X147606250Y-92243938D01*
X147778126Y-92386632D01*
X147840137Y-92422868D01*
X147851445Y-92429476D01*
X147900169Y-92481114D01*
X147913240Y-92550897D01*
X147886509Y-92616669D01*
X147846055Y-92650027D01*
X147839647Y-92653363D01*
X147833607Y-92656507D01*
X147829474Y-92659610D01*
X147829471Y-92659612D01*
X147659100Y-92787530D01*
X147654965Y-92790635D01*
X147651393Y-92794373D01*
X147519870Y-92932004D01*
X147500629Y-92952138D01*
X147374743Y-93136680D01*
X147368982Y-93149091D01*
X147283157Y-93333987D01*
X147280688Y-93339305D01*
X147220989Y-93554570D01*
X147197251Y-93776695D01*
X147197548Y-93781848D01*
X147197548Y-93781851D01*
X147203011Y-93876590D01*
X147210110Y-93999715D01*
X147211247Y-94004761D01*
X147211248Y-94004767D01*
X147217330Y-94031753D01*
X147259222Y-94217639D01*
X147343266Y-94424616D01*
X147459987Y-94615088D01*
X147606250Y-94783938D01*
X147778126Y-94926632D01*
X147838824Y-94962101D01*
X147851445Y-94969476D01*
X147900169Y-95021114D01*
X147913240Y-95090897D01*
X147886509Y-95156669D01*
X147846055Y-95190027D01*
X147833607Y-95196507D01*
X147829474Y-95199610D01*
X147829471Y-95199612D01*
X147659100Y-95327530D01*
X147654965Y-95330635D01*
X147627795Y-95359067D01*
X147558696Y-95431375D01*
X147500629Y-95492138D01*
X147374743Y-95676680D01*
X147337092Y-95757792D01*
X147296148Y-95846000D01*
X147280688Y-95879305D01*
X147220989Y-96094570D01*
X147197251Y-96316695D01*
X147197548Y-96321848D01*
X147197548Y-96321851D01*
X147208536Y-96512425D01*
X147210110Y-96539715D01*
X147211247Y-96544761D01*
X147211248Y-96544767D01*
X147235304Y-96651508D01*
X147259222Y-96757639D01*
X147343266Y-96964616D01*
X147459987Y-97155088D01*
X147606250Y-97323938D01*
X147691587Y-97394786D01*
X147772022Y-97461564D01*
X147778126Y-97466632D01*
X147848595Y-97507811D01*
X147851445Y-97509476D01*
X147900169Y-97561114D01*
X147913240Y-97630897D01*
X147886509Y-97696669D01*
X147846055Y-97730027D01*
X147833607Y-97736507D01*
X147829474Y-97739610D01*
X147829471Y-97739612D01*
X147659100Y-97867530D01*
X147654965Y-97870635D01*
X147500629Y-98032138D01*
X147374743Y-98216680D01*
X147280688Y-98419305D01*
X147220989Y-98634570D01*
X147197251Y-98856695D01*
X147197548Y-98861848D01*
X147197548Y-98861851D01*
X147209812Y-99074547D01*
X147210110Y-99079715D01*
X147211247Y-99084761D01*
X147211248Y-99084767D01*
X147232275Y-99178069D01*
X147259222Y-99297639D01*
X147343266Y-99504616D01*
X147345965Y-99509020D01*
X147455023Y-99686987D01*
X147459987Y-99695088D01*
X147606250Y-99863938D01*
X147778126Y-100006632D01*
X147848595Y-100047811D01*
X147851445Y-100049476D01*
X147900169Y-100101114D01*
X147913240Y-100170897D01*
X147886509Y-100236669D01*
X147846055Y-100270027D01*
X147833607Y-100276507D01*
X147829474Y-100279610D01*
X147829471Y-100279612D01*
X147665018Y-100403087D01*
X147654965Y-100410635D01*
X147500629Y-100572138D01*
X147374743Y-100756680D01*
X147327715Y-100857993D01*
X147283013Y-100954297D01*
X147280688Y-100959305D01*
X147220989Y-101174570D01*
X147197251Y-101396695D01*
X145508500Y-101396695D01*
X145508500Y-77053250D01*
X145510246Y-77032345D01*
X145512770Y-77017344D01*
X145512770Y-77017341D01*
X145513576Y-77012552D01*
X145513729Y-77000000D01*
X145513040Y-76995186D01*
X145513039Y-76995176D01*
X145512157Y-76989017D01*
X145511206Y-76962172D01*
X145523038Y-76796723D01*
X145525596Y-76778934D01*
X145566999Y-76588607D01*
X145572063Y-76571359D01*
X145640136Y-76388850D01*
X145647604Y-76372498D01*
X145740952Y-76201542D01*
X145750672Y-76186418D01*
X145867402Y-76030486D01*
X145879175Y-76016900D01*
X146016900Y-75879175D01*
X146030486Y-75867402D01*
X146186418Y-75750672D01*
X146201542Y-75740952D01*
X146372498Y-75647604D01*
X146388850Y-75640136D01*
X146571359Y-75572063D01*
X146588608Y-75566999D01*
X146778936Y-75525596D01*
X146796715Y-75523039D01*
X146958605Y-75511460D01*
X146976565Y-75512207D01*
X146984845Y-75512308D01*
X146993724Y-75513691D01*
X147025286Y-75509564D01*
X147041621Y-75508500D01*
X172950633Y-75508500D01*
X172970018Y-75510000D01*
G37*
%TD.AperFunction*%
%TA.AperFunction,Conductor*%
G36*
X165071207Y-90109502D02*
G01*
X165112205Y-90152500D01*
X165118234Y-90162942D01*
X165201633Y-90307393D01*
X165206051Y-90312300D01*
X165206052Y-90312301D01*
X165264555Y-90377275D01*
X165322387Y-90441504D01*
X165345853Y-90458553D01*
X165414473Y-90508409D01*
X165457827Y-90564632D01*
X165463902Y-90635368D01*
X165429507Y-90699440D01*
X164874352Y-91254595D01*
X164812040Y-91288621D01*
X164785257Y-91291500D01*
X161361103Y-91291500D01*
X161292982Y-91271498D01*
X161279664Y-91261329D01*
X161277113Y-91258496D01*
X161266671Y-91250909D01*
X161136457Y-91156303D01*
X161136456Y-91156302D01*
X161131115Y-91152422D01*
X161125087Y-91149738D01*
X161125085Y-91149737D01*
X160972283Y-91081705D01*
X160972281Y-91081705D01*
X160966252Y-91079020D01*
X160864551Y-91057403D01*
X160796189Y-91042872D01*
X160796185Y-91042872D01*
X160789732Y-91041500D01*
X160609268Y-91041500D01*
X160602815Y-91042872D01*
X160602811Y-91042872D01*
X160534449Y-91057403D01*
X160432748Y-91079020D01*
X160426719Y-91081704D01*
X160426717Y-91081705D01*
X160273916Y-91149737D01*
X160273914Y-91149738D01*
X160267886Y-91152422D01*
X160262545Y-91156302D01*
X160262544Y-91156303D01*
X160127231Y-91254613D01*
X160127229Y-91254615D01*
X160121887Y-91258496D01*
X160120627Y-91259895D01*
X160058199Y-91289854D01*
X160037897Y-91291500D01*
X156848144Y-91291500D01*
X156831698Y-91290422D01*
X156808188Y-91287327D01*
X156800000Y-91286249D01*
X156641149Y-91307162D01*
X156493124Y-91368476D01*
X156447305Y-91403634D01*
X156397937Y-91441515D01*
X156397921Y-91441529D01*
X156372566Y-91460984D01*
X156372563Y-91460987D01*
X156366013Y-91466013D01*
X156360987Y-91472563D01*
X156360984Y-91472566D01*
X156353804Y-91481923D01*
X156296465Y-91523789D01*
X156225594Y-91528009D01*
X156163692Y-91493244D01*
X156155710Y-91483784D01*
X156154453Y-91481607D01*
X156146313Y-91472566D01*
X156038121Y-91352407D01*
X156038120Y-91352406D01*
X156033699Y-91347496D01*
X156018689Y-91336590D01*
X155893043Y-91245303D01*
X155893042Y-91245302D01*
X155887701Y-91241422D01*
X155881673Y-91238738D01*
X155881671Y-91238737D01*
X155728869Y-91170705D01*
X155728867Y-91170705D01*
X155722838Y-91168020D01*
X155615990Y-91145309D01*
X155552775Y-91131872D01*
X155552771Y-91131872D01*
X155546318Y-91130500D01*
X155365854Y-91130500D01*
X155359397Y-91131872D01*
X155352826Y-91132563D01*
X155352559Y-91130027D01*
X155293188Y-91125497D01*
X155236555Y-91082682D01*
X155228661Y-91070652D01*
X155184834Y-90994741D01*
X155184831Y-90994736D01*
X155181532Y-90989023D01*
X155159805Y-90964892D01*
X155065200Y-90859823D01*
X155065199Y-90859822D01*
X155060778Y-90854912D01*
X155043293Y-90842208D01*
X154920122Y-90752719D01*
X154920121Y-90752718D01*
X154914780Y-90748838D01*
X154908752Y-90746154D01*
X154908750Y-90746153D01*
X154755948Y-90678121D01*
X154755946Y-90678121D01*
X154749917Y-90675436D01*
X154661657Y-90656676D01*
X154579854Y-90639288D01*
X154579850Y-90639288D01*
X154573397Y-90637916D01*
X154392933Y-90637916D01*
X154386480Y-90639288D01*
X154386476Y-90639288D01*
X154304673Y-90656676D01*
X154216413Y-90675436D01*
X154210384Y-90678120D01*
X154210382Y-90678121D01*
X154057581Y-90746153D01*
X154057579Y-90746154D01*
X154051551Y-90748838D01*
X154046210Y-90752718D01*
X154046209Y-90752719D01*
X153910896Y-90851029D01*
X153910894Y-90851031D01*
X153905552Y-90854912D01*
X153904292Y-90856311D01*
X153841864Y-90886270D01*
X153821562Y-90887916D01*
X153751720Y-90887916D01*
X153735274Y-90886838D01*
X153711772Y-90883744D01*
X153703584Y-90882666D01*
X153695396Y-90883744D01*
X153663713Y-90887915D01*
X153663704Y-90887916D01*
X153663699Y-90887916D01*
X153544734Y-90903578D01*
X153396709Y-90964892D01*
X153396707Y-90964893D01*
X153396708Y-90964893D01*
X153301512Y-91037939D01*
X153301509Y-91037942D01*
X153269597Y-91062429D01*
X153264567Y-91068984D01*
X153250132Y-91087795D01*
X153239265Y-91100186D01*
X150096072Y-94243379D01*
X150033760Y-94277405D01*
X149962945Y-94272340D01*
X149906109Y-94229793D01*
X149881298Y-94163273D01*
X149886419Y-94117657D01*
X149892370Y-94098069D01*
X149921529Y-93876590D01*
X149921935Y-93859974D01*
X149923074Y-93813365D01*
X149923074Y-93813361D01*
X149923156Y-93810000D01*
X149904852Y-93587361D01*
X149897425Y-93557792D01*
X149852458Y-93378770D01*
X149855262Y-93307829D01*
X149885567Y-93258980D01*
X153018142Y-90126405D01*
X153080454Y-90092379D01*
X153107237Y-90089500D01*
X165003086Y-90089500D01*
X165071207Y-90109502D01*
G37*
%TD.AperFunction*%
%TD*%
M02*
